<svg width="302" height="182" viewBox="0 0 302 182" fill="none" xmlns="http://www.w3.org/2000/svg">
<rect x="249.46" y="158.562" width="2.14162" height="6.5156" rx="1" fill="#715959"/>
<path d="M249.661 144.704C250.045 144.031 251.016 144.031 251.399 144.704L256.171 153.085C256.55 153.752 256.069 154.58 255.302 154.58H245.759C244.992 154.58 244.51 153.752 244.89 153.085L249.661 144.704Z" fill="#618C72"/>
<path d="M249.661 149.953C250.045 149.279 251.016 149.279 251.399 149.953L256.171 158.334C256.55 159.001 256.069 159.829 255.302 159.829H245.759C244.992 159.829 244.51 159.001 244.89 158.334L249.661 149.953Z" fill="#618C72"/>
<rect x="48.5738" y="158.562" width="2.14162" height="6.5156" rx="1" fill="#715959"/>
<path d="M48.7746 144.704C49.1582 144.031 50.1292 144.031 50.5127 144.704L55.2841 153.085C55.6637 153.752 55.1822 154.58 54.4151 154.58H44.8722C44.1051 154.58 43.6237 153.752 44.0032 153.085L48.7746 144.704Z" fill="#618C72"/>
<path d="M48.7746 149.953C49.1582 149.279 50.1292 149.279 50.5127 149.953L55.2841 158.334C55.6637 159.001 55.1822 159.829 54.4151 159.829H44.8722C44.1051 159.829 43.6237 159.001 44.0032 158.334L48.7746 149.953Z" fill="#618C72"/>
<path d="M62.4501 170.884C61.2649 170.884 60.3042 169.923 60.3042 168.738V2.14582C60.3042 0.96071 61.265 0 62.4501 0H92.472C93.6571 0 94.6178 0.960722 94.6178 2.14583V64.8876C94.6178 66.4813 96.2937 67.5189 97.7202 66.8084L160.143 35.7217C161.569 35.0113 163.245 36.0489 163.245 37.6426V64.8876C163.245 66.4813 164.921 67.5189 166.347 66.8084L228.77 35.7217C230.196 35.0113 231.872 36.0489 231.872 37.6426V168.738C231.872 169.923 230.911 170.884 229.726 170.884H62.4501Z" fill="#551FAD" fill-opacity="0.2"/>
<path d="M133.221 140.999C133.221 138.629 135.142 136.707 137.512 136.707H154.664C157.034 136.707 158.956 138.629 158.956 140.999V170.884H133.221V140.999Z" fill="#AB97CA"/>
<g filter="url(#filter0_d_1208_7860)">
<path d="M244.137 116.197L250.501 109.833L261.926 121.257C263.488 122.82 263.488 125.352 261.926 126.914L261.218 127.621C259.656 129.183 257.124 129.183 255.562 127.621L244.137 116.197Z" fill="#7F6CA9"/>
<path fill-rule="evenodd" clip-rule="evenodd" d="M222.044 125.26C241.915 125.26 258.024 109.215 258.024 89.4237C258.024 69.6322 241.915 53.588 222.044 53.588C202.174 53.588 186.065 69.6322 186.065 89.4237C186.065 109.215 202.174 125.26 222.044 125.26ZM222.044 117.296C237.499 117.296 250.028 104.817 250.028 89.4237C250.028 74.0303 237.499 61.5515 222.044 61.5515C206.589 61.5515 194.06 74.0303 194.06 89.4237C194.06 104.817 206.589 117.296 222.044 117.296Z" fill="#9872EA"/>
<g filter="url(#filter1_b_1208_7860)">
<ellipse cx="222.044" cy="89.4237" rx="27.9839" ry="27.8723" fill="white" fill-opacity="0.2"/>
</g>
</g>
<rect x="30.4429" y="154.44" width="4.42602" height="13.6236" rx="2.09092" fill="#715959"/>
<path d="M30.8324 125.512C31.6319 124.092 33.6775 124.092 34.4769 125.512L44.3168 142.999C45.1011 144.393 44.0939 146.115 42.4945 146.115H22.8148C21.2155 146.115 20.2083 144.393 20.9926 142.999L30.8324 125.512Z" fill="#5B9C75"/>
<path d="M30.8324 136.486C31.6319 135.066 33.6775 135.066 34.4769 136.486L44.3168 153.973C45.1011 155.367 44.0939 157.089 42.4945 157.089H22.8148C21.2155 157.089 20.2083 155.367 20.9926 153.973L30.8324 136.486Z" fill="#5B9C75"/>
<rect x="262.308" y="157.426" width="4.42602" height="13.6236" rx="2.09092" fill="#715959"/>
<path d="M262.698 128.498C263.497 127.078 265.543 127.078 266.342 128.498L276.182 145.985C276.966 147.379 275.959 149.101 274.36 149.101H254.68C253.081 149.101 252.073 147.379 252.858 145.985L262.698 128.498Z" fill="#5B9C75"/>
<path d="M262.698 139.473C263.497 138.052 265.543 138.052 266.342 139.473L276.182 156.959C276.966 158.353 275.959 160.076 274.36 160.076H254.68C253.081 160.076 252.073 158.353 252.858 156.959L262.698 139.473Z" fill="#5B9C75"/>
<ellipse cx="32.1549" cy="176.525" rx="4.99712" ry="2.4886" fill="#C6B8B8"/>
<ellipse cx="253.028" cy="179.511" rx="4.99712" ry="2.4886" fill="#C6B8B8"/>
<ellipse cx="283.509" cy="173.788" rx="3.49799" ry="1.74202" fill="#C6B8B8"/>
<ellipse cx="248.031" cy="170.552" rx="2.99827" ry="1.49316" fill="#A99494"/>
<ellipse cx="45.1482" cy="170.552" rx="2.99827" ry="1.49316" fill="#C4B1B1"/>
<ellipse cx="12.1666" cy="170.552" rx="4.99712" ry="2.4886" fill="#BDA6A6"/>
<path fill-rule="evenodd" clip-rule="evenodd" d="M281.011 44.6291C283.468 44.6291 285.629 45.8903 286.877 47.7982C287.777 46.4859 289.291 45.6245 291.006 45.6245C293.766 45.6245 296.004 47.8529 296.004 50.6017H296.004C299.316 50.6017 302 53.2758 302 56.5744C302 59.8729 299.316 62.547 296.004 62.547C295.104 62.547 294.251 62.3496 293.485 61.996C292.549 64.0807 290.449 65.5333 288.008 65.5333C286.441 65.5333 285.014 64.9346 283.946 63.9542C282.863 65.5099 281.058 66.5287 279.014 66.5287C276.248 66.5287 273.92 64.6642 273.227 62.1285C272.543 62.3985 271.798 62.547 271.018 62.547C267.706 62.547 265.021 59.8729 265.021 56.5744C265.021 53.2758 267.706 50.6017 271.018 50.6017C272.111 50.6017 273.135 50.893 274.018 51.4019C274.122 47.6438 277.213 44.6291 281.011 44.6291Z" fill="#DCE9F4"/>
<path fill-rule="evenodd" clip-rule="evenodd" d="M11.0791 61.5519C13.2827 61.5519 15.2046 62.7532 16.2207 64.5342C16.8925 63.6185 17.9789 63.0237 19.2048 63.0237C21.2446 63.0237 22.8981 64.6706 22.8983 66.7022L22.9005 66.7022C25.3484 66.7022 27.3328 68.6786 27.3328 71.1167C27.3328 73.5548 25.3484 75.5313 22.9005 75.5313C22.2349 75.5313 21.6036 75.3851 21.0371 75.1233C20.3457 76.6648 18.793 77.7389 16.9884 77.7389C15.83 77.7389 14.7753 77.2963 13.9857 76.5715C13.1856 77.7216 11.8511 78.4748 10.34 78.4748C8.29605 78.4748 6.57526 77.0968 6.06301 75.2227C5.55814 75.4218 5.00779 75.5313 4.43177 75.5313C1.98392 75.5313 -0.000457764 73.5548 -0.000457764 71.1167C-0.000457764 68.6786 1.98392 66.7022 4.43177 66.7022C4.69629 66.7022 4.95539 66.7252 5.20716 66.7695C5.54041 63.8335 8.04225 61.5519 11.0791 61.5519Z" fill="#DCECFB"/>
<defs>
<filter id="filter0_d_1208_7860" x="180.065" y="48.588" width="89.032" height="87.205" filterUnits="userSpaceOnUse" color-interpolation-filters="sRGB">
<feFlood flood-opacity="0" result="BackgroundImageFix"/>
<feColorMatrix in="SourceAlpha" type="matrix" values="0 0 0 0 0 0 0 0 0 0 0 0 0 0 0 0 0 0 127 0" result="hardAlpha"/>
<feOffset dy="1"/>
<feGaussianBlur stdDeviation="3"/>
<feComposite in2="hardAlpha" operator="out"/>
<feColorMatrix type="matrix" values="0 0 0 0 0 0 0 0 0 0 0 0 0 0 0 0 0 0 0.25 0"/>
<feBlend mode="normal" in2="BackgroundImageFix" result="effect1_dropShadow_1208_7860"/>
<feBlend mode="normal" in="SourceGraphic" in2="effect1_dropShadow_1208_7860" result="shape"/>
</filter>
<filter id="filter1_b_1208_7860" x="190.06" y="57.5515" width="63.9678" height="63.7446" filterUnits="userSpaceOnUse" color-interpolation-filters="sRGB">
<feFlood flood-opacity="0" result="BackgroundImageFix"/>
<feGaussianBlur in="BackgroundImageFix" stdDeviation="2"/>
<feComposite in2="SourceAlpha" operator="in" result="effect1_backgroundBlur_1208_7860"/>
<feBlend mode="normal" in="SourceGraphic" in2="effect1_backgroundBlur_1208_7860" result="shape"/>
</filter>
</defs>
</svg>
