<svg width="302" height="245" viewBox="0 0 302 245" fill="none" xmlns="http://www.w3.org/2000/svg">
<path d="M205.135 79.1613L208.721 79.4937L208.56 80.985L203.916 80.4909L205.135 79.1613Z" fill="#BFBFBF"/>
<path d="M203.529 81.4609L208.5 81.9993L208.339 83.4906L203.368 82.9522L203.529 81.4609Z" fill="#BFBFBF"/>
<path d="M56 180C80.0179 175.057 123.677 156.184 131.612 122.804C140.507 85.3802 186.912 79.9662 205 81.143" stroke="#F5982C" stroke-width="4"/>
<path d="M62 187C85.8567 182.007 129.223 162.943 137.104 129.226C145.94 91.4244 192.034 85.9557 210 87.1445" stroke="#F0F0F0" stroke-width="4"/>
<path d="M81.3043 212.447C81.6407 212.447 81.9497 212.262 82.1072 211.965C83.6748 209.01 84.1502 205.601 83.5182 201.834C82.9198 198.266 81.3539 194.525 78.8638 190.715C73.8032 182.97 65.4602 175.755 55.3726 170.399C45.2849 165.042 34.6352 162.175 25.3831 162.321C20.8323 162.393 16.856 163.191 13.5658 164.694C10.0905 166.282 7.53408 168.584 5.96463 171.54C5.72973 171.982 5.89816 172.532 6.34084 172.766C6.78352 173.001 7.33282 172.833 7.56772 172.39C8.94508 169.797 11.2165 167.762 14.3191 166.345C17.381 164.948 21.1129 164.204 25.4123 164.132C34.3616 163.989 44.6998 166.788 54.521 171.998C64.3422 177.208 72.4488 184.215 77.3448 191.708C79.6968 195.308 81.1715 198.815 81.7283 202.135C82.2931 205.498 81.8806 208.519 80.5032 211.113C80.3542 211.394 80.3628 211.732 80.5257 212.005C80.6886 212.277 80.9822 212.445 81.2999 212.447H81.3043Z" fill="#FF7946"/>
<path opacity="0.33" d="M45.4638 221.497C27.5498 221.497 13.0276 206.975 13.0276 189.061C13.0276 171.147 27.5498 156.625 45.4638 156.625C63.3778 156.625 77.8999 171.147 77.8999 189.061C77.8999 206.975 63.3778 221.497 45.4638 221.497Z" fill="#4E5C93"/>
<path d="M23.6535 196.935C21.7432 191.84 20.7872 189.929 23.6535 189.062C26.5197 188.195 30.6598 193.75 34.4838 191.071C38.3078 188.391 33.21 182.605 34.8025 179.292C36.3949 175.98 38.3061 175.598 37.3501 169.339C36.865 166.163 33.9253 162.644 31.1466 159.95C35.599 157.756 40.4969 156.619 45.4602 156.625C46.7566 156.625 48.0518 156.702 49.3391 156.855C46.649 162.751 51.53 167.05 55.1814 173.015C59.6401 180.305 58.0476 184.833 48.8124 186.588C39.5772 188.342 40.5323 199.483 48.8124 202.344C57.0925 205.206 54.5449 193.432 59.6401 193.375C64.7353 193.317 69.8305 192.158 70.1491 187.386C70.3262 184.68 73.7882 182.15 76.7491 180.466C77.5155 183.267 77.9026 186.158 77.8999 189.062C77.8999 206.976 63.3774 221.498 45.4629 221.498C37.157 221.509 29.1657 218.322 23.1463 212.599C25.4283 207.311 25.0538 200.67 23.6535 196.935Z" fill="#597EF7"/>
<path d="M70.149 187.386C69.8304 192.158 64.7352 193.317 59.64 193.375C54.5448 193.432 57.0924 205.215 48.8123 202.349C40.5322 199.483 39.5771 188.342 48.8123 186.592C58.0475 184.842 59.64 180.307 55.1813 173.02C51.5334 167.054 46.6525 162.751 49.339 156.86C62.5443 158.428 73.3127 167.931 76.749 180.466C73.7863 182.15 70.3296 184.68 70.149 187.386Z" fill="#4E5C93"/>
<path d="M70.149 187.386C69.8304 192.158 64.7352 193.317 59.64 193.375C54.5448 193.432 57.0924 205.215 48.8123 202.349C40.5322 199.483 39.5771 188.342 48.8123 186.592C58.0475 184.842 59.64 180.307 55.1813 173.02C51.5334 167.054 46.6525 162.751 49.339 156.86C62.5443 158.428 73.3127 167.931 76.749 180.466C73.7863 182.15 70.3296 184.68 70.149 187.386Z" fill="#E4EBF7"/>
<path d="M13.0276 189.062C13.0276 176.288 20.4119 165.239 31.1439 159.95C33.9226 162.644 36.8623 166.163 37.3474 169.339C38.3034 175.598 36.3923 175.978 34.7998 179.292C33.2073 182.606 38.3034 188.391 34.4838 191.071C30.6642 193.75 26.517 188.195 23.6534 189.062C20.7898 189.93 21.7432 191.84 23.6534 196.935C25.0538 200.67 25.4283 207.311 23.1462 212.603C16.6765 206.483 13.016 197.967 13.0276 189.062Z" fill="#7CB305"/>
<path d="M33.1232 213.211C33.5405 213.212 33.9048 212.928 34.0059 212.523C34.1069 212.118 33.9188 211.697 33.5499 211.502C23.7242 206.287 15.6229 199.286 10.7269 191.796C8.37055 188.197 6.90025 184.686 6.34346 181.369C5.77871 178.005 6.19033 174.984 7.56769 172.39C7.80259 171.948 7.63416 171.398 7.19148 171.163C6.7488 170.929 6.1995 171.097 5.9646 171.54C4.39604 174.494 3.92069 177.902 4.54829 181.67C5.14757 185.238 6.71347 188.979 9.20263 192.789C14.2633 200.534 22.6062 207.748 32.6948 213.105C32.8266 213.175 32.9738 213.212 33.1232 213.211Z" fill="#FAAD14"/>
<path d="M61.8336 225.321C57.8722 225.321 54.6609 222.11 54.6609 218.149C54.6609 214.187 57.8722 210.976 61.8336 210.976C65.795 210.976 69.0063 214.187 69.0063 218.149C69.0063 222.11 65.795 225.321 61.8336 225.321Z" fill="#FAAD14"/>
<ellipse cx="44" cy="240" rx="16" ry="5" fill="#F0F0F0"/>
<path fill-rule="evenodd" clip-rule="evenodd" d="M247.472 79.3959H259.172V70.203H247.472V79.3959Z" fill="#524053"/>
<path fill-rule="evenodd" clip-rule="evenodd" d="M266.261 82.5439H240.772C239.734 82.5439 238.892 81.702 238.892 80.6636C238.892 79.625 239.734 78.7832 240.772 78.7832H266.261C267.3 78.7832 268.142 79.625 268.142 80.6636C268.142 81.702 267.3 82.5439 266.261 82.5439Z" fill="#E1D4F7"/>
<path fill-rule="evenodd" clip-rule="evenodd" d="M292.632 70.7999H213.453C211.509 70.7999 209.934 69.2243 209.934 67.2805V19.0233C209.934 17.0796 211.509 15.5039 213.453 15.5039H292.632C294.575 15.5039 296.151 17.0796 296.151 19.0233V67.2805C296.151 69.2243 294.575 70.7999 292.632 70.7999Z" fill="#E1D4F7"/>
<path fill-rule="evenodd" clip-rule="evenodd" d="M291.009 67.9419H214.675C213.834 67.9419 213.151 67.246 213.151 66.3876V20.8789C213.151 20.0206 213.834 19.3247 214.675 19.3247H291.009C291.851 19.3247 292.534 20.0206 292.534 20.8789V66.3876C292.534 67.246 291.851 67.9419 291.009 67.9419Z" fill="#4F4063"/>
<ellipse cx="253" cy="87.5" rx="10" ry="2.5" fill="#F0F0F0"/>
<rect x="89" y="98" width="3" height="9" rx="1" fill="#715959"/>
<path d="M89.634 85.5C90.0189 84.8333 90.9811 84.8333 91.366 85.5L98.7272 98.25C99.1121 98.9167 98.631 99.75 97.8612 99.75H83.1388C82.369 99.75 81.8879 98.9167 82.2728 98.25L89.634 85.5Z" fill="#5B9C75"/>
<path d="M89.634 77.5C90.0189 76.8333 90.9811 76.8333 91.366 77.5L98.7272 90.25C99.1121 90.9167 98.631 91.75 97.8612 91.75H83.1388C82.369 91.75 81.8879 90.9167 82.2728 90.25L89.634 77.5Z" fill="#5B9C75"/>
<rect x="106.43" y="84.4543" width="2.14286" height="6.54545" rx="1" fill="#715959"/>
<path d="M106.63 70.5341C107.013 69.8584 107.987 69.8584 108.37 70.5341L113.148 78.9613C113.526 79.6279 113.045 80.4545 112.279 80.4545H102.721C101.955 80.4545 101.474 79.6279 101.852 78.9613L106.63 70.5341Z" fill="#5B9C75"/>
<path d="M106.63 75.8065C107.013 75.1309 107.987 75.1309 108.37 75.8065L113.148 84.2337C113.526 84.9004 113.045 85.727 112.279 85.727H102.721C101.955 85.727 101.474 84.9004 101.852 84.2337L106.63 75.8065Z" fill="#5B9C75"/>
<ellipse cx="80" cy="109.5" rx="2" ry="1.5" fill="#C6B8B8"/>
<ellipse cx="106" cy="95.5" rx="2" ry="1.5" fill="#C6B8B8"/>
<ellipse cx="124" cy="99.5" rx="3" ry="1.5" fill="#C6B8B8"/>
<rect x="176" y="125" width="3" height="9" rx="1" fill="#715959"/>
<path d="M176.634 105.5C177.019 104.833 177.981 104.833 178.366 105.5L185.727 118.25C186.112 118.917 185.631 119.75 184.861 119.75H170.139C169.369 119.75 168.888 118.917 169.273 118.25L176.634 105.5Z" fill="#5B9C75"/>
<path d="M176.634 112.5C177.019 111.833 177.981 111.833 178.366 112.5L185.727 125.25C186.112 125.917 185.631 126.75 184.861 126.75H170.139C169.369 126.75 168.888 125.917 169.273 125.25L176.634 112.5Z" fill="#5B9C75"/>
<rect x="162.43" y="144.454" width="2.14286" height="6.54545" rx="1" fill="#715959"/>
<path d="M162.63 130.534C163.013 129.858 163.987 129.858 164.37 130.534L169.148 138.961C169.526 139.628 169.045 140.455 168.279 140.455H158.721C157.955 140.455 157.474 139.628 157.852 138.961L162.63 130.534Z" fill="#5B9C75"/>
<path d="M162.63 135.807C163.013 135.131 163.987 135.131 164.37 135.807L169.148 144.234C169.526 144.9 169.045 145.727 168.279 145.727H158.721C157.955 145.727 157.474 144.9 157.852 144.234L162.63 135.807Z" fill="#5B9C75"/>
<ellipse cx="152" cy="154" rx="3" ry="2" fill="#C6B8B8"/>
<ellipse cx="193" cy="111.5" rx="2" ry="1.5" fill="#C6B8B8"/>
<ellipse cx="185" cy="140.5" rx="3" ry="1.5" fill="#C6B8B8"/>
</svg>
