<svg width="44" height="88" viewBox="0 0 44 88" fill="none" xmlns="http://www.w3.org/2000/svg">
<path d="M0 66C0 78.1503 9.84974 88 22 88C34.1503 88 44 78.1503 44 66C44 53.8497 34.1503 44 22 44C9.84974 44 0 53.8497 0 66Z" fill="white"/>
<path fill-rule="evenodd" clip-rule="evenodd" d="M26.28 65.47C26.4205 65.6106 26.4993 65.8012 26.4993 66C26.4993 66.1988 26.4205 66.3894 26.28 66.53L18.78 74.03C18.6378 74.1625 18.4498 74.2346 18.2555 74.2312C18.0612 74.2278 17.8758 74.149 17.7384 74.0116C17.601 73.8742 17.5223 73.6888 17.5188 73.4945C17.5154 73.3002 17.5875 73.1122 17.72 72.97L24.69 66L17.72 59.03C17.5875 58.8878 17.5154 58.6998 17.5188 58.5055C17.5223 58.3112 17.601 58.1258 17.7384 57.9884C17.8758 57.851 18.0612 57.7723 18.2555 57.7688C18.4498 57.7654 18.6378 57.8375 18.78 57.97L26.28 65.47Z" fill="#434343"/>
<path d="M44 22C44 34.1503 34.1503 44 22 44C9.84974 44 0 34.1503 0 22C0 9.84974 9.84974 0 22 0C34.1503 0 44 9.84974 44 22Z" fill="white"/>
<path fill-rule="evenodd" clip-rule="evenodd" d="M17.72 21.47C17.5795 21.6106 17.5007 21.8012 17.5007 22C17.5007 22.1988 17.5795 22.3894 17.72 22.53L25.22 30.03C25.3622 30.1625 25.5502 30.2346 25.7445 30.2312C25.9388 30.2277 26.1242 30.149 26.2616 30.0116C26.399 29.8742 26.4777 29.6888 26.4812 29.4945C26.4846 29.3002 26.4125 29.1122 26.28 28.97L19.31 22L26.28 15.03C26.4125 14.8878 26.4846 14.6998 26.4812 14.5055C26.4777 14.3112 26.399 14.1258 26.2616 13.9884C26.1242 13.851 25.9388 13.7723 25.7445 13.7688C25.5502 13.7654 25.3622 13.8375 25.22 13.97L17.72 21.47Z" fill="#434343"/>
</svg>
