<svg width="74" height="74" viewBox="0 0 74 74" fill="none" xmlns="http://www.w3.org/2000/svg">
<g id="&#240;&#159;&#166;&#134; icon &#34;chrome&#34;">
<g id="Clip path group">
<mask id="mask0_1208_7976" style="mask-type:luminance" maskUnits="userSpaceOnUse" x="0" y="0" width="74" height="74">
<g id="b">
<path id="Vector" d="M36.5603 73.1205C56.7519 73.1205 73.1205 56.7519 73.1205 36.5603C73.1205 16.3686 56.7519 0 36.5603 0C16.3686 0 0 16.3686 0 36.5603C0 56.7519 16.3686 73.1205 36.5603 73.1205Z" fill="white"/>
</g>
</mask>
<g mask="url(#mask0_1208_7976)">
<g id="Group">
<path id="c" d="M5.81641 0.000152588V44.8696H22.1854L36.5603 19.9421H73.1205V0.000152588H5.81641Z" fill="#DB4437"/>
<path id="c_2" d="M5.81641 0.000152588V44.8696H22.1854L36.5603 19.9421H73.1205V0.000152588H5.81641Z" fill="url(#paint0_linear_1208_7976)"/>
<path id="e" d="M0 73.1203H34.8153L51.0182 56.9175V44.8692H22.1023L0 6.85486V73.1203Z" fill="#0F9D58"/>
<path id="e_2" d="M0 73.1203H34.8153L51.0182 56.9175V44.8692H22.1023L0 6.85486V73.1203Z" fill="url(#paint1_linear_1208_7976)"/>
<path id="g" d="M36.5603 19.9425L50.9351 44.87L34.8984 73.1211H73.1205V19.9425H36.5603Z" fill="#FFCD40"/>
<path id="g_2" d="M36.5603 19.9425L50.9351 44.87L34.8984 73.1211H73.1205V19.9425H36.5603Z" fill="url(#paint2_linear_1208_7976)"/>
<g id="Group_2">
<path id="Vector_2" d="M22.5593 44.7446L5.81641 16.7843L22.0193 44.9524L22.5593 44.7446Z" fill="#3E2723" fill-opacity="0.1"/>
<path id="Vector_3" d="M50.6024 45.4095L50.27 45.2433L34.7734 73.079L50.6855 45.2433L50.6024 45.4095Z" fill="#263238" fill-opacity="0.1"/>
</g>
<path id="Vector_4" d="M36.5596 19.9425V28.6671L69.1314 19.9425H36.5596Z" fill="url(#paint3_radial_1208_7976)"/>
<path id="Vector_5" d="M5.81641 16.8263L29.5806 40.5905L22.1854 44.8697L5.81641 16.8263Z" fill="url(#paint4_radial_1208_7976)"/>
<path id="Vector_6" d="M34.8154 73.1203L43.54 40.59L50.9352 44.8692L34.8154 73.1203Z" fill="url(#paint5_radial_1208_7976)"/>
<path id="Vector_7" d="M36.5607 53.1791C45.7387 53.1791 53.179 45.7389 53.179 36.5608C53.179 27.3828 45.7387 19.9425 36.5607 19.9425C27.3826 19.9425 19.9424 27.3828 19.9424 36.5608C19.9424 45.7389 27.3826 53.1791 36.5607 53.1791Z" fill="#F1F1F1"/>
<path id="Vector_8" d="M36.5603 49.855C43.9027 49.855 49.8549 43.9028 49.8549 36.5604C49.8549 29.2179 43.9027 23.2657 36.5603 23.2657C29.2178 23.2657 23.2656 29.2179 23.2656 36.5604C23.2656 43.9028 29.2178 49.855 36.5603 49.855Z" fill="#4285F4"/>
<path id="Vector_9" d="M36.5603 73.1205C56.7519 73.1205 73.1205 56.7519 73.1205 36.5603C73.1205 16.3686 56.7519 0 36.5603 0C16.3686 0 0 16.3686 0 36.5603C0 56.7519 16.3686 73.1205 36.5603 73.1205Z" fill="url(#paint6_radial_1208_7976)"/>
<g id="Group_3">
<path id="Vector_10" d="M50.9341 44.8696C49.4733 47.3879 47.3765 49.4782 44.8537 50.9313C42.3309 52.3844 39.4706 53.1493 36.5593 53.1493C33.6479 53.1493 30.7877 52.3844 28.2649 50.9313C25.7421 49.4782 23.6453 47.3879 22.1845 44.8696L-0.000976562 7.27066L22.1845 45.285C23.6453 47.8033 25.7421 49.8937 28.2649 51.3468C30.7877 52.7999 33.6479 53.5647 36.5593 53.5647C39.4706 53.5647 42.3309 52.7999 44.8537 51.3468C47.3765 49.8937 49.4733 47.8033 50.9341 45.285V44.8696Z" fill="white" fill-opacity="0.1"/>
<path id="Vector_11" d="M36.9747 19.9416H36.767C41.1745 19.9416 45.4014 21.6924 48.5179 24.8089C51.6345 27.9255 53.3853 32.1524 53.3853 36.5599C53.3853 40.9673 51.6345 45.1942 48.5179 48.3108C45.4014 51.4273 41.1745 53.1782 36.767 53.1782H36.9747C46.1148 53.1782 53.593 45.6999 53.593 36.5599C53.593 27.4198 46.1148 19.9416 36.9747 19.9416ZM36.5593 72.7047C46.2198 72.7048 55.4877 68.8815 62.3381 62.07C69.1886 55.2584 73.0647 46.0125 73.1196 36.3521V36.5599C73.1196 46.2562 69.2677 55.5555 62.4113 62.4119C55.5549 69.2683 46.2557 73.1201 36.5593 73.1201C26.8629 73.1201 17.5637 69.2683 10.7073 62.4119C3.8509 55.5555 -0.000976562 46.2562 -0.000976562 36.5599V36.3521C0.0539126 46.0125 3.93 55.2584 10.7804 62.07C17.6309 68.8815 26.8988 72.7048 36.5593 72.7047Z" fill="#3E2723" fill-opacity="0.1"/>
<g id="Group_4">
<path id="Vector_12" d="M51.1003 45.4087C52.2605 43.4178 52.9863 41.2039 53.2297 38.9126C53.4732 36.6212 53.2289 34.3042 52.5129 32.114C53.1588 34.2319 53.3521 36.4619 53.0801 38.6592C52.8081 40.8566 52.077 42.9722 50.9341 44.8686L35.3129 73.1197L51.1834 45.4918L51.1003 45.4087ZM36.5593 0.414634C46.2198 0.414478 55.4877 4.23782 62.3381 11.0493C69.1886 17.8609 73.0647 27.1068 73.1196 36.7672V36.5594C73.1196 26.8631 69.2677 17.5638 62.4113 10.7074C55.5549 3.85105 46.2557 -0.000823975 36.5593 -0.000823975C26.8629 -0.000823975 17.5637 3.85105 10.7073 10.7074C3.8509 17.5638 -0.000976562 26.8631 -0.000976562 36.5594V36.7672C0.0539126 27.1068 3.93 17.8609 10.7804 11.0493C17.6309 4.23782 26.8988 0.414478 36.5593 0.414634Z" fill="white" fill-opacity="0.2"/>
<path id="Vector_13" d="M36.5597 19.5255C27.4196 19.5255 19.9414 27.0038 19.9414 36.1438V36.5593C19.9414 27.4192 27.4196 19.941 36.5597 19.941H73.12V19.5255H36.5597Z" fill="#3E2723" fill-opacity="0.2"/>
</g>
</g>
</g>
</g>
</g>
</g>
<defs>
<linearGradient id="paint0_linear_1208_7976" x1="8.84925" y1="28.2513" x2="30.6608" y2="15.5383" gradientUnits="userSpaceOnUse">
<stop stop-color="#A52714" stop-opacity="0.6"/>
<stop offset="0.7" stop-color="#A52714" stop-opacity="0"/>
</linearGradient>
<linearGradient id="paint1_linear_1208_7976" x1="42.7506" y1="65.4344" x2="18.4879" y2="51.2257" gradientUnits="userSpaceOnUse">
<stop stop-color="#055524" stop-opacity="0.4"/>
<stop offset="0.3" stop-color="#055524" stop-opacity="0"/>
</linearGradient>
<linearGradient id="paint2_linear_1208_7976" x1="47.7361" y1="17.7822" x2="53.8433" y2="44.4961" gradientUnits="userSpaceOnUse">
<stop stop-color="#EA6100" stop-opacity="0.3"/>
<stop offset="0.7" stop-color="#EA6100" stop-opacity="0"/>
</linearGradient>
<radialGradient id="paint3_radial_1208_7976" cx="0" cy="0" r="1" gradientUnits="userSpaceOnUse" gradientTransform="translate(34.9808 19.9425) scale(34.94 34.94)">
<stop stop-color="#3E2723" stop-opacity="0.2"/>
<stop offset="1" stop-color="#3E2723" stop-opacity="0"/>
</radialGradient>
<radialGradient id="paint4_radial_1208_7976" cx="0" cy="0" r="1" gradientUnits="userSpaceOnUse" gradientTransform="translate(5.77486 16.8263) scale(32.4057)">
<stop stop-color="#3E2723" stop-opacity="0.2"/>
<stop offset="1" stop-color="#3E2723" stop-opacity="0"/>
</radialGradient>
<radialGradient id="paint5_radial_1208_7976" cx="0" cy="0" r="1" gradientUnits="userSpaceOnUse" gradientTransform="translate(36.4773 36.6016) scale(36.5187 36.5187)">
<stop stop-color="#263238" stop-opacity="0.2"/>
<stop offset="1" stop-color="#263238" stop-opacity="0"/>
</radialGradient>
<radialGradient id="paint6_radial_1208_7976" cx="0" cy="0" r="1" gradientUnits="userSpaceOnUse" gradientTransform="translate(10.9265 9.97098) scale(73.4529)">
<stop stop-color="white" stop-opacity="0.1"/>
<stop offset="1" stop-color="white" stop-opacity="0"/>
</radialGradient>
</defs>
</svg>
