<svg width="80" height="80" viewBox="0 0 80 80" fill="none" xmlns="http://www.w3.org/2000/svg">
<g id="Color/Document">
<path id="patn" d="M61.9136 7.27295H25.6108C24.4753 7.27295 23.5547 8.19056 23.5547 9.32248V65.2576C23.5547 66.3895 24.4753 67.3072 25.6108 67.3072H70.7601C71.8957 67.3072 72.8163 66.3895 72.8163 65.2576V18.2243L61.9136 7.27295Z" fill="#895BD2"/>
<path id="patn_2" d="M61.9062 7.1875L61.9234 16.179C61.9234 17.3109 62.844 18.2285 63.9795 18.2285H72.8089" fill="#DBCAF0"/>
<path id="patn_3" d="M45.4633 12.7539H9.24364C8.10806 12.7539 7.1875 13.6715 7.1875 14.8034V70.7386C7.1875 71.8705 8.10806 72.7881 9.24364 72.7881H54.4786C55.6142 72.7881 56.5348 71.8705 56.5348 70.7386V24.7291H48.6332C47.498 24.7291 45.4633 23.812 45.4633 22.6796V12.7539Z" fill="#F8F4FF"/>
<path id="Rectangle" d="M22.1421 18.2129H13.9959C13.2172 18.2129 12.5859 18.8441 12.5859 19.6228V27.7338C12.5859 28.5125 13.2172 29.1437 13.9959 29.1437H22.1421C22.9208 29.1437 23.552 28.5125 23.552 27.7338V19.6228C23.552 18.8441 22.9208 18.2129 22.1421 18.2129Z" fill="#AB8AF3"/>
<path id="Rectangle_2" d="M50.4552 34.6094H13.0979C12.8152 34.6094 12.5859 34.8386 12.5859 35.1214V36.8301C12.5859 37.1129 12.8152 37.3421 13.0979 37.3421H50.4552C50.7379 37.3421 50.9671 37.1129 50.9671 36.8301V35.1214C50.9671 34.8386 50.7379 34.6094 50.4552 34.6094Z" fill="#AB8AF3"/>
<path id="Rectangle_3" d="M50.4552 42.7983H13.0979C12.8152 42.7983 12.5859 43.0276 12.5859 43.3103V45.0191C12.5859 45.3018 12.8152 45.531 13.0979 45.531H50.4552C50.7379 45.531 50.9671 45.3018 50.9671 45.0191V43.3103C50.9671 43.0276 50.7379 42.7983 50.4552 42.7983Z" fill="#AB8AF3"/>
<path id="Rectangle_4" d="M50.4552 50.9961H13.0979C12.8152 50.9961 12.5859 51.2253 12.5859 51.5081V53.2168C12.5859 53.4996 12.8152 53.7288 13.0979 53.7288H50.4552C50.7379 53.7288 50.9671 53.4996 50.9671 53.2168V51.5081C50.9671 51.2253 50.7379 50.9961 50.4552 50.9961Z" fill="#AB8AF3"/>
<path id="patn_4" d="M45.4609 12.7539V22.6796C45.4609 23.8115 46.3815 24.7291 47.5171 24.7291H56.5324" fill="#DBCAF0"/>
</g>
</svg>
