<svg width="24" height="48" viewBox="0 0 24 48" fill="none" xmlns="http://www.w3.org/2000/svg">
<path d="M19.5 14.25V11.625C19.5 10.7299 19.1444 9.87145 18.5115 9.23851C17.8786 8.60558 17.0201 8.25 16.125 8.25H14.625C14.3266 8.25 14.0405 8.13147 13.8295 7.9205C13.6185 7.70952 13.5 7.42337 13.5 7.125V5.625C13.5 4.72989 13.1444 3.87145 12.5115 3.23851C11.8785 2.60558 11.0201 2.25 10.125 2.25H8.25M8.25 15H15.75M8.25 18H12M10.5 2.25H5.625C5.004 2.25 4.5 2.754 4.5 3.375V20.625C4.5 21.246 5.004 21.75 5.625 21.75H18.375C18.996 21.75 19.5 21.246 19.5 20.625V11.25C19.5 8.86305 18.5518 6.57387 16.864 4.88604C15.1761 3.19821 12.8869 2.25 10.5 2.25Z" stroke="#8C8C8C" stroke-width="1.5" stroke-linecap="round" stroke-linejoin="round"/>
<path d="M19.5 38.25V35.625C19.5 34.7299 19.1444 33.8715 18.5115 33.2385C17.8786 32.6056 17.0201 32.25 16.125 32.25H14.625C14.3266 32.25 14.0405 32.1315 13.8295 31.9205C13.6185 31.7095 13.5 31.4234 13.5 31.125V29.625C13.5 28.7299 13.1444 27.8714 12.5115 27.2385C11.8785 26.6056 11.0201 26.25 10.125 26.25H8.25M8.25 39H15.75M8.25 42H12M10.5 26.25H5.625C5.004 26.25 4.5 26.754 4.5 27.375V44.625C4.5 45.246 5.004 45.75 5.625 45.75H18.375C18.996 45.75 19.5 45.246 19.5 44.625V35.25C19.5 32.8631 18.5518 30.5739 16.864 28.886C15.1761 27.1982 12.8869 26.25 10.5 26.25Z" stroke="white" stroke-width="1.5" stroke-linecap="round" stroke-linejoin="round"/>
</svg>
