<svg width="24" height="48" viewBox="0 0 24 48" fill="none" xmlns="http://www.w3.org/2000/svg">
<path d="M14.4847 5.22679C14.0685 5.22979 13.6552 5.25004 13.2188 5.36704C12.7432 5.49612 12.292 5.70208 11.883 5.97679C11.3085 5.63929 10.752 5.36179 10.2188 5.29654C9.5565 5.21479 8.9415 5.25904 8.22675 5.27404C7.37925 5.29129 6.8265 5.72404 5.9295 6.07054C5.03325 6.41554 3.879 6.75004 2.25 6.75004H1.5V13.9688L1.92225 14.1795L3.3045 14.8598L8.22675 20.3438L8.25 20.367C8.8125 20.9235 9.5715 21.0615 10.242 21.0233C10.9132 20.9858 11.5433 20.7893 12.0465 20.4848C13.1543 19.8165 16.1715 17.7188 16.1715 17.7188L16.242 17.6715L16.2892 17.625C16.6462 17.2703 16.8255 16.8375 16.9455 16.383L19.8278 14.9295L21.984 14.2035L22.5 14.0385V6.75004H21.75C20.4893 6.75866 19.2391 6.51964 18.0705 6.04654C17.1735 5.69629 16.629 5.26804 15.7725 5.25004C15.315 5.24104 14.9002 5.22379 14.4847 5.22679ZM14.5072 6.72679C14.8448 6.72379 15.2347 6.74179 15.7267 6.75004C15.8055 6.75304 16.5262 7.06054 17.5312 7.45354C18.381 7.78729 19.5615 8.08354 21 8.17954V12.9608L19.2653 13.5473H19.2188L19.1715 13.5698L16.899 14.7188C16.7784 14.3707 16.5868 14.0515 16.3365 13.7813L16.2892 13.7108L13.1017 9.79729L12.633 9.21079L12.0465 9.67954L10.0312 11.3205C9.35475 11.7893 8.8065 11.6543 8.25 11.391C8.08875 11.3145 8.09775 11.2913 7.96875 11.2035L11.391 8.36704L11.4375 8.32054C12.4537 7.31254 13.0785 6.96379 13.617 6.82054C13.887 6.74704 14.1705 6.72979 14.5072 6.72679ZM9.282 6.75004C9.53224 6.7406 9.78283 6.74837 10.032 6.77329C10.2285 6.79654 10.4513 6.96379 10.6418 7.03129C10.5653 7.10179 10.5097 7.14229 10.4303 7.21879L10.3837 7.26604L6.282 10.6635L5.649 11.1795L6.2115 11.7653C6.2115 11.7653 6.75375 12.3518 7.5945 12.75C8.43525 13.1483 9.7335 13.374 10.899 12.5625L10.9462 12.5153L12.399 11.3205L15.165 14.7188L15.1882 14.766L15.2115 14.7885C15.7065 15.2783 15.6952 16.0485 15.2115 16.5473C15.2055 16.5525 15.2175 16.5645 15.2115 16.5698C15.2055 16.5735 15.1065 16.632 15.0945 16.641L14.1097 15.3045L12.891 16.1955L13.8525 17.484C13.4625 17.748 13.287 17.886 12.8678 18.1643L11.8605 16.8045L10.641 17.6955L11.6025 18.984C11.517 19.0365 11.3415 19.1543 11.274 19.1955C11.037 19.3388 10.5795 19.5 10.1722 19.5233C9.789 19.5443 9.49575 19.4558 9.3525 19.3358L9.32925 19.3125L4.31325 13.758L4.2195 13.6403L3 13.0313V8.17954C4.4325 8.08579 5.622 7.80154 6.46875 7.47679C7.47075 7.09279 8.18625 6.77629 8.27325 6.77329L9.28125 6.75004H9.282Z" fill="#8C8C8C"/>
<path d="M14.4847 29.2268C14.0685 29.2298 13.6552 29.25 13.2188 29.367C12.7432 29.4961 12.292 29.7021 11.883 29.9768C11.3085 29.6393 10.752 29.3618 10.2188 29.2965C9.5565 29.2148 8.9415 29.259 8.22675 29.274C7.37925 29.2913 6.8265 29.724 5.9295 30.0705C5.03325 30.4155 3.879 30.75 2.25 30.75H1.5V37.9688L1.92225 38.1795L3.3045 38.8598L8.22675 44.3438L8.25 44.367C8.8125 44.9235 9.5715 45.0615 10.242 45.0233C10.9132 44.9858 11.5433 44.7893 12.0465 44.4848C13.1543 43.8165 16.1715 41.7188 16.1715 41.7188L16.242 41.6715L16.2892 41.625C16.6462 41.2703 16.8255 40.8375 16.9455 40.383L19.8278 38.9295L21.984 38.2035L22.5 38.0385V30.75H21.75C20.4893 30.7587 19.2391 30.5196 18.0705 30.0465C17.1735 29.6963 16.629 29.268 15.7725 29.25C15.315 29.241 14.9002 29.2238 14.4847 29.2268ZM14.5072 30.7268C14.8448 30.7238 15.2347 30.7418 15.7267 30.75C15.8055 30.753 16.5262 31.0605 17.5312 31.4535C18.381 31.7873 19.5615 32.0835 21 32.1795V36.9608L19.2653 37.5473H19.2188L19.1715 37.5698L16.899 38.7188C16.7784 38.3707 16.5868 38.0515 16.3365 37.7813L16.2892 37.7108L13.1017 33.7973L12.633 33.2108L12.0465 33.6795L10.0312 35.3205C9.35475 35.7893 8.8065 35.6543 8.25 35.391C8.08875 35.3145 8.09775 35.2913 7.96875 35.2035L11.391 32.367L11.4375 32.3205C12.4537 31.3125 13.0785 30.9638 13.617 30.8205C13.887 30.747 14.1705 30.7298 14.5072 30.7268ZM9.282 30.75C9.53224 30.7406 9.78283 30.7484 10.032 30.7733C10.2285 30.7965 10.4513 30.9638 10.6418 31.0313C10.5653 31.1018 10.5097 31.1423 10.4303 31.2188L10.3837 31.266L6.282 34.6635L5.649 35.1795L6.2115 35.7653C6.2115 35.7653 6.75375 36.3518 7.5945 36.75C8.43525 37.1483 9.7335 37.374 10.899 36.5625L10.9462 36.5153L12.399 35.3205L15.165 38.7188L15.1882 38.766L15.2115 38.7885C15.7065 39.2783 15.6952 40.0485 15.2115 40.5473C15.2055 40.5525 15.2175 40.5645 15.2115 40.5698C15.2055 40.5735 15.1065 40.632 15.0945 40.641L14.1097 39.3045L12.891 40.1955L13.8525 41.484C13.4625 41.748 13.287 41.886 12.8678 42.1643L11.8605 40.8045L10.641 41.6955L11.6025 42.984C11.517 43.0365 11.3415 43.1543 11.274 43.1955C11.037 43.3388 10.5795 43.5 10.1722 43.5233C9.789 43.5443 9.49575 43.4558 9.3525 43.3358L9.32925 43.3125L4.31325 37.758L4.2195 37.6403L3 37.0313V32.1795C4.4325 32.0858 5.622 31.8015 6.46875 31.4768C7.47075 31.0928 8.18625 30.7763 8.27325 30.7733L9.28125 30.75H9.282Z" fill="white"/>
</svg>
