<svg width="18" height="36" viewBox="0 0 18 36" fill="none" xmlns="http://www.w3.org/2000/svg">
<path fill-rule="evenodd" clip-rule="evenodd" d="M0 9C0 4.02923 4.02923 0 9 0C13.9708 0 18 4.02923 18 9C18 13.9708 13.9708 18 9 18C4.02923 18 0 13.9708 0 9ZM12.3323 7.32554C12.3877 7.25174 12.4278 7.16761 12.4502 7.07811C12.4726 6.9886 12.4769 6.89552 12.4628 6.80433C12.4487 6.71314 12.4165 6.62568 12.3682 6.54711C12.3198 6.46853 12.2562 6.40041 12.1812 6.34675C12.1061 6.2931 12.0211 6.25499 11.9311 6.23467C11.8411 6.21435 11.7479 6.21223 11.6571 6.22843C11.5662 6.24462 11.4795 6.27882 11.4021 6.32899C11.3247 6.37917 11.258 6.44432 11.2062 6.52062L8.21908 10.7022L6.72 9.20308C6.58876 9.08079 6.41518 9.01421 6.23583 9.01738C6.05647 9.02054 5.88535 9.0932 5.7585 9.22004C5.63166 9.34688 5.559 9.51801 5.55584 9.69736C5.55267 9.87672 5.61925 10.0503 5.74154 10.1815L7.81846 12.2585C7.88953 12.3295 7.9752 12.3842 8.06953 12.4187C8.16386 12.4533 8.26458 12.467 8.3647 12.4587C8.46483 12.4505 8.56196 12.4205 8.64935 12.3709C8.73674 12.3214 8.81229 12.2534 8.87077 12.1717L12.3323 7.32554Z" fill="#D9D9D9"/>
<path fill-rule="evenodd" clip-rule="evenodd" d="M0 27C0 22.0292 4.02923 18 9 18C13.9708 18 18 22.0292 18 27C18 31.9708 13.9708 36 9 36C4.02923 36 0 31.9708 0 27ZM12.3323 25.3255C12.3877 25.2517 12.4278 25.1676 12.4502 25.0781C12.4726 24.9886 12.4769 24.8955 12.4628 24.8043C12.4487 24.7131 12.4165 24.6257 12.3682 24.5471C12.3198 24.4685 12.2562 24.4004 12.1812 24.3468C12.1061 24.2931 12.0211 24.255 11.9311 24.2347C11.841 24.2144 11.7479 24.2122 11.6571 24.2284C11.5662 24.2446 11.4795 24.2788 11.4021 24.329C11.3247 24.3792 11.258 24.4443 11.2062 24.5206L8.21908 28.7022L6.72 27.2031C6.58876 27.0808 6.41518 27.0142 6.23583 27.0174C6.05647 27.0205 5.88535 27.0932 5.7585 27.22C5.63166 27.3469 5.559 27.518 5.55584 27.6974C5.55267 27.8767 5.61925 28.0503 5.74154 28.1815L7.81846 30.2585C7.88953 30.3295 7.9752 30.3842 8.06953 30.4187C8.16385 30.4533 8.26458 30.467 8.3647 30.4587C8.46483 30.4505 8.56196 30.4205 8.64935 30.3709C8.73674 30.3214 8.81229 30.2534 8.87077 30.1717L12.3323 25.3255Z" fill="#8852E0"/>
</svg>
