<svg width="24" height="48" viewBox="0 0 24 48" fill="none" xmlns="http://www.w3.org/2000/svg">
<path d="M9 12H12.75M9 15H12.75M9 18H12.75M15.75 18.75H18C18.5967 18.75 19.169 18.5129 19.591 18.091C20.0129 17.669 20.25 17.0967 20.25 16.5V6.108C20.25 4.973 19.405 4.01 18.274 3.916C17.9 3.88498 17.5256 3.85831 17.151 3.836M17.151 3.836C17.2174 4.05109 17.2501 4.27491 17.25 4.5C17.25 4.69891 17.171 4.88968 17.0303 5.03033C16.8897 5.17098 16.6989 5.25 16.5 5.25H12C11.586 5.25 11.25 4.914 11.25 4.5C11.25 4.269 11.285 4.046 11.35 3.836M17.151 3.836C17.0091 3.37662 16.7228 2.97476 16.3359 2.68934C15.949 2.40393 15.4808 2.24996 15 2.25H13.5C13.0192 2.25011 12.5511 2.40414 12.1643 2.68954C11.7774 2.97493 11.492 3.3767 11.35 3.836M11.35 3.836C10.974 3.859 10.6 3.886 10.226 3.916C9.095 4.01 8.25 4.973 8.25 6.108V8.25M8.25 8.25H4.875C4.254 8.25 3.75 8.754 3.75 9.375V20.625C3.75 21.246 4.254 21.75 4.875 21.75H14.625C15.246 21.75 15.75 21.246 15.75 20.625V9.375C15.75 8.754 15.246 8.25 14.625 8.25H8.25ZM6.75 12H6.758V12.008H6.75V12ZM6.75 15H6.758V15.008H6.75V15ZM6.75 18H6.758V18.008H6.75V18Z" stroke="#595959" stroke-width="1.5" stroke-linecap="round" stroke-linejoin="round"/>
<path d="M9 36H12.75M9 39H12.75M9 42H12.75M15.75 42.75H18C18.5967 42.75 19.169 42.5129 19.591 42.091C20.0129 41.669 20.25 41.0967 20.25 40.5V30.108C20.25 28.973 19.405 28.01 18.274 27.916C17.9 27.885 17.5256 27.8583 17.151 27.836M17.151 27.836C17.2174 28.0511 17.2501 28.2749 17.25 28.5C17.25 28.6989 17.171 28.8897 17.0303 29.0303C16.8897 29.171 16.6989 29.25 16.5 29.25H12C11.586 29.25 11.25 28.914 11.25 28.5C11.25 28.269 11.285 28.046 11.35 27.836M17.151 27.836C17.0091 27.3766 16.7228 26.9748 16.3359 26.6893C15.949 26.4039 15.4808 26.25 15 26.25H13.5C13.0192 26.2501 12.5511 26.4041 12.1643 26.6895C11.7774 26.9749 11.492 27.3767 11.35 27.836M11.35 27.836C10.974 27.859 10.6 27.886 10.226 27.916C9.095 28.01 8.25 28.973 8.25 30.108V32.25M8.25 32.25H4.875C4.254 32.25 3.75 32.754 3.75 33.375V44.625C3.75 45.246 4.254 45.75 4.875 45.75H14.625C15.246 45.75 15.75 45.246 15.75 44.625V33.375C15.75 32.754 15.246 32.25 14.625 32.25H8.25ZM6.75 36H6.758V36.008H6.75V36ZM6.75 39H6.758V39.008H6.75V39ZM6.75 42H6.758V42.008H6.75V42Z" stroke="#FAFAFA" stroke-width="1.5" stroke-linecap="round" stroke-linejoin="round"/>
</svg>
