<svg width="66" height="505" viewBox="0 0 66 505" fill="none" xmlns="http://www.w3.org/2000/svg">
<path d="M14.616 49.388L16.1891 50.9878L17.7821 49.388L19.3552 50.9878L20.9483 49.388L22.5214 50.9878L24.1134 49.388L25.6865 50.9878L27.2796 49.388L28.8527 50.9878L30.4452 49.388L32.0183 50.9878L33.6109 49.388L35.184 50.9878L36.777 49.388L38.3496 50.9878L39.9427 49.388L41.5158 50.9878L43.1083 49.388L44.6814 50.9878L46.2745 49.388L47.8497 50.9883L49.4401 49.388L50.9766 50.9511V5.99678C50.9766 5.28231 50.3973 4.70312 49.6827 4.70312H14.3173C13.6027 4.70312 13.0234 5.28231 13.0234 5.99678V51.2422V50.9883L14.616 49.388Z" fill="#E4EBF7"/>
<path d="M43.6087 20.2344H20.3913C20.1277 20.2344 19.9141 20.4481 19.9141 20.7116V21.5071C19.9141 21.7707 20.1277 21.9844 20.3913 21.9844H43.6087C43.8723 21.9844 44.0859 21.7707 44.0859 21.5071V20.7116C44.0859 20.4481 43.8723 20.2344 43.6087 20.2344Z" fill="#A3B5D6"/>
<path d="M14.3173 4.70312H49.6827C50.3973 4.70312 50.9766 5.29075 50.9766 6.01562V6.45312H13.0234V6.01562C13.0234 5.29075 13.6027 4.70312 14.3173 4.70312Z" fill="#597EF7"/>
<path d="M43.6087 23.8438H20.3913C20.1277 23.8438 19.9141 24.0574 19.9141 24.321V25.1165C19.9141 25.3801 20.1277 25.5938 20.3913 25.5938H43.6087C43.8723 25.5938 44.0859 25.3801 44.0859 25.1165V24.321C44.0859 24.0574 43.8723 23.8438 43.6087 23.8438Z" fill="#A3B5D6"/>
<path d="M43.6087 27.4531H20.3913C20.1277 27.4531 19.9141 27.6668 19.9141 27.9304V28.7259C19.9141 28.9894 20.1277 29.2031 20.3913 29.2031H43.6087C43.8723 29.2031 44.0859 28.9894 44.0859 28.7259V27.9304C44.0859 27.6668 43.8723 27.4531 43.6087 27.4531Z" fill="#A3B5D6"/>
<path d="M20.5469 36.1617V43.5727C20.5469 43.7763 20.3818 43.9414 20.1782 43.9414H20.1499C19.9463 43.9414 19.7812 43.7763 19.7812 43.5727V36.1617C19.7812 35.958 19.9463 35.793 20.1499 35.793H20.1782C20.3818 35.793 20.5469 35.958 20.5469 36.1617Z" fill="#253368"/>
<path d="M22.3203 36.2437V43.6547C22.3203 43.8584 22.1552 44.0234 21.9516 44.0234H21.5406C21.3369 44.0234 21.1719 43.8584 21.1719 43.6547V36.2437C21.1719 36.0401 21.3369 35.875 21.5406 35.875H21.9516C22.1552 35.875 22.3203 36.0401 22.3203 36.2437Z" fill="#253368"/>
<path d="M30.1953 36.2437V43.6547C30.1953 43.8584 30.0302 44.0234 29.8266 44.0234H29.4156C29.2119 44.0234 29.0469 43.8584 29.0469 43.6547V36.2437C29.0469 36.0401 29.2119 35.875 29.4156 35.875H29.8266C30.0302 35.875 30.1953 36.0401 30.1953 36.2437Z" fill="#253368"/>
<path d="M27.0234 36.2437V43.6547C27.0234 43.8584 26.8584 44.0234 26.6547 44.0234H26.2437C26.0401 44.0234 25.875 43.8584 25.875 43.6547V36.2437C25.875 36.0401 26.0401 35.875 26.2437 35.875H26.6547C26.8584 35.875 27.0234 36.0401 27.0234 36.2437Z" fill="#253368"/>
<path d="M23.5781 36.1758V43.7227C23.5781 43.8888 23.4435 44.0234 23.2773 44.0234C23.1112 44.0234 22.9766 43.8888 22.9766 43.7227V36.1758C22.9766 36.0097 23.1112 35.875 23.2773 35.875C23.4435 35.875 23.5781 36.0097 23.5781 36.1758Z" fill="#253368"/>
<path d="M25.1641 43.7227V36.1758C25.1641 36.0097 25.0294 35.875 24.8633 35.875C24.6972 35.875 24.5625 36.0097 24.5625 36.1758V43.7227C24.5625 43.8888 24.6972 44.0234 24.8633 44.0234C25.0294 44.0234 25.1641 43.8888 25.1641 43.7227Z" fill="#253368"/>
<path d="M28.3359 36.1758V43.7227C28.3359 43.8888 28.2013 44.0234 28.0352 44.0234C27.869 44.0234 27.7344 43.8888 27.7344 43.7227V36.1758C27.7344 36.0097 27.869 35.875 28.0352 35.875C28.2013 35.875 28.3359 36.0097 28.3359 36.1758Z" fill="#253368"/>
<path d="M31.3438 36.0117V43.8867C31.3438 43.9622 31.2825 44.0234 31.207 44.0234C31.1315 44.0234 31.0703 43.9622 31.0703 43.8867V36.0117C31.0703 35.9362 31.1315 35.875 31.207 35.875C31.2825 35.875 31.3438 35.9362 31.3438 36.0117Z" fill="#253368"/>
<path d="M33.125 36.1617V43.5727C33.125 43.7763 32.9599 43.9414 32.7563 43.9414H32.7281C32.5244 43.9414 32.3594 43.7763 32.3594 43.5727V36.1617C32.3594 35.958 32.5244 35.793 32.7281 35.793H32.7563C32.9599 35.793 33.125 35.958 33.125 36.1617Z" fill="#253368"/>
<path d="M34.8984 36.2437V43.6547C34.8984 43.8584 34.7334 44.0234 34.5297 44.0234H34.1187C33.9151 44.0234 33.75 43.8584 33.75 43.6547V36.2437C33.75 36.0401 33.9151 35.875 34.1187 35.875H34.5297C34.7334 35.875 34.8984 36.0401 34.8984 36.2437Z" fill="#253368"/>
<path d="M42.7734 36.2437V43.6547C42.7734 43.8584 42.6084 44.0234 42.4047 44.0234H41.9937C41.7901 44.0234 41.625 43.8584 41.625 43.6547V36.2437C41.625 36.0401 41.7901 35.875 41.9937 35.875H42.4047C42.6084 35.875 42.7734 36.0401 42.7734 36.2437Z" fill="#253368"/>
<path d="M39.6562 36.2437V43.6547C39.6562 43.8584 39.4912 44.0234 39.2876 44.0234H38.8765C38.6729 44.0234 38.5078 43.8584 38.5078 43.6547V36.2437C38.5078 36.0401 38.6729 35.875 38.8765 35.875H39.2876C39.4912 35.875 39.6562 36.0401 39.6562 36.2437Z" fill="#253368"/>
<path d="M36.2109 36.1758V43.7227C36.2109 43.8888 36.0763 44.0234 35.9102 44.0234C35.744 44.0234 35.6094 43.8888 35.6094 43.7227V36.1758C35.6094 36.0097 35.744 35.875 35.9102 35.875C36.0763 35.875 36.2109 36.0097 36.2109 36.1758Z" fill="#253368"/>
<path d="M37.7969 36.1758V43.7227C37.7969 43.8888 37.6622 44.0234 37.4961 44.0234C37.33 44.0234 37.1953 43.8888 37.1953 43.7227V36.1758C37.1953 36.0097 37.33 35.875 37.4961 35.875C37.6622 35.875 37.7969 36.0097 37.7969 36.1758Z" fill="#253368"/>
<path d="M40.9688 36.1758V43.7227C40.9688 43.8888 40.8341 44.0234 40.668 44.0234C40.5019 44.0234 40.3672 43.8888 40.3672 43.7227V36.1758C40.3672 36.0097 40.5019 35.875 40.668 35.875C40.8341 35.875 40.9688 36.0097 40.9688 36.1758Z" fill="#253368"/>
<path d="M43.9219 36.0117V43.8867C43.9219 43.9622 43.8607 44.0234 43.7852 44.0234C43.7096 44.0234 43.6484 43.9622 43.6484 43.8867V36.0117C43.6484 35.9362 43.7096 35.875 43.7852 35.875C43.8607 35.875 43.9219 35.9362 43.9219 36.0117Z" fill="#253368"/>
<path d="M31.1471 14.7105C31.0164 14.6142 30.9008 14.499 30.8041 14.3686C30.6745 14.1965 30.5881 13.9145 30.5341 13.6039C30.2807 13.5731 30.0841 13.3261 30.0841 13.0257C30.0841 12.768 30.2289 12.5496 30.4298 12.4735C30.4223 12.1861 30.4298 11.9882 30.4298 11.9882C30.4331 11.4947 30.6803 11.0346 31.0904 10.7591C31.0904 10.7591 31.5166 10.2813 32.8394 10.2813V10.6831C33.3158 10.9454 33.6135 11.4439 33.6182 11.9871C33.6182 11.9871 33.6247 12.1963 33.6182 12.4951C33.8076 12.6039 33.9219 12.8077 33.9159 13.0257C33.9159 13.3056 33.7446 13.5397 33.5167 13.5947C33.46 13.9091 33.3736 14.1949 33.2429 14.3686C33.135 14.5161 33.0023 14.6438 32.8507 14.7461V15.3657C33.2108 15.4922 33.5636 15.6388 33.9072 15.8047C35.3092 14.9513 35.9712 13.2708 35.5273 11.6925C35.0834 10.1142 33.642 9.02344 32 9.02344C30.358 9.02344 28.9166 10.1142 28.4727 11.6925C28.0288 13.2708 28.6908 14.9513 30.0928 15.8047C30.4364 15.6388 30.7892 15.4922 31.1493 15.3657L31.1471 14.7105Z" fill="white"/>
<path d="M33.9052 15.8164C33.562 15.65 33.2097 15.5031 32.8501 15.3763V14.7552C33.0015 14.6527 33.134 14.5247 33.2417 14.3768C33.3723 14.2027 33.4575 13.9162 33.5152 13.601C33.7429 13.547 33.9139 13.3113 33.9139 13.0307C33.9194 12.8135 33.8062 12.6106 33.6188 12.5015C33.6274 12.202 33.6188 11.9922 33.6188 11.9922C33.6138 11.4466 33.3151 10.9463 32.8377 10.684V10.2812C31.5166 10.2812 31.0909 10.7602 31.0909 10.7602C30.6814 11.0364 30.4344 11.4975 30.4312 11.9922C30.4312 11.9922 30.4247 12.1917 30.4312 12.4788C30.2305 12.555 30.0859 12.7739 30.0859 13.0323C30.0859 13.3334 30.2823 13.581 30.5353 13.6118C30.5919 13.9232 30.6777 14.2065 30.805 14.3784C30.9015 14.5091 31.017 14.6246 31.1476 14.7211V15.3758C30.7879 15.5026 30.4356 15.6495 30.0924 15.8158C31.2622 16.5301 32.7322 16.5301 33.902 15.8158L33.9052 15.8164Z" fill="#253368"/>
<path fill-rule="evenodd" clip-rule="evenodd" d="M8.66406 84.0003C8.66406 71.1131 19.1102 60.667 31.9974 60.667C44.8846 60.667 55.3307 71.1131 55.3307 84.0003C55.3307 96.8875 44.8846 107.334 31.9974 107.334C19.1102 107.334 8.66406 96.8875 8.66406 84.0003ZM40.6367 79.6591C40.7803 79.4678 40.8842 79.2497 40.9423 79.0176C41.0004 78.7856 41.0115 78.5443 40.975 78.3078C40.9385 78.0714 40.8551 77.8447 40.7297 77.641C40.6043 77.4372 40.4395 77.2606 40.2448 77.1215C40.0502 76.9824 39.8298 76.8836 39.5964 76.831C39.3631 76.7783 39.1216 76.7728 38.8861 76.8148C38.6506 76.8568 38.4258 76.9454 38.2251 77.0755C38.0243 77.2056 37.8516 77.3745 37.7171 77.5723L29.9728 88.4133L26.0863 84.5268C25.746 84.2098 25.296 84.0372 24.831 84.0454C24.366 84.0536 23.9224 84.242 23.5935 84.5708C23.2647 84.8997 23.0763 85.3433 23.0681 85.8083C23.0599 86.2733 23.2325 86.7233 23.5495 87.0636L28.9341 92.4482C29.1184 92.6323 29.3405 92.7741 29.5851 92.8637C29.8296 92.9534 30.0907 92.9887 30.3503 92.9673C30.6099 92.9459 30.8617 92.8683 31.0883 92.7398C31.3149 92.6113 31.5107 92.435 31.6624 92.2232L40.6367 79.6591Z" fill="#8852E0"/>
<path fill-rule="evenodd" clip-rule="evenodd" d="M10.25 150.137L13.0214 153.955L32.1413 140.078L29.3699 136.26L10.25 150.137Z" fill="#253368"/>
<path fill-rule="evenodd" clip-rule="evenodd" d="M6.50639 151.426L10.6359 157.115C10.8062 157.35 11.1345 157.402 11.3692 157.232L13.839 155.439C14.0737 155.269 14.1258 154.941 13.9555 154.706L9.82603 149.017C9.65567 148.782 9.32735 148.73 9.09274 148.9L6.62287 150.693C6.38826 150.863 6.33609 151.191 6.50639 151.426Z" fill="#597EF7"/>
<path fill-rule="evenodd" clip-rule="evenodd" d="M25.3388 127.806L39.1155 146.788C39.3196 147.069 39.7131 147.132 39.9942 146.928L51.0218 138.924C51.303 138.72 51.3655 138.326 51.1614 138.045L37.3846 119.063C37.1805 118.782 36.7871 118.72 36.5059 118.924L25.4784 126.927C25.1972 127.131 25.1347 127.525 25.3388 127.806Z" fill="#CCD7EE"/>
<path fill-rule="evenodd" clip-rule="evenodd" d="M27.6056 135.202L32.6015 142.086C32.8076 142.37 33.2047 142.433 33.4886 142.227L34.5498 141.456C34.8338 141.25 34.8968 140.853 34.6908 140.569L29.6949 133.686C29.4888 133.402 29.0917 133.339 28.8078 133.545L27.7465 134.315C27.4626 134.521 27.3995 134.918 27.6056 135.202Z" fill="#597EF7"/>
<path fill-rule="evenodd" clip-rule="evenodd" d="M22.1041 125.763L23.7341 128.009C23.9509 128.308 24.3688 128.374 24.6676 128.157L37.9347 118.528C38.2334 118.312 38.2998 117.894 38.083 117.595L36.453 115.349C36.2362 115.05 35.8183 114.984 35.5196 115.201L22.2524 124.83C21.9537 125.047 21.8872 125.465 22.1041 125.763Z" fill="#597EF7"/>
<path fill-rule="evenodd" clip-rule="evenodd" d="M38.4244 148.256L40.0544 150.501C40.2712 150.8 40.6892 150.867 40.9879 150.65L54.255 141.02C54.5537 140.804 54.6202 140.386 54.4033 140.087L52.7733 137.841C52.5566 137.542 52.1386 137.476 51.8399 137.693L38.5728 147.322C38.274 147.539 38.2075 147.957 38.4244 148.256Z" fill="#597EF7"/>
<path fill-rule="evenodd" clip-rule="evenodd" d="M56.8221 164.934H32.8234C32.3816 164.934 32.0234 164.576 32.0234 164.134V159.392C32.0234 158.95 32.3816 158.592 32.8234 158.592H56.8221C57.2639 158.592 57.6221 158.95 57.6221 159.392V164.134C57.6221 164.576 57.2639 164.934 56.8221 164.934Z" fill="#253368"/>
<path fill-rule="evenodd" clip-rule="evenodd" d="M53.9278 158.658H35.7086C35.4381 158.658 35.2188 158.438 35.2188 158.168V155.976C35.2188 155.706 35.4381 155.486 35.7086 155.486H53.9278C54.1984 155.486 54.4177 155.706 54.4177 155.976V158.168C54.4177 158.438 54.1984 158.658 53.9278 158.658Z" fill="#A3B5D6"/>
<rect width="56" height="56" transform="translate(4 168)" fill="white"/>
<path d="M6.33594 179.43L32.0959 186.15V221.71L6.33594 214.061V179.43Z" fill="#CCD7EE"/>
<path d="M32.0022 173.04L57.7622 179.48L32.0022 186.2L6.24219 179.48L32.0022 173.04Z" fill="#597EF7"/>
<path d="M24.5495 174.899L48.0447 182.002L43.0158 183.317L18.7734 176.338L24.5495 174.899Z" fill="#C7AE6D"/>
<path d="M32 186.2L57.76 179.48V214.079L32 221.759V186.2Z" fill="#E4EBF7"/>
<path d="M33.7812 214.934C33.7812 214.845 33.8392 214.767 33.9239 214.742L41.0346 212.613C41.1629 212.575 41.292 212.671 41.292 212.805V216.154C41.292 216.241 41.2361 216.318 41.1536 216.345L34.0428 218.647C33.9137 218.688 33.7812 218.592 33.7812 218.456V214.934Z" fill="#87A1CD"/>
<path d="M43.0156 183.312L48.0556 182V188.152L43.0156 189.582V183.312Z" fill="#E0CB96"/>
<path d="M13.2012 212.956L8.89897 211.701C8.66137 211.631 8.40573 211.791 8.32799 212.058C8.25026 212.324 8.37986 212.596 8.61746 212.665L12.9197 213.921C13.1573 213.99 13.4129 213.831 13.4907 213.564C13.5684 213.298 13.4388 213.026 13.2012 212.956Z" fill="#ADC6FF"/>
<rect width="56" height="56" transform="translate(4 224)" fill="white"/>
<path d="M5.58594 248.313C5.58594 247.588 6.17356 247 6.89844 247H36.6553C37.3802 247 37.9678 247.588 37.9678 248.312V273.42C37.9678 274.145 37.3802 274.733 36.6553 274.733H6.89844C6.17356 274.733 5.58594 274.145 5.58594 273.42V248.313Z" fill="#E4EBF7"/>
<path d="M39.4375 254.512C39.4375 253.787 40.0251 253.199 40.75 253.199H48.7696C49.1508 253.199 49.5132 253.365 49.7625 253.653L58.0413 263.229C58.2474 263.468 58.3609 263.772 58.3609 264.088V273.42C58.3609 274.145 57.7733 274.733 57.0484 274.733H40.75C40.0251 274.733 39.4375 274.145 39.4375 273.42V254.512Z" fill="#597EF7"/>
<path d="M55.503 274.325C55.503 277.208 53.1658 279.545 50.2827 279.545C47.3997 279.545 45.0625 277.208 45.0625 274.325C45.0625 271.442 47.3997 269.104 50.2827 269.104C53.1658 269.104 55.503 271.442 55.503 274.325Z" fill="#253368"/>
<path d="M51.9961 274.325C51.9961 275.271 51.2292 276.038 50.2832 276.038C49.3372 276.038 48.5703 275.271 48.5703 274.325C48.5703 273.379 49.3372 272.612 50.2832 272.612C51.2292 272.612 51.9961 273.379 51.9961 274.325Z" fill="white"/>
<path d="M5.58594 270.165H41.9645V274.733H6.89844C6.17356 274.733 5.58594 274.145 5.58594 273.42V270.165Z" fill="#597EF7"/>
<path d="M19.9405 274.325C19.9405 277.208 17.6033 279.545 14.7202 279.545C11.8372 279.545 9.5 277.208 9.5 274.325C9.5 271.442 11.8372 269.104 14.7202 269.104C17.6033 269.104 19.9405 271.442 19.9405 274.325Z" fill="#253368"/>
<path d="M16.4336 274.324C16.4336 275.27 15.6667 276.037 14.7207 276.037C13.7747 276.037 13.0078 275.27 13.0078 274.324C13.0078 273.378 13.7747 272.611 14.7207 272.611C15.6667 272.611 16.4336 273.378 16.4336 274.324Z" fill="white"/>
<path d="M34.4633 249.609H25.491C24.9955 249.609 24.5938 250.011 24.5938 250.507C24.5938 251.002 24.9955 251.404 25.491 251.404H34.4633C34.9588 251.404 35.3605 251.002 35.3605 250.507C35.3605 250.011 34.9588 249.609 34.4633 249.609Z" fill="#ADC6FF"/>
<path d="M34.4633 253.117H25.491C24.9955 253.117 24.5938 253.519 24.5938 254.014C24.5938 254.51 24.9955 254.912 25.491 254.912H34.4633C34.9588 254.912 35.3605 254.51 35.3605 254.014C35.3605 253.519 34.9588 253.117 34.4633 253.117Z" fill="#ADC6FF"/>
<path d="M40.9844 255.405C40.9844 255.043 41.2782 254.749 41.6406 254.749H48.686C48.8783 254.749 49.0609 254.833 49.1856 254.98L56.3354 263.374C56.6984 263.8 56.3955 264.455 55.8358 264.455H41.6406C41.2782 264.455 40.9844 264.162 40.9844 263.799V255.405Z" fill="#CCD7EE"/>
<g filter="url(#filter0_ddd_4562_23535)">
<path d="M44.9805 285.128H23.4335C22.8489 285.128 22.375 285.599 22.375 286.179V316.084H41.6238C41.6238 319.294 44.3882 321.538 47.6262 321.521C50.8087 321.505 53.4121 318.826 53.4121 315.666V293.46H47.7938C46.8976 293.46 44.9805 291.512 44.9805 290.622V285.128Z" fill="#FEFEFE"/>
<path d="M41.6704 315.99H19.5938C19.5938 318.858 21.6944 320.932 24.4504 321.391L25.4206 321.472L47.5414 321.428C44.3237 321.428 41.5884 318.974 41.6704 315.99Z" fill="#597EF7"/>
<path d="M31.8652 287.934H27.0456C26.8176 287.934 26.6328 288.117 26.6328 288.344V293.13C26.6328 293.356 26.8176 293.54 27.0456 293.54H31.8652C32.0932 293.54 32.278 293.356 32.278 293.13V288.344C32.278 288.117 32.0932 287.934 31.8652 287.934Z" fill="#597EF7"/>
<path d="M47.3817 296.299H27.0378C26.8098 296.299 26.625 296.482 26.625 296.709V297.29C26.625 297.517 26.8098 297.7 27.0378 297.7H47.3817C47.6096 297.7 47.7945 297.517 47.7945 297.29V296.709C47.7945 296.482 47.6096 296.299 47.3817 296.299Z" fill="#ADC6FF"/>
<path d="M47.3817 300.519H27.0378C26.8098 300.519 26.625 300.702 26.625 300.929V301.51C26.625 301.737 26.8098 301.92 27.0378 301.92H47.3817C47.6096 301.92 47.7945 301.737 47.7945 301.51V300.929C47.7945 300.702 47.6096 300.519 47.3817 300.519Z" fill="#ADC6FF"/>
<path d="M47.3817 304.739H27.0378C26.8098 304.739 26.625 304.923 26.625 305.149V305.731C26.625 305.957 26.8098 306.141 27.0378 306.141H47.3817C47.6096 306.141 47.7945 305.957 47.7945 305.731V305.149C47.7945 304.923 47.6096 304.739 47.3817 304.739Z" fill="#ADC6FF"/>
<path opacity="0.6" d="M44.9766 292.12V293.215C44.9766 293.45 45.0752 293.675 45.2488 293.835C45.4225 293.995 45.6554 294.076 45.8917 294.059L53.4395 293.501L44.9766 292.12Z" fill="#CCD7EE"/>
<path d="M49.353 289.301L44.9688 285.102L44.9802 293.149C44.9802 293.343 45.1382 293.5 45.333 293.5H53.4409L49.353 289.301Z" fill="#90AAFD"/>
</g>
<path d="M13.3125 329.607L10.4384 326.753L5.43879 331.718C4.64514 332.507 4.64514 333.784 5.43879 334.573V334.573C6.23244 335.361 7.51921 335.361 8.31286 334.573L13.3125 329.607Z" fill="#BAB6C2"/>
<path fill-rule="evenodd" clip-rule="evenodd" d="M23.2903 333.673C14.3163 333.673 7.04147 326.477 7.04147 317.601C7.04147 308.724 14.3163 301.528 23.2903 301.528C32.2642 301.528 39.5391 308.724 39.5391 317.601C39.5391 326.477 32.2642 333.673 23.2903 333.673ZM23.2899 330.102C16.3102 330.102 10.652 324.505 10.652 317.601C10.652 310.697 16.3102 305.101 23.2899 305.101C30.2697 305.101 35.9279 310.697 35.9279 317.601C35.9279 324.505 30.2697 330.102 23.2899 330.102Z" fill="#9AADC9"/>
<g filter="url(#filter1_b_4562_23535)">
<ellipse cx="12.638" cy="12.5007" rx="12.638" ry="12.5007" transform="matrix(-1 0 0 1 35.9297 305.101)" fill="white" fill-opacity="0.2"/>
</g>
<path fill-rule="evenodd" clip-rule="evenodd" d="M8.66406 364C8.66406 351.113 19.1102 340.667 31.9974 340.667C44.8846 340.667 55.3307 351.113 55.3307 364C55.3307 376.888 44.8846 387.334 31.9974 387.334C19.1102 387.334 8.66406 376.888 8.66406 364ZM40.6367 359.659C40.7803 359.468 40.8842 359.25 40.9423 359.018C41.0004 358.786 41.0115 358.544 40.975 358.308C40.9385 358.071 40.8551 357.845 40.7297 357.641C40.6043 357.437 40.4395 357.261 40.2448 357.122C40.0502 356.982 39.8298 356.884 39.5964 356.831C39.3631 356.778 39.1216 356.773 38.8861 356.815C38.6506 356.857 38.4258 356.945 38.2251 357.075C38.0243 357.206 37.8516 357.374 37.7171 357.572L29.9728 368.413L26.0863 364.527C25.746 364.21 25.296 364.037 24.831 364.045C24.366 364.054 23.9224 364.242 23.5935 364.571C23.2647 364.9 23.0763 365.343 23.0681 365.808C23.0599 366.273 23.2325 366.723 23.5495 367.064L28.9341 372.448C29.1184 372.632 29.3405 372.774 29.5851 372.864C29.8296 372.953 30.0907 372.989 30.3503 372.967C30.6099 372.946 30.8617 372.868 31.0883 372.74C31.3149 372.611 31.5107 372.435 31.6624 372.223L40.6367 359.659Z" fill="#8852E0"/>
<g filter="url(#filter2_dd_4562_23535)">
<path d="M54.04 403.156H9.95C9.08015 403.156 8.375 403.861 8.375 404.731V435.269C8.375 436.139 9.08015 436.844 9.95 436.844H54.04C54.9098 436.844 55.615 436.139 55.615 435.269V404.731C55.615 403.861 54.9098 403.156 54.04 403.156Z" fill="#CCD7EE"/>
<path d="M46.7528 432.768C47.436 432.768 47.9899 431.599 47.9899 430.156C47.9899 428.714 47.436 427.545 46.7528 427.545C46.0695 427.545 45.5156 428.714 45.5156 430.156C45.5156 431.599 46.0695 432.768 46.7528 432.768Z" fill="white"/>
<path d="M55.5936 413.459H8.39844V418.344H55.5936V413.459Z" fill="#253368"/>
<path d="M28.0922 423.406H12.2672C11.9772 423.406 11.7422 423.641 11.7422 423.931V424.569C11.7422 424.859 11.9772 425.094 12.2672 425.094H28.0922C28.3821 425.094 28.6172 424.859 28.6172 424.569V423.931C28.6172 423.641 28.3821 423.406 28.0922 423.406Z" fill="#597EF7"/>
<path d="M21.3949 428.469H12.2672C11.9772 428.469 11.7422 428.704 11.7422 428.994V429.631C11.7422 429.921 11.9772 430.156 12.2672 430.156H21.3949C21.6849 430.156 21.9199 429.921 21.9199 429.631V428.994C21.9199 428.704 21.6849 428.469 21.3949 428.469Z" fill="#597EF7"/>
<path d="M16.3061 406.551H12.2672C11.9772 406.551 11.7422 406.786 11.7422 407.076V409.381C11.7422 409.671 11.9772 409.906 12.2672 409.906H16.3061C16.596 409.906 16.8311 409.671 16.8311 409.381V407.076C16.8311 406.786 16.596 406.551 16.3061 406.551Z" fill="white"/>
<path d="M45.5188 430.155C45.5178 429.143 45.9723 428.184 46.7565 427.544C45.3816 426.417 43.3683 426.55 42.1534 427.848C40.9385 429.146 40.9385 431.163 42.1534 432.461C43.3683 433.759 45.3816 433.892 46.7565 432.765C45.9729 432.125 45.5184 431.167 45.5188 430.155Z" fill="#FF7946"/>
<path d="M48.8951 426.781C48.1157 426.78 47.3601 427.05 46.7578 427.545C47.54 428.186 47.9935 429.144 47.9935 430.155C47.9935 431.167 47.54 432.125 46.7578 432.766C47.9074 433.709 49.5387 433.788 50.7747 432.962C52.0107 432.135 52.56 430.597 52.1274 429.174C51.6948 427.752 50.3821 426.78 48.8951 426.781Z" fill="#FAAD14"/>
</g>
<path fill-rule="evenodd" clip-rule="evenodd" d="M50 397.562C45.3401 397.562 41.5625 401.34 41.5625 406C41.5625 410.66 45.3401 414.438 50 414.438C54.6599 414.438 58.4375 410.66 58.4375 406C58.4375 401.34 54.6599 397.562 50 397.562Z" fill="#FF4D4F"/>
<path fill-rule="evenodd" clip-rule="evenodd" d="M52.7662 408.557L52.5531 408.77C52.3766 408.947 52.0904 408.947 51.9139 408.77L47.2261 404.082C47.0496 403.906 47.0496 403.62 47.2261 403.443L47.4392 403.23C47.6157 403.054 47.9019 403.054 48.0784 403.23L52.7662 407.918C52.9427 408.094 52.9427 408.38 52.7662 408.557Z" fill="white"/>
<path fill-rule="evenodd" clip-rule="evenodd" d="M47.2261 408.557L47.4392 408.77C47.6157 408.947 47.9019 408.947 48.0785 408.77L52.7662 404.082C52.9427 403.906 52.9427 403.62 52.7662 403.443L52.5531 403.23C52.3766 403.054 52.0904 403.054 51.9139 403.23L47.2261 407.918C47.0496 408.094 47.0496 408.38 47.2261 408.557Z" fill="white"/>
<g filter="url(#filter3_dd_4562_23535)">
<path d="M54.04 459.156H9.95C9.08015 459.156 8.375 459.861 8.375 460.731V491.269C8.375 492.139 9.08015 492.844 9.95 492.844H54.04C54.9098 492.844 55.615 492.139 55.615 491.269V460.731C55.615 459.861 54.9098 459.156 54.04 459.156Z" fill="#CCD7EE"/>
<path d="M46.7528 488.768C47.436 488.768 47.9899 487.599 47.9899 486.156C47.9899 484.714 47.436 483.545 46.7528 483.545C46.0695 483.545 45.5156 484.714 45.5156 486.156C45.5156 487.599 46.0695 488.768 46.7528 488.768Z" fill="white"/>
<path d="M55.5936 469.459H8.39844V474.344H55.5936V469.459Z" fill="#253368"/>
<path d="M28.0922 479.406H12.2672C11.9772 479.406 11.7422 479.641 11.7422 479.931V480.569C11.7422 480.859 11.9772 481.094 12.2672 481.094H28.0922C28.3821 481.094 28.6172 480.859 28.6172 480.569V479.931C28.6172 479.641 28.3821 479.406 28.0922 479.406Z" fill="#597EF7"/>
<path d="M21.3949 484.469H12.2672C11.9772 484.469 11.7422 484.704 11.7422 484.994V485.631C11.7422 485.921 11.9772 486.156 12.2672 486.156H21.3949C21.6849 486.156 21.9199 485.921 21.9199 485.631V484.994C21.9199 484.704 21.6849 484.469 21.3949 484.469Z" fill="#597EF7"/>
<path d="M16.3061 462.551H12.2672C11.9772 462.551 11.7422 462.786 11.7422 463.076V465.381C11.7422 465.671 11.9772 465.906 12.2672 465.906H16.3061C16.596 465.906 16.8311 465.671 16.8311 465.381V463.076C16.8311 462.786 16.596 462.551 16.3061 462.551Z" fill="white"/>
<path d="M45.5188 486.155C45.5178 485.143 45.9723 484.184 46.7565 483.544C45.3816 482.417 43.3683 482.55 42.1534 483.848C40.9385 485.146 40.9385 487.163 42.1534 488.461C43.3683 489.759 45.3816 489.892 46.7565 488.765C45.9729 488.125 45.5184 487.167 45.5188 486.155Z" fill="#FF7946"/>
<path d="M48.8951 482.781C48.1157 482.78 47.3601 483.05 46.7578 483.545C47.54 484.186 47.9935 485.144 47.9935 486.155C47.9935 487.167 47.54 488.125 46.7578 488.766C47.9074 489.709 49.5387 489.788 50.7747 488.962C52.0107 488.135 52.56 486.597 52.1274 485.174C51.6948 483.752 50.3821 482.78 48.8951 482.781Z" fill="#FAAD14"/>
</g>
<path fill-rule="evenodd" clip-rule="evenodd" d="M42.1641 461.999C42.1641 457.397 45.8948 453.666 50.4974 453.666C55.1 453.666 58.8307 457.397 58.8307 461.999C58.8307 466.602 55.1 470.333 50.4974 470.333C45.8948 470.333 42.1641 466.602 42.1641 461.999ZM53.5829 460.449C53.6341 460.381 53.6713 460.303 53.692 460.22C53.7127 460.137 53.7167 460.051 53.7037 459.966C53.6906 459.882 53.6609 459.801 53.6161 459.728C53.5713 459.655 53.5124 459.592 53.4429 459.543C53.3734 459.493 53.2947 459.458 53.2113 459.439C53.128 459.42 53.0417 459.418 52.9576 459.433C52.8735 459.448 52.7933 459.48 52.7216 459.526C52.6499 459.573 52.5882 459.633 52.5401 459.704L49.7743 463.575L48.3863 462.187C48.2648 462.074 48.104 462.013 47.938 462.015C47.7719 462.018 47.6135 462.086 47.496 462.203C47.3786 462.321 47.3113 462.479 47.3084 462.645C47.3054 462.811 47.3671 462.972 47.4803 463.093L49.4034 465.016C49.4692 465.082 49.5485 465.133 49.6358 465.165C49.7232 465.197 49.8165 465.21 49.9092 465.202C50.0019 465.194 50.0918 465.166 50.1727 465.121C50.2536 465.075 50.3236 465.012 50.3777 464.936L53.5829 460.449Z" fill="#29CC6A"/>
<defs>
<filter id="filter0_ddd_4562_23535" x="1.03125" y="274" width="70.9688" height="70.6436" filterUnits="userSpaceOnUse" color-interpolation-filters="sRGB">
<feFlood flood-opacity="0" result="BackgroundImageFix"/>
<feColorMatrix in="SourceAlpha" type="matrix" values="0 0 0 0 0 0 0 0 0 0 0 0 0 0 0 0 0 0 127 0" result="hardAlpha"/>
<feOffset dy="6"/>
<feGaussianBlur stdDeviation="6"/>
<feColorMatrix type="matrix" values="0 0 0 0 0.0562384 0 0 0 0 0.121895 0 0 0 0 0.209437 0 0 0 0.08 0"/>
<feBlend mode="normal" in2="BackgroundImageFix" result="effect1_dropShadow_4562_23535"/>
<feColorMatrix in="SourceAlpha" type="matrix" values="0 0 0 0 0 0 0 0 0 0 0 0 0 0 0 0 0 0 127 0" result="hardAlpha"/>
<feOffset dy="4"/>
<feGaussianBlur stdDeviation="4"/>
<feColorMatrix type="matrix" values="0 0 0 0 0.0562384 0 0 0 0 0.121895 0 0 0 0 0.209437 0 0 0 0.1 0"/>
<feBlend mode="normal" in2="effect1_dropShadow_4562_23535" result="effect2_dropShadow_4562_23535"/>
<feColorMatrix in="SourceAlpha" type="matrix" values="0 0 0 0 0 0 0 0 0 0 0 0 0 0 0 0 0 0 127 0" result="hardAlpha"/>
<feOffset dy="1"/>
<feGaussianBlur stdDeviation="2"/>
<feColorMatrix type="matrix" values="0 0 0 0 0.0562384 0 0 0 0 0.121895 0 0 0 0 0.209437 0 0 0 0.12 0"/>
<feBlend mode="normal" in2="effect2_dropShadow_4562_23535" result="effect3_dropShadow_4562_23535"/>
<feBlend mode="normal" in="SourceGraphic" in2="effect3_dropShadow_4562_23535" result="shape"/>
</filter>
<filter id="filter1_b_4562_23535" x="6.65625" y="301.101" width="33.2734" height="33.001" filterUnits="userSpaceOnUse" color-interpolation-filters="sRGB">
<feFlood flood-opacity="0" result="BackgroundImageFix"/>
<feGaussianBlur in="BackgroundImageFix" stdDeviation="2"/>
<feComposite in2="SourceAlpha" operator="in" result="effect1_backgroundBlur_4562_23535"/>
<feBlend mode="normal" in="SourceGraphic" in2="effect1_backgroundBlur_4562_23535" result="shape"/>
</filter>
<filter id="filter2_dd_4562_23535" x="-4" y="388" width="72" height="72" filterUnits="userSpaceOnUse" color-interpolation-filters="sRGB">
<feFlood flood-opacity="0" result="BackgroundImageFix"/>
<feColorMatrix in="SourceAlpha" type="matrix" values="0 0 0 0 0 0 0 0 0 0 0 0 0 0 0 0 0 0 127 0" result="hardAlpha"/>
<feOffset dy="4"/>
<feGaussianBlur stdDeviation="4"/>
<feColorMatrix type="matrix" values="0 0 0 0 0.0562384 0 0 0 0 0.121895 0 0 0 0 0.209437 0 0 0 0.08 0"/>
<feBlend mode="normal" in2="BackgroundImageFix" result="effect1_dropShadow_4562_23535"/>
<feColorMatrix in="SourceAlpha" type="matrix" values="0 0 0 0 0 0 0 0 0 0 0 0 0 0 0 0 0 0 127 0" result="hardAlpha"/>
<feOffset dy="1"/>
<feGaussianBlur stdDeviation="2"/>
<feColorMatrix type="matrix" values="0 0 0 0 0.0562384 0 0 0 0 0.121895 0 0 0 0 0.209437 0 0 0 0.12 0"/>
<feBlend mode="normal" in2="effect1_dropShadow_4562_23535" result="effect2_dropShadow_4562_23535"/>
<feBlend mode="normal" in="SourceGraphic" in2="effect2_dropShadow_4562_23535" result="shape"/>
</filter>
<filter id="filter3_dd_4562_23535" x="-4" y="444" width="72" height="72" filterUnits="userSpaceOnUse" color-interpolation-filters="sRGB">
<feFlood flood-opacity="0" result="BackgroundImageFix"/>
<feColorMatrix in="SourceAlpha" type="matrix" values="0 0 0 0 0 0 0 0 0 0 0 0 0 0 0 0 0 0 127 0" result="hardAlpha"/>
<feOffset dy="4"/>
<feGaussianBlur stdDeviation="4"/>
<feColorMatrix type="matrix" values="0 0 0 0 0.0562384 0 0 0 0 0.121895 0 0 0 0 0.209437 0 0 0 0.08 0"/>
<feBlend mode="normal" in2="BackgroundImageFix" result="effect1_dropShadow_4562_23535"/>
<feColorMatrix in="SourceAlpha" type="matrix" values="0 0 0 0 0 0 0 0 0 0 0 0 0 0 0 0 0 0 127 0" result="hardAlpha"/>
<feOffset dy="1"/>
<feGaussianBlur stdDeviation="2"/>
<feColorMatrix type="matrix" values="0 0 0 0 0.0562384 0 0 0 0 0.121895 0 0 0 0 0.209437 0 0 0 0.12 0"/>
<feBlend mode="normal" in2="effect1_dropShadow_4562_23535" result="effect2_dropShadow_4562_23535"/>
<feBlend mode="normal" in="SourceGraphic" in2="effect2_dropShadow_4562_23535" result="shape"/>
</filter>
</defs>
</svg>
