<svg width="40" height="80" viewBox="0 0 40 80" fill="none" xmlns="http://www.w3.org/2000/svg">
<path d="M36.25 11.25V28.75C36.25 29.7446 35.8549 30.6984 35.1516 31.4016C34.4484 32.1049 33.4946 32.5 32.5 32.5H7.5C6.50544 32.5 5.55161 32.1049 4.84835 31.4016C4.14509 30.6984 3.75 29.7446 3.75 28.75V11.25M36.25 11.25C36.25 10.2554 35.8549 9.30161 35.1516 8.59835C34.4484 7.89509 33.4946 7.5 32.5 7.5H7.5C6.50544 7.5 5.55161 7.89509 4.84835 8.59835C4.14509 9.30161 3.75 10.2554 3.75 11.25M36.25 11.25V11.655C36.2501 12.2952 36.0862 12.9248 35.7741 13.4838C35.4619 14.0428 35.0118 14.5126 34.4667 14.8483L21.9667 22.54C21.3753 22.9042 20.6945 23.0971 20 23.0971C19.3055 23.0971 18.6247 22.9042 18.0333 22.54L5.53333 14.85C4.9882 14.5142 4.53812 14.0445 4.22595 13.4855C3.91378 12.9265 3.74993 12.2969 3.75 11.6567V11.25" stroke="#8C8C8C" stroke-width="2" stroke-linecap="round" stroke-linejoin="round"/>
<path d="M35.0012 69.0749C33.7796 67.8442 30.8211 66.0482 29.3857 65.3243C27.5164 64.3828 27.3625 64.3059 25.8933 65.3974C24.9133 66.1258 24.2617 66.7766 23.1148 66.532C21.9678 66.2874 19.4754 64.9082 17.2931 62.7329C15.1107 60.5576 13.6514 57.9931 13.4061 56.8501C13.1607 55.7071 13.8222 55.0632 14.5438 54.081C15.5607 52.6964 15.4838 52.4657 14.6145 50.5965C13.9368 49.1427 12.0883 46.2121 10.8529 44.9967C9.53134 43.6914 9.53134 43.9222 8.67979 44.276C7.98652 44.5677 7.32141 44.9222 6.69281 45.3352C5.46201 46.1529 4.77892 46.8321 4.30122 47.8528C3.82351 48.8735 3.60889 51.2665 6.07588 55.7478C8.54286 60.2292 10.2737 62.5206 13.8561 66.0928C17.4385 69.6649 20.1931 71.5856 24.2202 73.844C29.2018 76.6339 31.1126 76.09 32.1365 75.6131C33.1604 75.1362 33.8427 74.4593 34.662 73.2286C35.076 72.6011 35.4314 71.9368 35.7235 71.2441C36.0781 70.3957 36.3089 70.3957 35.0012 69.0749Z" stroke="#8C8C8C" stroke-width="2" stroke-miterlimit="10"/>
</svg>
