<svg width="24" height="48" viewBox="0 0 24 48" fill="none" xmlns="http://www.w3.org/2000/svg">
<path d="M17.004 10.407C17.142 10.842 16.788 11.249 16.332 11.249H12.867C12.7353 11.2491 12.6058 11.2144 12.4917 11.1486C12.3776 11.0828 12.2829 10.9881 12.217 10.874L10.485 7.87397C10.256 7.47797 10.432 6.96697 10.878 6.86997C12.1562 6.59053 13.4927 6.79826 14.6258 7.45248C15.7589 8.10669 16.6069 9.16028 17.004 10.407ZM8.12 8.46397C8.427 8.12597 8.958 8.22897 9.186 8.62397L10.918 11.624C10.9838 11.738 11.0185 11.8673 11.0185 11.999C11.0185 12.1306 10.9838 12.26 10.918 12.374L9.186 15.375C8.957 15.771 8.42601 15.873 8.11901 15.535C7.23674 14.5692 6.74831 13.308 6.75 12C6.74824 10.6914 7.23706 9.42974 8.12 8.46397ZM10.878 17.13C10.431 17.033 10.255 16.522 10.484 16.127L12.217 13.124C12.2829 13.0099 12.3776 12.9152 12.4917 12.8493C12.6058 12.7835 12.7353 12.7489 12.867 12.749H16.332C16.789 12.749 17.142 13.157 17.004 13.592C16.6071 14.8388 15.7591 15.8927 14.626 16.5471C13.4929 17.2015 12.1563 17.4094 10.878 17.13Z" fill="#595959"/>
<path fill-rule="evenodd" clip-rule="evenodd" d="M21 12.75C21.1989 12.75 21.3897 12.671 21.5303 12.5303C21.671 12.3896 21.75 12.1989 21.75 12C21.75 11.8011 21.671 11.6103 21.5303 11.4696C21.3897 11.329 21.1989 11.25 21 11.25H20.217C20.1761 10.7918 20.0968 10.3379 19.98 9.89297L20.714 9.62597C20.8066 9.59229 20.8916 9.5407 20.9642 9.47415C21.0369 9.4076 21.0957 9.32739 21.1374 9.23811C21.179 9.14882 21.2027 9.05221 21.207 8.95379C21.2113 8.85536 21.1962 8.75705 21.1625 8.66447C21.1288 8.57189 21.0772 8.48685 21.0107 8.4142C20.9441 8.34156 20.8639 8.28273 20.7746 8.24109C20.6853 8.19944 20.5887 8.17579 20.4903 8.17148C20.3919 8.16717 20.2936 8.18228 20.201 8.21597L19.466 8.48397C19.2699 8.06846 19.0394 7.67007 18.777 7.29297L19.377 6.78897C19.4541 6.7262 19.518 6.64873 19.5649 6.56105C19.6118 6.47338 19.6408 6.37725 19.6502 6.27826C19.6596 6.17927 19.6492 6.0794 19.6197 5.98445C19.5902 5.88951 19.542 5.80138 19.4781 5.72521C19.4142 5.64903 19.3358 5.58633 19.2474 5.54074C19.1591 5.49515 19.0625 5.46758 18.9634 5.45965C18.8643 5.45172 18.7646 5.46358 18.6701 5.49453C18.5756 5.52549 18.4882 5.57493 18.413 5.63997L17.813 6.14397C17.4867 5.8203 17.1342 5.52428 16.759 5.25897L17.15 4.58097C17.2 4.49564 17.2327 4.40126 17.246 4.30326C17.2594 4.20526 17.2533 4.10558 17.2281 4.00996C17.2028 3.91434 17.1588 3.82466 17.0987 3.74608C17.0387 3.66751 16.9636 3.6016 16.878 3.55215C16.7923 3.50269 16.6977 3.47067 16.5996 3.45792C16.5016 3.44517 16.4019 3.45195 16.3065 3.47786C16.211 3.50378 16.1216 3.54832 16.0434 3.60892C15.9653 3.66952 15.8999 3.74499 15.851 3.83097L15.461 4.50797C15.0433 4.31486 14.6101 4.1573 14.166 4.03697L14.302 3.26697C14.3322 3.07295 14.2851 2.87482 14.1709 2.71512C14.0566 2.55542 13.8843 2.4469 13.6909 2.41286C13.4976 2.37882 13.2985 2.42197 13.1366 2.53306C12.9747 2.64414 12.8628 2.81429 12.825 3.00697L12.689 3.77697C12.2308 3.73912 11.7702 3.73912 11.312 3.77697L11.176 3.00697C11.1606 2.90843 11.1258 2.81393 11.0735 2.72902C11.0211 2.64411 10.9524 2.57049 10.8713 2.51246C10.7902 2.45443 10.6983 2.41316 10.6011 2.39107C10.5038 2.36898 10.4031 2.3665 10.3049 2.38379C10.2067 2.40108 10.1129 2.43779 10.029 2.49177C9.94515 2.54574 9.8729 2.6159 9.81647 2.69814C9.76005 2.78038 9.7206 2.87305 9.70042 2.97072C9.68025 3.06839 9.67976 3.16911 9.69898 3.26697L9.83498 4.03697C9.38698 4.15797 8.95498 4.31697 8.54098 4.50697L8.15098 3.83097C8.10173 3.74561 8.03615 3.67079 7.95799 3.61077C7.87983 3.55075 7.79061 3.50672 7.69543 3.48118C7.60025 3.45565 7.50097 3.44911 7.40327 3.46194C7.30556 3.47477 7.21134 3.50672 7.12598 3.55597C7.04062 3.60522 6.96579 3.67079 6.90578 3.74895C6.84576 3.82712 6.80173 3.91633 6.77619 4.01152C6.75066 4.1067 6.74412 4.20597 6.75695 4.30368C6.76978 4.40139 6.80173 4.49561 6.85098 4.58097L7.24298 5.25897C6.86772 5.52425 6.51517 5.82027 6.18898 6.14397L5.58898 5.63997C5.43661 5.512 5.23965 5.4498 5.04142 5.46706C4.8432 5.48431 4.65994 5.5796 4.53198 5.73197C4.40401 5.88434 4.34181 6.0813 4.35906 6.27952C4.37632 6.47775 4.47161 6.661 4.62398 6.78897L5.22398 7.29197C4.96147 7.66939 4.731 8.06812 4.53498 8.48397L3.79998 8.21697C3.70739 8.18329 3.60908 8.16817 3.51066 8.17248C3.41224 8.17679 3.31562 8.20044 3.22634 8.24209C3.13706 8.28373 3.05685 8.34256 2.9903 8.4152C2.92375 8.48785 2.87216 8.57289 2.83848 8.66547C2.80479 8.75805 2.78967 8.85636 2.79398 8.95479C2.79829 9.05321 2.82195 9.14982 2.86359 9.23911C2.9477 9.41942 3.1 9.55894 3.28698 9.62697L4.02198 9.89397C3.90493 10.3382 3.82532 10.7914 3.78398 11.249H3.00098C2.80206 11.249 2.6113 11.328 2.47065 11.4686C2.32999 11.6093 2.25098 11.8001 2.25098 11.999C2.25098 12.1979 2.32999 12.3886 2.47065 12.5293C2.6113 12.67 2.80206 12.749 3.00098 12.749H3.78398C3.82598 13.213 3.90598 13.666 4.02198 14.105L3.28698 14.373C3.19439 14.4067 3.10935 14.4582 3.03671 14.5248C2.96407 14.5913 2.90524 14.6715 2.86359 14.7608C2.82195 14.8501 2.79829 14.9467 2.79398 15.0452C2.78967 15.1436 2.80479 15.2419 2.83848 15.3345C2.87216 15.4271 2.92375 15.5121 2.9903 15.5847C3.05685 15.6574 3.13706 15.7162 3.22634 15.7579C3.31562 15.7995 3.41224 15.8232 3.51066 15.8275C3.60908 15.8318 3.70739 15.8167 3.79998 15.783L4.53498 15.515C4.73198 15.932 4.96298 16.331 5.22498 16.707L4.62498 17.211C4.54582 17.273 4.47995 17.3503 4.43128 17.4383C4.3826 17.5263 4.35213 17.6232 4.34166 17.7232C4.33119 17.8233 4.34095 17.9244 4.37034 18.0205C4.39974 18.1167 4.44818 18.206 4.51278 18.2831C4.57737 18.3601 4.65681 18.4234 4.74637 18.4692C4.83592 18.5149 4.93377 18.5422 5.03408 18.5494C5.13439 18.5566 5.23512 18.5435 5.33027 18.511C5.42543 18.4784 5.51307 18.4271 5.58798 18.36L6.18898 17.855C6.51498 18.178 6.86798 18.475 7.24298 18.74L6.85098 19.42C6.80173 19.5053 6.76978 19.5996 6.75695 19.6973C6.74412 19.795 6.75066 19.8942 6.77619 19.9894C6.80173 20.0846 6.84576 20.1738 6.90578 20.252C6.96579 20.3301 7.04062 20.3957 7.12598 20.445C7.21134 20.4942 7.30556 20.5262 7.40327 20.539C7.50097 20.5518 7.60025 20.5453 7.69543 20.5198C7.79061 20.4942 7.87983 20.4502 7.95799 20.3902C8.03615 20.3302 8.10173 20.2553 8.15098 20.17L8.54098 19.491C8.95498 19.683 9.38798 19.841 9.83498 19.962L9.69898 20.733C9.67976 20.8308 9.68025 20.9315 9.70042 21.0292C9.7206 21.1269 9.76005 21.2196 9.81647 21.3018C9.8729 21.384 9.94515 21.4542 10.029 21.5082C10.1129 21.5621 10.2067 21.5989 10.3049 21.6161C10.4031 21.6334 10.5038 21.631 10.6011 21.6089C10.6983 21.5868 10.7902 21.5455 10.8713 21.4875C10.9524 21.4295 11.0211 21.3558 11.0735 21.2709C11.1258 21.186 11.1606 21.0915 11.176 20.993L11.313 20.221C11.7709 20.2587 12.2311 20.2587 12.689 20.221L12.825 20.994C12.8403 21.0925 12.8752 21.187 12.9275 21.2719C12.9798 21.3568 13.0485 21.4305 13.1297 21.4885C13.2108 21.5465 13.3026 21.5878 13.3999 21.6099C13.4972 21.632 13.5978 21.6344 13.6961 21.6171C13.7943 21.5999 13.8881 21.5631 13.9719 21.5092C14.0558 21.4552 14.1281 21.385 14.1845 21.3028C14.2409 21.2206 14.2804 21.1279 14.3005 21.0302C14.3207 20.9325 14.3212 20.8318 14.302 20.734L14.166 19.962C14.6097 19.8419 15.0426 19.6847 15.46 19.492L15.851 20.169C15.9002 20.2543 15.9658 20.3292 16.044 20.3892C16.1221 20.4492 16.2113 20.4932 16.3065 20.5188C16.4017 20.5443 16.501 20.5508 16.5987 20.538C16.6964 20.5252 16.7906 20.4932 16.876 20.444C16.9613 20.3947 17.0362 20.3291 17.0962 20.251C17.1562 20.1728 17.2002 20.0836 17.2258 19.9884C17.2513 19.8932 17.2578 19.794 17.245 19.6963C17.2322 19.5986 17.2002 19.5043 17.151 19.419L16.758 18.74C17.1333 18.4747 17.4858 18.1787 17.812 17.855L18.413 18.359C18.4885 18.4223 18.5757 18.4701 18.6697 18.4997C18.7637 18.5292 18.8626 18.54 18.9607 18.5314C19.0589 18.5227 19.1544 18.4949 19.2418 18.4493C19.3291 18.4038 19.4067 18.3415 19.47 18.266C19.5333 18.1905 19.5811 18.1032 19.6107 18.0092C19.6402 17.9153 19.651 17.8164 19.6424 17.7182C19.6338 17.6201 19.6059 17.5246 19.5603 17.4372C19.5148 17.3498 19.4525 17.2723 19.377 17.209L18.777 16.706C19.0398 16.3289 19.2706 15.9305 19.467 15.515L20.202 15.783C20.2946 15.8166 20.3929 15.8316 20.4913 15.8273C20.5897 15.8229 20.6862 15.7992 20.7755 15.7575C20.8647 15.7158 20.9449 15.6569 21.0113 15.5843C21.0778 15.5116 21.1294 15.4266 21.163 15.334C21.1966 15.2414 21.2116 15.1431 21.2073 15.0447C21.2029 14.9463 21.1792 14.8497 21.1375 14.7605C21.0958 14.6712 21.037 14.5911 20.9643 14.5246C20.8916 14.4581 20.8066 14.4066 20.714 14.373L19.98 14.105C20.095 13.667 20.175 13.213 20.217 12.749H21.001L21 12.75ZM18.343 9.68997C18.0708 8.94068 17.6679 8.24559 17.153 7.63697C16.6394 7.03096 16.0234 6.51987 15.333 6.12697C14.3174 5.54918 13.1684 5.24685 12 5.24997C11.5891 5.24989 11.1791 5.28704 10.775 5.36097C10.0182 5.49956 9.29085 5.76748 8.62498 6.15297C7.26706 6.93954 6.22382 8.17255 5.67298 9.64197C5.66329 9.67576 5.65126 9.70884 5.63698 9.74097C5.3803 10.4664 5.24974 11.2305 5.25098 12C5.24971 13.1813 5.55899 14.3422 6.14784 15.3663C6.73668 16.3904 7.58439 17.2418 8.60598 17.835L8.61598 17.841L8.62598 17.846C9.30752 18.2406 10.0532 18.5121 10.829 18.648C10.836 18.648 10.843 18.65 10.85 18.652C11.6114 18.7828 12.3896 18.7828 13.151 18.652L13.173 18.648C13.9582 18.5105 14.7127 18.2342 15.401 17.832C16.0686 17.4417 16.6645 16.9402 17.163 16.349L17.172 16.339L17.181 16.327C17.6934 15.7143 18.093 15.0154 18.361 14.263C18.614 13.555 18.751 12.793 18.751 11.999C18.7508 11.2117 18.6127 10.4306 18.343 9.69097V9.68997Z" fill="#595959"/>
<path d="M17.004 34.407C17.142 34.842 16.788 35.249 16.332 35.249H12.867C12.7353 35.2491 12.6058 35.2144 12.4917 35.1486C12.3776 35.0828 12.2829 34.9881 12.217 34.874L10.485 31.874C10.256 31.478 10.432 30.967 10.878 30.87C12.1562 30.5905 13.4927 30.7983 14.6258 31.4525C15.7589 32.1067 16.6069 33.1603 17.004 34.407ZM8.12 32.464C8.427 32.126 8.958 32.229 9.186 32.624L10.918 35.624C10.9838 35.738 11.0185 35.8673 11.0185 35.999C11.0185 36.1306 10.9838 36.26 10.918 36.374L9.186 39.375C8.957 39.771 8.42601 39.873 8.11901 39.535C7.23674 38.5692 6.74831 37.308 6.75 36C6.74824 34.6914 7.23706 33.4297 8.12 32.464ZM10.878 41.13C10.431 41.033 10.255 40.522 10.484 40.127L12.217 37.124C12.2829 37.0099 12.3776 36.9152 12.4917 36.8493C12.6058 36.7835 12.7353 36.7489 12.867 36.749H16.332C16.789 36.749 17.142 37.157 17.004 37.592C16.6071 38.8388 15.7591 39.8927 14.626 40.5471C13.4929 41.2015 12.1563 41.4094 10.878 41.13Z" fill="#FAFAFA"/>
<path fill-rule="evenodd" clip-rule="evenodd" d="M21 36.75C21.1989 36.75 21.3897 36.671 21.5303 36.5303C21.671 36.3896 21.75 36.1989 21.75 36C21.75 35.8011 21.671 35.6103 21.5303 35.4696C21.3897 35.329 21.1989 35.25 21 35.25H20.217C20.1761 34.7918 20.0968 34.3379 19.98 33.893L20.714 33.626C20.8066 33.5923 20.8916 33.5407 20.9642 33.4741C21.0369 33.4076 21.0957 33.3274 21.1374 33.2381C21.179 33.1488 21.2027 33.0522 21.207 32.9538C21.2113 32.8554 21.1962 32.7571 21.1625 32.6645C21.1288 32.5719 21.0772 32.4868 21.0107 32.4142C20.9441 32.3416 20.8639 32.2827 20.7746 32.2411C20.6853 32.1994 20.5887 32.1758 20.4903 32.1715C20.3919 32.1672 20.2936 32.1823 20.201 32.216L19.466 32.484C19.2699 32.0685 19.0394 31.6701 18.777 31.293L19.377 30.789C19.4541 30.7262 19.518 30.6487 19.5649 30.5611C19.6118 30.4734 19.6408 30.3772 19.6502 30.2783C19.6596 30.1793 19.6492 30.0794 19.6197 29.9845C19.5902 29.8895 19.542 29.8014 19.4781 29.7252C19.4142 29.649 19.3358 29.5863 19.2474 29.5407C19.1591 29.4951 19.0625 29.4676 18.9634 29.4597C18.8643 29.4517 18.7646 29.4636 18.6701 29.4945C18.5756 29.5255 18.4882 29.5749 18.413 29.64L17.813 30.144C17.4867 29.8203 17.1342 29.5243 16.759 29.259L17.15 28.581C17.2 28.4956 17.2327 28.4013 17.246 28.3033C17.2594 28.2053 17.2533 28.1056 17.2281 28.01C17.2028 27.9143 17.1588 27.8247 17.0987 27.7461C17.0387 27.6675 16.9636 27.6016 16.878 27.5521C16.7923 27.5027 16.6977 27.4707 16.5996 27.4579C16.5016 27.4452 16.4019 27.4519 16.3065 27.4779C16.211 27.5038 16.1216 27.5483 16.0434 27.6089C15.9653 27.6695 15.8999 27.745 15.851 27.831L15.461 28.508C15.0433 28.3149 14.6101 28.1573 14.166 28.037L14.302 27.267C14.3322 27.073 14.2851 26.8748 14.1709 26.7151C14.0566 26.5554 13.8843 26.4469 13.6909 26.4129C13.4976 26.3788 13.2985 26.422 13.1366 26.5331C12.9747 26.6441 12.8628 26.8143 12.825 27.007L12.689 27.777C12.2308 27.7391 11.7702 27.7391 11.312 27.777L11.176 27.007C11.1606 26.9084 11.1258 26.8139 11.0735 26.729C11.0211 26.6441 10.9524 26.5705 10.8713 26.5125C10.7902 26.4544 10.6983 26.4132 10.6011 26.3911C10.5038 26.369 10.4031 26.3665 10.3049 26.3838C10.2067 26.4011 10.1129 26.4378 10.029 26.4918C9.94515 26.5457 9.8729 26.6159 9.81647 26.6981C9.76005 26.7804 9.7206 26.873 9.70042 26.9707C9.68025 27.0684 9.67976 27.1691 9.69898 27.267L9.83498 28.037C9.38698 28.158 8.95498 28.317 8.54098 28.507L8.15098 27.831C8.10173 27.7456 8.03615 27.6708 7.95799 27.6108C7.87983 27.5508 7.79061 27.5067 7.69543 27.4812C7.60025 27.4556 7.50097 27.4491 7.40327 27.4619C7.30556 27.4748 7.21134 27.5067 7.12598 27.556C7.04062 27.6052 6.96579 27.6708 6.90578 27.749C6.84576 27.8271 6.80173 27.9163 6.77619 28.0115C6.75066 28.1067 6.74412 28.206 6.75695 28.3037C6.76978 28.4014 6.80173 28.4956 6.85098 28.581L7.24298 29.259C6.86772 29.5242 6.51517 29.8203 6.18898 30.144L5.58898 29.64C5.43661 29.512 5.23965 29.4498 5.04142 29.4671C4.8432 29.4843 4.65994 29.5796 4.53198 29.732C4.40401 29.8843 4.34181 30.0813 4.35906 30.2795C4.37632 30.4777 4.47161 30.661 4.62398 30.789L5.22398 31.292C4.96147 31.6694 4.731 32.0681 4.53498 32.484L3.79998 32.217C3.70739 32.1833 3.60908 32.1682 3.51066 32.1725C3.41224 32.1768 3.31562 32.2004 3.22634 32.2421C3.13706 32.2837 3.05685 32.3426 2.9903 32.4152C2.92375 32.4878 2.87216 32.5729 2.83848 32.6655C2.80479 32.7581 2.78967 32.8564 2.79398 32.9548C2.79829 33.0532 2.82195 33.1498 2.86359 33.2391C2.9477 33.4194 3.1 33.5589 3.28698 33.627L4.02198 33.894C3.90493 34.3382 3.82532 34.7914 3.78398 35.249H3.00098C2.80206 35.249 2.6113 35.328 2.47065 35.4686C2.32999 35.6093 2.25098 35.8001 2.25098 35.999C2.25098 36.1979 2.32999 36.3886 2.47065 36.5293C2.6113 36.67 2.80206 36.749 3.00098 36.749H3.78398C3.82598 37.213 3.90598 37.666 4.02198 38.105L3.28698 38.373C3.19439 38.4067 3.10935 38.4582 3.03671 38.5248C2.96407 38.5913 2.90524 38.6715 2.86359 38.7608C2.82195 38.8501 2.79829 38.9467 2.79398 39.0452C2.78967 39.1436 2.80479 39.2419 2.83848 39.3345C2.87216 39.4271 2.92375 39.5121 2.9903 39.5847C3.05685 39.6574 3.13706 39.7162 3.22634 39.7579C3.31562 39.7995 3.41224 39.8232 3.51066 39.8275C3.60908 39.8318 3.70739 39.8167 3.79998 39.783L4.53498 39.515C4.73198 39.932 4.96298 40.331 5.22498 40.707L4.62498 41.211C4.54582 41.273 4.47995 41.3503 4.43128 41.4383C4.3826 41.5263 4.35213 41.6232 4.34166 41.7232C4.33119 41.8233 4.34095 41.9244 4.37034 42.0205C4.39974 42.1167 4.44818 42.206 4.51278 42.2831C4.57737 42.3601 4.65681 42.4234 4.74637 42.4692C4.83592 42.5149 4.93377 42.5422 5.03408 42.5494C5.13439 42.5566 5.23512 42.5435 5.33027 42.511C5.42543 42.4784 5.51307 42.4271 5.58798 42.36L6.18898 41.855C6.51498 42.178 6.86798 42.475 7.24298 42.74L6.85098 43.42C6.80173 43.5053 6.76978 43.5996 6.75695 43.6973C6.74412 43.795 6.75066 43.8942 6.77619 43.9894C6.80173 44.0846 6.84576 44.1738 6.90578 44.252C6.96579 44.3301 7.04062 44.3957 7.12598 44.445C7.21134 44.4942 7.30556 44.5262 7.40327 44.539C7.50097 44.5518 7.60025 44.5453 7.69543 44.5198C7.79061 44.4942 7.87983 44.4502 7.95799 44.3902C8.03615 44.3302 8.10173 44.2553 8.15098 44.17L8.54098 43.491C8.95498 43.683 9.38798 43.841 9.83498 43.962L9.69898 44.733C9.67976 44.8308 9.68025 44.9315 9.70042 45.0292C9.7206 45.1269 9.76005 45.2196 9.81647 45.3018C9.8729 45.384 9.94515 45.4542 10.029 45.5082C10.1129 45.5621 10.2067 45.5989 10.3049 45.6161C10.4031 45.6334 10.5038 45.631 10.6011 45.6089C10.6983 45.5868 10.7902 45.5455 10.8713 45.4875C10.9524 45.4295 11.0211 45.3558 11.0735 45.2709C11.1258 45.186 11.1606 45.0915 11.176 44.993L11.313 44.221C11.7709 44.2587 12.2311 44.2587 12.689 44.221L12.825 44.994C12.8403 45.0925 12.8752 45.187 12.9275 45.2719C12.9798 45.3568 13.0485 45.4305 13.1297 45.4885C13.2108 45.5465 13.3026 45.5878 13.3999 45.6099C13.4972 45.632 13.5978 45.6344 13.6961 45.6171C13.7943 45.5999 13.8881 45.5631 13.9719 45.5092C14.0558 45.4552 14.1281 45.385 14.1845 45.3028C14.2409 45.2206 14.2804 45.1279 14.3005 45.0302C14.3207 44.9325 14.3212 44.8318 14.302 44.734L14.166 43.962C14.6097 43.8419 15.0426 43.6847 15.46 43.492L15.851 44.169C15.9002 44.2543 15.9658 44.3292 16.044 44.3892C16.1221 44.4492 16.2113 44.4932 16.3065 44.5188C16.4017 44.5443 16.501 44.5508 16.5987 44.538C16.6964 44.5252 16.7906 44.4932 16.876 44.444C16.9613 44.3947 17.0362 44.3291 17.0962 44.251C17.1562 44.1728 17.2002 44.0836 17.2258 43.9884C17.2513 43.8932 17.2578 43.794 17.245 43.6963C17.2322 43.5986 17.2002 43.5043 17.151 43.419L16.758 42.74C17.1333 42.4747 17.4858 42.1787 17.812 41.855L18.413 42.359C18.4885 42.4223 18.5757 42.4701 18.6697 42.4997C18.7637 42.5292 18.8626 42.54 18.9607 42.5314C19.0589 42.5227 19.1544 42.4949 19.2418 42.4493C19.3291 42.4038 19.4067 42.3415 19.47 42.266C19.5333 42.1905 19.5811 42.1032 19.6107 42.0092C19.6402 41.9153 19.651 41.8164 19.6424 41.7182C19.6338 41.6201 19.6059 41.5246 19.5603 41.4372C19.5148 41.3498 19.4525 41.2723 19.377 41.209L18.777 40.706C19.0398 40.3289 19.2706 39.9305 19.467 39.515L20.202 39.783C20.2946 39.8166 20.3929 39.8316 20.4913 39.8273C20.5897 39.8229 20.6862 39.7992 20.7755 39.7575C20.8647 39.7158 20.9449 39.6569 21.0113 39.5843C21.0778 39.5116 21.1294 39.4266 21.163 39.334C21.1966 39.2414 21.2116 39.1431 21.2073 39.0447C21.2029 38.9463 21.1792 38.8497 21.1375 38.7605C21.0958 38.6712 21.037 38.5911 20.9643 38.5246C20.8916 38.4581 20.8066 38.4066 20.714 38.373L19.98 38.105C20.095 37.667 20.175 37.213 20.217 36.749H21.001L21 36.75ZM18.343 33.69C18.0708 32.9407 17.6679 32.2456 17.153 31.637C16.6394 31.031 16.0234 30.5199 15.333 30.127C14.3174 29.5492 13.1684 29.2469 12 29.25C11.5891 29.2499 11.1791 29.287 10.775 29.361C10.0182 29.4996 9.29085 29.7675 8.62498 30.153C7.26706 30.9395 6.22382 32.1725 5.67298 33.642C5.66329 33.6758 5.65126 33.7088 5.63698 33.741C5.3803 34.4664 5.24974 35.2305 5.25098 36C5.24971 37.1813 5.55899 38.3422 6.14784 39.3663C6.73668 40.3904 7.58439 41.2418 8.60598 41.835L8.61598 41.841L8.62598 41.846C9.30752 42.2406 10.0532 42.5121 10.829 42.648C10.836 42.648 10.843 42.65 10.85 42.652C11.6114 42.7828 12.3896 42.7828 13.151 42.652L13.173 42.648C13.9582 42.5105 14.7127 42.2342 15.401 41.832C16.0686 41.4417 16.6645 40.9402 17.163 40.349L17.172 40.339L17.181 40.327C17.6934 39.7143 18.093 39.0154 18.361 38.263C18.614 37.555 18.751 36.793 18.751 35.999C18.7508 35.2117 18.6127 34.4306 18.343 33.691V33.69Z" fill="#FAFAFA"/>
</svg>
