<svg width="18" height="18" viewBox="0 0 18 18" fill="none" xmlns="http://www.w3.org/2000/svg">
<path fill-rule="evenodd" clip-rule="evenodd" d="M3.78885 13.293C3.91301 13.4219 4.08324 13.4961 4.26212 13.4995C4.44101 13.5029 4.61391 13.4351 4.74285 13.311L8.79285 9.48604C8.85818 9.42308 8.91014 9.34759 8.94563 9.26408C8.98112 9.18058 8.99941 9.09078 8.99941 9.00004C8.99941 8.90931 8.98112 8.81951 8.94563 8.736C8.91014 8.6525 8.85818 8.57701 8.79285 8.51404L4.74285 4.68904C4.67967 4.62447 4.60418 4.57323 4.52084 4.53837C4.4375 4.50351 4.34802 4.48573 4.25768 4.48609C4.16734 4.48645 4.078 4.50493 3.99494 4.54045C3.91188 4.57597 3.8368 4.62781 3.77413 4.69288C3.71147 4.75795 3.66251 4.83493 3.63015 4.91927C3.59779 5.00361 3.58269 5.09359 3.58574 5.18388C3.58879 5.27416 3.60993 5.36292 3.64791 5.44488C3.68589 5.52684 3.73994 5.60035 3.80685 5.66104L7.35105 9.00004L3.80685 12.339C3.67802 12.4632 3.60377 12.6334 3.60039 12.8123C3.59702 12.9912 3.6648 13.1641 3.78885 13.293ZM9.18885 13.293C9.31301 13.4219 9.48324 13.4961 9.66212 13.4995C9.84101 13.5029 10.0139 13.4351 10.1428 13.311L14.1928 9.48604C14.2582 9.42308 14.3101 9.34759 14.3456 9.26408C14.3811 9.18058 14.3994 9.09078 14.3994 9.00004C14.3994 8.90931 14.3811 8.81951 14.3456 8.736C14.3101 8.6525 14.2582 8.57701 14.1928 8.51404L10.1428 4.68904C10.0797 4.62447 10.0042 4.57323 9.92084 4.53837C9.8375 4.50351 9.74802 4.48573 9.65768 4.48609C9.56734 4.48645 9.478 4.50493 9.39494 4.54045C9.31188 4.57597 9.2368 4.62781 9.17413 4.69288C9.11147 4.75795 9.06251 4.83493 9.03015 4.91927C8.99779 5.00361 8.98268 5.09359 8.98574 5.18388C8.98879 5.27416 9.00993 5.36292 9.04791 5.44488C9.08589 5.52684 9.13994 5.60035 9.20685 5.66104L12.751 9.00004L9.20685 12.339C9.07802 12.4632 9.00377 12.6334 9.00039 12.8123C8.99702 12.9912 9.0648 13.1641 9.18885 13.293Z" fill="#8C8C8C"/>
</svg>
