<svg width="40" height="40" viewBox="0 0 40 40" fill="none" xmlns="http://www.w3.org/2000/svg">
<g id="Icons / Navigtation / search">
<path id="Vector" fill-rule="evenodd" clip-rule="evenodd" d="M17.5 6.2499C16.0226 6.2499 14.5597 6.54089 13.1948 7.10625C11.8299 7.67162 10.5897 8.50029 9.54505 9.54495C8.50039 10.5896 7.67172 11.8298 7.10635 13.1947C6.54099 14.5596 6.25 16.0225 6.25 17.4999C6.25 18.9773 6.54099 20.4402 7.10635 21.8051C7.67172 23.17 8.50039 24.4102 9.54505 25.4548C10.5897 26.4995 11.8299 27.3282 13.1948 27.8935C14.5597 28.4589 16.0226 28.7499 17.5 28.7499C20.4837 28.7499 23.3452 27.5646 25.455 25.4548C27.5647 23.3451 28.75 20.4836 28.75 17.4999C28.75 14.5162 27.5647 11.6547 25.455 9.54495C23.3452 7.43516 20.4837 6.2499 17.5 6.2499ZM3.75 17.4999C3.75029 15.2917 4.2824 13.1161 5.30132 11.1571C6.32023 9.19802 7.79598 7.51319 9.60373 6.2451C11.4115 4.977 13.498 4.16294 15.6869 3.87177C17.8758 3.5806 20.1026 3.8209 22.179 4.57232C24.2554 5.32375 26.1203 6.56421 27.6159 8.18876C29.1115 9.81332 30.1939 11.7742 30.7714 13.9055C31.3489 16.0368 31.4046 18.2759 30.9339 20.4333C30.4631 22.5907 29.4796 24.603 28.0667 26.2999L35.8833 34.1166C36.0061 34.231 36.1046 34.369 36.173 34.5223C36.2413 34.6757 36.278 34.8412 36.281 35.009C36.2839 35.1769 36.2531 35.3436 36.1902 35.4992C36.1273 35.6549 36.0338 35.7963 35.9151 35.915C35.7964 36.0337 35.655 36.1272 35.4993 36.1901C35.3437 36.253 35.177 36.2838 35.0091 36.2809C34.8413 36.2779 34.6758 36.2412 34.5224 36.1729C34.3691 36.1045 34.2311 36.006 34.1167 35.8832L26.3 28.0666C24.292 29.7391 21.849 30.8047 19.2572 31.1387C16.6654 31.4726 14.032 31.0611 11.6657 29.9522C9.29934 28.8434 7.29797 27.0832 5.89605 24.8778C4.49413 22.6724 3.74971 20.1132 3.75 17.4999Z" fill="#6A27D8"/>
</g>
</svg>