<svg width="20" height="40" viewBox="0 0 20 40" fill="none" xmlns="http://www.w3.org/2000/svg">
<path d="M10 12.5C10.663 12.5 11.2989 12.2366 11.7678 11.7678C12.2366 11.2989 12.5 10.663 12.5 10C12.5 9.33696 12.2366 8.70107 11.7678 8.23223C11.2989 7.76339 10.663 7.5 10 7.5C9.33696 7.5 8.70107 7.76339 8.23223 8.23223C7.76339 8.70107 7.5 9.33696 7.5 10C7.5 10.663 7.76339 11.2989 8.23223 11.7678C8.70107 12.2366 9.33696 12.5 10 12.5Z" fill="#BFBFBF"/>
<path fill-rule="evenodd" clip-rule="evenodd" d="M1.10167 9.53917C2.34167 5.81333 5.85583 3.125 10 3.125C14.1417 3.125 17.6542 5.81083 18.8958 9.53333C18.9958 9.835 18.9958 10.16 18.8958 10.4608C17.6567 14.1867 14.1417 16.875 9.99833 16.875C5.85667 16.875 2.34333 14.1892 1.1025 10.4667C1.00229 10.1656 1.00229 9.84021 1.1025 9.53917H1.10167ZM14.3742 10C14.3742 11.1603 13.9132 12.2731 13.0928 13.0936C12.2723 13.9141 11.1595 14.375 9.99917 14.375C8.83885 14.375 7.72605 13.9141 6.90558 13.0936C6.0851 12.2731 5.62417 11.1603 5.62417 10C5.62417 8.83968 6.0851 7.72688 6.90558 6.90641C7.72605 6.08594 8.83885 5.625 9.99917 5.625C11.1595 5.625 12.2723 6.08594 13.0928 6.90641C13.9132 7.72688 14.3742 8.83968 14.3742 10Z" fill="#BFBFBF"/>
<path fill-rule="evenodd" clip-rule="evenodd" d="M3.28082 22.22C3.13865 22.0875 2.9506 22.0154 2.7563 22.0188C2.562 22.0222 2.37661 22.1009 2.2392 22.2383C2.10179 22.3758 2.02308 22.5611 2.01965 22.7554C2.01622 22.9497 2.08834 23.1378 2.22082 23.28L16.7208 37.78C16.7895 37.8537 16.8723 37.9128 16.9643 37.9537C17.0563 37.9947 17.1556 38.0168 17.2563 38.0186C17.357 38.0203 17.457 38.0018 17.5504 37.9641C17.6438 37.9264 17.7286 37.8702 17.7999 37.799C17.8711 37.7278 17.9272 37.643 17.9649 37.5496C18.0027 37.4562 18.0212 37.3561 18.0194 37.2554C18.0176 37.1547 17.9956 37.0554 17.9546 36.9634C17.9136 36.8714 17.8545 36.7886 17.7808 36.72L16.0358 34.975C17.5214 33.8499 18.6641 32.3332 19.3358 30.595C19.4825 30.2136 19.4825 29.7914 19.3358 29.41C18.6096 27.5233 17.3287 25.901 15.6622 24.7567C13.9956 23.6125 12.0214 23 9.99982 23C8.3438 22.9972 6.71324 23.4076 5.25582 24.194L3.28082 22.22ZM7.75282 26.69L8.84482 27.782C9.31659 27.5354 9.85475 27.4458 10.3809 27.5263C10.9071 27.6068 11.3939 27.8532 11.7704 28.2295C12.1468 28.6059 12.3933 29.0926 12.474 29.6188C12.5547 30.1449 12.4653 30.6831 12.2188 31.155L13.3098 32.247C13.8334 31.4771 14.072 30.5487 13.9845 29.6218C13.8971 28.6949 13.489 27.8275 12.8307 27.1691C12.1723 26.5108 11.3049 26.1027 10.378 26.0153C9.4511 25.9278 8.5227 26.1664 7.75282 26.69Z" fill="#BFBFBF"/>
<path d="M10.7489 33.93L13.2719 36.453C12.2199 36.8163 11.1147 37.0011 10.0019 37C5.74386 37 2.10786 34.34 0.664859 30.59C0.517964 30.2083 0.517964 29.7857 0.664859 29.404C1.15333 28.1404 1.89327 26.9892 2.83986 26.02L6.07086 29.252C5.94876 29.8928 5.98524 30.5538 6.17712 31.1773C6.369 31.8008 6.71046 32.3679 7.17174 32.8291C7.63302 33.2904 8.20011 33.6319 8.8236 33.8238C9.44709 34.0156 10.108 34.0521 10.7489 33.93Z" fill="#BFBFBF"/>
</svg>
