<svg width="24" height="48" viewBox="0 0 24 48" fill="none" xmlns="http://www.w3.org/2000/svg">
<path d="M15 9H18.75M15 12H18.75M15 15H18.75M4.5 19.5H19.5C20.0967 19.5 20.669 19.2629 21.091 18.841C21.5129 18.419 21.75 17.8467 21.75 17.25V6.75C21.75 6.15326 21.5129 5.58097 21.091 5.15901C20.669 4.73705 20.0967 4.5 19.5 4.5H4.5C3.90326 4.5 3.33097 4.73705 2.90901 5.15901C2.48705 5.58097 2.25 6.15326 2.25 6.75V17.25C2.25 17.8467 2.48705 18.419 2.90901 18.841C3.33097 19.2629 3.90326 19.5 4.5 19.5ZM10.5 9.375C10.5 9.62123 10.4515 9.86505 10.3573 10.0925C10.263 10.32 10.1249 10.5267 9.95083 10.7008C9.77672 10.8749 9.57002 11.013 9.34253 11.1073C9.11505 11.2015 8.87123 11.25 8.625 11.25C8.37877 11.25 8.13495 11.2015 7.90747 11.1073C7.67998 11.013 7.47328 10.8749 7.29917 10.7008C7.12506 10.5267 6.98695 10.32 6.89273 10.0925C6.7985 9.86505 6.75 9.62123 6.75 9.375C6.75 8.87772 6.94754 8.40081 7.29917 8.04918C7.65081 7.69754 8.12772 7.5 8.625 7.5C9.12228 7.5 9.59919 7.69754 9.95082 8.04918C10.3025 8.40081 10.5 8.87772 10.5 9.375ZM11.794 15.711C10.8183 16.2307 9.72947 16.5017 8.624 16.5C7.5192 16.5014 6.4311 16.2304 5.456 15.711C5.69429 15.0622 6.12594 14.5023 6.69267 14.1067C7.25939 13.7111 7.93387 13.499 8.625 13.499C9.31613 13.499 9.99061 13.7111 10.5573 14.1067C11.1241 14.5023 11.5557 15.0622 11.794 15.711Z" stroke="#595959" stroke-width="1.2" stroke-linecap="round" stroke-linejoin="round"/>
<path d="M15 33H18.75M15 36H18.75M15 39H18.75M4.5 43.5H19.5C20.0967 43.5 20.669 43.2629 21.091 42.841C21.5129 42.419 21.75 41.8467 21.75 41.25V30.75C21.75 30.1533 21.5129 29.581 21.091 29.159C20.669 28.7371 20.0967 28.5 19.5 28.5H4.5C3.90326 28.5 3.33097 28.7371 2.90901 29.159C2.48705 29.581 2.25 30.1533 2.25 30.75V41.25C2.25 41.8467 2.48705 42.419 2.90901 42.841C3.33097 43.2629 3.90326 43.5 4.5 43.5ZM10.5 33.375C10.5 33.6212 10.4515 33.865 10.3573 34.0925C10.263 34.32 10.1249 34.5267 9.95083 34.7008C9.77672 34.8749 9.57002 35.013 9.34253 35.1073C9.11505 35.2015 8.87123 35.25 8.625 35.25C8.37877 35.25 8.13495 35.2015 7.90747 35.1073C7.67998 35.013 7.47328 34.8749 7.29917 34.7008C7.12506 34.5267 6.98695 34.32 6.89273 34.0925C6.7985 33.865 6.75 33.6212 6.75 33.375C6.75 32.8777 6.94754 32.4008 7.29917 32.0492C7.65081 31.6975 8.12772 31.5 8.625 31.5C9.12228 31.5 9.59919 31.6975 9.95082 32.0492C10.3025 32.4008 10.5 32.8777 10.5 33.375ZM11.794 39.711C10.8183 40.2307 9.72947 40.5017 8.624 40.5C7.5192 40.5014 6.4311 40.2304 5.456 39.711C5.69429 39.0622 6.12594 38.5023 6.69267 38.1067C7.25939 37.7111 7.93387 37.499 8.625 37.499C9.31613 37.499 9.99061 37.7111 10.5573 38.1067C11.1241 38.5023 11.5557 39.0622 11.794 39.711Z" stroke="#FAFAFA" stroke-width="1.2" stroke-linecap="round" stroke-linejoin="round"/>
</svg>
