<svg width="18" height="36" viewBox="0 0 18 36" fill="none" xmlns="http://www.w3.org/2000/svg">
<path d="M11.4676 27.2175L9.52508 25.275C9.4557 25.2055 9.37328 25.1503 9.28255 25.1127C9.19182 25.075 9.09456 25.0557 8.99633 25.0557C8.89811 25.0557 8.80085 25.075 8.71012 25.1127C8.61939 25.1503 8.53697 25.2055 8.46758 25.275L6.52508 27.2175C6.05258 27.69 6.39008 28.5 7.05758 28.5L10.9426 28.5C11.6101 28.5 11.9401 27.69 11.4676 27.2175Z" fill="#595959"/>
<path d="M6.53242 8.7825L8.47492 10.725C8.5443 10.7945 8.62672 10.8497 8.71745 10.8873C8.80818 10.925 8.90544 10.9443 9.00367 10.9443C9.10189 10.9443 9.19915 10.925 9.28988 10.8873C9.38061 10.8497 9.46303 10.7945 9.53242 10.725L11.4749 8.7825C11.9474 8.31 11.6099 7.5 10.9424 7.5L7.05742 7.5C6.38992 7.5 6.05992 8.31 6.53242 8.7825Z" fill="#595959"/>
</svg>
