<svg width="18" height="36" viewBox="0 0 18 36" fill="none" xmlns="http://www.w3.org/2000/svg">
<path d="M17.25 27C17.25 28.0834 17.0366 29.1562 16.622 30.1571C16.2074 31.1581 15.5997 32.0675 14.8336 32.8336C14.0675 33.5997 13.1581 34.2074 12.1571 34.622C11.1562 35.0366 10.0834 35.25 9 35.25C7.91659 35.25 6.8438 35.0366 5.84286 34.622C4.84193 34.2074 3.93245 33.5997 3.16637 32.8336C2.40029 32.0675 1.7926 31.1581 1.37799 30.1571C0.963392 29.1562 0.75 28.0834 0.75 27C0.75 24.812 1.61919 22.7135 3.16637 21.1664C4.71354 19.6192 6.81196 18.75 9 18.75C11.188 18.75 13.2865 19.6192 14.8336 21.1664C16.3808 22.7135 17.25 24.812 17.25 27Z" stroke="#6A27D8" stroke-width="1.5" stroke-linecap="round" stroke-linejoin="round"/>
<path d="M15.5052 27C15.5052 27.8536 15.3371 28.6988 15.0104 29.4874C14.6838 30.2761 14.205 30.9926 13.6014 31.5962C12.9978 32.1998 12.2813 32.6786 11.4927 33.0052C10.704 33.3319 9.85881 33.5 9.00522 33.5C8.15163 33.5 7.30639 33.3319 6.51778 33.0052C5.72916 32.6786 5.0126 32.1998 4.40902 31.5962C3.80544 30.9926 3.32666 30.2761 3 29.4874C2.67334 28.6988 2.50522 27.8536 2.50522 27C2.50522 25.2761 3.19004 23.6228 4.40902 22.4038C5.62801 21.1848 7.28131 20.5 9.00522 20.5C10.7291 20.5 12.3824 21.1848 13.6014 22.4038C14.8204 23.6228 15.5052 25.2761 15.5052 27Z" fill="#8852E0"/>
<path d="M17.25 9C17.25 10.0834 17.0366 11.1562 16.622 12.1571C16.2074 13.1581 15.5997 14.0675 14.8336 14.8336C14.0675 15.5997 13.1581 16.2074 12.1571 16.622C11.1562 17.0366 10.0834 17.25 9 17.25C7.91659 17.25 6.8438 17.0366 5.84286 16.622C4.84193 16.2074 3.93245 15.5997 3.16637 14.8336C2.40029 14.0675 1.7926 13.1581 1.37799 12.1571C0.963392 11.1562 0.75 10.0834 0.75 9C0.75 6.81196 1.61919 4.71354 3.16637 3.16637C4.71354 1.61919 6.81196 0.75 9 0.75C11.188 0.75 13.2865 1.61919 14.8336 3.16637C16.3808 4.71354 17.25 6.81196 17.25 9Z" stroke="#8C8C8C" stroke-width="1.5" stroke-linecap="round" stroke-linejoin="round"/>
</svg>
