<svg width="24" height="48" viewBox="0 0 24 48" fill="none" xmlns="http://www.w3.org/2000/svg">
<path d="M3.75 6C3.75 5.40326 3.98705 4.83097 4.40901 4.40901C4.83097 3.98705 5.40326 3.75 6 3.75H8.25C8.84674 3.75 9.41903 3.98705 9.84099 4.40901C10.2629 4.83097 10.5 5.40326 10.5 6V8.25C10.5 8.84674 10.2629 9.41903 9.84099 9.84099C9.41903 10.2629 8.84674 10.5 8.25 10.5H6C5.40326 10.5 4.83097 10.2629 4.40901 9.84099C3.98705 9.41903 3.75 8.84674 3.75 8.25V6ZM3.75 15.75C3.75 15.1533 3.98705 14.581 4.40901 14.159C4.83097 13.7371 5.40326 13.5 6 13.5H8.25C8.84674 13.5 9.41903 13.7371 9.84099 14.159C10.2629 14.581 10.5 15.1533 10.5 15.75V18C10.5 18.5967 10.2629 19.169 9.84099 19.591C9.41903 20.0129 8.84674 20.25 8.25 20.25H6C5.40326 20.25 4.83097 20.0129 4.40901 19.591C3.98705 19.169 3.75 18.5967 3.75 18V15.75ZM13.5 6C13.5 5.40326 13.7371 4.83097 14.159 4.40901C14.581 3.98705 15.1533 3.75 15.75 3.75H18C18.5967 3.75 19.169 3.98705 19.591 4.40901C20.0129 4.83097 20.25 5.40326 20.25 6V8.25C20.25 8.84674 20.0129 9.41903 19.591 9.84099C19.169 10.2629 18.5967 10.5 18 10.5H15.75C15.1533 10.5 14.581 10.2629 14.159 9.84099C13.7371 9.41903 13.5 8.84674 13.5 8.25V6ZM13.5 15.75C13.5 15.1533 13.7371 14.581 14.159 14.159C14.581 13.7371 15.1533 13.5 15.75 13.5H18C18.5967 13.5 19.169 13.7371 19.591 14.159C20.0129 14.581 20.25 15.1533 20.25 15.75V18C20.25 18.5967 20.0129 19.169 19.591 19.591C19.169 20.0129 18.5967 20.25 18 20.25H15.75C15.1533 20.25 14.581 20.0129 14.159 19.591C13.7371 19.169 13.5 18.5967 13.5 18V15.75Z" stroke="#595959" stroke-width="1.5" stroke-linecap="round" stroke-linejoin="round"/>
<path d="M3.75 30C3.75 29.4033 3.98705 28.831 4.40901 28.409C4.83097 27.9871 5.40326 27.75 6 27.75H8.25C8.84674 27.75 9.41903 27.9871 9.84099 28.409C10.2629 28.831 10.5 29.4033 10.5 30V32.25C10.5 32.8467 10.2629 33.419 9.84099 33.841C9.41903 34.2629 8.84674 34.5 8.25 34.5H6C5.40326 34.5 4.83097 34.2629 4.40901 33.841C3.98705 33.419 3.75 32.8467 3.75 32.25V30ZM3.75 39.75C3.75 39.1533 3.98705 38.581 4.40901 38.159C4.83097 37.7371 5.40326 37.5 6 37.5H8.25C8.84674 37.5 9.41903 37.7371 9.84099 38.159C10.2629 38.581 10.5 39.1533 10.5 39.75V42C10.5 42.5967 10.2629 43.169 9.84099 43.591C9.41903 44.0129 8.84674 44.25 8.25 44.25H6C5.40326 44.25 4.83097 44.0129 4.40901 43.591C3.98705 43.169 3.75 42.5967 3.75 42V39.75ZM13.5 30C13.5 29.4033 13.7371 28.831 14.159 28.409C14.581 27.9871 15.1533 27.75 15.75 27.75H18C18.5967 27.75 19.169 27.9871 19.591 28.409C20.0129 28.831 20.25 29.4033 20.25 30V32.25C20.25 32.8467 20.0129 33.419 19.591 33.841C19.169 34.2629 18.5967 34.5 18 34.5H15.75C15.1533 34.5 14.581 34.2629 14.159 33.841C13.7371 33.419 13.5 32.8467 13.5 32.25V30ZM13.5 39.75C13.5 39.1533 13.7371 38.581 14.159 38.159C14.581 37.7371 15.1533 37.5 15.75 37.5H18C18.5967 37.5 19.169 37.7371 19.591 38.159C20.0129 38.581 20.25 39.1533 20.25 39.75V42C20.25 42.5967 20.0129 43.169 19.591 43.591C19.169 44.0129 18.5967 44.25 18 44.25H15.75C15.1533 44.25 14.581 44.0129 14.159 43.591C13.7371 43.169 13.5 42.5967 13.5 42V39.75Z" stroke="#FAFAFA" stroke-width="1.5" stroke-linecap="round" stroke-linejoin="round"/>
</svg>
