<svg width="111" height="100" viewBox="0 0 111 100" fill="none" xmlns="http://www.w3.org/2000/svg">
<path d="M99.1936 5.18457H76.5043C75.7946 5.18457 75.2192 5.83869 75.2192 6.64559V46.5192C75.2192 47.3261 75.7946 47.9802 76.5043 47.9802H104.723C105.432 47.9802 106.008 47.3261 106.008 46.5192V12.9913L99.1936 5.18457Z" fill="#597EF7"/>
<path d="M99.1938 5.12402L99.2046 11.5336C99.2046 12.3405 99.7799 12.9946 100.49 12.9946H106.008" fill="#E4EBF7"/>
<path d="M88.9146 9.0918H66.2773C65.5675 9.0918 64.9922 9.74592 64.9922 10.5528V50.4264C64.9922 51.2333 65.5675 51.8874 66.2773 51.8874H94.5491C95.2589 51.8874 95.8342 51.2333 95.8342 50.4264V17.6284H90.8958C90.1863 17.6284 88.9146 16.9746 88.9146 16.1674V9.0918Z" fill="#E4EBF7"/>
<path d="M74.3378 12.9834H69.2464C68.7598 12.9834 68.3652 13.4334 68.3652 13.9885V19.7704C68.3652 20.3255 68.7598 20.7755 69.2464 20.7755H74.3378C74.8245 20.7755 75.219 20.3255 75.219 19.7704V13.9885C75.219 13.4334 74.8245 12.9834 74.3378 12.9834Z" fill="#597EF7"/>
<path d="M92.0335 24.6719H68.6852C68.5085 24.6719 68.3652 24.8353 68.3652 25.0368V26.2549C68.3652 26.4565 68.5085 26.6199 68.6852 26.6199H92.0335C92.2102 26.6199 92.3535 26.4565 92.3535 26.2549V25.0368C92.3535 24.8353 92.2102 24.6719 92.0335 24.6719Z" fill="#597EF7"/>
<path d="M92.0335 30.5088H68.6852C68.5085 30.5088 68.3652 30.6722 68.3652 30.8738V32.0918C68.3652 32.2934 68.5085 32.4568 68.6852 32.4568H92.0335C92.2102 32.4568 92.3535 32.2934 92.3535 32.0918V30.8738C92.3535 30.6722 92.2102 30.5088 92.0335 30.5088Z" fill="#FF7946"/>
<path d="M92.0335 36.3525H68.6852C68.5085 36.3525 68.3652 36.5159 68.3652 36.7175V37.9356C68.3652 38.1372 68.5085 38.3006 68.6852 38.3006H92.0335C92.2102 38.3006 92.3535 38.1372 92.3535 37.9356V36.7175C92.3535 36.5159 92.2102 36.3525 92.0335 36.3525Z" fill="#FAAD14"/>
<path d="M88.9146 9.0918V16.1674C88.9146 16.9743 89.4899 17.6284 90.1996 17.6284H95.8342" fill="white"/>
<path d="M21.9601 56.667H14.3319C14.0707 56.667 13.8589 56.9085 13.8589 57.2065V58.5407C13.8589 58.8387 14.0707 59.0802 14.3319 59.0802H21.9601C22.2214 59.0802 22.4331 58.8387 22.4331 58.5407V57.2065C22.4331 56.9085 22.2214 56.667 21.9601 56.667Z" fill="#597EF7"/>
<path d="M21.9673 61.2607H14.3247C14.0674 61.2607 13.8589 61.4986 13.8589 61.792V63.0696C13.8589 63.363 14.0674 63.6009 14.3247 63.6009H21.9673C22.2246 63.6009 22.4331 63.363 22.4331 63.0696V61.792C22.4331 61.4986 22.2246 61.2607 21.9673 61.2607Z" fill="#ADC6FF"/>
<path d="M21.9673 65.8535H14.3247C14.0674 65.8535 13.8589 66.0914 13.8589 66.3848V67.6624C13.8589 67.9558 14.0674 68.1937 14.3247 68.1937H21.9673C22.2246 68.1937 22.4331 67.9558 22.4331 67.6624V66.3848C22.4331 66.0914 22.2246 65.8535 21.9673 65.8535Z" fill="#FF7946"/>
<path d="M21.9673 70.4473H14.3247C14.0674 70.4473 13.8589 70.6851 13.8589 70.9786V72.2561C13.8589 72.5496 14.0674 72.7874 14.3247 72.7874H21.9673C22.2246 72.7874 22.4331 72.5496 22.4331 72.2561V70.9786C22.4331 70.6851 22.2246 70.4473 21.9673 70.4473Z" fill="#ADC6FF"/>
<path d="M74.0389 25.9277H6.96113C5.80899 25.9277 4.875 26.993 4.875 28.3071V83.2485C4.875 84.5626 5.80899 85.6279 6.96113 85.6279H74.0389C75.191 85.6279 76.125 84.5626 76.125 83.2485V28.3071C76.125 26.993 75.191 25.9277 74.0389 25.9277Z" fill="#E4EBF7"/>
<path d="M69.4463 36.5273H28.9019C28.4639 36.5273 28.1089 36.9323 28.1089 37.4319V79.4354C28.1089 79.935 28.4639 80.34 28.9019 80.34H69.4463C69.8843 80.34 70.2393 79.935 70.2393 79.4354V37.4319C70.2393 36.9323 69.8843 36.5273 69.4463 36.5273Z" fill="#597EF7"/>
<path d="M63.1141 49.9541H33.375V52.0741H63.1141V49.9541Z" fill="white"/>
<path d="M48.2446 57.374H33.375V59.494H48.2446V57.374Z" fill="#FAAD14"/>
<path d="M60.9457 42.5342H46.0762V44.6541H60.9457V42.5342Z" fill="#FAAD14"/>
<path d="M60.6359 71.8604H33.375V73.9803H60.6359V71.8604Z" fill="white"/>
<path d="M42.3587 42.5342H33.375V44.6541H42.3587V42.5342Z" fill="white"/>
<path d="M55.6792 57.374H51.3423V59.494H55.6792V57.374Z" fill="#E4EBF7"/>
<path d="M55.3696 64.4404H33.375V66.5604H55.3696V64.4404Z" fill="#E4EBF7"/>
<path d="M6.78348 23.1006H74.1807C75.2348 23.1006 76.0892 24.0549 76.0892 25.2321V31.584H4.875V25.2321C4.875 24.0549 5.72946 23.1006 6.78348 23.1006Z" fill="#253368"/>
<path d="M9.02526 28.9705C9.77758 28.9705 10.3874 28.2893 10.3874 27.4491C10.3874 26.6089 9.77758 25.9277 9.02526 25.9277C8.27295 25.9277 7.66309 26.6089 7.66309 27.4491C7.66309 28.2893 8.27295 28.9705 9.02526 28.9705Z" fill="#FF7946"/>
<path d="M14.2914 28.9705C15.0437 28.9705 15.6536 28.2893 15.6536 27.4491C15.6536 26.6089 15.0437 25.9277 14.2914 25.9277C13.5391 25.9277 12.9292 26.6089 12.9292 27.4491C12.9292 28.2893 13.5391 28.9705 14.2914 28.9705Z" fill="#FAAD14"/>
<path d="M19.2479 28.9705C20.0002 28.9705 20.6101 28.2893 20.6101 27.4491C20.6101 26.6089 20.0002 25.9277 19.2479 25.9277C18.4956 25.9277 17.8857 26.6089 17.8857 27.4491C17.8857 28.2893 18.4956 28.9705 19.2479 28.9705Z" fill="#7CB305"/>
<path d="M25.1076 35.8213H11.2839C10.824 35.8213 10.4512 36.2465 10.4512 36.771V79.3908C10.4512 79.9153 10.824 80.3406 11.2839 80.3406H25.1076C25.5675 80.3406 25.9403 79.9153 25.9403 79.3908V36.771C25.9403 36.2465 25.5675 35.8213 25.1076 35.8213Z" fill="white"/>
<path d="M21.9601 56.667H14.3319C14.0707 56.667 13.8589 56.9085 13.8589 57.2065V58.5407C13.8589 58.8387 14.0707 59.0802 14.3319 59.0802H21.9601C22.2214 59.0802 22.4331 58.8387 22.4331 58.5407V57.2065C22.4331 56.9085 22.2214 56.667 21.9601 56.667Z" fill="#597EF7"/>
<path d="M21.9673 61.2607H14.3247C14.0674 61.2607 13.8589 61.4986 13.8589 61.792V63.0696C13.8589 63.363 14.0674 63.6009 14.3247 63.6009H21.9673C22.2246 63.6009 22.4331 63.363 22.4331 63.0696V61.792C22.4331 61.4986 22.2246 61.2607 21.9673 61.2607Z" fill="#ADC6FF"/>
<path d="M21.9673 65.8535H14.3247C14.0674 65.8535 13.8589 66.0914 13.8589 66.3848V67.6624C13.8589 67.9558 14.0674 68.1937 14.3247 68.1937H21.9673C22.2246 68.1937 22.4331 67.9558 22.4331 67.6624V66.3848C22.4331 66.0914 22.2246 65.8535 21.9673 65.8535Z" fill="#FF7946"/>
<path d="M21.9673 70.4473H14.3247C14.0674 70.4473 13.8589 70.6851 13.8589 70.9786V72.2561C13.8589 72.5496 14.0674 72.7874 14.3247 72.7874H21.9673C22.2246 72.7874 22.4331 72.5496 22.4331 72.2561V70.9786C22.4331 70.6851 22.2246 70.4473 21.9673 70.4473Z" fill="#ADC6FF"/>
<path d="M18.0391 50.3264C20.1544 50.3264 21.8692 48.3484 21.8692 45.9083C21.8692 43.4683 20.1544 41.4902 18.0391 41.4902C15.9238 41.4902 14.209 43.4683 14.209 45.9083C14.209 48.3484 15.9238 50.3264 18.0391 50.3264Z" fill="#FAAD14"/>
<path d="M18.0393 50.3262C19.1432 50.3269 20.1908 49.7644 20.9011 48.7895C20.3414 47.564 19.2394 46.7969 18.0387 46.7969C16.8379 46.7969 15.7359 47.564 15.1763 48.7895C15.8869 49.7646 16.935 50.3271 18.0393 50.3262Z" fill="#253368"/>
<path d="M18.0596 46.9727C18.8552 46.9727 19.5001 46.2287 19.5001 45.311C19.5001 44.3933 18.8552 43.6494 18.0596 43.6494C17.2641 43.6494 16.6191 44.3933 16.6191 45.311C16.6191 46.2287 17.2641 46.9727 18.0596 46.9727Z" fill="#253368"/>
</svg>
