<svg width="56" height="56" viewBox="0 0 56 56" fill="none" xmlns="http://www.w3.org/2000/svg">
<g id="Gray/Document">
<path id="Path" d="M43.3356 5.09082H17.9237C17.1288 5.09082 16.4844 5.73314 16.4844 6.52549V45.6801C16.4844 46.4724 17.1288 47.1148 17.9237 47.1148H49.5282C50.3231 47.1148 50.9675 46.4724 50.9675 45.6801V12.7568L43.3356 5.09082Z" fill="#4E5C93"/>
<path id="Path_2" d="M43.3359 5.03125L43.3479 11.3253C43.3479 12.1176 43.9923 12.7599 44.7872 12.7599H50.9678" fill="#E4EBF7"/>
<path id="Path_3" d="M31.8243 8.92773H6.47055C5.67564 8.92773 5.03125 9.57006 5.03125 10.3624V49.517C5.03125 50.3094 5.67564 50.9517 6.47055 50.9517H38.135C38.9299 50.9517 39.5743 50.3094 39.5743 49.517V17.3104H34.0432C33.2486 17.3104 31.8243 16.6684 31.8243 15.8757V8.92773Z" fill="#E4EBF7"/>
<path id="Rectangle" d="M15.5018 12.749H9.79945C9.25437 12.749 8.8125 13.1909 8.8125 13.736V19.4137C8.8125 19.9587 9.25437 20.4006 9.79945 20.4006H15.5018C16.0469 20.4006 16.4887 19.9587 16.4887 19.4137V13.736C16.4887 13.1909 16.0469 12.749 15.5018 12.749Z" fill="#A3B5D6"/>
<path id="Rectangle_2" d="M35.321 24.2266H9.17088C8.97295 24.2266 8.8125 24.387 8.8125 24.5849V25.7811C8.8125 25.979 8.97295 26.1395 9.17088 26.1395H35.321C35.5189 26.1395 35.6793 25.979 35.6793 25.7811V24.5849C35.6793 24.387 35.5189 24.2266 35.321 24.2266Z" fill="#A3B5D6"/>
<path id="Rectangle_3" d="M35.3131 29.9688H9.16307C8.96514 29.9688 8.80469 30.1292 8.80469 30.3271V31.5233C8.80469 31.7212 8.96514 31.8816 9.16307 31.8816H35.3131C35.5111 31.8816 35.6715 31.7212 35.6715 31.5233V30.3271C35.6715 30.1292 35.5111 29.9688 35.3131 29.9688Z" fill="#A3B5D6"/>
<path id="Rectangle_4" d="M35.3678 35.707H9.21776C9.01983 35.707 8.85938 35.8675 8.85938 36.0654V37.2615C8.85938 37.4595 9.01983 37.6199 9.21776 37.6199H35.3678C35.5658 37.6199 35.7262 37.4595 35.7262 37.2615V36.0654C35.7262 35.8675 35.5658 35.707 35.3678 35.707Z" fill="#A3B5D6"/>
<path id="Path_4" d="M31.8281 8.92773V15.8757C31.8281 16.6681 32.4725 17.3104 33.2674 17.3104H39.5781" fill="white"/>
</g>
</svg>
