<svg width="19" height="36" viewBox="0 0 19 36" fill="none" xmlns="http://www.w3.org/2000/svg">
<path d="M9.39844 1.5C7.40931 1.5 5.50166 2.29018 4.09514 3.6967C2.68861 5.10322 1.89844 7.01088 1.89844 9C1.89844 10.9891 2.68861 12.8968 4.09514 14.3033C5.50166 15.7098 7.40931 16.5 9.39844 16.5C11.3876 16.5 13.2952 15.7098 14.7017 14.3033C16.1083 12.8968 16.8984 10.9891 16.8984 9C16.8984 7.01088 16.1083 5.10322 14.7017 3.6967C13.2952 2.29018 11.3876 1.5 9.39844 1.5ZM0.398438 9C0.398437 7.8181 0.631229 6.64778 1.08352 5.55585C1.53581 4.46392 2.19875 3.47177 3.03448 2.63604C3.8702 1.80031 4.86236 1.13738 5.95429 0.685084C7.04622 0.232792 8.21654 0 9.39844 0C10.5803 0 11.7507 0.232792 12.8426 0.685084C13.9345 1.13738 14.9267 1.80031 15.7624 2.63604C16.5981 3.47177 17.2611 4.46392 17.7134 5.55585C18.1656 6.64778 18.3984 7.8181 18.3984 9C18.3984 11.3869 17.4502 13.6761 15.7624 15.364C14.0746 17.0518 11.7854 18 9.39844 18C7.01149 18 4.7223 17.0518 3.03448 15.364C1.34665 13.6761 0.398438 11.3869 0.398438 9Z" fill="#D9D9D9"/>
<path d="M9.39844 31.5C10.5919 31.5 11.7365 31.0259 12.5804 30.182C13.4243 29.3381 13.8984 28.1935 13.8984 27C13.8984 25.8065 13.4243 24.6619 12.5804 23.818C11.7365 22.9741 10.5919 22.5 9.39844 22.5C8.20496 22.5 7.06037 22.9741 6.21646 23.818C5.37254 24.6619 4.89844 25.8065 4.89844 27C4.89844 28.1935 5.37254 29.3381 6.21646 30.182C7.06037 31.0259 8.20496 31.5 9.39844 31.5ZM9.39844 18C8.21654 18 7.04622 18.2328 5.95429 18.6851C4.86236 19.1374 3.8702 19.8003 3.03448 20.636C2.19875 21.4718 1.53581 22.4639 1.08352 23.5558C0.631229 24.6478 0.398438 25.8181 0.398438 27C0.398438 28.1819 0.631229 29.3522 1.08352 30.4442C1.53581 31.5361 2.19875 32.5282 3.03448 33.364C3.8702 34.1997 4.86236 34.8626 5.95429 35.3149C7.04622 35.7672 8.21654 36 9.39844 36C11.7854 36 14.0746 35.0518 15.7624 33.364C17.4502 31.6761 18.3984 29.3869 18.3984 27C18.3984 24.6131 17.4502 22.3239 15.7624 20.636C14.0746 18.9482 11.7854 18 9.39844 18ZM1.89844 27C1.89844 25.0109 2.68861 23.1032 4.09514 21.6967C5.50166 20.2902 7.40931 19.5 9.39844 19.5C11.3876 19.5 13.2952 20.2902 14.7017 21.6967C16.1083 23.1032 16.8984 25.0109 16.8984 27C16.8984 28.9891 16.1083 30.8968 14.7017 32.3033C13.2952 33.7098 11.3876 34.5 9.39844 34.5C7.40931 34.5 5.50166 33.7098 4.09514 32.3033C2.68861 30.8968 1.89844 28.9891 1.89844 27Z" fill="#8852E0"/>
</svg>
