<svg width="268" height="469" viewBox="0 0 268 469" fill="none" xmlns="http://www.w3.org/2000/svg">
<path fill-rule="evenodd" clip-rule="evenodd" d="M17.4804 27.6069C15.0773 27.7543 13.0271 25.9453 12.873 23.5601C12.7301 21.1727 14.5301 19.1091 16.9377 18.9572C19.3162 18.8054 21.3619 20.6278 21.5138 23.013C21.6679 25.4004 19.8611 27.4595 17.4804 27.6069ZM57.3884 21.1772C54.5833 18.3386 49.9469 18.8299 47.2133 21.7266C43.6556 25.4607 40.8885 26.8565 37.5899 26.7181C32.9892 26.5171 30.7179 22.9571 28.3573 18.4681C25.9029 13.7804 22.1263 11.1674 17.4207 11.1674C10.0194 11.1674 5.58398 17.1594 5.58398 23.8415C5.58398 34.1238 12.8133 40.2699 17.8182 42.8606C21.9767 45.0292 26.6019 45.9314 30.7179 46.0364C30.4745 48.4931 29.7509 51.7381 28.9536 54.0362H29.3757H33.217H37.0539H37.4179C36.5849 51.7381 35.8456 48.2251 35.6178 45.7617C48.0195 44.1515 53.9111 38.5212 57.136 33.159C58.5832 30.8051 59.3559 28.3618 59.347 26.1664C59.3358 24.2435 58.7239 22.4948 57.3884 21.1772Z" fill="#6EB329"/>
<rect x="67" width="67" height="67" fill="url(#paint0_linear_1679_9645)"/>
<path fill-rule="evenodd" clip-rule="evenodd" d="M78.1665 26.0586L93.0611 11.1667H122.833V39.4692H107.947V26.0586H78.1665ZM78.1667 55.8333V27.5307H93.0613V40.9471H122.832L107.947 55.8333H78.1667Z" fill="white"/>
<path fill-rule="evenodd" clip-rule="evenodd" d="M175.375 27.1941C175.375 26.0551 176.362 25.125 177.545 25.125C178.778 25.125 179.763 26.0551 179.763 27.1941C179.763 28.3327 178.778 29.2623 177.545 29.2623C176.362 29.2623 175.375 28.3327 175.375 27.1941ZM185.427 27.9483H182.383V29.2985C182.383 30.2686 181.823 31.0077 180.659 31.0077H180.099V33.8141H182.07V38.3095C182.07 40.3979 183.48 41.6852 185.785 41.6852C186.859 41.6852 187.419 41.4529 187.554 41.3905V38.7314C187.353 38.7732 187.016 38.837 186.659 38.837C185.919 38.837 185.427 38.6043 185.427 37.7398V33.8141H187.599V31.0077H185.427V27.9483ZM149.977 30.6911C148.478 30.6911 147.403 31.1557 146.53 32.3374C145.971 31.3036 144.829 30.6911 143.24 30.6911C142.031 30.6911 140.598 31.2815 140.038 32.2103V31.007H136.792V41.4954H140.195V35.4602C140.195 34.5108 140.844 33.6458 142.031 33.6458C143.262 33.6458 143.821 34.4263 143.821 35.4179V41.4954H147.179V35.4391C147.179 34.5108 147.829 33.6458 149.037 33.6458C150.246 33.6458 150.806 34.4263 150.806 35.4179V41.4954H154.096V34.6999C154.096 31.8517 152.082 30.6911 149.977 30.6911ZM170.917 32.422V31.0071H167.625V41.4955H171.029V36.9165C171.029 34.8276 172.261 34.0678 173.628 34.0678C173.964 34.0678 174.322 34.089 174.702 34.1734V31.0071C174.478 30.9442 174.142 30.9024 173.807 30.9024C172.91 30.9024 171.5 31.2403 170.917 32.422ZM179.27 41.4955H175.868V31.0071H179.27V41.4955ZM158.624 34.9826C158.692 34.1927 159.417 33.1898 160.866 33.1898C162.496 33.1898 163.085 34.1711 163.129 34.9826H158.624ZM160.82 30.6287C157.899 30.6287 155.206 32.8056 155.206 36.2199C155.206 39.7839 157.967 41.875 161.069 41.875C163.62 41.875 165.317 40.6457 166.036 39.074L163.221 38.0666C162.854 38.7114 162.186 39.1216 161.114 39.1216C159.779 39.1216 158.624 38.2684 158.555 37.0736H166.389C166.412 37.0098 166.458 36.5187 166.458 36.0703C166.458 32.656 164.306 30.6287 160.82 30.6287ZM198.119 33.6457L193.036 38.6888H198.209V38.7315V41.4956H188.875V38.6681L193.714 33.8142H189.008V33.7513V31.0073H198.119V33.6457Z" fill="#EE3B24"/>
<path fill-rule="evenodd" clip-rule="evenodd" d="M267.06 25.125C265.979 29.5929 262.106 32.0289 259.829 33.3293L259.73 33.1972C260.664 32.4372 263.869 30.0725 264.893 26.1527L267.06 25.125Z" fill="#EF8200"/>
<path fill-rule="evenodd" clip-rule="evenodd" d="M242.316 36.6885C242.154 36.5638 241.964 36.4477 241.745 36.3496C241.738 36.345 241.256 36.1065 241.256 36.1065L241.252 36.104L241.243 36.0993C241.086 36.0094 240.718 35.795 240.718 35.4358C240.718 35.2599 240.787 35.1094 240.912 35.0036C241.064 34.8779 241.3 34.8309 241.551 34.8758C241.869 34.9253 242.234 35.1317 242.634 35.475L242.786 35.1831C242.977 34.8142 243.217 34.3516 243.319 34.1578C242.86 33.7801 242.414 33.5778 241.75 33.4606C240.929 33.338 240.137 33.513 239.581 33.9341C239.113 34.293 238.822 34.8178 238.743 35.4522C238.731 35.5619 238.728 35.6642 238.728 35.7654C238.728 36.0641 238.78 36.3244 238.884 36.5521C238.924 36.5552 238.963 36.5589 239.002 36.5638C239.84 36.6253 240.992 36.6773 242.316 36.6885ZM205.32 37.5548C205.32 37.5548 206.869 34.0165 206.988 33.7084H209.318C209.319 33.9434 209.242 35.4979 209.165 37.0554L209.165 37.0555C209.088 38.6189 209.01 40.1852 209.011 40.4229H207.336L207.614 35.7215C207.614 35.7215 205.726 40.1248 205.601 40.4229H204.278L203.684 35.7215C203.676 35.7552 203.655 35.8631 203.621 36.026L203.621 36.026L203.621 36.0261C203.446 36.8879 202.957 39.2905 202.67 40.4229H201C201.098 40.086 201.543 38.1188 201.932 36.3975L201.932 36.3974L201.932 36.3973L201.932 36.3973L201.932 36.3973L201.932 36.3973L201.932 36.3973L201.932 36.3973C202.237 35.0536 202.507 33.8598 202.551 33.7084H204.793L205.32 37.5548ZM210.365 36.6353C210.569 35.2128 210.758 33.8954 210.785 33.7086H212.635C212.584 34.0644 212.203 36.7181 211.935 38.5867L211.672 40.4235H209.821C209.864 40.1327 210.125 38.3119 210.365 36.6365L210.365 36.6353ZM225.553 36.3148C225.739 35.02 225.902 33.8813 225.927 33.7086H230.193C230.154 33.9926 230.079 34.5083 230.027 34.8699L229.986 35.156H227.427L227.252 36.3802H229.636C229.609 36.5691 229.569 36.8464 229.532 37.1101L229.531 37.1136C229.496 37.3602 229.462 37.5945 229.442 37.733H227.059L226.88 38.9747H229.508C229.481 39.1594 229.441 39.4414 229.402 39.7154L229.402 39.7162L229.402 39.7179L229.401 39.7228C229.361 40.0035 229.322 40.2748 229.301 40.4235H224.964C225.008 40.1139 225.301 38.0708 225.553 36.3148ZM222.151 35.1861L221.09 37.6792H222.496L222.151 35.1861ZM222.836 40.4231C222.793 40.16 222.674 39.0647 222.674 39.0647L220.584 39.0673C220.584 39.0673 220.128 40.1987 220.033 40.4231H218.23C218.401 40.0522 219.286 38.0635 220.051 36.3442L220.051 36.3439C220.647 35.0058 221.169 33.8309 221.226 33.7089H223.471C223.506 33.9012 223.757 35.3939 224.016 36.9274C224.284 38.5128 224.559 40.1418 224.609 40.4231H222.836ZM215.215 34.9695H215.628C215.91 34.9695 216.224 34.9986 216.42 35.2242C216.56 35.3847 216.61 35.6101 216.567 35.8988C216.567 35.8988 216.512 36.4106 216.174 36.5728C216.174 36.5728 215.941 36.7247 215.556 36.7348H214.964C215.103 35.757 215.215 34.9695 215.215 34.9695ZM214.903 37.1623L214.72 36.7348H214.964L214.903 37.1623ZM214.903 37.1623C214.7 38.5873 214.467 40.2175 214.435 40.4234H212.752C212.829 39.8855 213.657 34.1154 213.715 33.7089H216.252C216.819 33.7089 217.583 33.8154 218.028 34.3291C218.275 34.6136 218.398 34.9932 218.398 35.4658C218.398 35.6101 218.385 35.7618 218.364 35.9217C218.201 37.1976 217.558 37.4416 216.736 37.5945L218.094 40.4234H216.298L214.903 37.1623ZM254.296 35.0114C254.363 34.553 254.455 33.9337 254.489 33.7086H258.599C257.137 34.4177 255.56 34.9412 254.252 35.3061L254.296 35.0114ZM253.622 35.1565H251.064L250.932 36.0612C250.363 36.1638 249.777 36.249 249.187 36.3236L249.381 34.9748C249.477 34.3058 249.547 33.8174 249.562 33.7091H253.83L253.746 34.2886L253.746 34.2917L253.744 34.3014C253.697 34.6324 253.647 34.9797 253.622 35.1565ZM254.713 35.5258L254.713 35.5258L254.589 35.5643C254.564 35.5736 254.538 35.5817 254.511 35.5904L254.492 35.5965C254.409 35.6207 254.326 35.6456 254.239 35.6727C254.219 35.6772 254.199 35.6831 254.18 35.6889C254.165 35.6934 254.15 35.6979 254.135 35.7016L254.126 35.7044C253.851 35.7848 253.573 35.8663 253.28 35.946C253.236 35.957 253.193 35.9689 253.15 35.981L253.139 35.9842C253.093 35.9955 253.047 36.0074 253.001 36.0193C252.962 36.0295 252.922 36.0398 252.882 36.0497C252.863 36.0548 252.843 36.0601 252.824 36.0655C252.79 36.0749 252.755 36.0844 252.719 36.0926L252.608 36.122C252.561 36.1343 252.514 36.1467 252.467 36.1595C252.405 36.1728 252.342 36.1879 252.281 36.2047C252.222 36.2186 252.163 36.2327 252.104 36.247C252.021 36.2668 251.938 36.2868 251.853 36.3065C251.81 36.317 251.766 36.327 251.721 36.3372L251.721 36.3372L251.634 36.3571C251.62 36.3603 251.606 36.3637 251.592 36.3671C251.573 36.3717 251.554 36.3762 251.535 36.38H251.532C250.773 36.5508 249.966 36.7146 249.11 36.8605C249.094 36.8635 249.078 36.8658 249.059 36.8672C248.928 36.8915 248.793 36.9138 248.658 36.9361L248.576 36.9497L248.548 36.953C248.523 36.9559 248.498 36.9587 248.472 36.9635C248.304 36.9929 248.134 37.0178 247.963 37.0427C247.951 37.0446 247.941 37.0462 247.931 37.0462C247.011 37.1807 246.043 37.2963 245.028 37.3834H245.013C244.863 37.3979 244.712 37.4107 244.558 37.4236L244.545 37.4247C244.535 37.4247 244.522 37.426 244.51 37.4273L244.499 37.4284L244.449 37.432L244.448 37.432C244.305 37.4423 244.161 37.4527 244.016 37.4606C244.007 37.4624 243.993 37.4648 243.983 37.4648L243.863 37.4725C243.736 37.4808 243.609 37.489 243.481 37.4958C243.472 37.4976 243.464 37.4976 243.457 37.4976C243.349 37.5031 243.241 37.509 243.132 37.515L243.132 37.515L242.94 37.5254H242.928C242.075 37.5668 241.192 37.5897 240.281 37.5897H240.217C240.011 37.5873 239.803 37.586 239.59 37.586C239.556 37.586 239.517 37.586 239.479 37.5834C238.74 37.572 237.987 37.5466 237.212 37.5049H237.2C236.032 37.4443 234.827 37.3466 233.584 37.2042L235.017 35.8584C235.017 35.8584 235.848 36.1085 237.001 36.3149C236.9 35.7238 236.805 35.1652 236.73 34.7164L236.729 34.7108C236.638 34.177 236.574 33.7996 236.558 33.7093H234.312C234.256 33.8317 233.728 35.0166 233.13 36.3622L233.129 36.3628C232.366 38.0779 231.487 40.0538 231.319 40.4235H233.12C233.215 40.1986 233.82 38.7556 233.82 38.7556L235.699 38.7537C235.699 38.7537 235.881 40.1581 235.922 40.4235H237.695C237.678 40.3233 237.632 40.053 237.568 39.675L237.567 39.6654L237.565 39.6525C237.491 39.2154 237.393 38.6392 237.287 38.0171C238.554 38.0884 239.82 38.1005 241.003 38.0854C241.063 38.1844 241.094 38.2914 241.094 38.4063C241.094 38.4482 241.092 38.4885 241.083 38.5312C241.056 38.6815 240.979 38.805 240.859 38.8905C240.612 39.0634 240.262 39.0255 240.018 38.9826C239.446 38.8838 238.992 38.4494 238.624 38.0884C238.392 38.4643 237.909 39.2522 237.755 39.5074C238.431 40.1236 239.161 40.5002 239.936 40.6081C240.718 40.7255 241.494 40.5489 242.069 40.125C242.572 39.753 242.887 39.2119 242.983 38.5603C243.015 38.372 243.028 38.1951 243.019 38.0262C244.287 37.9726 245.339 37.8936 246.015 37.8355C246.234 37.9963 246.348 38.187 246.348 38.4063C246.348 38.4482 246.345 38.4885 246.339 38.5312C246.312 38.6815 246.232 38.805 246.109 38.8905C245.866 39.0634 245.516 39.0255 245.275 38.9826C244.7 38.8838 244.243 38.4494 243.876 38.0884L243.632 38.4871L243.63 38.4913C243.397 38.8725 243.12 39.3254 243.007 39.5074C243.685 40.1236 244.416 40.5002 245.19 40.6081C245.973 40.7255 246.747 40.5489 247.32 40.125C247.824 39.753 248.141 39.2119 248.24 38.5603C248.302 38.1968 248.286 37.87 248.199 37.5764C248.487 37.5384 248.761 37.4958 249.023 37.4517C248.823 38.8614 248.634 40.1795 248.599 40.4235H252.938C252.979 40.128 253.09 39.351 253.144 38.9735H250.516L250.694 37.7325H253.078C253.098 37.5967 253.131 37.3683 253.166 37.1265L253.166 37.1263C253.197 36.9108 253.23 36.6846 253.257 36.5039C253.58 36.4019 253.744 36.3396 253.744 36.3396C253.744 36.3396 254.549 36.0966 255.595 35.7137C255.443 36.7647 254.982 39.9805 254.92 40.4235H256.796C256.853 40.0294 257.523 35.3783 257.523 35.3783H258.882C258.919 35.0891 259.051 34.1674 259.112 33.7501C258.406 34.1416 257.076 34.7561 255.175 35.3783C255.025 35.4297 254.871 35.4772 254.713 35.5258ZM246.512 36.1053C246.512 36.1053 246.99 36.3458 247.001 36.35C247.114 36.4001 247.216 36.4579 247.315 36.5145C246.254 36.6012 245.2 36.6511 244.2 36.6735C244.054 36.4187 243.979 36.117 243.979 35.766C243.979 35.6655 243.986 35.5611 243.998 35.4528C244.076 34.8187 244.367 34.2918 244.836 33.9345C245.391 33.5132 246.182 33.3409 247.004 33.4603C247.667 33.5786 248.112 33.7791 248.573 34.1582C248.485 34.3247 248.296 34.6882 248.123 35.0211C248.035 35.1901 247.952 35.3512 247.887 35.4747C247.486 35.1326 247.122 34.9238 246.802 34.8744C246.553 34.8303 246.319 34.8769 246.165 35.003C246.041 35.1081 245.972 35.2605 245.971 35.4358C245.971 35.7956 246.34 36.0095 246.5 36.099L246.505 36.1032L246.512 36.1053Z" fill="#003F7E"/>
<path fill-rule="evenodd" clip-rule="evenodd" d="M64.2086 101.896L33.5003 80.9584L2.79199 101.896L33.5003 122.833L64.2086 101.896ZM7.86802 101.896L33.5006 84.4187L59.1328 101.896L33.5006 119.372L7.86802 101.896ZM33.3565 88.1227L38.0695 91.3364L29.6036 97.1085L33.0469 99.4564L36.3952 97.1732L34.6334 95.972L40.0715 92.2643L48.62 98.093L48.6627 98.064L54.0347 101.726L33.2688 115.885L27.8969 112.223L43.1826 101.801L41.1081 100.387L25.9667 110.71L13.0979 101.936L33.3565 88.1227ZM25.6154 99.8276L22.5143 101.941L25.9577 104.289L29.0588 102.175L25.6154 99.8276ZM36.0838 95.9717L40.0719 93.2527L48.622 99.0828L48.6641 99.0532L52.5847 101.727L33.2692 114.896L29.3474 112.223L44.6336 101.801L36.0838 95.9717Z" fill="#22419B"/>
<path fill-rule="evenodd" clip-rule="evenodd" d="M115.545 104.857H113.417L111.989 99.9088H111.966L112.043 104.857H110.559V98.6726H112.777L114.098 103.428H114.127L114.052 98.6726H115.545V104.857ZM108.953 103.145C108.955 103.261 108.944 103.494 108.939 103.557C108.846 104.583 108.147 105.108 106.865 105.108C105.58 105.108 104.88 104.583 104.79 103.557C104.787 103.494 104.777 103.261 104.777 103.145V98.6704H106.304V103.287C106.304 103.388 106.308 103.466 106.322 103.518C106.34 103.619 106.436 103.954 106.865 103.954C107.298 103.954 107.393 103.619 107.417 103.518C107.426 103.466 107.429 103.386 107.429 103.287V98.6704H108.953V103.145ZM103.414 103.71C103.25 104.922 102.126 105.132 101.331 105.132C100.011 105.132 99.1939 104.538 99.1939 103.325L99.1974 102.831H100.795V103.449C100.795 103.783 101.021 103.985 101.364 103.985C101.671 103.985 101.851 103.854 101.916 103.588C101.942 103.466 101.957 103.284 101.905 103.145C101.608 102.368 99.5312 101.988 99.2784 100.728C99.22 100.439 99.2193 100.201 99.265 99.8902C99.4397 98.7491 100.483 98.51 101.319 98.51C102.067 98.51 102.614 98.6815 102.941 99.0268C103.183 99.2851 103.307 99.6378 103.307 100.078V100.53H101.814V100.131C101.814 99.7907 101.612 99.5932 101.29 99.5932C101.004 99.5932 100.828 99.7269 100.773 99.9927C100.765 100.045 100.75 100.175 100.782 100.303C100.943 100.998 103.163 101.423 103.41 102.694C103.437 102.857 103.481 103.206 103.414 103.71ZM96.285 104.922L96.2477 99.4945H96.2223L95.2653 104.922H93.7357L92.7829 99.4945H92.7554L92.7209 104.922H91.2047L91.3364 98.6726H93.7737L94.4822 103.316H94.5181L95.2273 98.6726H97.6639L97.7899 104.922H96.285ZM88.4508 104.922L87.6818 99.3883H87.6529L86.8621 104.922H85.2325L86.3269 98.6726H88.9846L90.0713 104.922H88.4508ZM128.381 96.7765C127.62 92.1838 114.525 90.7472 99.1234 93.5736C92.6557 94.7615 86.8198 96.5136 82.2683 98.484C82.9683 98.5004 83.488 98.6682 83.8042 98.997C84.0486 99.2569 84.1711 99.6155 84.1711 100.059V100.511H82.6613V100.113C82.6613 99.7788 82.4739 99.5687 82.1345 99.5687C81.8493 99.5687 81.6739 99.7024 81.6176 99.9711C81.6035 100.045 81.5979 100.172 81.6261 100.288C81.7859 100.986 84.0289 101.416 84.2747 102.705C84.3071 102.866 84.3458 103.222 84.2803 103.728C84.1395 104.765 83.2768 105.166 82.1754 105.166C80.6408 105.166 80.0183 104.4 80.0183 103.339V102.842H81.638L81.6394 103.466C81.6394 103.815 81.8817 104.009 82.2077 104.009C82.5204 104.009 82.7028 103.876 82.7676 103.603C82.793 103.481 82.8099 103.296 82.7549 103.157C82.4556 102.365 80.3591 101.996 80.1028 100.711C80.0436 100.425 80.0415 100.179 80.0887 99.8716C80.1148 99.7024 80.1641 99.5598 80.2232 99.4284C75.1788 101.913 72.2274 104.65 72.6168 107.012C73.3795 111.611 86.4768 113.042 101.874 110.22C108.641 108.973 114.726 107.113 119.358 105.032C119.293 105.035 119.226 105.04 119.16 105.04C118.104 105.04 117.162 104.625 117.067 103.49C117.047 103.284 117.047 103.198 117.045 103.08L117.047 100.466C117.047 100.356 117.058 100.157 117.069 100.054C117.196 98.9562 118.019 98.5048 119.16 98.5048C120.041 98.5048 121.123 98.7728 121.244 100.056C121.257 100.215 121.256 100.39 121.256 100.445V100.448V100.692H119.732V100.326C119.732 100.316 119.728 100.179 119.714 100.094C119.687 99.9629 119.582 99.6586 119.145 99.6586C118.716 99.6586 118.606 99.9629 118.577 100.094C118.566 100.166 118.555 100.272 118.555 100.384V103.222C118.555 103.319 118.56 103.397 118.571 103.458C118.574 103.498 118.653 103.889 119.153 103.889C119.65 103.889 119.726 103.498 119.732 103.458C119.746 103.379 119.75 103.287 119.746 103.222V102.342H119.143V101.394H121.267V103.08C121.267 103.194 121.267 103.277 121.248 103.49C121.219 103.785 121.131 104.042 120.992 104.255C125.909 101.797 128.766 99.1032 128.381 96.7765Z" fill="#044DA1"/>
<path fill-rule="evenodd" clip-rule="evenodd" d="M187.314 104.115L184.525 102.291C182.704 103.576 180.207 103.7 178.228 102.405C178.228 102.405 169.734 96.8559 168.951 96.3357C168.015 95.7104 166.85 95.6715 165.853 96.3199C164.858 96.9668 156.54 102.405 156.54 102.405C154.561 103.7 152.068 103.576 150.242 102.291L147.457 104.115C145.12 105.644 144.463 108.775 145.99 111.11C147.518 113.449 150.65 114.106 152.987 112.576L165.956 104.099C166.978 103.469 167.809 103.469 168.818 104.096L181.781 112.576C184.12 114.106 187.251 113.449 188.78 111.11C190.304 108.775 189.65 105.644 187.314 104.115Z" fill="#7CB142"/>
<path fill-rule="evenodd" clip-rule="evenodd" d="M166.44 88.416C166.725 88.2402 167.062 88.1408 167.422 88.1408C167.775 88.1408 168.105 88.2373 168.39 88.4074C168.922 88.7258 174.57 92.4677 174.57 92.4677C176.443 93.691 178.851 93.4432 180.442 92.0138L183.648 94.1146C185.635 95.4099 186.192 98.0741 184.894 100.061C183.594 102.047 180.933 102.606 178.946 101.306C178.946 101.306 169.736 95.3004 168.841 94.7875C167.947 94.2717 166.889 94.2501 165.97 94.7976C165.223 95.2399 155.822 101.306 155.822 101.306C153.854 102.495 151.172 102.047 149.874 100.061C148.576 98.0741 149.133 95.4099 151.119 94.1146L154.328 92.0138C155.917 93.4432 158.323 93.691 160.199 92.4677C160.199 92.4677 165.882 88.7546 166.44 88.416Z" fill="#528A3D"/>
<path fill-rule="evenodd" clip-rule="evenodd" d="M168.497 86.8922L175.29 91.3646C176.917 92.4265 179.097 91.9683 180.161 90.343C181.222 88.7192 180.766 86.5377 179.14 85.4729L168.448 78.4776C167.769 78.064 167.001 78.064 166.341 78.4718L155.63 85.4729C154.002 86.5377 153.545 88.7192 154.607 90.343C155.673 91.9683 157.85 92.4265 159.477 91.3646L166.369 86.8893C166.691 86.6761 167.029 86.5262 167.431 86.5262C167.833 86.5262 168.177 86.6761 168.497 86.8922Z" fill="#004711"/>
<path fill-rule="evenodd" clip-rule="evenodd" d="M174.68 118.235L169.123 109.145C168.682 108.394 168.039 108.012 167.385 107.992C166.731 108.012 166.087 108.394 165.646 109.145L160.088 118.235C159.368 119.35 159.538 121.13 161.526 121.13H173.242C175.229 121.13 175.4 119.35 174.68 118.235Z" fill="#004711"/>
<path fill-rule="evenodd" clip-rule="evenodd" d="M232.849 70.2449C216.292 70.9948 203.479 85.0206 204.229 101.578C204.976 118.131 219.005 130.944 235.561 130.193C252.111 129.443 264.925 115.416 264.174 98.864C263.449 82.7709 250.176 70.2141 234.231 70.2134C233.772 70.2134 233.312 70.2239 232.849 70.2449Z" fill="url(#paint1_radial_1679_9645)"/>
<path fill-rule="evenodd" clip-rule="evenodd" d="M232.83 69.8231C216.544 70.557 203.833 83.9712 203.792 100.102V100.25C203.793 100.691 203.803 101.133 203.823 101.577C204.583 118.353 218.798 131.336 235.578 130.58C252.354 129.823 265.344 115.605 264.581 98.8259C263.845 82.5197 250.39 69.7917 234.23 69.7917C233.766 69.7917 233.299 69.8022 232.83 69.8231ZM236.45 126.95C236.42 126.264 237.427 126.09 237.427 126.09C246.422 124.32 243.793 118.419 240.607 115.41C239.269 114.142 226.752 103.343 226.752 103.343C214.812 93.0615 215.77 85.0384 215.77 85.0384C216.343 75.1591 224.991 72.7095 231.534 73.277C232.297 73.3441 232.721 73.8102 232.587 74.4455C232.442 75.1437 231.429 75.1961 231.429 75.1961C229.349 75.3163 227.486 75.5316 226.072 76.4827C220.797 80.0281 222.357 86.0623 229.383 92.7771C230.264 93.6206 231.207 94.5096 232.17 95.4105C232.17 95.4105 233.585 96.6587 236.39 99.3291C241.799 104.313 244.761 107 244.761 107C254.287 114.934 251.038 122.187 247.39 124.708C244.616 126.631 241.539 127.536 237.504 127.75C237.47 127.755 237.432 127.757 237.393 127.757C237.023 127.757 236.478 127.531 236.45 126.95ZM238.676 97.6595C235.588 97.011 234.959 94.205 234.959 94.205C234.708 93.2224 234.646 91.9797 234.853 90.3947C235.276 87.075 236.168 85.513 237.187 82.9411C238.561 79.4852 235.22 77.4633 235.776 76.1928C236.524 74.4714 238.907 76.6589 241.569 76.8169C243.863 76.9448 245.236 76.8287 247.016 77.0692C249.389 77.3837 252.218 78.1839 253.478 79.6662C254.635 81.0143 252.869 82.6728 250.741 81.6356C249.193 80.8801 247.239 81.3421 248.386 82.96C249.762 84.4996 250.428 84.5458 251.832 84.912C255.704 85.933 255.787 89.642 253.162 91.5611C250.181 93.7451 247.16 92.8422 245.947 88.5566C245.345 86.4223 243.832 85.3327 242.289 85.9456C240.75 86.5474 241.659 89.3603 242.828 91.9651C244.859 97.1494 240.745 97.6819 239.181 97.6819C238.944 97.6819 238.765 97.6693 238.676 97.6595ZM227.344 125.982C223.988 125.652 219.973 124.594 216.481 121.569C213.268 118.788 211.275 114.969 210.312 111.619C209.319 108.183 208.907 104.163 210.539 104.483C211.042 104.582 211.909 106.787 212.855 108.399C213.83 110.056 214.621 110.972 215.371 111.532C215.708 111.789 216.855 109.236 218.52 107.786C219.489 106.988 220.549 106.712 220.719 109.099C220.932 112.028 220.402 115.517 221.257 115.517C222.058 115.517 223.855 114.909 227.818 114.576C229.31 114.447 230.156 114.729 228.734 116.733C228.026 117.729 227.078 119.14 224.835 120.748C228.198 123.898 232.237 123.525 232.309 124.861C232.353 125.633 230.844 126.058 228.859 126.058C228.377 126.058 227.867 126.034 227.344 125.982Z" fill="url(#paint2_radial_1679_9645)"/>
<path fill-rule="evenodd" clip-rule="evenodd" d="M38.0673 139.583C37.6388 139.583 37.2984 139.929 37.2984 140.364L37.3105 141.673C37.2984 145.935 38.1919 150.579 40.0609 155.435L41.4254 158.724C41.5348 158.984 41.781 159.177 42.0788 159.198H42.1396L59.1339 159.082C59.5685 159.082 59.915 158.733 59.915 158.305C59.915 158.213 59.9058 158.13 59.8724 158.054L59.8633 158.045C56.5659 148.505 48.3028 141.315 38.201 139.589C38.201 139.589 38.1797 139.589 38.1736 139.583H38.0673ZM45.3394 168.006C45.3394 167.566 45.6889 167.208 46.1174 167.208L60.6288 167.104C61.0573 167.104 61.4007 167.453 61.4007 167.875C61.4017 167.875 61.4027 167.875 61.4035 167.876C61.4043 167.876 61.4051 167.876 61.4058 167.877C61.408 167.878 61.4097 167.879 61.4111 167.88C61.4131 167.882 61.4145 167.884 61.4159 167.887V168.009C61.2366 175.043 58.4954 181.45 54.0857 186.293C54.0797 186.293 54.0797 186.305 54.0797 186.305C53.9308 186.443 53.7332 186.55 53.5114 186.55C53.1953 186.55 52.9127 186.348 52.7942 186.067L45.4062 168.312V168.282C45.3642 168.194 45.3519 168.101 45.3399 168.01L45.3398 168.01L45.3394 168.006ZM33.4985 167.309C31.7146 167.315 30.1799 168.444 29.5842 170.02C29.5778 170.024 29.5748 170.031 29.572 170.037C29.5695 170.042 29.5673 170.047 29.563 170.05L20.9564 191.595C20.9564 191.601 20.9442 191.611 20.9442 191.611C20.9017 191.718 20.8895 191.803 20.8895 191.91C20.8895 192.204 21.0688 192.473 21.315 192.602H21.3211C25.053 194.441 29.25 195.447 33.687 195.417C38.1179 195.377 42.3209 194.306 46.0224 192.431C46.0281 192.425 46.0338 192.422 46.0392 192.419C46.041 192.418 46.0428 192.417 46.0445 192.416C46.0457 192.415 46.0468 192.415 46.0479 192.414C46.0507 192.412 46.0534 192.409 46.0559 192.406C46.2899 192.268 46.4327 192.011 46.4327 191.73C46.4327 191.623 46.4114 191.516 46.378 191.433V191.427L37.3277 169.686C36.6318 168.276 35.2034 167.309 33.5411 167.309H33.4985ZM20.8689 167.385L6.36355 167.483C5.93505 167.483 5.58252 167.841 5.59771 168.279V168.282C5.59771 168.282 5.58252 168.294 5.58252 168.312C5.83476 175.377 8.67931 181.771 13.171 186.569C13.171 186.575 13.178 186.582 13.1845 186.588C13.1901 186.593 13.1953 186.598 13.1953 186.602C13.3382 186.731 13.5296 186.826 13.7454 186.826C14.0675 186.826 14.3441 186.617 14.4565 186.342L21.5952 168.468C21.6378 168.37 21.6591 168.263 21.65 168.172C21.65 167.737 21.3065 167.385 20.878 167.385H20.8689ZM28.4056 139.654H28.4329C28.4694 139.641 28.5119 139.641 28.5332 139.641C28.9617 139.641 29.3234 139.981 29.3234 140.419L29.3325 141.737H29.3234C29.3933 145.999 28.5666 150.65 26.7706 155.533L25.4547 158.837C25.3513 159.076 25.1447 159.259 24.8894 159.311H24.8377H24.8165C24.7861 159.326 24.7526 159.326 24.7526 159.326L7.74919 159.449C7.30853 159.449 6.96208 159.106 6.94992 158.675C6.94992 158.586 6.9712 158.5 6.99247 158.427V158.418C10.1592 148.845 18.3311 141.517 28.4056 139.654Z" fill="url(#paint3_linear_1679_9645)"/>
<path d="M84.9655 152.832C84.0021 155.181 79.9919 156.818 77.8725 158.938C72.9591 163.851 74.2718 172.931 79.3296 174.677C83.99 176.267 79.5825 167.813 83.99 164.14C88.6625 160.564 100.693 166.814 91.0469 174.966C88.783 176.628 88.4458 177.182 86.9766 178.651C79.0767 186.551 91.8899 195.499 101.271 194.355C109.58 193.343 111.856 187.888 113.012 180.121C114.06 173.04 112.651 170.571 113.747 165.429C117.275 155.686 128.68 163.984 130.281 168.704C130.317 168.162 130.366 167.632 130.366 167.079C130.366 150.364 116.806 136.792 100.067 136.792C90.4809 136.792 81.9549 141.259 76.4153 148.208C82.8099 144.222 86.9525 148.027 84.9655 152.832Z" fill="url(#paint4_radial_1679_9645)"/>
<path fill-rule="evenodd" clip-rule="evenodd" d="M113.356 172.032C113.271 169.893 113.195 167.992 113.747 165.429C117.276 155.686 128.668 163.984 130.293 168.716C129.45 184.685 116.276 197.389 100.079 197.389C83.3518 197.389 69.792 183.818 69.792 167.091C69.792 159.949 72.2727 153.398 76.4154 148.22C82.8099 144.222 86.9525 148.027 84.9655 152.832C84.386 154.255 82.6669 155.419 80.9325 156.594C79.8198 157.347 78.7008 158.105 77.8725 158.938C72.9592 163.851 74.2718 172.931 79.3296 174.677C81.7013 175.486 81.7246 173.694 81.7564 171.255C81.787 168.901 81.8255 165.944 83.9901 164.14C88.6505 160.564 100.693 166.814 91.047 174.966C89.2957 176.252 88.6974 176.874 87.8362 177.77C87.584 178.033 87.3093 178.319 86.9766 178.651C79.0767 186.551 91.8899 195.499 101.271 194.355C109.58 193.343 111.868 187.9 113.012 180.121C113.538 176.575 113.442 174.183 113.356 172.032ZM120.322 156.493C118.925 158.444 115.457 158.3 112.555 156.216C109.665 154.121 108.448 150.845 109.833 148.906C111.23 146.968 114.723 147.1 117.613 149.208C120.503 151.279 121.731 154.554 120.322 156.493Z" fill="url(#paint5_radial_1679_9645)"/>
<path fill-rule="evenodd" clip-rule="evenodd" d="M195.473 187.492C195.473 191.897 191.904 195.469 187.498 195.469H147.615C143.211 195.469 139.64 191.897 139.64 187.492V147.611C139.64 143.206 143.211 139.635 147.615 139.635H187.498C191.904 139.635 195.473 143.206 195.473 147.611V187.492Z" fill="#FFE400"/>
<path fill-rule="evenodd" clip-rule="evenodd" d="M167.5 156.333C159.791 156.333 153.542 161.059 153.542 166.888C153.542 170.53 155.982 173.742 159.694 175.638L158.087 180.829C157.953 181.266 158.454 181.627 158.847 181.375L165.224 177.291C165.966 177.383 166.723 177.442 167.5 177.442C175.209 177.442 181.458 172.717 181.458 166.888C181.458 161.059 175.209 156.333 167.5 156.333Z" fill="#1E1E1E"/>
<path fill-rule="evenodd" clip-rule="evenodd" d="M214.959 155.62V194.131H225.84V178.837L236.079 194.131H249.233L235.647 173.925H225.84V155.62H214.959Z" fill="#B7B7B7"/>
<path fill-rule="evenodd" clip-rule="evenodd" d="M259.362 139.583L252.695 175.428L249.481 169.367C249.481 169.367 247.339 165.484 245.576 163.723L231.577 179.83L223.376 172.702L237.376 156.594C235.389 155.089 231.245 153.512 231.245 153.512L224.797 151.175L259.362 139.583Z" fill="#E3007E"/>
<path d="M39.0459 209.454C38.7511 209.383 38.4244 209.359 38.0637 209.385C27.5763 210.134 6.00697 221.409 5.58747 236.702C5.25301 248.895 21.9503 249.561 30.4262 248.363L27.9525 259.546C28.2472 259.617 28.574 259.641 28.9346 259.615C39.4221 258.866 60.9914 247.591 61.4109 232.298C61.7454 220.105 45.0481 219.439 36.5721 220.637L39.0459 209.454Z" fill="#0064FF"/>
<path fill-rule="evenodd" clip-rule="evenodd" d="M75.218 234.47C75.218 248.415 86.5233 259.721 100.469 259.721C114.414 259.721 125.72 248.415 125.72 234.47C125.72 220.524 114.414 209.218 100.469 209.218C86.5233 209.218 75.218 220.524 75.218 234.47ZM72.5825 234.47C72.5825 219.068 85.0678 206.583 100.469 206.583C115.871 206.583 128.356 219.068 128.356 234.47C128.356 249.871 115.871 262.356 100.469 262.356C85.0678 262.356 72.5825 249.871 72.5825 234.47ZM102.063 222.926V225.042H105.674V227.83H102.063V235.217H98.769V220.138H106.042V222.926H102.063ZM100.468 245.434C98.7834 245.434 97.4193 244.088 97.4193 242.427C97.4193 240.764 98.7834 239.417 100.468 239.417C102.151 239.417 103.518 240.764 103.518 242.427C103.518 244.088 102.151 245.434 100.468 245.434ZM100.468 236.673C97.1764 236.673 94.5088 239.177 94.5088 242.427C94.5088 245.681 97.1764 248.181 100.468 248.181C103.761 248.181 106.429 245.681 106.429 242.427C106.429 239.177 103.761 236.673 100.468 236.673Z" fill="#003993"/>
<path fill-rule="evenodd" clip-rule="evenodd" d="M196.632 215.045C197.35 215.018 198.02 215.518 198.02 216.281C198.02 216.894 197.407 217.422 196.987 217.742C194.65 219.56 191.962 220.963 189.237 222.085C181.278 225.379 172.435 226.516 163.926 227.61C163.527 227.662 163.128 227.713 162.731 227.764C157.524 228.45 152.308 228.951 147.072 229.285C145.132 229.408 143.186 228.374 141.559 227.399C139.882 226.406 138.27 225.085 137.35 223.339C136.583 221.873 136.484 219.66 137.839 218.497C138.863 217.615 140.446 217.661 141.709 217.751C142.729 217.829 143.733 218.01 144.739 218.191C145.202 218.274 145.664 218.357 146.129 218.431C147.182 218.594 148.239 218.779 149.294 218.965C150.599 219.194 151.903 219.423 153.199 219.609C166.895 221.585 181.559 220.646 194.55 215.704C194.711 215.643 194.873 215.575 195.035 215.506C195.551 215.29 196.076 215.068 196.632 215.045ZM176.151 237.138C176.493 237.897 176.723 238.72 176.865 239.566C177.242 241.77 177.02 244.157 176.638 246.247C176.364 247.772 175.945 249.268 175.461 250.736C174.17 254.687 172.274 258.513 169.313 261.494C168.822 261.993 168.206 262.452 167.46 262.152C167.28 262.079 167.123 261.965 167.011 261.807C166.797 261.478 166.924 261.056 167.032 260.698C167.046 260.652 167.059 260.607 167.071 260.564C167.217 260.074 167.353 259.576 167.482 259.077C168.77 254.235 169.972 249.017 169.731 243.975C169.676 242.815 169.535 241.638 169.031 240.6C168.523 239.556 167.586 238.671 166.443 238.489C165.791 238.377 165.112 238.51 164.517 238.799C164.237 238.941 163.97 239.115 163.746 239.333C163.375 239.681 163.117 240.148 162.941 240.628C162.37 242.133 162.57 243.641 162.827 245.182C163.03 246.39 162.837 247.735 161.737 248.452C160.889 248.999 159.762 249.04 158.82 248.674C157.87 248.309 157.094 247.573 156.564 246.709C154.924 244.07 154.889 240.179 155.798 237.291C155.989 236.698 156.212 236.114 156.497 235.564C157.322 233.935 158.606 232.574 160.173 231.633C163.625 229.534 167.843 229.523 171.334 231.558C173.577 232.863 175.079 234.817 176.151 237.138Z" fill="#009490"/>
<path fill-rule="evenodd" clip-rule="evenodd" d="M160.746 211.823C160.746 214.65 163.037 216.936 165.857 216.936C168.678 216.936 170.969 214.65 170.969 211.823C170.969 211.403 170.866 210.979 170.692 210.597C170.259 209.67 169.761 209.217 169.81 208.104C169.875 206.606 167.95 206.583 166.912 206.583C165.783 206.583 164.591 206.74 163.565 207.251C162.75 207.663 162.051 208.293 161.555 209.057C161.046 209.843 160.766 210.77 160.746 211.708V211.823Z" fill="#EC1651"/>
<path fill-rule="evenodd" clip-rule="evenodd" d="M234.465 212.167C215.977 212.167 203.792 221.87 203.792 233.843C203.792 245.813 215.977 255.517 234.465 255.517C252.957 255.517 265.145 245.813 265.145 233.843C265.145 221.87 252.957 212.167 234.465 212.167Z" fill="#FEFEFE"/>
<path fill-rule="evenodd" clip-rule="evenodd" d="M239.931 241.942C245.198 241.028 262.983 237.368 260.792 227.219C260.003 223.579 256.258 219.575 250.609 216.791C246.094 214.759 240.583 213.58 234.393 213.58C217.228 213.58 205.292 222.651 205.292 233.842C205.292 241.636 211.086 248.403 220.404 251.789C222.381 246.586 230.254 243.621 239.931 241.942Z" fill="#0075C1"/>
<path fill-rule="evenodd" clip-rule="evenodd" d="M234.503 245.532C226.806 246.498 223.275 248.984 221.004 252.004C224.927 253.345 229.44 254.102 234.393 254.102C251.559 254.102 263.496 245.034 263.496 233.842C263.496 232.85 263.401 231.875 263.218 230.922C262.649 244.062 242.924 244.486 234.503 245.532Z" fill="url(#paint6_linear_1679_9645)"/>
<path fill-rule="evenodd" clip-rule="evenodd" d="M241.603 239.365C241.517 238.414 241.481 237.765 241.481 237.206V231.529H238.747L238.834 231.704C238.837 231.708 239.112 232.252 239.112 233.443L239.112 233.453C239.113 233.678 239.12 237.411 239.012 238.314C238.352 238.483 237.469 238.544 236.896 238.544C232.557 238.544 230.355 236.052 230.355 231.143C230.355 227.396 232.834 224.598 236.381 224.341C238.247 224.209 240.044 224.717 241.175 225.699L241.373 225.871V223.577L241.278 223.558C240.151 223.341 238.827 223.112 237.532 223.112C231.286 223.112 227.554 226.401 227.554 231.908C227.554 237.775 232.11 239.864 236.375 239.864C238.183 239.864 240.052 239.73 241.504 239.492L241.613 239.474L241.603 239.365ZM214.821 224.713C215.153 224.685 216.169 224.611 216.904 224.611C221.299 224.611 223.349 226.742 223.349 231.317C223.349 236.045 221.527 238.346 217.784 238.346C215.044 238.346 214.821 238.214 214.821 236.59V224.713ZM217.829 223.262H212.073L212.14 223.427C212.396 224.048 212.38 225.18 212.363 226.181C212.356 226.417 212.354 239.471 212.354 239.471L212.468 239.474C212.495 239.477 215.091 239.57 217.551 239.57C222.693 239.57 226.148 236.085 226.148 230.898C226.148 226.259 222.883 223.262 217.829 223.262ZM248.454 224.534H246.845L246.837 230.089H247.886C250.736 230.089 252.064 229.138 252.064 227.095C252.064 225.301 250.988 224.534 248.454 224.534ZM248.106 231.362H246.837V236.702C246.837 237.885 247.336 238.346 248.613 238.346C251.247 238.346 252.528 237.181 252.528 234.785C252.528 232.513 251.044 231.362 248.106 231.362ZM254.421 226.765C254.421 228.777 252.925 230.156 251.362 230.572C253.719 231.077 255.324 232.701 255.324 234.639C255.324 237.772 252.95 239.569 248.812 239.569C246.636 239.569 244.845 239.601 244.546 239.607C244.518 239.607 244.503 239.607 244.502 239.607L244.38 239.61V225.555C244.38 224.06 244.238 223.414 244.235 223.407L244.203 223.262H249.127C252.444 223.262 254.421 224.57 254.421 226.765Z" fill="#FEFEFE"/>
<path fill-rule="evenodd" clip-rule="evenodd" d="M31.0336 307.185C31.1993 307.185 31.4908 307.323 31.8893 307.756C33.9533 310 36.2737 311.773 38.2249 312.844C38.5046 312.999 38.661 313.113 38.661 313.262C38.661 313.372 38.6457 313.485 38.4012 313.485C37.9628 313.485 35.5026 312.999 34.8526 312.694C34.199 312.388 32.7932 311.246 31.1158 308.356C30.9266 308.031 30.7256 307.749 30.7256 307.487C30.7256 307.226 30.9642 307.185 31.0336 307.185Z" fill="#6C9BD2"/>
<path fill-rule="evenodd" clip-rule="evenodd" d="M33.0401 300.291C37.0131 299.733 36.6052 298.927 36.6052 298.927C36.6052 298.927 38.2297 298.912 38.2297 300.182C38.2297 300.778 37.4222 301.355 36.4172 301.569C35.6872 301.722 34.4471 301.909 32.3678 302.197C32.2655 302.487 32.1599 302.785 32.0521 303.09C31.907 303.5 31.7581 303.92 31.6084 304.347C32.0104 304.295 33.8958 304.057 34.9643 304.057C36.0669 304.057 36.3102 304.56 36.3102 305.111C36.3102 306.502 34.5506 308.484 33.542 309.245C32.624 309.938 30.7715 311.208 30.3566 311.208C30.205 311.208 29.9605 311.03 30.2567 310.806C32.9437 308.76 34.3307 307.102 34.3307 306.523C34.3307 306.274 34.0898 306.064 33.622 306.064C33.1283 306.064 31.3534 306.337 30.8726 306.433L29.8842 309.232L29.8838 309.233L29.8782 309.249L29.8687 309.276C29.3553 310.73 28.9783 311.798 28.9026 312.01C28.6193 312.81 26.922 313.497 26.1673 313.497C25.4139 313.497 25.549 312.895 25.716 312.521L30.1086 302.48C29.8675 302.504 29.667 302.522 29.44 302.542C29.2808 302.556 29.1086 302.571 28.9002 302.59C28.1009 302.669 26.8503 301.949 26.8503 301.239C26.8503 300.832 27.0348 300.432 27.7553 300.504C28.2737 300.556 29.4221 300.61 30.9713 300.506L32.1527 297.803C32.3231 297.407 32.6217 297.092 33.0331 297.092C33.4433 297.092 34.0122 297.523 33.7595 298.257C33.7595 298.257 33.4727 299.064 33.0401 300.291ZM0 305.212H1.26242V308.554C1.26242 309.854 2.00177 310.686 3.34177 310.686C3.85426 310.686 4.24921 310.637 4.60654 310.531L4.556 309.181C4.37616 309.295 4.08465 309.358 3.77668 309.358C3.12549 309.358 2.97386 308.837 2.97386 308.273V305.212H4.59244V303.961H2.97386V302.296H1.26242V303.961H0V305.212ZM5.89455 303.96H7.41321V305.454H7.44025C7.51665 304.84 8.21721 303.806 9.23749 303.806C9.4044 303.806 9.58307 303.806 9.76291 303.859V305.582C9.61011 305.493 9.30332 305.441 8.99535 305.441C7.60598 305.441 7.60598 307.176 7.60598 308.12V310.532H5.89455V303.96ZM15.237 310.532H16.8568V303.96H15.1477V307.177C15.1477 308.017 14.8785 309.359 13.6408 309.359C12.5429 309.359 12.53 308.274 12.53 307.468V303.96H10.8221V308.108C10.8221 309.588 11.498 310.687 13.0543 310.687C13.9476 310.687 14.6893 310.278 15.2112 309.641H15.237V310.532ZM22.4889 306.602C22.4395 305.774 22.0552 305.058 21.1007 305.058C20.1415 305.058 19.6573 305.722 19.5797 306.602H22.4889ZM23.638 310.162C23.0115 310.506 22.298 310.687 21.3788 310.687C19.2089 310.687 17.9465 309.436 17.9465 307.279C17.9465 305.376 18.9538 303.806 20.9956 303.806C23.4346 303.806 24.1234 305.479 24.1234 307.776H19.5792C19.6568 308.837 20.3973 309.436 21.4552 309.436C22.2862 309.436 22.9997 309.128 23.638 308.772V310.162ZM39.0256 304.058H37.5069V310.628H39.2172V308.215C39.2172 307.27 39.2172 305.537 40.6077 305.537C40.9133 305.537 41.2201 305.587 41.3741 305.677V303.954C41.1943 303.904 41.0168 303.904 40.8499 303.904C39.8296 303.904 39.1278 304.936 39.0503 305.549H39.0256V304.058ZM42.365 310.629H44.0776V304.058H42.365V310.629ZM42.3652 302.958H44.0779V301.323H42.3652V302.958ZM48.306 305.154C49.2628 305.154 49.646 305.868 49.6978 306.7H46.7874C46.8638 305.819 47.348 305.154 48.306 305.154ZM48.5852 310.784C49.5044 310.784 50.2191 310.604 50.8432 310.258V308.869C50.2061 309.225 49.4926 309.531 48.6628 309.531C47.6037 309.531 46.8632 308.931 46.7868 307.872H51.3275C51.3275 305.574 50.6399 303.904 48.2032 303.904C46.1603 303.904 45.1529 305.472 45.1529 307.376C45.1529 309.531 46.4153 310.784 48.5852 310.784ZM52.3427 304.058H53.9636V304.951H53.9895C54.5267 304.196 55.2554 303.904 56.1464 303.904C57.705 303.904 58.3809 305.001 58.3809 306.484V310.628H56.6707V307.12C56.6707 306.314 56.6577 305.23 55.5599 305.23C54.3233 305.23 54.0553 306.568 54.0553 307.413V310.628H52.3427V304.058ZM64.1544 307.324C64.1544 308.256 63.7853 309.455 62.6474 309.455C61.5237 309.455 61.2075 308.229 61.2075 307.324C61.2075 306.442 61.5131 305.229 62.6228 305.229C63.7206 305.229 64.1544 306.403 64.1544 307.324ZM64.1931 309.888H64.2189V310.628H65.8775V301.056H64.1672V304.824H64.1413C63.63 304.196 63.0317 303.903 62.176 303.903C60.1601 303.903 59.4208 305.511 59.4208 307.324C59.4208 309.122 60.1601 310.783 62.176 310.783C62.9812 310.783 63.6829 310.526 64.1931 309.888Z" fill="#6A2D00"/>
<path fill-rule="evenodd" clip-rule="evenodd" d="M129.463 305.348C128.574 296.614 118.627 289.459 107.256 289.367C95.8827 289.273 87.3873 296.274 88.2797 305.012C89.1738 313.742 99.1143 320.897 110.489 320.991C121.864 321.086 130.357 314.08 129.463 305.348ZM91.8453 303.16C91.0667 296.121 98.4548 290.468 108.336 290.548C118.211 290.626 126.855 296.393 127.628 303.429C128.401 310.47 121.022 316.123 111.137 316.049C101.262 315.971 92.6202 310.205 91.8453 303.16Z" fill="#F8A883"/>
<path fill-rule="evenodd" clip-rule="evenodd" d="M91.5422 301.955C85.0339 308.762 84.9273 319.223 91.3038 325.332C97.6803 331.439 108.136 330.872 114.648 324.071C121.16 317.272 121.261 306.807 114.884 300.695C108.511 294.587 98.0578 295.153 91.5422 301.955ZM112.296 321.173C106.695 327.017 97.7097 327.507 92.222 322.257C86.7288 316.999 86.8227 307.992 92.4261 302.142C98.0276 296.289 107.02 295.81 112.504 301.058C117.995 306.312 117.903 315.315 112.296 321.173Z" fill="#F37C4B"/>
<mask id="mask0_1679_9645" style="mask-type:luminance" maskUnits="userSpaceOnUse" x="69" y="275" width="54" height="45">
<path fill-rule="evenodd" clip-rule="evenodd" d="M69.792 275.39H122.873V319.501H69.792V275.39Z" fill="white"/>
</mask>
<g mask="url(#mask0_1679_9645)">
<path fill-rule="evenodd" clip-rule="evenodd" d="M81.3199 283.803C69.2371 293.372 66.1591 307.243 74.4431 314.775C82.7379 322.306 99.2572 320.661 111.347 311.09C123.432 301.52 126.506 287.651 118.217 280.12C109.926 272.58 93.4064 274.233 81.3199 283.803ZM92.1407 280.055C103.788 275.687 115.309 280.108 117.867 289.92C120.429 299.73 113.064 311.231 101.416 315.596C89.7653 319.965 78.2497 315.541 75.6829 305.731C73.1214 295.915 80.4896 284.419 92.1407 280.055Z" fill="#F05A28"/>
</g>
<path fill-rule="evenodd" clip-rule="evenodd" d="M178.114 294.278V306.86H183.818L198 294.278H178.114Z" fill="#D4B45C"/>
<path fill-rule="evenodd" clip-rule="evenodd" d="M174.335 270.792L161.754 281.954V290.488H174.335V270.792Z" fill="#D4B45C"/>
<path fill-rule="evenodd" clip-rule="evenodd" d="M150.97 294.278L136.792 306.854L161.759 306.859L161.761 331.819L174.336 320.666V294.278H150.97Z" fill="#00448D"/>
<path fill-rule="evenodd" clip-rule="evenodd" d="M215.189 318.092C215.326 319.9 216.086 320.954 218.202 320.912C232.951 320.673 236.822 302.791 227.71 294.378C226.247 293.034 224.474 291.925 222.333 291.176C221.257 290.795 219.484 290.245 217.972 290.245C216.673 290.245 215.568 290.657 215.28 291.951C214.747 294.424 214.996 315.64 215.189 318.092Z" fill="url(#paint7_linear_1679_9645)"/>
<path fill-rule="evenodd" clip-rule="evenodd" d="M235.767 273.583C234.58 273.583 233.582 273.965 233.316 275.139C232.829 277.376 233.064 296.642 233.231 298.876C233.36 300.507 234.045 301.463 235.965 301.436C249.36 301.211 252.884 284.976 244.609 277.34C243.283 276.118 241.657 275.113 239.73 274.434C238.747 274.083 237.142 273.583 235.767 273.583Z" fill="url(#paint8_linear_1679_9645)"/>
<path fill-rule="evenodd" clip-rule="evenodd" d="M236.335 292.48C235.712 295.296 236.013 319.496 236.227 322.304C236.392 324.368 237.244 325.555 239.654 325.52C256.494 325.25 260.921 304.845 250.523 295.245C248.861 293.713 246.812 292.447 244.391 291.595C243.156 291.156 241.131 290.529 239.414 290.529C237.925 290.529 236.657 291.001 236.335 292.48Z" fill="url(#paint9_linear_1679_9645)"/>
<path fill-rule="evenodd" clip-rule="evenodd" d="M55.2875 366.811C51.0602 367.662 49.5078 370.096 48.3949 369.531C47.4228 368.739 48.4856 364.232 48.7149 362.419C49.0111 360.043 45.8131 358.592 44.7217 361.508C43.8189 364.419 44.244 374.719 44.4446 376.539C44.6572 378.492 48.0772 378.415 48.4379 376.719C48.5453 376.186 48.8224 375.07 49.6177 373.509C53.0306 367.075 60.494 369.907 59.7608 374.423C58.4974 381.338 45.6674 381.191 43.9765 379.716C41.4449 377.915 33.4274 372.596 25.6798 367.552C25.6893 367.194 25.7036 366.811 25.7204 366.454C36.4988 360.155 47.356 353.78 48.7149 352.586C50.8572 350.682 48.4856 347.292 45.7367 349.467C43.9025 350.939 35.1971 356.607 26.0046 362.428C26.6303 355.394 27.7432 351.35 28.2328 349.493C29.1428 346.033 24.1895 344.736 23.3464 348.227C21.9492 353.981 21.1754 359.426 20.7933 364.398C15.5629 361.045 11.0801 358.214 9.39393 357.319C4.51225 354.707 4.00354 359.501 5.94762 360.405C6.87905 360.851 11.8109 363.828 17.8605 367.547C11.7751 371.357 6.3393 374.673 3.59992 376.245C1.78003 377.733 3.34676 379.716 5.22157 378.611C8.23322 376.719 14.0726 373.287 20.521 369.502C20.2726 379.59 21.6865 386.893 22.7947 389.166C24.242 392.089 26.6255 390.813 26.2434 388.073C25.7275 382.018 25.5388 376.784 25.5603 372.297C34.9058 378.072 44.2154 383.889 45.0871 384.431C47.2533 385.779 49.2547 384.242 49.441 383.155C56.9784 382.452 62.2136 381.139 63.8973 375.177C65.6288 369.082 59.7751 365.912 55.2875 366.811Z" fill="#FCB813"/>
<path fill-rule="evenodd" clip-rule="evenodd" d="M125.628 375.502C125.624 376.699 124.637 377.663 123.407 377.664L119.502 377.668C118.272 377.663 117.285 376.699 117.282 375.502L117.285 367.573C117.329 366.409 118.299 365.481 119.502 365.481H123.419C124.638 365.489 125.624 366.451 125.628 367.641V375.502ZM124.452 360.686H118.462C118.059 360.686 117.669 360.729 117.286 360.791V348.958L111.706 354.502L111.705 375.869C111.705 379.505 114.728 382.458 118.462 382.458H124.449C128.183 382.458 131.209 379.505 131.209 375.872V367.278C131.209 363.639 128.183 360.689 124.452 360.686ZM100.67 375.502V365.453H107.336V360.66H100.67V354.392L90.6585 365.453H95.0887V375.869C95.0902 379.505 98.1136 382.458 101.849 382.458H109.177V377.669H102.887C101.665 377.663 100.671 376.699 100.67 375.502ZM69.792 355.844V382.458H75.3748V372.987H77.6726L84.9947 382.453H91.9119L82.2875 370.52L91.0622 360.66H84.1805L77.5411 368.194H75.3748V350.304L69.792 355.844Z" fill="#1C2372"/>
<path fill-rule="evenodd" clip-rule="evenodd" d="M167.463 340.583C169.147 340.583 170.791 340.74 172.391 341.029L167.496 343.758L162.582 341.018C164.17 340.738 165.799 340.583 167.463 340.583ZM163.66 344.889L158.565 342.048C157.377 342.449 156.223 342.925 155.114 343.475L153.517 349.095C156.468 346.965 159.919 345.491 163.66 344.889ZM179.852 343.497L181.451 349.125C178.505 346.988 175.056 345.506 171.316 344.899L176.403 342.062C177.589 342.464 178.742 342.944 179.852 343.497ZM148.122 354.477L142.496 356.078C141.939 357.186 141.462 358.339 141.059 359.527L143.895 364.613C144.503 360.873 145.987 357.424 148.122 354.477ZM140.026 363.537C139.738 365.138 139.583 366.783 139.583 368.466C139.583 370.129 139.734 371.76 140.016 373.347L142.753 368.433L140.026 363.537ZM193.882 359.567L191.039 364.662C190.438 360.922 188.964 357.472 186.836 354.521L192.454 356.117C193.003 357.227 193.479 358.381 193.882 359.567ZM143.887 372.269L141.044 377.364C141.446 378.551 141.922 379.705 142.474 380.815L148.09 382.411C145.963 379.46 144.486 376.01 143.887 372.269ZM151.499 391.307C148.809 389.422 146.471 387.079 144.589 384.386L149.968 385.914L151.499 391.307ZM151.543 345.594C148.851 347.473 146.507 349.815 144.622 352.503L150.015 350.97L151.543 345.594ZM183.383 391.338C186.074 389.459 188.42 387.116 190.306 384.429L184.914 385.962L183.383 391.338ZM192.434 380.854L186.803 382.453C188.941 379.509 190.423 376.059 191.03 372.319L193.867 377.406C193.465 378.595 192.986 379.746 192.434 380.854ZM153.477 387.807L155.074 393.436C156.183 393.988 157.336 394.467 158.522 394.87L163.61 392.033C159.87 391.426 156.421 389.942 153.477 387.807ZM176.362 394.884L171.267 392.043C175.007 391.442 178.46 389.967 181.411 387.837L179.813 393.456C178.701 394.007 177.549 394.484 176.362 394.884ZM194.902 373.395C195.187 371.794 195.347 370.149 195.347 368.466C195.347 366.802 195.19 365.173 194.911 363.588L192.172 368.498L194.902 373.395ZM167.464 396.349C165.782 396.349 164.137 396.192 162.533 395.903L167.429 393.173L172.342 395.912C170.755 396.194 169.13 396.349 167.464 396.349ZM158.29 366.077C159.454 366.771 160.982 367.124 162.827 367.124H166.161V364.171H163.552C162.642 364.171 161.881 364.067 161.291 363.86C160.683 363.645 160.126 363.275 159.636 362.757C158.802 361.88 158.379 360.815 158.379 359.596C158.379 358.301 158.819 357.194 159.687 356.31C160.147 355.841 160.676 355.496 161.26 355.287C161.829 355.085 162.536 354.983 163.365 354.983H166.161V352.028H162.99C162.013 352.028 161.124 352.113 160.358 352.287C159.077 352.565 157.96 353.162 157.035 354.058C156.398 354.68 155.875 355.417 155.488 356.246C154.971 357.336 154.708 358.475 154.708 359.629C154.708 360.51 154.866 361.384 155.174 362.23C155.775 363.894 156.824 365.189 158.29 366.077ZM163.735 370.066C164.322 370.232 164.848 370.512 165.296 370.905C165.775 371.321 166.156 371.843 166.428 372.463C166.702 373.086 166.84 373.735 166.84 374.386C166.84 375.267 166.598 376.092 166.124 376.846C165.668 377.578 165.09 378.108 164.416 378.424C163.723 378.744 162.79 378.908 161.641 378.908H158.794V384.905H155.291V375.953H160.822C161.67 375.953 162.213 375.849 162.548 375.611C162.957 375.31 163.175 374.869 163.175 374.339C163.175 373.632 162.822 373.269 162.529 373.089C162.166 372.869 161.619 372.761 160.859 372.761H155.291V369.807H161.291C162.297 369.807 163.12 369.893 163.735 370.066ZM169.168 372.761H180.041V369.808H169.168V372.761ZM180.041 384.905H169.168V375.954H180.041V378.908H172.673V381.95H180.041V384.905Z" fill="#1D9ADD"/>
<path fill-rule="evenodd" clip-rule="evenodd" d="M183.426 345.625C186.117 347.509 188.455 349.854 190.333 352.546L184.959 351.019L183.426 345.625ZM177.339 364.171L173.006 352.028H176.182L181.516 367.125H167.696L170.648 358.177H173.719L172.01 364.171H177.339Z" fill="#F73449"/>
<path fill-rule="evenodd" clip-rule="evenodd" d="M233.48 342.918L220.47 335.971L233.304 360.554L246.138 336.149L233.48 342.918ZM243.327 344.878L259.853 338.109V350.4L250.36 354.675C255.985 359.306 259.677 366.254 259.677 373.913C259.677 387.808 247.722 399.208 233.131 399.208C218.363 399.208 206.584 387.986 206.584 373.913C206.584 366.076 210.276 359.128 216.253 354.319L206.76 350.044V337.752L223.11 344.7L225.747 349.509L231.724 360.91C225.044 361.8 219.945 367.323 219.945 373.913C219.945 381.039 226.098 386.917 233.658 386.917C241.218 386.917 247.371 381.217 247.371 373.913C247.371 367.144 241.921 361.444 234.889 360.91L240.514 349.865H240.69L243.327 344.878Z" fill="#FFDC00"/>
<path fill-rule="evenodd" clip-rule="evenodd" d="M11.8077 446.485C10.1063 445.685 8.70392 445.039 8.70392 443.737C8.70392 442.74 9.50233 442.016 11.073 442.016C11.6496 442.016 12.1273 442.079 12.6164 442.172C12.8712 442.214 13.1464 442.253 13.3716 442.253C14.7444 442.253 15.52 441.435 16.0352 439.878L16.2491 439.239C16.0296 439.151 13.7844 438.165 10.8558 438.165C6.20062 438.165 3.7394 441.154 3.74281 444.259C3.74281 445.822 4.23301 446.959 4.99958 447.851C5.99021 449 7.39597 449.754 8.71074 450.395C10.6283 451.339 12.3605 452.035 12.3605 453.432C12.3605 454.671 11.081 455.379 9.36699 455.379C7.02747 455.379 4.97911 454.037 4.71979 453.874L2.79199 457.487C3.1332 457.681 5.61033 459.257 9.69568 459.257C14.0392 459.256 17.3284 456.757 17.3284 452.916C17.3284 449.099 14.278 447.681 11.8077 446.485Z" fill="#E21837"/>
<path fill-rule="evenodd" clip-rule="evenodd" d="M28.8069 448.265L36.6921 438.585H31.0748L24.7875 446.941H24.6931V438.585H20.063V459.091H20.3382C22.3388 459.091 24.7227 458.163 24.7227 454.818V450.107H24.8205L31.2294 458.839H37.1198L28.8069 448.265Z" fill="#E21837"/>
<path fill-rule="evenodd" clip-rule="evenodd" d="M36.9556 416.618C35.3224 416.925 32.9055 418.405 32.9146 421.031C32.9191 423.408 34.8651 424.849 34.8708 427.968C34.8788 430.315 33.589 431.895 32.1924 432.771C32.7565 432.718 33.3764 432.687 34.0542 432.687C35.4827 432.682 36.3403 432.817 36.3937 432.829L43.708 423.838C41.6744 420.793 39.3019 418.431 36.9556 416.618Z" fill="#E21837"/>
<path fill-rule="evenodd" clip-rule="evenodd" d="M43.0983 440.887C44.0173 439.456 44.1367 437.166 44.2129 434.836C44.2993 432.665 44.752 431.028 47.6545 431.017C48.2971 431.013 48.9124 431.104 50.0224 431.101C54.275 431.083 57.049 429.614 58.7777 428.653C55.2485 426.401 50.0952 424.098 43.7068 423.838C43.2916 425.02 40.0525 434.034 39.8057 434.761C39.8455 434.805 40.4119 435.442 41.1204 436.684C42.1657 438.389 42.7241 439.833 43.0983 440.887Z" fill="#E21837"/>
<mask id="mask1_1679_9645" style="mask-type:luminance" maskUnits="userSpaceOnUse" x="24" y="411" width="12" height="23">
<path fill-rule="evenodd" clip-rule="evenodd" d="M24.7671 411.246H35.9199V433.522H24.7671V411.246Z" fill="white"/>
</mask>
<g mask="url(#mask1_1679_9645)">
<path fill-rule="evenodd" clip-rule="evenodd" d="M27.648 433.522C27.2818 433.522 27.0975 433.277 27.0486 432.853C27.002 432.426 25.1709 415.674 24.8979 413.135C24.8592 412.763 24.7671 412.084 24.7671 411.84C24.7637 411.449 25.0196 411.246 25.321 411.246C26.1865 411.243 30.9065 412.352 35.9199 415.869C34.4766 416.275 31.8619 417.781 31.8733 420.897C31.8858 423.65 33.8545 425.168 33.8659 427.937C33.8795 432.432 28.7217 433.519 27.648 433.522Z" fill="#F37725"/>
</g>
<path fill-rule="evenodd" clip-rule="evenodd" d="M43.5171 442.078C43.5956 442.291 43.6695 442.47 43.7457 442.59C43.8594 442.789 44.0084 442.878 44.1972 442.878C44.3121 442.878 44.4543 442.834 44.6124 442.762C44.9991 442.585 60.2702 435.467 62.5733 434.402C62.9111 434.243 63.5401 433.96 63.7539 433.837C63.9666 433.714 64.0644 433.531 64.0644 433.348C64.0644 433.247 64.0337 433.143 63.9791 433.048C63.6925 432.583 62.2105 431.013 59.739 429.298C57.7783 430.376 54.7154 432.052 50.1581 432.069C49.0389 432.071 48.7898 431.991 48.0278 431.999C45.8032 432.006 45.2493 432.956 45.1651 434.91C45.1515 435.278 45.1503 435.774 45.1242 436.32C45.0548 438.068 44.8501 440.472 43.5171 442.078Z" fill="#F37725"/>
<defs>
<linearGradient id="paint0_linear_1679_9645" x1="100.5" y1="-33.5" x2="33.5" y2="33.5" gradientUnits="userSpaceOnUse">
<stop stop-color="#005BAC"/>
<stop offset="0.508084" stop-color="#00A4B0"/>
<stop offset="0.805404" stop-color="#1EAB44"/>
<stop offset="1" stop-color="#ABC500"/>
</linearGradient>
<radialGradient id="paint1_radial_1679_9645" cx="0" cy="0" r="1" gradientUnits="userSpaceOnUse" gradientTransform="translate(240.353 92.9565) rotate(87.3495) scale(28.0551 28.0534)">
<stop offset="0.000554265" stop-color="#FEFDFC"/>
<stop offset="1" stop-color="#D3A243"/>
</radialGradient>
<radialGradient id="paint2_radial_1679_9645" cx="0" cy="0" r="1" gradientUnits="userSpaceOnUse" gradientTransform="translate(241.652 98.9461) rotate(65.7559) scale(25.2469 23.6404)">
<stop stop-color="#00A8E2"/>
<stop offset="0.183963" stop-color="#00AFE7"/>
<stop offset="1" stop-color="#005BAC"/>
</radialGradient>
<linearGradient id="paint3_linear_1679_9645" x1="-46.4257" y1="60.8851" x2="-45.1115" y2="219.373" gradientUnits="userSpaceOnUse">
<stop stop-color="#024DA1"/>
<stop offset="1" stop-color="#00ACED"/>
</linearGradient>
<radialGradient id="paint4_radial_1679_9645" cx="0" cy="0" r="1" gradientUnits="userSpaceOnUse" gradientTransform="translate(107.204 153.999) scale(40.2377 41.749)">
<stop stop-color="#EF402F"/>
<stop offset="0.2057" stop-color="#E0382B"/>
<stop offset="0.5402" stop-color="#C42225"/>
<stop offset="0.6" stop-color="#BE1E24"/>
<stop offset="1" stop-color="#7A1113"/>
</radialGradient>
<radialGradient id="paint5_radial_1679_9645" cx="0" cy="0" r="1" gradientUnits="userSpaceOnUse" gradientTransform="translate(110.292 152.31) scale(39.2579 32.9922)">
<stop offset="0.005618" stop-color="#E6E7E8"/>
<stop offset="1" stop-color="#8A9297"/>
</radialGradient>
<linearGradient id="paint6_linear_1679_9645" x1="265.765" y1="237.671" x2="222.7" y2="240.493" gradientUnits="userSpaceOnUse">
<stop stop-color="#6AB935"/>
<stop offset="0.305922" stop-color="#00A5A9"/>
<stop offset="0.669783" stop-color="#008AD5"/>
<stop offset="1" stop-color="#0075C1"/>
</linearGradient>
<linearGradient id="paint7_linear_1679_9645" x1="214.959" y1="320.913" x2="232.601" y2="320.913" gradientUnits="userSpaceOnUse">
<stop stop-color="#CB292B"/>
<stop offset="1" stop-color="#F47920"/>
</linearGradient>
<linearGradient id="paint8_linear_1679_9645" x1="233.021" y1="301.682" x2="249.358" y2="301.734" gradientUnits="userSpaceOnUse">
<stop stop-color="#1CB0E6"/>
<stop offset="1" stop-color="#0462B0"/>
</linearGradient>
<linearGradient id="paint9_linear_1679_9645" x1="234.187" y1="328.934" x2="258.313" y2="329.01" gradientUnits="userSpaceOnUse">
<stop stop-color="#8BC53F"/>
<stop offset="1" stop-color="#009B56"/>
</linearGradient>
</defs>
</svg>
