<svg width="56" height="56" viewBox="0 0 56 56" fill="none" xmlns="http://www.w3.org/2000/svg">
<g id="Icons / content / check-bold">
<path id="Vector" fill-rule="evenodd" clip-rule="evenodd" d="M4.66663 27.9998C4.66663 15.1127 15.1128 4.6665 28 4.6665C40.8871 4.6665 51.3333 15.1127 51.3333 27.9998C51.3333 40.887 40.8871 51.3332 28 51.3332C15.1128 51.3332 4.66663 40.887 4.66663 27.9998ZM36.6393 23.6586C36.7829 23.4673 36.8868 23.2492 36.9449 23.0171C37.0029 22.7851 37.0141 22.5438 36.9776 22.3074C36.941 22.0709 36.8576 21.8442 36.7323 21.6405C36.6069 21.4368 36.442 21.2602 36.2474 21.1211C36.0528 20.9819 35.8323 20.8832 35.599 20.8305C35.3656 20.7778 35.1241 20.7723 34.8886 20.8143C34.6531 20.8563 34.4284 20.9449 34.2276 21.075C34.0269 21.2051 33.8542 21.374 33.7196 21.5718L25.9753 32.4128L22.0888 28.5263C21.7486 28.2093 21.2986 28.0367 20.8336 28.0449C20.3686 28.0531 19.9249 28.2415 19.5961 28.5703C19.2672 28.8992 19.0789 29.3428 19.0707 29.8078C19.0624 30.2728 19.235 30.7228 19.5521 31.0631L24.9367 36.4477C25.121 36.6318 25.3431 36.7736 25.5876 36.8633C25.8322 36.9529 26.0933 36.9883 26.3529 36.9669C26.6125 36.9454 26.8643 36.8678 27.0909 36.7393C27.3174 36.6108 27.5133 36.4345 27.6649 36.2227L36.6393 23.6586Z" fill="#6A27D8"/>
</g>
</svg>
