<svg width="24" height="48" viewBox="0 0 24 48" fill="none" xmlns="http://www.w3.org/2000/svg">
<path d="M2.25 18.75C7.58561 18.7457 12.898 19.4522 18.047 20.851C18.774 21.049 19.5 20.509 19.5 19.755V18.75M3.75 4.5V5.25C3.75 5.44891 3.67098 5.63968 3.53033 5.78033C3.38968 5.92098 3.19891 6 3 6H2.25M2.25 6V5.625C2.25 5.004 2.754 4.5 3.375 4.5H20.25M2.25 6V15M20.25 4.5V5.25C20.25 5.664 20.586 6 21 6H21.75M20.25 4.5H20.625C21.246 4.5 21.75 5.004 21.75 5.625V15.375C21.75 15.996 21.246 16.5 20.625 16.5H20.25M2.25 15V15.375C2.25 15.6734 2.36853 15.9595 2.5795 16.1705C2.79048 16.3815 3.07663 16.5 3.375 16.5H3.75M2.25 15H3C3.19891 15 3.38968 15.079 3.53033 15.2197C3.67098 15.3603 3.75 15.5511 3.75 15.75V16.5M20.25 16.5V15.75C20.25 15.5511 20.329 15.3603 20.4697 15.2197C20.6103 15.079 20.8011 15 21 15H21.75M20.25 16.5H3.75M15 10.5C15 11.2956 14.6839 12.0587 14.1213 12.6213C13.5587 13.1839 12.7956 13.5 12 13.5C11.2044 13.5 10.4413 13.1839 9.87868 12.6213C9.31607 12.0587 9 11.2956 9 10.5C9 9.70435 9.31607 8.94129 9.87868 8.37868C10.4413 7.81607 11.2044 7.5 12 7.5C12.7956 7.5 13.5587 7.81607 14.1213 8.37868C14.6839 8.94129 15 9.70435 15 10.5ZM18 10.5H18.008V10.508H18V10.5ZM6 10.5H6.008V10.508H6V10.5Z" stroke="#595959" stroke-width="1.5" stroke-linecap="round" stroke-linejoin="round"/>
<path d="M2.25 42.75C7.58561 42.7457 12.898 43.4522 18.047 44.851C18.774 45.049 19.5 44.509 19.5 43.755V42.75M3.75 28.5V29.25C3.75 29.4489 3.67098 29.6397 3.53033 29.7803C3.38968 29.921 3.19891 30 3 30H2.25M2.25 30V29.625C2.25 29.004 2.754 28.5 3.375 28.5H20.25M2.25 30V39M20.25 28.5V29.25C20.25 29.664 20.586 30 21 30H21.75M20.25 28.5H20.625C21.246 28.5 21.75 29.004 21.75 29.625V39.375C21.75 39.996 21.246 40.5 20.625 40.5H20.25M2.25 39V39.375C2.25 39.6734 2.36853 39.9595 2.5795 40.1705C2.79048 40.3815 3.07663 40.5 3.375 40.5H3.75M2.25 39H3C3.19891 39 3.38968 39.079 3.53033 39.2197C3.67098 39.3603 3.75 39.5511 3.75 39.75V40.5M20.25 40.5V39.75C20.25 39.5511 20.329 39.3603 20.4697 39.2197C20.6103 39.079 20.8011 39 21 39H21.75M20.25 40.5H3.75M15 34.5C15 35.2956 14.6839 36.0587 14.1213 36.6213C13.5587 37.1839 12.7956 37.5 12 37.5C11.2044 37.5 10.4413 37.1839 9.87868 36.6213C9.31607 36.0587 9 35.2956 9 34.5C9 33.7044 9.31607 32.9413 9.87868 32.3787C10.4413 31.8161 11.2044 31.5 12 31.5C12.7956 31.5 13.5587 31.8161 14.1213 32.3787C14.6839 32.9413 15 33.7044 15 34.5ZM18 34.5H18.008V34.508H18V34.5ZM6 34.5H6.008V34.508H6V34.5Z" stroke="#FAFAFA" stroke-width="1.5" stroke-linecap="round" stroke-linejoin="round"/>
</svg>
