<svg width="96" height="168" viewBox="0 0 96 168" fill="none" xmlns="http://www.w3.org/2000/svg">
<path fill-rule="evenodd" clip-rule="evenodd" d="M6.2616 9.88904C5.4008 9.94184 4.6664 9.29384 4.6112 8.43944C4.56 7.58424 5.2048 6.84504 6.0672 6.79064C6.9192 6.73624 7.652 7.38904 7.7064 8.24344C7.7616 9.09864 7.1144 9.83624 6.2616 9.88904ZM20.5568 7.58584C19.552 6.56904 17.8912 6.74504 16.912 7.78264C15.6376 9.12024 14.6464 9.62024 13.4648 9.57064C11.8168 9.49864 11.0032 8.22344 10.1576 6.61544C9.2784 4.93624 7.9256 4.00024 6.24 4.00024C3.5888 4.00024 2 6.14664 2 8.54024C2 12.2234 4.5896 14.425 6.3824 15.353C7.872 16.1298 9.5288 16.453 11.0032 16.4906C10.916 17.3706 10.6568 18.533 10.3712 19.3562H10.5224H11.8984H13.2728H13.4032C13.1048 18.533 12.84 17.2746 12.7584 16.3922C17.2008 15.8154 19.3112 13.7986 20.4664 11.8778C20.9848 11.0346 21.2616 10.1594 21.2584 9.37304C21.2544 8.68424 21.0352 8.05784 20.5568 7.58584Z" fill="#6EB329"/>
<rect x="24" width="24" height="24" fill="url(#paint0_linear_1679_9647)"/>
<path fill-rule="evenodd" clip-rule="evenodd" d="M28 9.33443L33.3354 4H44V14.1382H38.6677V9.33443H28ZM28.0002 20V9.86177H33.3355V14.6676H43.9996L38.6678 20H28.0002Z" fill="white"/>
<path fill-rule="evenodd" clip-rule="evenodd" d="M62.8205 9.74117C62.8205 9.33316 63.1741 9 63.5979 9C64.0394 9 64.3925 9.33316 64.3925 9.74117C64.3925 10.149 64.0394 10.482 63.5979 10.482C63.1741 10.482 62.8205 10.149 62.8205 9.74117ZM66.4214 10.0114H65.3307V10.495C65.3307 10.8425 65.1303 11.1073 64.7132 11.1073H64.5129V12.1125H65.2187V13.7228C65.2187 14.4709 65.7238 14.932 66.5494 14.932C66.9343 14.932 67.1349 14.8488 67.1832 14.8264V13.874C67.111 13.8889 66.9905 13.9118 66.8626 13.9118C66.5976 13.9118 66.4214 13.8284 66.4214 13.5187V12.1125H67.1994V11.1073H66.4214V10.0114ZM53.7231 10.9939C53.186 10.9939 52.8009 11.1603 52.4882 11.5836C52.2879 11.2132 51.879 10.9939 51.3096 10.9939C50.8766 10.9939 50.3633 11.2053 50.1627 11.538V11.107H49V14.864H50.2189V12.7022C50.2189 12.3621 50.4514 12.0523 50.8766 12.0523C51.3176 12.0523 51.5177 12.3318 51.5177 12.687V14.864H52.7207V12.6946C52.7207 12.3621 52.9534 12.0523 53.3862 12.0523C53.8192 12.0523 54.0198 12.3318 54.0198 12.687V14.864H55.1984V12.4298C55.1984 11.4096 54.4771 10.9939 53.7231 10.9939ZM61.2243 11.6139V11.107H60.045V14.864H61.264V13.2238C61.264 12.4756 61.7054 12.2034 62.1951 12.2034C62.3154 12.2034 62.4437 12.211 62.5801 12.2412V11.107C62.4998 11.0845 62.3795 11.0695 62.2593 11.0695C61.9381 11.0695 61.4329 11.1906 61.2243 11.6139ZM64.2159 14.864H62.9973V11.107H64.2159V14.864ZM56.8202 12.531C56.8446 12.2481 57.1041 11.8889 57.6233 11.8889C58.2071 11.8889 58.4179 12.2404 58.434 12.531H56.8202ZM57.6069 10.9715C56.5607 10.9715 55.5958 11.7513 55.5958 12.9743C55.5958 14.2509 56.5851 15 57.6961 15C58.6099 15 59.2177 14.5596 59.4753 13.9966L58.4671 13.6358C58.3355 13.8668 58.0961 14.0137 57.7123 14.0137C57.2339 14.0137 56.8202 13.7081 56.7958 13.2801H59.6018C59.61 13.2572 59.6264 13.0813 59.6264 12.9207C59.6264 11.6977 58.8557 10.9715 57.6069 10.9715ZM70.9681 12.0521L69.1472 13.8586H71V13.8739V14.8641H67.6565V13.8512L69.39 12.1125H67.7044V12.09V11.1071H70.9681V12.0521Z" fill="#EE3B24"/>
<path fill-rule="evenodd" clip-rule="evenodd" d="M95.6632 9C95.2758 10.6004 93.8885 11.473 93.073 11.9389L93.0376 11.8915C93.3718 11.6193 94.52 10.7722 94.887 9.36814L95.6632 9Z" fill="#EF8200"/>
<path fill-rule="evenodd" clip-rule="evenodd" d="M86.8001 13.1421C86.7419 13.0975 86.6739 13.0559 86.5953 13.0207C86.5927 13.0191 86.4204 12.9337 86.4204 12.9337L86.4189 12.9328L86.4158 12.9311C86.3594 12.8989 86.2277 12.8221 86.2277 12.6934C86.2277 12.6304 86.2524 12.5765 86.297 12.5386C86.3514 12.4936 86.4359 12.4767 86.526 12.4928C86.6398 12.5105 86.7705 12.5845 86.9139 12.7075L86.968 12.6032L86.9683 12.6026L86.9688 12.6016L86.9689 12.6016C87.0373 12.4696 87.1229 12.3048 87.1593 12.2356C86.9948 12.1003 86.835 12.0279 86.5971 11.9859C86.303 11.942 86.0194 12.0047 85.8202 12.1555C85.6528 12.2841 85.5484 12.472 85.5202 12.6993C85.5158 12.7386 85.5145 12.7752 85.5145 12.8115C85.5145 12.9185 85.5332 13.0117 85.5705 13.0933C85.5847 13.0944 85.5988 13.0957 85.613 13.0975C85.9131 13.1195 86.3258 13.1381 86.8001 13.1421ZM75.3547 13.1232L75.3548 13.1224C75.4278 12.6131 75.4954 12.1416 75.5051 12.0747H76.1678C76.1494 12.202 76.0134 13.1505 75.9174 13.8198L75.917 13.823L75.8227 14.4801H75.1599C75.1751 14.3761 75.2681 13.7267 75.354 13.1277L75.3546 13.1239L75.3547 13.1232ZM80.7953 13.0074L80.9291 12.0747H82.4571C82.4433 12.1764 82.4166 12.3608 82.3979 12.4903L82.3979 12.4908L82.3831 12.5932H81.4666L81.4038 13.0317H82.2579L82.2204 13.2931L82.1884 13.5163H81.3345L81.2707 13.9611H82.2119C82.2026 14.025 82.1889 14.1215 82.1753 14.2165L82.1751 14.218L82.1748 14.2204L82.1744 14.2231L82.1741 14.2251L82.1739 14.2263L82.1739 14.2268L82.1738 14.2269C82.1594 14.3282 82.1454 14.4264 82.1376 14.4801H80.5841C80.6001 14.3691 80.7051 13.6366 80.7953 13.0074ZM73.5474 13.4526C73.5474 13.4526 74.1021 12.1851 74.145 12.0747H74.9796C74.9798 12.1589 74.9523 12.7158 74.9247 13.2737L74.9247 13.2738L74.9247 13.2738L74.9247 13.2738C74.897 13.8338 74.8693 14.3948 74.8696 14.4799H74.2695L74.369 12.7958C74.369 12.7958 73.693 14.3732 73.6482 14.4799H73.174L72.9613 12.7958C72.9587 12.8079 72.9509 12.8466 72.939 12.9049L72.939 12.9049L72.939 12.9049L72.939 12.9049C72.8762 13.2137 72.701 14.0743 72.598 14.4799H72C72.035 14.3592 72.1945 13.6545 72.334 13.0379L72.334 13.0379L72.334 13.0379C72.4429 12.5566 72.5397 12.129 72.5556 12.0747H73.3588L73.5474 13.4526ZM79.5763 12.604L79.1964 13.4971H79.6999L79.5763 12.604ZM79.8217 14.4799C79.8062 14.3857 79.7636 13.9933 79.7636 13.9933L79.0149 13.9943C79.0149 13.9943 78.8519 14.3996 78.8178 14.4799H78.1719C78.2331 14.347 78.5501 13.6345 78.8242 13.0186C79.0375 12.5393 79.2247 12.1185 79.2452 12.0748H80.0491C80.0616 12.1437 80.1517 12.678 80.2444 13.2271L80.2445 13.2277C80.3404 13.7956 80.4389 14.3792 80.4568 14.4799H79.8217ZM77.0918 12.5264H77.2397C77.3408 12.5264 77.4533 12.5368 77.5236 12.6176C77.5735 12.6751 77.5914 12.7559 77.5761 12.8593C77.5761 12.8593 77.5565 13.0426 77.4352 13.1007C77.4352 13.1007 77.3519 13.1551 77.2138 13.1587H77.0019L77.0918 12.5264ZM76.9801 13.3119L76.9146 13.1587H77.0019L76.9801 13.3119ZM76.9801 13.3119C76.9074 13.8223 76.824 14.4063 76.8125 14.48H76.2096C76.237 14.2874 76.5336 12.2204 76.5546 12.0749H77.4632C77.6663 12.0749 77.94 12.113 78.0994 12.297C78.1878 12.3989 78.2318 12.5349 78.2318 12.7042C78.2318 12.7559 78.2275 12.8102 78.2196 12.8675C78.1613 13.3245 77.931 13.4119 77.6365 13.4667L78.123 14.48H77.4796L76.9801 13.3119ZM91.0911 12.5417C91.1153 12.3775 91.148 12.1554 91.1604 12.0747H92.6325C92.1088 12.3287 91.544 12.5162 91.0756 12.647L91.0911 12.5417ZM90.8498 12.5934H89.9336L89.8864 12.9175C89.6825 12.9542 89.4726 12.9847 89.2614 13.0115L89.3307 12.5283L89.3313 12.524C89.3655 12.2866 89.3903 12.1135 89.3956 12.0749H90.9243L90.8945 12.2817L90.8498 12.5934ZM91.4061 12.6728C91.3524 12.6912 91.2971 12.7082 91.2405 12.7256L91.1959 12.7394C91.1869 12.7428 91.1779 12.7456 91.1681 12.7488L91.1681 12.7488L91.1613 12.7509C91.1317 12.7596 91.1017 12.7686 91.0707 12.7782C91.0634 12.7799 91.0564 12.782 91.0495 12.7841L91.0494 12.7841C91.044 12.7857 91.0387 12.7873 91.0335 12.7886L91.0301 12.7896C90.9318 12.8184 90.8321 12.8476 90.7271 12.8762C90.7113 12.8801 90.6961 12.8843 90.6807 12.8887L90.6806 12.8887L90.6765 12.8898C90.6602 12.8939 90.6437 12.8981 90.6272 12.9024L90.5846 12.9133L90.5637 12.919L90.5637 12.919C90.5514 12.9223 90.5391 12.9257 90.5261 12.9287L90.4865 12.9392L90.4358 12.9526C90.4138 12.9574 90.391 12.9628 90.3691 12.9688L90.3058 12.9839C90.2763 12.991 90.2464 12.9982 90.216 13.0053C90.2004 13.0091 90.1846 13.0126 90.1686 13.0163L90.1376 13.0234L90.1224 13.027C90.1157 13.0286 90.109 13.0302 90.1019 13.0316H90.1009C89.8291 13.0928 89.5399 13.1515 89.2334 13.2037C89.2278 13.2048 89.2218 13.2056 89.2153 13.2061C89.1681 13.2148 89.1199 13.2228 89.0715 13.2308L89.0421 13.2357L89.0322 13.2369C89.0231 13.2379 89.0143 13.2389 89.0049 13.2406C88.9448 13.2511 88.8839 13.2601 88.8225 13.269C88.8182 13.2697 88.8145 13.2703 88.8111 13.2703C88.4816 13.3184 88.1347 13.3598 87.7712 13.391H87.7658C87.712 13.3962 87.6578 13.4008 87.603 13.4054L87.6029 13.4054L87.5982 13.4058C87.5945 13.4058 87.5901 13.4063 87.5855 13.4068L87.5817 13.4072L87.5636 13.4085L87.5636 13.4085C87.5124 13.4121 87.4607 13.4158 87.4087 13.4187C87.4053 13.4193 87.4005 13.4202 87.3969 13.4202L87.3539 13.423C87.3083 13.4259 87.263 13.4289 87.2171 13.4313C87.2137 13.432 87.211 13.432 87.2084 13.432C87.1697 13.4339 87.1309 13.436 87.0919 13.4382L87.0233 13.4419H87.0189C86.7135 13.4567 86.3972 13.4649 86.0706 13.4649H86.0478C85.974 13.4641 85.8996 13.4636 85.8233 13.4636C85.8109 13.4636 85.7971 13.4636 85.7835 13.4627C85.5189 13.4586 85.2489 13.4495 84.9714 13.4345H84.9671C84.5488 13.4128 84.1173 13.3779 83.6718 13.3269L84.185 12.8448C84.185 12.8448 84.4829 12.9343 84.8958 13.0083C84.8596 12.796 84.8256 12.5954 84.7984 12.4344L84.7983 12.4339L84.7982 12.4334C84.7659 12.2423 84.743 12.1073 84.7371 12.0749H83.9327C83.9125 12.1188 83.7237 12.543 83.5093 13.0248L83.509 13.0254L83.5084 13.0268C83.2352 13.6409 82.9207 14.3477 82.8603 14.48H83.5056C83.5396 14.3995 83.7565 13.8826 83.7565 13.8826L84.4296 13.8819C84.4296 13.8819 84.4947 14.3849 84.5094 14.48H85.1445L85.0985 14.2085L84.9984 13.618C85.4521 13.6436 85.9056 13.6479 86.3293 13.6425C86.351 13.678 86.3622 13.7163 86.3622 13.7574C86.3622 13.7725 86.3611 13.7869 86.3582 13.8022C86.3485 13.856 86.3207 13.9003 86.2777 13.9309C86.1892 13.9928 86.064 13.9792 85.9767 13.9639C85.7718 13.9285 85.6089 13.7729 85.4772 13.6436C85.3941 13.7782 85.2212 14.0605 85.1659 14.1519C85.4082 14.3726 85.6697 14.5075 85.947 14.5461C86.2273 14.5882 86.5053 14.5249 86.7113 14.3731C86.8914 14.2399 87.0043 14.046 87.0388 13.8126C87.0502 13.7452 87.0548 13.6818 87.0515 13.6213C87.5057 13.6021 87.8825 13.5738 88.1246 13.553C88.2033 13.6106 88.2442 13.6789 88.2442 13.7574C88.2442 13.7725 88.2428 13.7869 88.2407 13.8022C88.231 13.856 88.2024 13.9003 88.1584 13.9309C88.0712 13.9928 87.9458 13.9792 87.8596 13.9639C87.6538 13.9285 87.4899 13.7729 87.3585 13.6436L87.2715 13.786C87.1878 13.9229 87.0879 14.0864 87.0474 14.1519C87.2902 14.3726 87.552 14.5075 87.8292 14.5461C88.1095 14.5882 88.387 14.5249 88.5923 14.3731C88.7726 14.2399 88.8864 14.046 88.9218 13.8126C88.9441 13.6824 88.9383 13.5654 88.9071 13.4602C89.0103 13.4466 89.1083 13.4313 89.2022 13.4155C89.1305 13.9205 89.063 14.3926 89.0504 14.48H90.6047C90.6194 14.3742 90.659 14.0959 90.6784 13.9606H89.7372L89.8009 13.5161H90.6546C90.6619 13.4674 90.6738 13.3854 90.6863 13.2987C90.6975 13.2216 90.7092 13.1407 90.7187 13.076C90.8346 13.0394 90.8934 13.0172 90.8934 13.0172C90.8934 13.0172 91.1816 12.9301 91.5563 12.7929C91.5021 13.1694 91.337 14.3213 91.3144 14.48H91.9865C92.007 14.3389 92.247 12.6728 92.247 12.6728H92.7337C92.7472 12.5692 92.7942 12.239 92.8161 12.0895C92.5632 12.2298 92.0868 12.4499 91.4061 12.6728ZM88.3028 12.9332C88.3028 12.9332 88.4742 13.0194 88.478 13.0209C88.5187 13.0388 88.5553 13.0595 88.5905 13.0798C88.2106 13.1108 87.8329 13.1287 87.4749 13.1367C87.4226 13.0455 87.3957 12.9374 87.3957 12.8117C87.3957 12.7757 87.3981 12.7383 87.4025 12.6995C87.4302 12.4723 87.5346 12.2836 87.7027 12.1556C87.9015 12.0047 88.1846 11.943 88.4792 11.9857C88.7166 12.0281 88.8762 12.0999 89.0413 12.2357C89.0097 12.2954 88.9419 12.4259 88.8799 12.5453C88.8485 12.6056 88.8186 12.6632 88.7956 12.7073C88.652 12.5848 88.5215 12.51 88.4069 12.4923C88.3177 12.4765 88.2337 12.4932 88.1788 12.5384C88.1341 12.576 88.1097 12.6306 88.109 12.6934C88.109 12.8223 88.2412 12.8989 88.2985 12.931L88.3004 12.9325L88.3028 12.9332Z" fill="#003F7E"/>
<path fill-rule="evenodd" clip-rule="evenodd" d="M23 36.5L12 29L1 36.5L12 44L23 36.5ZM2.81818 36.5L12 30.2396L21.1817 36.5L12 42.7603L2.81818 36.5ZM11.9484 31.5663L13.6366 32.7175L10.604 34.7851L11.8375 35.6261L13.0368 34.8083L12.4058 34.378L14.3538 33.0499L17.4159 35.1378L17.4312 35.1274L19.3555 36.4394L11.917 41.5112L9.99273 40.1994L15.4682 36.466L14.725 35.9593L9.30128 39.6572L4.69156 36.5142L11.9484 31.5663ZM9.17547 35.7591L8.06462 36.5163L9.29806 37.3573L10.4089 36.6001L9.17547 35.7591ZM12.9252 34.3779L14.3537 33.404L17.4164 35.4923L17.4315 35.4818L18.8359 36.4394L11.9169 41.1569L10.5121 40.1993L15.9877 36.4661L12.9252 34.3779Z" fill="#22419B"/>
<path fill-rule="evenodd" clip-rule="evenodd" d="M41.3892 37.5607H40.6271L40.1155 35.7882H40.1072L40.1349 37.5607H39.6034V35.3454H40.3978L40.871 37.0488H40.8814L40.8546 35.3454H41.3892V37.5607ZM39.028 36.9475C39.0288 36.9889 39.025 37.0724 39.023 37.0951C38.9899 37.4626 38.7394 37.6506 38.28 37.6506C37.8199 37.6506 37.5692 37.4626 37.5369 37.0951C37.5359 37.0724 37.5321 36.9889 37.5321 36.9475V35.3446H38.0792V36.9983C38.0792 37.0344 38.0805 37.0623 38.0855 37.0812C38.0921 37.1171 38.1267 37.2371 38.28 37.2371C38.4354 37.2371 38.4695 37.1171 38.4778 37.0812C38.4811 37.0623 38.4821 37.0336 38.4821 36.9983V35.3446H39.028V36.9475ZM37.0442 37.1498C36.9852 37.5839 36.5826 37.6591 36.298 37.6591C35.825 37.6591 35.5324 37.4464 35.5324 37.0121L35.5337 36.835H36.1058V37.0565C36.1058 37.1759 36.1868 37.2482 36.3096 37.2482C36.4196 37.2482 36.4842 37.2014 36.5074 37.1062C36.5167 37.0623 36.522 36.9972 36.5036 36.9475C36.3972 36.6693 35.6532 36.5331 35.5627 36.0815C35.5417 35.9781 35.5415 35.893 35.5579 35.7816C35.6204 35.3728 35.9943 35.2872 36.2937 35.2872C36.5616 35.2872 36.7576 35.3486 36.8747 35.4723C36.9612 35.5648 37.0056 35.6911 37.0056 35.8488V36.0108H36.4711V35.8677C36.4711 35.7459 36.3984 35.6752 36.2831 35.6752C36.1807 35.6752 36.1179 35.7231 36.098 35.8183C36.0952 35.8369 36.0897 35.8834 36.1013 35.9294C36.1588 36.1783 36.9542 36.3305 37.0427 36.7858C37.0523 36.8443 37.0679 36.9693 37.0442 37.1498ZM34.4903 37.5839L34.4769 35.6398H34.4679L34.125 37.5839H33.5771L33.2358 35.6398H33.226L33.2136 37.5839H32.6705L32.7177 35.3454H33.5907L33.8445 37.0086H33.8574L34.1114 35.3454H34.9842L35.0294 37.5839H34.4903ZM31.6839 37.5839L31.4084 35.6018H31.3981L31.1148 37.5839H30.5311L30.9231 35.3454H31.8751L32.2643 37.5839H31.6839ZM45.9877 34.6662C45.715 33.0211 41.0241 32.5065 35.5072 33.5189C33.1904 33.9444 31.0999 34.572 29.4695 35.2779C29.7203 35.2837 29.9065 35.3438 30.0197 35.4616C30.1073 35.5547 30.1511 35.6832 30.1511 35.8422V36.0039H29.6103V35.8613C29.6103 35.7417 29.5432 35.6664 29.4216 35.6664C29.3194 35.6664 29.2566 35.7143 29.2364 35.8105C29.2314 35.8369 29.2294 35.8826 29.2395 35.9241C29.2967 36.1741 30.1002 36.3281 30.1882 36.7898C30.1998 36.8475 30.2137 36.9751 30.1903 37.1562C30.1398 37.5277 29.8308 37.6714 29.4362 37.6714C28.8866 37.6714 28.6636 37.3969 28.6636 37.0171V36.839H29.2438L29.2443 37.0623C29.2443 37.1876 29.331 37.257 29.4478 37.257C29.5598 37.257 29.6252 37.2094 29.6484 37.1115C29.6575 37.0677 29.6635 37.0014 29.6439 36.9517C29.5366 36.6679 28.7857 36.5358 28.6938 36.0757C28.6726 35.973 28.6719 35.885 28.6888 35.7749C28.6981 35.7143 28.7158 35.6632 28.737 35.6161C26.93 36.5063 25.8728 37.4865 26.0123 38.3325C26.2855 39.98 30.9771 40.4927 36.4925 39.4816C38.9165 39.0351 41.0963 38.3689 42.7554 37.6235C42.732 37.6245 42.7083 37.6264 42.6845 37.6264C42.3061 37.6264 41.9686 37.4777 41.9348 37.0711C41.9275 36.9972 41.9275 36.9663 41.927 36.9243L41.9275 35.9879C41.9275 35.9486 41.9315 35.8773 41.9356 35.8403C41.981 35.447 42.2756 35.2853 42.6845 35.2853C43.0001 35.2853 43.3876 35.3813 43.431 35.8409C43.4358 35.898 43.4353 35.9605 43.4353 35.9802V35.9815V36.0688H42.8894V35.9377C42.8894 35.9342 42.8879 35.885 42.8828 35.8544C42.8732 35.8076 42.8356 35.6986 42.679 35.6986C42.5254 35.6986 42.486 35.8076 42.4757 35.8544C42.4716 35.8802 42.4678 35.9183 42.4678 35.9584V36.9751C42.4678 37.01 42.4696 37.0379 42.4734 37.0594C42.4747 37.0738 42.5029 37.2139 42.682 37.2139C42.8599 37.2139 42.8871 37.0738 42.8894 37.0594C42.8944 37.0312 42.8957 36.9983 42.8944 36.9751V36.66H42.6785V36.3204H43.4393V36.9243C43.4393 36.965 43.4393 36.9948 43.4322 37.0711C43.4222 37.1767 43.3906 37.2687 43.3407 37.345C45.102 36.4645 46.1254 35.4997 45.9877 34.6662Z" fill="#044DA1"/>
<path fill-rule="evenodd" clip-rule="evenodd" d="M67.0977 37.2949L66.0985 36.6415C65.4461 37.1019 64.5516 37.1462 63.843 36.6822C63.843 36.6822 60.8004 34.6946 60.5196 34.5083C60.1847 34.2843 59.7671 34.2704 59.41 34.5026C59.0538 34.7344 56.0742 36.6822 56.0742 36.6822C55.3651 37.1462 54.4722 37.1019 53.8182 36.6415L52.8205 37.2949C51.9834 37.8425 51.748 38.964 52.2951 39.8007C52.8422 40.6384 53.9643 40.8737 54.8015 40.3256L59.4471 37.2892C59.8131 37.0637 60.1109 37.0637 60.4722 37.2882L65.1158 40.3256C65.9535 40.8737 67.075 40.6384 67.6226 39.8007C68.1687 38.964 67.9344 37.8425 67.0977 37.2949Z" fill="#7CB142"/>
<path fill-rule="evenodd" clip-rule="evenodd" d="M59.6205 31.6714C59.7226 31.6084 59.8434 31.5728 59.9725 31.5728C60.0989 31.5728 60.2171 31.6074 60.3193 31.6683C60.5097 31.7824 62.533 33.1228 62.533 33.1228C63.2039 33.561 64.0664 33.4722 64.6362 32.9602L65.7846 33.7127C66.4963 34.1767 66.6961 35.131 66.231 35.8428C65.7655 36.554 64.8122 36.7542 64.1005 36.2887C64.1005 36.2887 60.8014 34.1375 60.4808 33.9537C60.1603 33.769 59.7815 33.7612 59.4522 33.9573C59.1848 34.1158 55.8171 36.2887 55.8171 36.2887C55.1121 36.7145 54.1515 36.554 53.6865 35.8428C53.2215 35.131 53.4212 34.1767 54.1325 33.7127L55.2819 32.9602C55.8512 33.4722 56.7131 33.561 57.3851 33.1228C57.3851 33.1228 59.4207 31.7927 59.6205 31.6714Z" fill="#528A3D"/>
<path fill-rule="evenodd" clip-rule="evenodd" d="M60.3574 31.1255L62.7909 32.7276C63.3736 33.108 64.1546 32.9439 64.5355 32.3617C64.9158 31.78 64.7522 30.9986 64.17 30.6172L60.3398 28.1114C60.0967 27.9632 59.8216 27.9632 59.5853 28.1093L55.7484 30.6172C55.1651 30.9986 55.0015 31.78 55.3819 32.3617C55.7638 32.9439 56.5437 33.108 57.1264 32.7276L59.5951 31.1245C59.7107 31.0481 59.8315 30.9945 59.9755 30.9945C60.1195 30.9945 60.2428 31.0481 60.3574 31.1255Z" fill="#004711"/>
<path fill-rule="evenodd" clip-rule="evenodd" d="M62.572 42.3528L60.5813 39.0966C60.4233 38.8277 60.1931 38.6909 59.9588 38.6837C59.7245 38.6909 59.4938 38.8277 59.3358 39.0966L57.3451 42.3528C57.0871 42.7523 57.148 43.3898 57.8602 43.3898H62.0569C62.7686 43.3898 62.83 42.7523 62.572 42.3528Z" fill="#004711"/>
<path fill-rule="evenodd" clip-rule="evenodd" d="M83.4086 25.1623C77.4777 25.431 72.8879 30.4551 73.1567 36.3863C73.4241 42.3155 78.4495 46.9053 84.38 46.6364C90.3086 46.3678 94.8987 41.3431 94.6296 35.414C94.37 29.6493 89.6152 25.1513 83.9035 25.1511C83.7393 25.1511 83.5743 25.1548 83.4086 25.1623Z" fill="url(#paint1_radial_1679_9647)"/>
<path fill-rule="evenodd" clip-rule="evenodd" d="M83.4016 25.0113C77.5678 25.2741 73.0145 30.0792 73 35.8575V35.9105C73.0003 36.0685 73.004 36.2267 73.0113 36.3859C73.2834 42.3952 78.3754 47.0459 84.3862 46.775C90.3955 46.5039 95.0484 41.4109 94.7752 35.4003C94.5114 29.5593 89.6917 25 83.9033 25C83.7368 25 83.5696 25.0038 83.4016 25.0113ZM84.6981 45.4747C84.6876 45.2289 85.0483 45.1665 85.0483 45.1665C88.2703 44.5327 87.3285 42.4187 86.1874 41.341C85.7083 40.8866 81.2243 37.0183 81.2243 37.0183C76.9472 33.3355 77.2904 30.4615 77.2904 30.4615C77.4957 26.9226 80.5937 26.0452 82.9374 26.2485C83.2106 26.2725 83.3625 26.4395 83.3145 26.667C83.2626 26.9171 82.8996 26.9359 82.8996 26.9359C82.1546 26.979 81.4874 27.0561 80.9807 27.3968C79.0911 28.6668 79.6502 30.8283 82.1669 33.2336C82.4826 33.5358 82.82 33.8542 83.165 34.1769C83.165 34.1769 83.672 34.624 84.6768 35.5806C86.6145 37.3658 87.6755 38.3284 87.6755 38.3284C91.0877 41.1705 89.9238 43.7684 88.617 44.6716C87.6234 45.3603 86.5214 45.6845 85.0759 45.7611C85.0636 45.7628 85.0501 45.7639 85.0361 45.7639C84.9034 45.7639 84.7084 45.6827 84.6981 45.4747ZM85.496 34.9825C84.3899 34.7502 84.1646 33.745 84.1646 33.745C84.0748 33.3931 84.0525 32.9479 84.1266 32.3802C84.278 31.191 84.5975 30.6315 84.9625 29.7102C85.4549 28.4723 84.258 27.748 84.457 27.2929C84.7252 26.6763 85.5788 27.4599 86.5321 27.5165C87.354 27.5623 87.8459 27.5207 88.4836 27.6068C89.3335 27.7195 90.3469 28.0061 90.7983 28.5371C91.2126 29.02 90.58 29.6141 89.8177 29.2426C89.2632 28.972 88.5632 29.1374 88.9743 29.717C89.4669 30.2685 89.7058 30.285 90.2087 30.4162C91.5954 30.782 91.6252 32.1105 90.6851 32.798C89.6171 33.5803 88.5351 33.2569 88.1005 31.7218C87.885 30.9572 87.343 30.5669 86.79 30.7865C86.239 31.002 86.5644 32.0097 86.9833 32.9427C87.7108 34.7997 86.2372 34.9905 85.6767 34.9905C85.5918 34.9905 85.528 34.986 85.496 34.9825ZM81.4366 45.128C80.2345 45.0098 78.7962 44.6308 77.5455 43.547C76.3944 42.5509 75.6804 41.183 75.3355 39.9829C74.98 38.7522 74.8325 37.3122 75.4168 37.4266C75.5971 37.4622 75.9078 38.252 76.2467 38.8293C76.596 39.4231 76.8791 39.7511 77.148 39.9516C77.2686 40.0437 77.6794 39.1292 78.2758 38.6097C78.6227 38.3241 79.0028 38.2252 79.0636 39.0801C79.1397 40.1296 78.9499 41.3791 79.2561 41.3791C79.5433 41.3791 80.1869 41.1615 81.6066 41.0421C82.1408 40.996 82.4438 41.0969 81.9346 41.8147C81.681 42.1717 81.3415 42.6771 80.5379 43.2531C81.7425 44.3812 83.1893 44.2478 83.2151 44.7264C83.2311 45.0028 82.6903 45.1553 81.9794 45.1553C81.8066 45.1553 81.6239 45.1465 81.4366 45.128Z" fill="url(#paint2_radial_1679_9647)"/>
<path fill-rule="evenodd" clip-rule="evenodd" d="M13.6362 50C13.4827 50 13.3608 50.1238 13.3608 50.2795L13.3651 50.7485C13.3608 52.2752 13.6808 53.9388 14.3503 55.6781L14.8391 56.8563C14.8783 56.9494 14.9665 57.0185 15.0732 57.0261H15.0949L21.1825 56.9845C21.3381 56.9845 21.4622 56.8596 21.4622 56.7061C21.4622 56.6732 21.459 56.6437 21.447 56.6163L21.4437 56.613C20.2626 53.1958 17.3026 50.6203 13.6841 50.0022C13.6841 50.0022 13.6765 50.0022 13.6743 50H13.6362ZM16.2412 60.1814C16.2412 60.0236 16.3664 59.8953 16.5199 59.8953L21.718 59.8581C21.8715 59.8581 21.9946 59.983 21.9946 60.1343C21.9978 60.1353 21.9989 60.1364 22 60.1386V60.1825C21.9358 62.7021 20.9538 64.997 19.3743 66.7319C19.3733 66.7319 19.3728 66.7327 19.3725 66.7336C19.3721 66.7348 19.3721 66.7363 19.3721 66.7363C19.3187 66.7856 19.248 66.8239 19.1685 66.8239C19.0553 66.8239 18.9541 66.7516 18.9116 66.6508L16.2652 60.291V60.28C16.2501 60.2486 16.2457 60.2151 16.2414 60.1826L16.2412 60.1814ZM12 59.9315C11.361 59.9337 10.8112 60.3381 10.5979 60.9025C10.5956 60.9043 10.5945 60.9066 10.5935 60.9088C10.5926 60.9107 10.5918 60.9124 10.5902 60.9135L7.50729 68.6312C7.50729 68.6334 7.50294 68.6366 7.50294 68.6366C7.4877 68.675 7.48334 68.7057 7.48334 68.744C7.48334 68.8493 7.54757 68.9457 7.63575 68.9917H7.63793C8.97474 69.6504 10.4781 70.011 12.0675 70C13.6547 69.9858 15.1602 69.6022 16.4862 68.9304C16.4882 68.9283 16.4903 68.9272 16.4922 68.9262C16.4944 68.925 16.4964 68.9239 16.4981 68.9216C16.582 68.8723 16.6331 68.7802 16.6331 68.6794C16.6331 68.641 16.6255 68.6027 16.6135 68.5731V68.5709L13.3717 60.7831C13.1224 60.2778 12.6107 59.9315 12.0152 59.9315H12ZM7.47572 59.9589L2.27977 59.994C2.12628 59.994 2 60.1222 2.00544 60.2789V60.28C2.00544 60.28 2 60.2844 2 60.291C2.09035 62.8215 3.1093 65.1121 4.71827 66.8305C4.71827 66.8329 4.72077 66.8352 4.72309 66.8374C4.7251 66.8393 4.72698 66.841 4.72698 66.8426C4.77814 66.8886 4.84672 66.9226 4.92401 66.9226C5.03941 66.9226 5.13847 66.848 5.17875 66.7494L7.7359 60.3469C7.75114 60.3118 7.75876 60.2734 7.7555 60.2406C7.7555 60.0849 7.63248 59.9589 7.47899 59.9589H7.47572ZM10.1755 50.0252H10.1853C10.1983 50.0208 10.2136 50.0208 10.2212 50.0208C10.3747 50.0208 10.5042 50.1425 10.5042 50.2992L10.5075 50.7715H10.5042C10.5293 52.2982 10.2332 53.9641 9.58981 55.7132L9.11844 56.8968C9.08143 56.9823 9.0074 57.0481 8.91596 57.0667H8.89745H8.88983C8.87895 57.0722 8.86697 57.0722 8.86697 57.0722L2.77618 57.116C2.61833 57.116 2.49423 56.9933 2.48988 56.8387C2.48988 56.8069 2.4975 56.7763 2.50512 56.75V56.7467C3.63945 53.3174 6.56673 50.6926 10.1755 50.0252Z" fill="url(#paint3_linear_1679_9647)"/>
<path d="M30.4353 54.7459C30.0902 55.5871 28.6537 56.1737 27.8945 56.9329C26.1345 58.6929 26.6047 61.9455 28.4165 62.571C30.0859 63.1404 28.5071 60.1122 30.0859 58.7965C31.7596 57.5153 36.069 59.7541 32.6137 62.6745C31.8027 63.2698 31.682 63.4682 31.1557 63.9945C28.3259 66.8243 32.9157 70.0294 36.2761 69.6196C39.2525 69.2573 40.0678 67.3031 40.482 64.5208C40.8573 61.9843 40.3525 61.1 40.7451 59.258C42.009 55.7682 46.0941 58.7404 46.6678 60.4314C46.6808 60.2373 46.698 60.0475 46.698 59.849C46.698 53.8616 41.8408 49 35.8447 49C32.411 49 29.3569 50.6004 27.3725 53.0894C29.6631 51.6616 31.1471 53.0247 30.4353 54.7459Z" fill="url(#paint4_radial_1679_9647)"/>
<path fill-rule="evenodd" clip-rule="evenodd" d="M40.6051 61.6233C40.5745 60.8573 40.5473 60.1761 40.7451 59.258C42.009 55.7682 46.0898 58.7404 46.6722 60.4357C46.3702 66.1557 41.651 70.7067 35.849 70.7067C29.8573 70.7067 25 65.8451 25 59.8533C25 57.2953 25.8886 54.9486 27.3725 53.0937C29.6631 51.6616 31.1471 53.0247 30.4353 54.7459C30.2277 55.2557 29.6119 55.6726 28.9906 56.0933C28.5921 56.3631 28.1912 56.6345 27.8945 56.9329C26.1345 58.6929 26.6047 61.9455 28.4165 62.571C29.266 62.8607 29.2744 62.2188 29.2857 61.3451C29.2967 60.5018 29.3105 59.4426 30.0859 58.7965C31.7553 57.5153 36.069 59.7541 32.6137 62.6745C31.9864 63.135 31.7721 63.358 31.4636 63.679C31.3733 63.773 31.2749 63.8753 31.1557 63.9945C28.3259 66.8243 32.9157 70.0294 36.2761 69.6196C39.2525 69.2573 40.0722 67.3075 40.482 64.5208C40.6702 63.2507 40.636 62.3941 40.6051 61.6233ZM43.1004 56.0573C42.6 56.7561 41.3576 56.7043 40.318 55.958C39.2827 55.2075 38.8471 54.0341 39.3431 53.3396C39.8435 52.6451 41.0945 52.6925 42.1298 53.4475C43.1651 54.1894 43.6051 55.3627 43.1004 56.0573Z" fill="url(#paint5_radial_1679_9647)"/>
<path fill-rule="evenodd" clip-rule="evenodd" d="M70.0205 67.1614C70.0205 68.7394 68.742 70.0187 67.1639 70.0187H52.8775C51.3 70.0187 50.0205 68.7394 50.0205 67.1614V52.8755C50.0205 51.2976 51.3 50.0187 52.8775 50.0187H67.1639C68.742 50.0187 70.0205 51.2976 70.0205 52.8755V67.1614Z" fill="#FFE400"/>
<path fill-rule="evenodd" clip-rule="evenodd" d="M60 56C57.2387 56 55 57.6927 55 59.7807C55 61.0853 55.8742 62.236 57.2038 62.9152L56.6283 64.7746C56.5801 64.9312 56.7596 65.0604 56.9004 64.9703L59.1848 63.5071C59.4507 63.5401 59.7216 63.5614 60 63.5614C62.7613 63.5614 65 61.8688 65 59.7807C65 57.6927 62.7613 56 60 56Z" fill="#1E1E1E"/>
<path fill-rule="evenodd" clip-rule="evenodd" d="M77 55.7444V69.5394H80.8978V64.0611L84.5656 69.5394H89.2772L84.4106 62.3016H80.8978V55.7444H77Z" fill="#B7B7B7"/>
<path fill-rule="evenodd" clip-rule="evenodd" d="M92.9057 50L90.5174 62.84L89.3662 60.6689C89.3662 60.6689 88.599 59.2778 87.9674 58.6472L82.9529 64.4167L80.0151 61.8633L85.0301 56.0933C84.3185 55.5544 82.834 54.9894 82.834 54.9894L80.524 54.1522L92.9057 50Z" fill="#E3007E"/>
<path d="M13.9869 75.0282C13.8813 75.003 13.7642 74.9944 13.6351 75.0036C9.87835 75.272 2.15204 79.3105 2.00177 84.7888C1.88197 89.1564 7.86307 89.3951 10.8992 88.9659L10.0131 92.9718C10.1187 92.997 10.2358 93.0056 10.3649 92.9964C14.1217 92.728 21.848 88.6895 21.9982 83.2112C22.118 78.8436 16.1369 78.6049 13.1008 79.0341L13.9869 75.0282Z" fill="#0064FF"/>
<path fill-rule="evenodd" clip-rule="evenodd" d="M26.9442 83.9893C26.9442 88.9846 30.9938 93.0345 35.9894 93.0345C40.9844 93.0345 45.0346 88.9846 45.0346 83.9893C45.0346 78.9938 40.9844 74.9436 35.9894 74.9436C30.9938 74.9436 26.9442 78.9938 26.9442 83.9893ZM26 83.9893C26 78.4723 30.4723 73.9999 35.9891 73.9999C41.5064 73.9999 45.9785 78.4723 45.9785 83.9893C45.9785 89.5058 41.5064 93.9782 35.9891 93.9782C30.4723 93.9782 26 89.5058 26 83.9893ZM36.5601 79.854V80.612H37.8537V81.6108H36.5601V84.257H35.3801V78.8553H37.9856V79.854H36.5601ZM35.9891 87.9168C35.3857 87.9168 34.897 87.4346 34.897 86.8395C34.897 86.244 35.3857 85.7613 35.9891 85.7613C36.5921 85.7613 37.0815 86.244 37.0815 86.8395C37.0815 87.4346 36.5921 87.9168 35.9891 87.9168ZM35.9891 84.7783C34.8099 84.7783 33.8543 85.6753 33.8543 86.8395C33.8543 88.005 34.8099 88.9005 35.9891 88.9005C37.1684 88.9005 38.1242 88.005 38.1242 86.8395C38.1242 85.6753 37.1684 84.7783 35.9891 84.7783Z" fill="#003993"/>
<path fill-rule="evenodd" clip-rule="evenodd" d="M70.4351 77.031C70.6924 77.0214 70.9325 77.2003 70.9325 77.4736C70.9325 77.6932 70.713 77.8826 70.5622 77.9972C69.7252 78.6484 68.7625 79.1508 67.7862 79.5528C64.9354 80.7329 61.7677 81.1402 58.7195 81.5321C58.5766 81.5504 58.4339 81.5688 58.2916 81.5871C56.4265 81.8328 54.5579 82.0122 52.6823 82.1318C51.9874 82.176 51.2905 81.8057 50.7077 81.4565C50.1068 81.1008 49.5295 80.6275 49.1998 80.0019C48.925 79.4769 48.8898 78.684 49.3752 78.2675C49.742 77.9515 50.3087 77.968 50.7614 78.0002C51.1265 78.0284 51.4864 78.0932 51.8466 78.1579C52.0124 78.1878 52.1782 78.2176 52.3446 78.2439C52.7218 78.3023 53.1003 78.3687 53.4784 78.4351C53.9459 78.5172 54.4131 78.5993 54.877 78.6659C59.7833 79.3739 65.0359 79.0372 69.6895 77.2671C69.7472 77.2452 69.8051 77.2208 69.8633 77.1963C70.0479 77.1186 70.2361 77.0394 70.4351 77.031ZM63.0984 84.945C63.221 85.2169 63.3034 85.5118 63.3542 85.8148C63.4893 86.6041 63.41 87.4593 63.2728 88.2079C63.1748 88.7541 63.0246 89.2902 62.8512 89.8157C62.389 91.2311 61.7097 92.6018 60.649 93.6695C60.4732 93.8483 60.2526 94.0126 59.9853 93.9051C59.921 93.879 59.8647 93.8383 59.8245 93.7815C59.7479 93.6639 59.7934 93.5126 59.832 93.3842C59.8369 93.3679 59.8417 93.3519 59.8461 93.3363C59.8984 93.161 59.9471 92.9826 59.9933 92.8037C60.4546 91.0693 60.8852 89.2002 60.7988 87.3939C60.7792 86.9784 60.7284 86.5569 60.548 86.1851C60.3662 85.8112 60.0305 85.4942 59.621 85.4289C59.3874 85.3887 59.1442 85.4364 58.9312 85.5399C58.8307 85.5907 58.7352 85.653 58.6548 85.7314C58.5222 85.856 58.4297 86.0233 58.3664 86.1951C58.1619 86.7342 58.2338 87.2744 58.3257 87.8265C58.3986 88.2591 58.3292 88.741 57.9353 88.9977C57.6314 89.1937 57.2279 89.2083 56.8903 89.0771C56.5501 88.9465 56.2722 88.6827 56.0823 88.3732C55.495 87.4281 55.4824 86.0343 55.808 84.9998C55.8763 84.7873 55.9562 84.5782 56.0582 84.3813C56.3536 83.7974 56.8139 83.3101 57.3751 82.9729C58.6116 82.2213 60.1225 82.2173 61.3731 82.9463C62.1765 83.4136 62.7146 84.1135 63.0984 84.945Z" fill="#009490"/>
<path fill-rule="evenodd" clip-rule="evenodd" d="M57.5806 75.877C57.5806 76.8894 58.4011 77.7084 59.4115 77.7084C60.4219 77.7084 61.2424 76.8894 61.2424 75.877C61.2424 75.7263 61.2057 75.5746 61.1434 75.4379C60.9881 75.1058 60.8098 74.9435 60.8274 74.5445C60.8505 74.0079 60.1611 73.9999 59.7893 73.9999C59.3848 73.9999 58.9578 74.0562 58.5905 74.2391C58.2986 74.3868 58.0478 74.6124 57.8705 74.8862C57.6881 75.1676 57.5876 75.4997 57.5806 75.8358V75.877Z" fill="#EC1651"/>
<path fill-rule="evenodd" clip-rule="evenodd" d="M83.9875 76C77.3647 76 73 79.4757 73 83.7645C73 88.0524 77.3647 91.5286 83.9875 91.5286C90.6114 91.5286 94.977 88.0524 94.977 83.7645C94.977 79.4757 90.6114 76 83.9875 76Z" fill="#FEFEFE"/>
<path fill-rule="evenodd" clip-rule="evenodd" d="M85.9453 86.6659C87.832 86.3384 94.2026 85.0273 93.4177 81.392C93.1352 80.088 91.7939 78.6537 89.7702 77.6565C88.1529 76.9287 86.1788 76.5062 83.9616 76.5062C77.8128 76.5062 73.5371 79.7555 73.5371 83.7643C73.5371 86.5562 75.6128 88.9801 78.9505 90.1931C79.6586 88.3292 82.4787 87.2673 85.9453 86.6659Z" fill="#0075C1"/>
<path fill-rule="evenodd" clip-rule="evenodd" d="M84.0012 87.9517C81.2442 88.2979 79.9792 89.1884 79.166 90.27C80.571 90.7506 82.1878 91.0215 83.9618 91.0215C90.1111 91.0215 94.3868 87.7733 94.3868 83.7644C94.3868 83.4091 94.3529 83.0599 94.2872 82.7182C94.0836 87.425 87.018 87.5772 84.0012 87.9517Z" fill="url(#paint6_linear_1679_9647)"/>
<path fill-rule="evenodd" clip-rule="evenodd" d="M86.5442 85.7426C86.5134 85.402 86.5007 85.1695 86.5007 84.9694V82.9356H85.5213L85.5526 82.9983C85.5536 82.9998 85.6522 83.1949 85.6522 83.6215L85.6522 83.6251C85.6523 83.7054 85.6547 85.0429 85.6163 85.3661C85.3797 85.4268 85.0634 85.4485 84.8582 85.4485C83.304 85.4485 82.5151 84.556 82.5151 82.7977C82.5151 81.4553 83.4031 80.4531 84.6737 80.3611C85.3423 80.3136 85.9857 80.4955 86.3911 80.8473L86.4618 80.909V80.0872L86.4279 80.0806C86.0241 80.0028 85.5501 79.9209 85.0861 79.9209C82.8487 79.9209 81.5119 81.099 81.5119 83.0716C81.5119 85.1731 83.1438 85.9216 84.6717 85.9216C85.3191 85.9216 85.9888 85.8735 86.5088 85.7881L86.5477 85.7816L86.5442 85.7426ZM76.9508 80.4941C77.0696 80.484 77.4335 80.4577 77.6968 80.4577C79.2712 80.4577 80.0055 81.2209 80.0055 82.8599C80.0055 84.5535 79.353 85.3778 78.0122 85.3778C77.0307 85.3778 76.9508 85.3303 76.9508 84.7486V80.4941ZM78.0284 79.9746H75.9663L75.9906 80.0337C76.082 80.2561 76.0765 80.6614 76.0704 81.0202C76.0679 81.1046 76.0669 85.7807 76.0669 85.7807L76.1078 85.7817C76.1174 85.7827 77.0474 85.816 77.9288 85.816C79.7705 85.816 81.0082 84.5677 81.0082 82.7098C81.0082 81.048 79.8387 79.9746 78.0284 79.9746ZM88.9983 80.4302H88.4222L88.4191 82.42H88.7952C89.8161 82.42 90.2917 82.0794 90.2917 81.3475C90.2917 80.7047 89.906 80.4302 88.9983 80.4302ZM88.874 82.8759H88.4191V84.7888C88.4191 85.2124 88.5981 85.3776 89.0554 85.3776C89.999 85.3776 90.4579 84.9602 90.4579 84.102C90.4579 83.2883 89.9263 82.8759 88.874 82.8759ZM91.1357 81.2293C91.1357 81.95 90.6 82.4438 90.04 82.5929C90.8845 82.7738 91.4592 83.3555 91.4592 84.0499C91.4592 85.1719 90.6091 85.8158 89.1267 85.8158C88.3472 85.8158 87.7057 85.8273 87.5984 85.8292C87.5886 85.8294 87.5833 85.8295 87.5827 85.8295L87.5392 85.8305V80.7956C87.5392 80.2604 87.4882 80.0289 87.4872 80.0264L87.4756 79.9744H89.2394C90.4276 79.9744 91.1357 80.4429 91.1357 81.2293Z" fill="#FEFEFE"/>
<path fill-rule="evenodd" clip-rule="evenodd" d="M11.1167 110.036C11.176 110.036 11.2805 110.086 11.4232 110.241C12.1626 111.045 12.9937 111.68 13.6927 112.064C13.7929 112.119 13.8489 112.16 13.8489 112.213C13.8489 112.253 13.8434 112.293 13.7558 112.293C13.5988 112.293 12.7175 112.119 12.4847 112.01C12.2506 111.9 11.747 111.491 11.1461 110.456C11.0783 110.339 11.0063 110.238 11.0063 110.144C11.0063 110.051 11.0918 110.036 11.1167 110.036Z" fill="#6C9BD2"/>
<path fill-rule="evenodd" clip-rule="evenodd" d="M11.8351 107.567C13.2583 107.367 13.1122 107.078 13.1122 107.078C13.1122 107.078 13.6941 107.073 13.6941 107.528C13.6941 107.741 13.4048 107.948 13.0448 108.025C12.7833 108.079 12.3391 108.146 11.5943 108.25C11.5576 108.354 11.5198 108.46 11.4812 108.57L11.481 108.57C11.4291 108.717 11.3758 108.867 11.3223 109.02C11.4663 109.001 12.1416 108.916 12.5244 108.916C12.9193 108.916 13.0065 109.096 13.0065 109.293C13.0065 109.792 12.3762 110.502 12.0149 110.774C11.6861 111.023 11.0225 111.477 10.8739 111.477C10.8195 111.477 10.732 111.414 10.8381 111.333C11.8006 110.601 12.2974 110.007 12.2974 109.799C12.2974 109.71 12.2111 109.635 12.0435 109.635C11.8667 109.635 11.2309 109.733 11.0587 109.767L10.7043 110.771L10.7031 110.774C10.5172 111.301 10.3803 111.688 10.353 111.765C10.2515 112.051 9.64354 112.298 9.37322 112.298C9.10333 112.298 9.15175 112.082 9.21154 111.948L10.785 108.351C10.6986 108.36 10.6268 108.366 10.5455 108.373L10.5455 108.373L10.5454 108.373C10.4884 108.378 10.4267 108.384 10.3522 108.391C10.0659 108.419 9.61785 108.161 9.61785 107.906C9.61785 107.761 9.68396 107.618 9.94206 107.643C10.1277 107.662 10.5391 107.681 11.0941 107.644L11.5172 106.676C11.5783 106.534 11.6852 106.421 11.8326 106.421C11.9795 106.421 12.1833 106.575 12.0928 106.838C12.0928 106.838 11.9901 107.127 11.8351 107.567ZM0 109.33H0.452211V110.527C0.452211 110.993 0.717053 111.291 1.19705 111.291C1.38063 111.291 1.52211 111.273 1.65011 111.235L1.632 110.751C1.56758 110.792 1.46316 110.815 1.35284 110.815C1.11958 110.815 1.06526 110.628 1.06526 110.426V109.33H1.64505V108.881H1.06526V108.285H0.452211V108.881H0V109.33ZM2.11154 108.881H2.65554V109.416H2.66522C2.69259 109.197 2.94354 108.826 3.30901 108.826C3.3688 108.826 3.4328 108.826 3.49722 108.845V109.462C3.44248 109.43 3.33259 109.412 3.22227 109.412C2.72459 109.412 2.72459 110.033 2.72459 110.371V111.235H2.11154V108.881ZM5.45794 111.235H6.03815V108.881H5.42594V110.034C5.42594 110.335 5.32952 110.815 4.88615 110.815C4.49288 110.815 4.48825 110.426 4.48825 110.138V108.881H3.87646V110.367C3.87646 110.897 4.11857 111.291 4.67604 111.291C4.99604 111.291 5.26173 111.144 5.44867 110.916H5.45794V111.235ZM8.05562 109.828C8.03794 109.531 7.90025 109.274 7.55836 109.274C7.21478 109.274 7.04131 109.512 7.01352 109.828H8.05562ZM8.46741 111.103C8.24299 111.226 7.98741 111.291 7.65815 111.291C6.88088 111.291 6.42867 110.843 6.42867 110.07C6.42867 109.389 6.78952 108.826 7.52088 108.826C8.39457 108.826 8.6413 109.425 8.6413 110.248H7.01352C7.04131 110.628 7.30657 110.843 7.68552 110.843C7.9832 110.843 8.23878 110.733 8.46741 110.605V111.103ZM13.9793 108.916H13.4353V111.27H14.048V110.405C14.048 110.067 14.048 109.446 14.5461 109.446C14.6555 109.446 14.7654 109.464 14.8206 109.496V108.879C14.7562 108.861 14.6926 108.861 14.6328 108.861C14.2673 108.861 14.016 109.231 13.9882 109.45H13.9793V108.916ZM15.1755 111.27H15.789V108.916H15.1755V111.27ZM15.1755 108.522H15.789V107.937H15.1755V108.522ZM17.3036 109.309C17.6463 109.309 17.7836 109.565 17.8021 109.863H16.7596C16.7869 109.547 16.9604 109.309 17.3036 109.309ZM17.4038 111.325C17.7331 111.325 17.9891 111.261 18.2126 111.137V110.64C17.9844 110.767 17.7288 110.877 17.4316 110.877C17.0522 110.877 16.7869 110.662 16.7596 110.283H18.3861C18.3861 109.459 18.1398 108.861 17.2669 108.861C16.5352 108.861 16.1743 109.423 16.1743 110.105C16.1743 110.877 16.6265 111.325 17.4038 111.325ZM18.7495 108.916H19.3301V109.236H19.3394C19.5318 108.966 19.7928 108.861 20.112 108.861C20.6703 108.861 20.9124 109.254 20.9124 109.785V111.27H20.2998V110.013C20.2998 109.725 20.2952 109.336 19.9019 109.336C19.4589 109.336 19.3629 109.816 19.3629 110.118V111.27H18.7495V108.916ZM22.9805 110.086C22.9805 110.42 22.8483 110.85 22.4407 110.85C22.0381 110.85 21.9249 110.41 21.9249 110.086C21.9249 109.77 22.0344 109.336 22.4318 109.336C22.8251 109.336 22.9805 109.757 22.9805 110.086ZM22.9944 111.005H23.0036V111.27H23.5977V107.841H22.9851V109.191H22.9758C22.7927 108.966 22.5784 108.861 22.2718 108.861C21.5497 108.861 21.2849 109.437 21.2849 110.086C21.2849 110.73 21.5497 111.325 22.2718 111.325C22.5603 111.325 22.8116 111.233 22.9944 111.005Z" fill="#6A2D00"/>
<path fill-rule="evenodd" clip-rule="evenodd" d="M46.3749 109.378C46.0566 106.25 42.4932 103.687 38.42 103.654C34.3461 103.62 31.303 106.128 31.6227 109.258C31.9429 112.385 35.5037 114.948 39.5782 114.982C43.6528 115.016 46.6952 112.506 46.3749 109.378ZM32.8999 108.595C32.6211 106.073 35.2675 104.048 38.8069 104.077C42.3444 104.105 45.4406 106.171 45.7175 108.691C45.9945 111.213 43.3512 113.238 39.8105 113.211C36.2731 113.184 33.1775 111.118 32.8999 108.595Z" fill="#F8A883"/>
<path fill-rule="evenodd" clip-rule="evenodd" d="M32.7914 108.163C30.46 110.601 30.4219 114.348 32.706 116.537C34.9901 118.724 38.7353 118.521 41.0679 116.085C43.4006 113.65 43.4368 109.901 41.1527 107.712C38.8699 105.524 35.1253 105.726 32.7914 108.163ZM40.2255 115.047C38.2189 117.14 35.0005 117.316 33.0347 115.435C31.067 113.552 31.1006 110.326 33.1078 108.23C35.1143 106.133 38.3354 105.962 40.2999 107.842C42.2669 109.724 42.2339 112.949 40.2255 115.047Z" fill="#F37C4B"/>
<mask id="mask0_1679_9647" style="mask-type:luminance" maskUnits="userSpaceOnUse" x="25" y="98" width="20" height="17">
<path fill-rule="evenodd" clip-rule="evenodd" d="M25 98.6472H44.0141V114.448H25V98.6472Z" fill="white"/>
</mask>
<g mask="url(#mask0_1679_9647)">
<path fill-rule="evenodd" clip-rule="evenodd" d="M29.1294 101.661C24.8012 105.088 23.6987 110.057 26.6661 112.755C29.6374 115.453 35.5547 114.864 39.8855 111.435C44.2143 108.007 45.3156 103.039 42.3462 100.342C39.3762 97.6408 33.4589 98.2328 29.1294 101.661ZM33.0053 100.318C37.1775 98.7537 41.3045 100.337 42.2207 103.852C43.1382 107.366 40.5002 111.486 36.3279 113.049C32.1544 114.614 28.0294 113.03 27.1099 109.516C26.1924 105.999 28.8318 101.882 33.0053 100.318Z" fill="#F05A28"/>
</g>
<path fill-rule="evenodd" clip-rule="evenodd" d="M63.8022 105.413V109.92H65.8457L70.9257 105.413H63.8022Z" fill="#D4B45C"/>
<path fill-rule="evenodd" clip-rule="evenodd" d="M62.4487 97.0001L57.9419 100.998V104.055H62.4487V97.0001Z" fill="#D4B45C"/>
<path fill-rule="evenodd" clip-rule="evenodd" d="M54.0788 105.413L49 109.918L57.9434 109.92L57.9441 118.861L62.4487 114.865V105.413H54.0788Z" fill="#00448D"/>
<path fill-rule="evenodd" clip-rule="evenodd" d="M77.0824 113.944C77.1313 114.591 77.4037 114.969 78.1615 114.954C83.4448 114.868 84.8317 108.463 81.5674 105.449C81.0436 104.968 80.4082 104.57 79.6414 104.302C79.2559 104.165 78.6208 103.969 78.0793 103.969C77.614 103.969 77.218 104.116 77.1151 104.58C76.924 105.465 77.0131 113.065 77.0824 113.944Z" fill="url(#paint7_linear_1679_9647)"/>
<path fill-rule="evenodd" clip-rule="evenodd" d="M84.4536 98C84.0285 98 83.6709 98.1368 83.5758 98.5574C83.4015 99.3584 83.4855 106.26 83.5455 107.06C83.5914 107.644 83.8368 107.987 84.5247 107.977C89.3229 107.896 90.5853 102.081 87.621 99.3455C87.1461 98.9081 86.5635 98.5478 85.8735 98.3048C85.5213 98.1791 84.9462 98 84.4536 98Z" fill="url(#paint8_linear_1679_9647)"/>
<path fill-rule="evenodd" clip-rule="evenodd" d="M84.6572 104.769C84.434 105.778 84.5417 114.446 84.6185 115.452C84.6776 116.192 84.983 116.617 85.8461 116.604C91.8785 116.508 93.464 109.198 89.7395 105.76C89.1443 105.211 88.4102 104.757 87.5429 104.452C87.1007 104.295 86.3753 104.07 85.7603 104.07C85.2269 104.07 84.7727 104.239 84.6572 104.769Z" fill="url(#paint9_linear_1679_9647)"/>
<path fill-rule="evenodd" clip-rule="evenodd" d="M19.8044 131.395C18.2901 131.7 17.734 132.572 17.3354 132.369C16.9872 132.085 17.3679 130.471 17.45 129.822C17.5561 128.971 16.4106 128.451 16.0196 129.495C15.6962 130.538 15.8485 134.228 15.9203 134.88C15.9965 135.579 17.2216 135.552 17.3508 134.944C17.3893 134.753 17.4885 134.353 17.7734 133.794C18.9959 131.49 21.6694 132.504 21.4067 134.122C20.9542 136.599 16.3584 136.546 15.7527 136.018C14.8458 135.373 11.9739 133.467 9.1986 131.66C9.20202 131.532 9.20716 131.395 9.21315 131.267C13.0741 129.011 16.9632 126.727 17.45 126.299C18.2174 125.617 17.3679 124.403 16.3832 125.182C15.7261 125.709 12.6078 127.74 9.31495 129.825C9.5391 127.305 9.93776 125.857 10.1131 125.191C10.4391 123.952 8.66476 123.488 8.36277 124.738C7.86229 126.799 7.58511 128.75 7.44823 130.531C5.57466 129.33 3.96887 128.315 3.36487 127.995C1.61621 127.059 1.43399 128.777 2.13037 129.1C2.46402 129.26 4.23065 130.326 6.39766 131.659C4.21782 133.024 2.27068 134.211 1.28941 134.774C0.637507 135.307 1.19872 136.018 1.8703 135.622C2.9491 134.944 5.04082 133.715 7.3507 132.359C7.26173 135.973 7.76819 138.589 8.16515 139.403C8.68358 140.45 9.53738 139.993 9.4005 139.011C9.21571 136.842 9.14813 134.968 9.15583 133.36C12.5034 135.429 15.8382 137.512 16.1505 137.707C16.9264 138.189 17.6433 137.639 17.7101 137.25C20.4101 136.998 22.2853 136.527 22.8885 134.392C23.5087 132.208 21.4119 131.073 19.8044 131.395Z" fill="#FCB813"/>
<path fill-rule="evenodd" clip-rule="evenodd" d="M45.0013 134.508C44.9997 134.937 44.6461 135.282 44.2057 135.283L42.8067 135.284C42.3662 135.282 42.0127 134.937 42.0116 134.508L42.0127 131.668C42.0285 131.251 42.3758 130.919 42.8067 130.919H44.2099C44.6466 130.921 44.9997 131.266 45.0013 131.692V134.508ZM44.5794 129.201H42.434C42.2895 129.201 42.1498 129.216 42.0127 129.239V125L40.0139 126.986L40.0134 134.64C40.0134 135.942 41.0964 137 42.434 137H44.5783C45.9159 137 47 135.942 47 134.641V131.562C47 130.259 45.9159 129.202 44.5794 129.201ZM36.0609 134.508V130.908H38.4487V129.192H36.0609V126.946L32.4747 130.908H34.0616V134.64C34.0621 135.942 35.1451 137 36.4833 137H39.1082V135.284H36.8549C36.4171 135.282 36.0614 134.937 36.0609 134.508ZM25 127.467V137H26.9998V133.607H27.8229L30.4457 136.998H32.9235L29.476 132.724L32.6192 129.192H30.1541L27.7758 131.89H26.9998V125.482L25 127.467Z" fill="#1C2372"/>
<path fill-rule="evenodd" clip-rule="evenodd" d="M59.9872 122C60.5906 122 61.1793 122.056 61.7525 122.16L59.9992 123.137L58.2388 122.156C58.8078 122.055 59.3912 122 59.9872 122ZM58.625 123.542L56.8 122.525C56.3744 122.668 55.9608 122.839 55.5635 123.036L54.9915 125.049C56.0488 124.286 57.2848 123.758 58.625 123.542ZM64.4251 123.044L64.998 125.06C63.9427 124.294 62.707 123.763 61.3674 123.546L63.1894 122.53C63.6146 122.674 64.0276 122.846 64.4251 123.044ZM53.0587 126.977L51.0435 127.551C50.844 127.947 50.6731 128.36 50.5287 128.786L51.5445 130.608C51.7625 129.268 52.2938 128.033 53.0587 126.977ZM50.1589 130.222C50.0557 130.796 50 131.385 50 131.988C50 132.584 50.0543 133.168 50.1554 133.736L51.1359 131.976L50.1589 130.222ZM69.4506 128.8L68.4322 130.625C68.217 129.286 67.6892 128.05 66.9266 126.993L68.9392 127.564C69.1359 127.962 69.3064 128.375 69.4506 128.8ZM51.5418 133.35L50.5234 135.175C50.6674 135.6 50.8381 136.014 51.0357 136.411L53.0474 136.983C52.2854 135.926 51.7565 134.69 51.5418 133.35ZM54.2686 140.17C53.3052 139.495 52.4676 138.655 51.7935 137.69L53.7203 138.238L54.2686 140.17ZM54.2844 123.795C53.32 124.468 52.4801 125.307 51.805 126.27L53.7368 125.721L54.2844 123.795ZM65.6896 140.181C66.6536 139.508 67.4938 138.668 68.1693 137.706L66.238 138.255L65.6896 140.181ZM68.9319 136.425L66.9149 136.998C67.6807 135.943 68.2117 134.708 68.4291 133.368L69.4453 135.19C69.3013 135.616 69.1297 136.028 68.9319 136.425ZM54.9774 138.916L55.5492 140.932C55.9466 141.13 56.3596 141.302 56.7844 141.446L58.6071 140.43C57.2672 140.212 56.0318 139.681 54.9774 138.916ZM63.1748 141.451L61.3498 140.433C62.6896 140.218 63.9266 139.69 64.9836 138.927L64.411 140.94C64.0128 141.137 63.6001 141.308 63.1748 141.451ZM69.8158 133.753C69.9178 133.18 69.9751 132.591 69.9751 131.988C69.9751 131.392 69.9191 130.808 69.8191 130.24L68.8378 131.999L69.8158 133.753ZM59.9871 141.976C59.3845 141.976 58.7954 141.919 58.2208 141.816L59.9745 140.838L61.7344 141.819C61.1662 141.92 60.5839 141.976 59.9871 141.976ZM56.7011 131.132C57.1181 131.381 57.6654 131.507 58.3264 131.507H59.5206V130.449H58.5861C58.26 130.449 57.9877 130.412 57.7761 130.338C57.5583 130.261 57.3588 130.128 57.1833 129.943C56.8847 129.629 56.733 129.247 56.733 128.81C56.733 128.347 56.8906 127.95 57.2016 127.633C57.3666 127.465 57.556 127.342 57.7653 127.267C57.969 127.195 58.2223 127.158 58.519 127.158H59.5206V126.1H58.3848C58.0347 126.1 57.7164 126.13 57.4418 126.192C56.983 126.292 56.5831 126.506 56.2517 126.827C56.0234 127.05 55.8361 127.314 55.6976 127.611C55.5123 128.001 55.4183 128.409 55.4183 128.822C55.4183 129.138 55.4748 129.451 55.5851 129.754C55.8004 130.35 56.1763 130.814 56.7011 131.132ZM58.6516 132.561C58.8622 132.62 59.0505 132.721 59.2109 132.861C59.3826 133.01 59.5189 133.198 59.6166 133.42C59.7145 133.643 59.7642 133.875 59.7642 134.109C59.7642 134.424 59.6772 134.72 59.5075 134.989C59.344 135.252 59.1372 135.442 58.8956 135.555C58.6476 135.669 58.3133 135.728 57.9018 135.728H56.8819V137.876H55.6272V134.67H57.6085C57.912 134.67 58.1068 134.632 58.2268 134.547C58.3732 134.439 58.4512 134.281 58.4512 134.092C58.4512 133.838 58.3248 133.708 58.2196 133.644C58.0899 133.565 57.8939 133.526 57.6216 133.526H55.6272V132.468H57.7762C58.1366 132.468 58.4316 132.499 58.6516 132.561ZM60.5978 133.526H64.4924V132.468H60.5978V133.526ZM64.4925 137.876H60.5979V134.67H64.4925V135.728H61.8535V136.818H64.4925V137.876Z" fill="#1D9ADD"/>
<path fill-rule="evenodd" clip-rule="evenodd" d="M65.7052 123.806C66.6689 124.481 67.5066 125.321 68.1792 126.285L66.2541 125.738L65.7052 123.806ZM63.5245 130.449L61.9725 126.1H63.1103L65.0209 131.507H60.0703L61.1277 128.302H62.228L61.6157 130.449H63.5245Z" fill="#F73449"/>
<path fill-rule="evenodd" clip-rule="evenodd" d="M83.6346 122.836L78.9744 120.348L83.5716 129.154L88.1688 120.412L83.6346 122.836ZM87.1618 123.538L93.0814 121.114V125.516L89.6808 127.048C91.696 128.707 93.0185 131.195 93.0185 133.939C93.0185 138.916 88.7362 143 83.5092 143C78.2193 143 74 138.98 74 133.939C74 131.132 75.3225 128.643 77.4636 126.92L74.063 125.389V120.986L79.9197 123.474L80.8643 125.197L83.0054 129.281C80.6124 129.6 78.7861 131.578 78.7861 133.939C78.7861 136.492 80.9902 138.597 83.6982 138.597C86.4061 138.597 88.6102 136.555 88.6102 133.939C88.6102 131.514 86.658 129.473 84.139 129.281L86.1542 125.325H86.2172L87.1618 123.538Z" fill="#FFDC00"/>
<path fill-rule="evenodd" clip-rule="evenodd" d="M4.22952 159.935C3.62004 159.648 3.1177 159.417 3.1177 158.95C3.1177 158.594 3.4037 158.334 3.96633 158.334C4.17289 158.334 4.344 158.356 4.51919 158.39C4.61044 158.405 4.70904 158.419 4.7897 158.419C5.28144 158.419 5.5593 158.126 5.74385 157.568L5.82044 157.339C5.74182 157.308 4.93759 156.955 3.88852 156.955C2.221 156.955 1.33937 158.025 1.34059 159.137C1.34059 159.697 1.51619 160.105 1.79078 160.424C2.14563 160.836 2.64919 161.106 3.12015 161.335C3.80704 161.674 4.42752 161.923 4.42752 162.423C4.42752 162.867 3.96919 163.121 3.35522 163.121C2.51719 163.121 1.78344 162.64 1.69056 162.582L1 163.876C1.12222 163.945 2.00956 164.51 3.47296 164.51C5.02885 164.51 6.20707 163.614 6.20707 162.239C6.20707 160.871 5.11441 160.363 4.22952 159.935Z" fill="#E21837"/>
<path fill-rule="evenodd" clip-rule="evenodd" d="M10.3187 160.573L13.1432 157.105H11.131L8.87889 160.098H8.84508V157.105H7.18652V164.451H7.28512C8.00175 164.451 8.85567 164.118 8.85567 162.92V161.233H8.89071L11.1864 164.36H13.2964L10.3187 160.573Z" fill="#E21837"/>
<path fill-rule="evenodd" clip-rule="evenodd" d="M13.238 149.236C12.6529 149.346 11.7872 149.876 11.7904 150.817C11.7921 151.669 12.4891 152.185 12.4912 153.302C12.494 154.143 12.032 154.709 11.5317 155.022C11.7338 155.004 11.9558 154.992 12.1987 154.992C12.7104 154.991 13.0176 155.039 13.0367 155.043L15.6567 151.823C14.9283 150.732 14.0784 149.886 13.238 149.236Z" fill="#E21837"/>
<path fill-rule="evenodd" clip-rule="evenodd" d="M15.4382 157.93C15.7674 157.417 15.8102 156.597 15.8375 155.762C15.8685 154.984 16.0306 154.398 17.0703 154.394C17.3005 154.393 17.5209 154.425 17.9185 154.424C19.4418 154.418 20.4355 153.892 21.0548 153.547C19.7906 152.741 17.9446 151.916 15.6562 151.823C15.5075 152.246 14.3472 155.475 14.2588 155.735C14.273 155.751 14.4759 155.979 14.7298 156.424C15.1042 157.035 15.3042 157.552 15.4382 157.93Z" fill="#E21837"/>
<mask id="mask1_1679_9647" style="mask-type:luminance" maskUnits="userSpaceOnUse" x="8" y="147" width="5" height="9">
<path fill-rule="evenodd" clip-rule="evenodd" d="M8.87158 147.312H12.8666V155.291H8.87158V147.312Z" fill="white"/>
</mask>
<g mask="url(#mask1_1679_9647)">
<path fill-rule="evenodd" clip-rule="evenodd" d="M9.90356 155.291C9.77237 155.291 9.70637 155.204 9.68885 155.052C9.67215 154.899 9.01622 148.898 8.91845 147.989C8.90459 147.855 8.87159 147.612 8.87159 147.525C8.87037 147.385 8.96204 147.312 9.07 147.312C9.38004 147.311 11.0708 147.708 12.8666 148.968C12.3496 149.113 11.413 149.653 11.4171 150.769C11.4216 151.755 12.1268 152.299 12.1309 153.291C12.1357 154.901 10.2881 155.291 9.90356 155.291Z" fill="#F37725"/>
</g>
<path fill-rule="evenodd" clip-rule="evenodd" d="M15.5884 158.356C15.6165 158.433 15.643 158.497 15.6703 158.54C15.711 158.611 15.7644 158.643 15.832 158.643C15.8732 158.643 15.9241 158.627 15.9807 158.601C16.1192 158.538 21.5895 155.988 22.4145 155.607C22.5355 155.55 22.7608 155.448 22.8374 155.404C22.9136 155.36 22.9486 155.295 22.9486 155.229C22.9486 155.193 22.9376 155.156 22.918 155.122C22.8154 154.955 22.2845 154.393 21.3992 153.778C20.6969 154.165 19.5997 154.765 17.9672 154.771C17.5663 154.772 17.4771 154.743 17.2042 154.746C16.4073 154.748 16.2089 155.089 16.1787 155.789C16.1738 155.921 16.1734 156.098 16.164 156.294C16.1392 156.92 16.0659 157.781 15.5884 158.356Z" fill="#F37725"/>
<defs>
<linearGradient id="paint0_linear_1679_9647" x1="36" y1="-12" x2="12" y2="12" gradientUnits="userSpaceOnUse">
<stop stop-color="#005BAC"/>
<stop offset="0.508084" stop-color="#00A4B0"/>
<stop offset="0.805404" stop-color="#1EAB44"/>
<stop offset="1" stop-color="#ABC500"/>
</linearGradient>
<radialGradient id="paint1_radial_1679_9647" cx="0" cy="0" r="1" gradientUnits="userSpaceOnUse" gradientTransform="translate(86.0967 33.2979) rotate(87.3495) scale(10.0496 10.049)">
<stop offset="0.000554265" stop-color="#FEFDFC"/>
<stop offset="1" stop-color="#D3A243"/>
</radialGradient>
<radialGradient id="paint2_radial_1679_9647" cx="0" cy="0" r="1" gradientUnits="userSpaceOnUse" gradientTransform="translate(86.5619 35.4434) rotate(65.7559) scale(9.04368 8.46821)">
<stop stop-color="#00A8E2"/>
<stop offset="0.183963" stop-color="#00AFE7"/>
<stop offset="1" stop-color="#005BAC"/>
</radialGradient>
<linearGradient id="paint3_linear_1679_9647" x1="-16.6298" y1="21.8099" x2="-16.1591" y2="78.581" gradientUnits="userSpaceOnUse">
<stop stop-color="#024DA1"/>
<stop offset="1" stop-color="#00ACED"/>
</linearGradient>
<radialGradient id="paint4_radial_1679_9647" cx="0" cy="0" r="1" gradientUnits="userSpaceOnUse" gradientTransform="translate(38.4013 55.1638) scale(14.4135 14.9549)">
<stop stop-color="#EF402F"/>
<stop offset="0.2057" stop-color="#E0382B"/>
<stop offset="0.5402" stop-color="#C42225"/>
<stop offset="0.6" stop-color="#BE1E24"/>
<stop offset="1" stop-color="#7A1113"/>
</radialGradient>
<radialGradient id="paint5_radial_1679_9647" cx="0" cy="0" r="1" gradientUnits="userSpaceOnUse" gradientTransform="translate(39.5075 54.5588) scale(14.0625 11.8181)">
<stop offset="0.005618" stop-color="#E6E7E8"/>
<stop offset="1" stop-color="#8A9297"/>
</radialGradient>
<linearGradient id="paint6_linear_1679_9647" x1="95.1995" y1="85.1359" x2="79.7734" y2="86.1467" gradientUnits="userSpaceOnUse">
<stop stop-color="#6AB935"/>
<stop offset="0.305922" stop-color="#00A5A9"/>
<stop offset="0.669783" stop-color="#008AD5"/>
<stop offset="1" stop-color="#0075C1"/>
</linearGradient>
<linearGradient id="paint7_linear_1679_9647" x1="77" y1="114.954" x2="83.3197" y2="114.954" gradientUnits="userSpaceOnUse">
<stop stop-color="#CB292B"/>
<stop offset="1" stop-color="#F47920"/>
</linearGradient>
<linearGradient id="paint8_linear_1679_9647" x1="83.4702" y1="108.065" x2="89.322" y2="108.084" gradientUnits="userSpaceOnUse">
<stop stop-color="#1CB0E6"/>
<stop offset="1" stop-color="#0462B0"/>
</linearGradient>
<linearGradient id="paint9_linear_1679_9647" x1="83.8878" y1="117.827" x2="92.5298" y2="117.854" gradientUnits="userSpaceOnUse">
<stop stop-color="#8BC53F"/>
<stop offset="1" stop-color="#009B56"/>
</linearGradient>
</defs>
</svg>
