<svg width="18" height="36" viewBox="0 0 18 36" fill="none" xmlns="http://www.w3.org/2000/svg">
<path fill-rule="evenodd" clip-rule="evenodd" d="M13.293 29.511C13.1641 29.6351 12.9912 29.7028 12.8123 29.6995C12.6334 29.6961 12.4632 29.6218 12.339 29.493L9.00004 25.9488L5.66104 29.493C5.60035 29.5599 5.52684 29.614 5.44488 29.6519C5.36292 29.6899 5.27416 29.7111 5.18388 29.7141C5.09359 29.7172 5.00361 29.7021 4.91927 29.6697C4.83493 29.6373 4.75795 29.5884 4.69288 29.5257C4.62781 29.4631 4.57597 29.388 4.54045 29.3049C4.50493 29.2219 4.48645 29.1325 4.48609 29.0422C4.48573 28.9518 4.50351 28.8624 4.53837 28.779C4.57323 28.6957 4.62447 28.6202 4.68904 28.557L8.51404 24.507C8.57701 24.4417 8.6525 24.3897 8.736 24.3542C8.81951 24.3187 8.90931 24.3004 9.00004 24.3004C9.09078 24.3004 9.18058 24.3187 9.26408 24.3542C9.34759 24.3897 9.42308 24.4417 9.48604 24.507L13.311 28.557C13.4351 28.6859 13.5029 28.8589 13.4995 29.0377C13.4961 29.2166 13.4219 29.3869 13.293 29.511Z" fill="#434343"/>
<path fill-rule="evenodd" clip-rule="evenodd" d="M4.70696 6.48899C4.83589 6.36494 5.0088 6.29716 5.18768 6.30053C5.36657 6.30391 5.5368 6.37817 5.66096 6.50699L8.99996 10.0512L12.339 6.50699C12.3996 6.44008 12.4732 6.38603 12.5551 6.34805C12.6371 6.31007 12.7258 6.28893 12.8161 6.28588C12.9064 6.28283 12.9964 6.29793 13.0807 6.33029C13.1651 6.36265 13.2421 6.41161 13.3071 6.47428C13.3722 6.53694 13.424 6.61202 13.4595 6.69508C13.4951 6.77814 13.5136 6.86749 13.5139 6.95782C13.5143 7.04816 13.4965 7.13764 13.4616 7.22098C13.4268 7.30432 13.3755 7.37981 13.311 7.44299L9.48596 11.493C9.42299 11.5583 9.3475 11.6103 9.264 11.6458C9.18049 11.6813 9.09069 11.6996 8.99996 11.6996C8.90922 11.6996 8.81942 11.6813 8.73592 11.6458C8.65241 11.6103 8.57692 11.5583 8.51396 11.493L4.68896 7.44299C4.56491 7.31406 4.49713 7.14115 4.5005 6.96226C4.50388 6.78338 4.57813 6.61315 4.70696 6.48899Z" fill="#434343"/>
</svg>
