<svg width="18" height="36" viewBox="0 0 18 36" fill="none" xmlns="http://www.w3.org/2000/svg">
<path d="M2 18C1.45 18 0.979002 17.804 0.587002 17.412C0.195002 17.02 -0.000664969 16.5493 1.69779e-06 16V2C1.69779e-06 1.45 0.196002 0.979002 0.588002 0.587002C0.980002 0.195002 1.45067 -0.000664969 2 1.69779e-06H16C16.55 1.69779e-06 17.021 0.196002 17.413 0.588002C17.805 0.980002 18.0007 1.45067 18 2V16C18 16.55 17.804 17.021 17.412 17.413C17.02 17.805 16.5493 18.0007 16 18H2ZM2 16H16V2H2V16Z" fill="#8C8C8C"/>
<path d="M2 36C1.45 36 0.979002 35.804 0.587002 35.412C0.195002 35.02 -0.000664969 34.5493 1.69779e-06 34V20C1.69779e-06 19.45 0.196002 18.979 0.588002 18.587C0.980002 18.195 1.45067 17.9993 2 18H16C16.55 18 17.021 18.196 17.413 18.588C17.805 18.98 18.0007 19.4507 18 20V34C18 34.55 17.804 35.021 17.412 35.413C17.02 35.805 16.5493 36.0007 16 36H2ZM7.6 30.775C7.73334 30.775 7.85834 30.754 7.975 30.712C8.09167 30.67 8.2 30.5993 8.3 30.5L13.975 24.825C14.1583 24.6417 14.25 24.4167 14.25 24.15C14.25 23.8833 14.15 23.65 13.95 23.45C13.7667 23.2667 13.5333 23.175 13.25 23.175C12.9667 23.175 12.7333 23.2667 12.55 23.45L7.6 28.4L5.425 26.225C5.24167 26.0417 5.01667 25.95 4.75 25.95C4.48334 25.95 4.25 26.05 4.05 26.25C3.86667 26.4333 3.775 26.6667 3.775 26.95C3.775 27.2333 3.86667 27.4667 4.05 27.65L6.9 30.5C7 30.6 7.10834 30.6707 7.225 30.712C7.34167 30.7533 7.46667 30.7743 7.6 30.775Z" fill="#551FAD"/>
</svg>
