<svg width="24" height="24" viewBox="0 0 24 24" fill="none" xmlns="http://www.w3.org/2000/svg">
<path d="M9.74879 2.3999C9.41524 2.39991 9.08825 2.4926 8.80432 2.66762C8.52038 2.84265 8.29066 3.09312 8.14079 3.3911L7.43279 4.7999H5.40479C4.60914 4.7999 3.84607 5.11597 3.28346 5.67858C2.72086 6.24119 2.40479 7.00425 2.40479 7.7999V17.3999C2.40479 18.1956 2.72086 18.9586 3.28346 19.5212C3.84607 20.0838 4.60914 20.3999 5.40479 20.3999H11.52C11.3237 20.0164 11.1658 19.6144 11.0484 19.1999H5.40599C4.9286 19.1999 4.47076 19.0103 4.13319 18.6727C3.79563 18.3351 3.60599 17.8773 3.60599 17.3999V7.7999C3.60599 7.32251 3.79563 6.86468 4.13319 6.52711C4.47076 6.18954 4.9286 5.9999 5.40599 5.9999H7.80359C7.91471 5.99968 8.0236 5.96859 8.1181 5.91011C8.2126 5.85163 8.289 5.76806 8.33879 5.6687L9.21239 3.9299C9.26243 3.83059 9.33909 3.74714 9.43381 3.68887C9.52853 3.6306 9.63758 3.59979 9.74879 3.5999H14.2656C14.3771 3.59968 14.4865 3.63056 14.5815 3.68906C14.6764 3.74757 14.7532 3.83138 14.8032 3.9311L15.6708 5.6675C15.7207 5.76704 15.7973 5.85073 15.892 5.90923C15.9867 5.96772 16.0959 5.9987 16.2072 5.9987H18.606C19.0834 5.9987 19.5412 6.18834 19.8788 6.52591C20.2163 6.86348 20.406 7.32131 20.406 7.7987V11.5223C20.8336 11.7414 21.236 12.0065 21.606 12.3131V7.7987C21.606 7.00305 21.2899 6.23999 20.7273 5.67738C20.1647 5.11477 19.4016 4.7987 18.606 4.7987H16.578L15.876 3.3947C15.7264 3.09569 15.4965 2.84423 15.2121 2.66853C14.9277 2.49282 14.5999 2.3998 14.2656 2.3999H9.74879ZM12 7.1999C13.0715 7.19995 14.1123 7.55835 14.9566 8.21809C15.801 8.87782 16.4004 9.80099 16.6596 10.8407C16.2606 10.8853 15.8665 10.9665 15.4824 11.0831C15.3211 10.4705 15.0011 9.91121 14.5547 9.46177C14.1082 9.01233 13.5511 8.68861 12.9396 8.52329C12.328 8.35797 11.6837 8.3569 11.0716 8.52018C10.4595 8.68346 9.90131 9.00532 9.45336 9.45327C9.0054 9.90122 8.68355 10.4594 8.52026 11.0715C8.35698 11.6836 8.35806 12.3279 8.52338 12.9395C8.68869 13.551 9.01241 14.1081 9.46185 14.5546C9.91129 15.0011 10.4706 15.3211 11.0832 15.4823C10.9666 15.8661 10.8855 16.2597 10.8408 16.6583C9.70693 16.3718 8.71659 15.6813 8.0556 14.7165C7.39461 13.7517 7.1084 12.5789 7.25066 11.4181C7.39293 10.2573 7.9539 9.18824 8.82831 8.41162C9.70273 7.63499 10.8305 7.20414 12 7.1999ZM22.8 17.3999C22.8 18.8321 22.2311 20.2056 21.2184 21.2183C20.2057 22.231 18.8322 22.7999 17.4 22.7999C15.9678 22.7999 14.5943 22.231 13.5816 21.2183C12.5689 20.2056 12 18.8321 12 17.3999C12 15.9677 12.5689 14.5942 13.5816 13.5815C14.5943 12.5688 15.9678 11.9999 17.4 11.9999C18.8322 11.9999 20.2057 12.5688 21.2184 13.5815C22.2311 14.5942 22.8 15.9677 22.8 17.3999ZM18 14.9999C18 14.8408 17.9368 14.6882 17.8243 14.5756C17.7117 14.4631 17.5591 14.3999 17.4 14.3999C17.2409 14.3999 17.0882 14.4631 16.9757 14.5756C16.8632 14.6882 16.8 14.8408 16.8 14.9999V16.7999H15C14.8409 16.7999 14.6882 16.8631 14.5757 16.9756C14.4632 17.0882 14.4 17.2408 14.4 17.3999C14.4 17.559 14.4632 17.7116 14.5757 17.8242C14.6882 17.9367 14.8409 17.9999 15 17.9999H16.8V19.7999C16.8 19.959 16.8632 20.1116 16.9757 20.2242C17.0882 20.3367 17.2409 20.3999 17.4 20.3999C17.5591 20.3999 17.7117 20.3367 17.8243 20.2242C17.9368 20.1116 18 19.959 18 19.7999V17.9999H19.8C19.9591 17.9999 20.1117 17.9367 20.2243 17.8242C20.3368 17.7116 20.4 17.559 20.4 17.3999C20.4 17.2408 20.3368 17.0882 20.2243 16.9756C20.1117 16.8631 19.9591 16.7999 19.8 16.7999H18V14.9999Z" fill="black"/>
</svg>
