<svg width="21" height="17" viewBox="0 0 21 17" fill="none" xmlns="http://www.w3.org/2000/svg">
<g id="icon">
<path id="image" d="M4.67727 16.9074C3.24545 16.9074 2.1 16.3978 1.24091 15.3787C0.413636 14.3288 0 13.0936 0 11.673C0 10.4995 0.222727 9.40327 0.668182 8.3842C1.11364 7.36512 1.67045 6.43869 2.33864 5.6049C3.03864 4.77112 3.77045 4.04541 4.53409 3.42779C5.32955 2.77929 6.06136 2.23887 6.72955 1.80654C7.39773 1.34332 7.93864 1.00363 8.35227 0.787466C8.79773 0.571299 9.00455 0.463215 8.97273 0.463215L10.0705 1.89918C9.78409 2.02271 9.40227 2.26975 8.925 2.64033C8.44773 2.98002 7.97045 3.39691 7.49318 3.89101C7.04773 4.3851 6.65 4.92552 6.3 5.51226C5.95 6.06812 5.775 6.60854 5.775 7.13351C5.775 7.44233 5.96591 7.75114 6.34773 8.05995C6.72955 8.33787 7.14318 8.67757 7.58864 9.07902C8.03409 9.44959 8.44773 9.91281 8.82955 10.4687C9.21136 10.9936 9.40227 11.6421 9.40227 12.4142C9.40227 13.0936 9.25909 13.7112 8.97273 14.267C8.71818 14.8229 8.36818 15.3015 7.92273 15.703C7.50909 16.0736 7.01591 16.3669 6.44318 16.5831C5.87045 16.7993 5.28182 16.9074 4.67727 16.9074ZM16.4182 17C15.6864 17 15.0182 16.8456 14.4136 16.5368C13.8091 16.228 13.2841 15.8111 12.8386 15.2861C12.3932 14.7611 12.0432 14.1589 11.7886 13.4796C11.5659 12.7693 11.4545 12.0127 11.4545 11.2098C11.4545 9.604 11.8045 8.12171 12.5045 6.76294C13.2364 5.3733 14.0318 4.18438 14.8909 3.19619C15.9091 2.02271 17.0705 0.957312 18.375 0L19.7591 1.25068C19.4727 1.43597 19.1227 1.72934 18.7091 2.13079C18.3273 2.53224 17.9614 3.0109 17.6114 3.56676C17.2932 4.09173 17.0068 4.64759 16.7523 5.23433C16.5295 5.82107 16.4182 6.39237 16.4182 6.94823C16.4182 7.3188 16.6568 7.62761 17.1341 7.87466C17.6114 8.12171 18.1364 8.43052 18.7091 8.80109C19.2818 9.17166 19.8068 9.65032 20.2841 10.2371C20.7614 10.7929 21 11.5804 21 12.5995C21 13.2171 20.8727 13.7884 20.6182 14.3134C20.3636 14.8383 20.0136 15.3015 19.5682 15.703C19.1545 16.1045 18.6614 16.4287 18.0886 16.6757C17.5477 16.8919 16.9909 17 16.4182 17Z" fill="#BFBFBF" fill-opacity="0.5"/>
</g>
</svg>
