<svg width="112" height="56" viewBox="0 0 112 56" fill="none" xmlns="http://www.w3.org/2000/svg">
<path fill-rule="evenodd" clip-rule="evenodd" d="M13.782 18.7708C13.9197 18.6278 13.9949 18.4359 13.9911 18.2375C13.9874 18.039 13.905 17.8502 13.762 17.7124L9.82915 14.008L13.762 10.3035C13.8363 10.2362 13.8962 10.1547 13.9384 10.0637C13.9805 9.97279 14.004 9.87433 14.0074 9.77416C14.0108 9.674 13.994 9.57417 13.9581 9.4806C13.9222 9.38703 13.8679 9.30162 13.7983 9.22942C13.7288 9.15723 13.6455 9.09973 13.5533 9.06032C13.4611 9.02091 13.362 9.0004 13.2618 9.00001C13.1615 8.99961 13.0622 9.01933 12.9697 9.05801C12.8773 9.09669 12.7935 9.15353 12.7234 9.22517L8.22923 13.4688C8.15674 13.5386 8.09908 13.6224 8.05969 13.715C8.02031 13.8077 8.00001 13.9073 8.00001 14.008C8.00001 14.1086 8.02031 14.2083 8.05969 14.3009C8.09908 14.3936 8.15674 14.4773 8.22923 14.5472L12.7234 18.7908C12.8665 18.9284 13.0583 19.0036 13.2568 18.9999C13.4553 18.9961 13.6442 18.9137 13.782 18.7708Z" fill="#BFBFBF"/>
<path fill-rule="evenodd" clip-rule="evenodd" d="M19.7742 18.7708C19.9118 18.6278 19.9871 18.4359 19.9833 18.2375C19.9796 18.039 19.8972 17.8502 19.7542 17.7124L15.8213 14.008L19.7542 10.3035C19.8285 10.2362 19.8884 10.1547 19.9306 10.0637C19.9727 9.97279 19.9962 9.87433 19.9996 9.77416C20.003 9.674 19.9862 9.57417 19.9503 9.4806C19.9144 9.38703 19.86 9.30162 19.7905 9.22942C19.721 9.15723 19.6377 9.09973 19.5455 9.06032C19.4533 9.02091 19.3542 9.0004 19.2539 9.00001C19.1537 8.99961 19.0544 9.01933 18.9619 9.05801C18.8694 9.09669 18.7857 9.15353 18.7156 9.22517L14.2214 13.4688C14.1489 13.5386 14.0913 13.6224 14.0519 13.715C14.0125 13.8077 13.9922 13.9073 13.9922 14.008C13.9922 14.1086 14.0125 14.2083 14.0519 14.3009C14.0913 14.3936 14.1489 14.4773 14.2214 14.5472L18.7156 18.7908C18.8586 18.9284 19.0505 19.0036 19.249 18.9999C19.4475 18.9961 19.6364 18.9137 19.7742 18.7708Z" fill="#BFBFBF"/>
<path fill-rule="evenodd" clip-rule="evenodd" d="M13.782 46.7708C13.9197 46.6278 13.9949 46.4359 13.9911 46.2375C13.9874 46.039 13.905 45.8502 13.762 45.7124L9.82915 42.008L13.762 38.3035C13.8363 38.2362 13.8962 38.1547 13.9384 38.0637C13.9805 37.9728 14.004 37.8743 14.0074 37.7742C14.0108 37.674 13.994 37.5742 13.9581 37.4806C13.9222 37.387 13.8679 37.3016 13.7983 37.2294C13.7288 37.1572 13.6455 37.0997 13.5533 37.0603C13.4611 37.0209 13.362 37.0004 13.2618 37C13.1615 36.9996 13.0622 37.0193 12.9697 37.058C12.8773 37.0967 12.7935 37.1535 12.7234 37.2252L8.22923 41.4688C8.15674 41.5386 8.09908 41.6224 8.05969 41.715C8.02031 41.8077 8.00001 41.9073 8.00001 42.008C8.00001 42.1086 8.02031 42.2083 8.05969 42.3009C8.09908 42.3936 8.15674 42.4773 8.22923 42.5472L12.7234 46.7908C12.8665 46.9284 13.0583 47.0036 13.2568 46.9999C13.4553 46.9961 13.6442 46.9137 13.782 46.7708Z" fill="#595959"/>
<path fill-rule="evenodd" clip-rule="evenodd" d="M19.7742 46.7708C19.9118 46.6278 19.9871 46.4359 19.9833 46.2375C19.9796 46.039 19.8972 45.8502 19.7542 45.7124L15.8213 42.008L19.7542 38.3035C19.8285 38.2362 19.8884 38.1547 19.9306 38.0637C19.9727 37.9728 19.9962 37.8743 19.9996 37.7742C20.003 37.674 19.9862 37.5742 19.9503 37.4806C19.9144 37.387 19.86 37.3016 19.7905 37.2294C19.721 37.1572 19.6377 37.0997 19.5455 37.0603C19.4533 37.0209 19.3542 37.0004 19.2539 37C19.1537 36.9996 19.0544 37.0193 18.9619 37.058C18.8694 37.0967 18.7857 37.1535 18.7156 37.2252L14.2214 41.4688C14.1489 41.5386 14.0913 41.6224 14.0519 41.715C14.0125 41.8077 13.9922 41.9073 13.9922 42.008C13.9922 42.1086 14.0125 42.2083 14.0519 42.3009C14.0913 42.3936 14.1489 42.4773 14.2214 42.5472L18.7156 46.7908C18.8586 46.9284 19.0505 47.0036 19.249 46.9999C19.4475 46.9961 19.6364 46.9137 19.7742 46.7708Z" fill="#595959"/>
<path fill-rule="evenodd" clip-rule="evenodd" d="M98.218 18.7708C98.0803 18.6278 98.0051 18.4359 98.0089 18.2375C98.0126 18.039 98.095 17.8502 98.238 17.7124L102.171 14.008L98.238 10.3035C98.1637 10.2362 98.1038 10.1547 98.0616 10.0637C98.0195 9.97279 97.996 9.87433 97.9926 9.77416C97.9892 9.674 98.006 9.57417 98.0419 9.4806C98.0778 9.38703 98.1321 9.30162 98.2017 9.22942C98.2712 9.15723 98.3545 9.09973 98.4467 9.06032C98.5389 9.02091 98.638 9.0004 98.7382 9.00001C98.8385 8.99961 98.9378 9.01933 99.0303 9.05801C99.1227 9.09669 99.2065 9.15353 99.2766 9.22517L103.771 13.4688C103.843 13.5386 103.901 13.6224 103.94 13.715C103.98 13.8077 104 13.9073 104 14.008C104 14.1086 103.98 14.2083 103.94 14.3009C103.901 14.3936 103.843 14.4773 103.771 14.5472L99.2766 18.7908C99.1335 18.9284 98.9417 19.0036 98.7432 18.9999C98.5447 18.9961 98.3558 18.9137 98.218 18.7708Z" fill="#BFBFBF"/>
<path fill-rule="evenodd" clip-rule="evenodd" d="M92.2258 18.7708C92.0882 18.6278 92.0129 18.4359 92.0167 18.2375C92.0204 18.039 92.1028 17.8502 92.2458 17.7124L96.1787 14.008L92.2458 10.3035C92.1715 10.2362 92.1116 10.1547 92.0694 10.0637C92.0273 9.97279 92.0038 9.87433 92.0004 9.77416C91.997 9.674 92.0138 9.57417 92.0497 9.4806C92.0856 9.38703 92.14 9.30162 92.2095 9.22942C92.279 9.15723 92.3623 9.09973 92.4545 9.06032C92.5467 9.02091 92.6458 9.0004 92.7461 9.00001C92.8463 8.99961 92.9456 9.01933 93.0381 9.05801C93.1306 9.09669 93.2143 9.15353 93.2844 9.22517L97.7786 13.4688C97.8511 13.5386 97.9087 13.6224 97.9481 13.715C97.9875 13.8077 98.0078 13.9073 98.0078 14.008C98.0078 14.1086 97.9875 14.2083 97.9481 14.3009C97.9087 14.3936 97.8511 14.4773 97.7786 14.5472L93.2844 18.7908C93.1414 18.9284 92.9495 19.0036 92.751 18.9999C92.5525 18.9961 92.3636 18.9137 92.2258 18.7708Z" fill="#BFBFBF"/>
<path fill-rule="evenodd" clip-rule="evenodd" d="M98.218 46.7708C98.0803 46.6278 98.0051 46.4359 98.0089 46.2375C98.0126 46.039 98.095 45.8502 98.238 45.7124L102.171 42.008L98.238 38.3035C98.1637 38.2362 98.1038 38.1547 98.0616 38.0637C98.0195 37.9728 97.996 37.8743 97.9926 37.7742C97.9892 37.674 98.006 37.5742 98.0419 37.4806C98.0778 37.387 98.1321 37.3016 98.2017 37.2294C98.2712 37.1572 98.3545 37.0997 98.4467 37.0603C98.5389 37.0209 98.638 37.0004 98.7382 37C98.8385 36.9996 98.9378 37.0193 99.0303 37.058C99.1227 37.0967 99.2065 37.1535 99.2766 37.2252L103.771 41.4688C103.843 41.5386 103.901 41.6224 103.94 41.715C103.98 41.8077 104 41.9073 104 42.008C104 42.1086 103.98 42.2083 103.94 42.3009C103.901 42.3936 103.843 42.4773 103.771 42.5472L99.2766 46.7908C99.1335 46.9284 98.9417 47.0036 98.7432 46.9999C98.5447 46.9961 98.3558 46.9137 98.218 46.7708Z" fill="#595959"/>
<path fill-rule="evenodd" clip-rule="evenodd" d="M92.2258 46.7708C92.0882 46.6278 92.0129 46.4359 92.0167 46.2375C92.0204 46.039 92.1028 45.8502 92.2458 45.7124L96.1787 42.008L92.2458 38.3035C92.1715 38.2362 92.1116 38.1547 92.0694 38.0637C92.0273 37.9728 92.0038 37.8743 92.0004 37.7742C91.997 37.674 92.0138 37.5742 92.0497 37.4806C92.0856 37.387 92.14 37.3016 92.2095 37.2294C92.279 37.1572 92.3623 37.0997 92.4545 37.0603C92.5467 37.0209 92.6458 37.0004 92.7461 37C92.8463 36.9996 92.9456 37.0193 93.0381 37.058C93.1306 37.0967 93.2143 37.1535 93.2844 37.2252L97.7786 41.4688C97.8511 41.5386 97.9087 41.6224 97.9481 41.715C97.9875 41.8077 98.0078 41.9073 98.0078 42.008C98.0078 42.1086 97.9875 42.2083 97.9481 42.3009C97.9087 42.3936 97.8511 42.4773 97.7786 42.5472L93.2844 46.7908C93.1414 46.9284 92.9495 47.0036 92.751 46.9999C92.5525 46.9961 92.3636 46.9137 92.2258 46.7708Z" fill="#595959"/>
<path fill-rule="evenodd" clip-rule="evenodd" d="M44.79 18.77C44.9278 18.6267 45.0032 18.4346 44.9994 18.2359C44.9957 18.0371 44.9131 17.848 44.77 17.71L40.832 14L44.77 10.29C44.8444 10.2226 44.9044 10.1409 44.9466 10.0498C44.9888 9.95875 45.0123 9.86014 45.0157 9.75982C45.0191 9.65951 45.0023 9.55953 44.9663 9.46582C44.9304 9.37211 44.876 9.28657 44.8064 9.21427C44.7367 9.14196 44.6533 9.08437 44.561 9.04491C44.4687 9.00544 44.3695 8.9849 44.2691 8.9845C44.1687 8.98411 44.0693 9.00386 43.9767 9.0426C43.8841 9.08133 43.8002 9.13826 43.73 9.21001L39.23 13.46C39.1574 13.53 39.0997 13.6138 39.0602 13.7066C39.0208 13.7994 39.0005 13.8992 39.0005 14C39.0005 14.1008 39.0208 14.2006 39.0602 14.2934C39.0997 14.3862 39.1574 14.47 39.23 14.54L43.73 18.79C43.8733 18.9278 44.0654 19.0032 44.2641 18.9994C44.4629 18.9957 44.652 18.9131 44.79 18.77Z" fill="#BFBFBF"/>
<path fill-rule="evenodd" clip-rule="evenodd" d="M44.79 46.77C44.9278 46.6267 45.0032 46.4346 44.9994 46.2359C44.9957 46.0371 44.9131 45.848 44.77 45.71L40.832 42L44.77 38.29C44.8444 38.2226 44.9044 38.1409 44.9466 38.0498C44.9888 37.9588 45.0123 37.8601 45.0157 37.7598C45.0191 37.6595 45.0023 37.5595 44.9663 37.4658C44.9304 37.3721 44.876 37.2866 44.8064 37.2143C44.7367 37.142 44.6533 37.0844 44.561 37.0449C44.4687 37.0054 44.3695 36.9849 44.2691 36.9845C44.1687 36.9841 44.0693 37.0039 43.9767 37.0426C43.8841 37.0813 43.8002 37.1383 43.73 37.21L39.23 41.46C39.1574 41.53 39.0997 41.6138 39.0602 41.7066C39.0208 41.7994 39.0005 41.8992 39.0005 42C39.0005 42.1008 39.0208 42.2006 39.0602 42.2934C39.0997 42.3862 39.1574 42.47 39.23 42.54L43.73 46.79C43.8733 46.9278 44.0654 47.0032 44.2641 46.9994C44.4629 46.9957 44.652 46.9131 44.79 46.77Z" fill="#595959"/>
<path fill-rule="evenodd" clip-rule="evenodd" d="M67.21 18.77C67.0722 18.6267 66.9968 18.4346 67.0006 18.2359C67.0043 18.0371 67.0869 17.848 67.23 17.71L71.168 14L67.23 10.29C67.1556 10.2226 67.0956 10.1409 67.0534 10.0498C67.0112 9.95875 66.9877 9.86014 66.9843 9.75982C66.9809 9.65951 66.9977 9.55953 67.0337 9.46582C67.0696 9.37211 67.124 9.28657 67.1936 9.21427C67.2633 9.14196 67.3467 9.08437 67.439 9.04491C67.5313 9.00544 67.6305 8.9849 67.7309 8.9845C67.8313 8.98411 67.9307 9.00386 68.0233 9.0426C68.1159 9.08133 68.1998 9.13826 68.27 9.21001L72.77 13.46C72.8426 13.53 72.9003 13.6138 72.9398 13.7066C72.9792 13.7994 72.9995 13.8992 72.9995 14C72.9995 14.1008 72.9792 14.2006 72.9398 14.2934C72.9003 14.3862 72.8426 14.47 72.77 14.54L68.27 18.79C68.1267 18.9278 67.9346 19.0032 67.7359 18.9994C67.5371 18.9957 67.348 18.9131 67.21 18.77Z" fill="#BFBFBF"/>
<path fill-rule="evenodd" clip-rule="evenodd" d="M67.21 46.77C67.0722 46.6267 66.9968 46.4346 67.0006 46.2359C67.0043 46.0371 67.0869 45.848 67.23 45.71L71.168 42L67.23 38.29C67.1556 38.2226 67.0956 38.1409 67.0534 38.0498C67.0112 37.9588 66.9877 37.8601 66.9843 37.7598C66.9809 37.6595 66.9977 37.5595 67.0337 37.4658C67.0696 37.3721 67.124 37.2866 67.1936 37.2143C67.2633 37.142 67.3467 37.0844 67.439 37.0449C67.5313 37.0054 67.6305 36.9849 67.7309 36.9845C67.8313 36.9841 67.9307 37.0039 68.0233 37.0426C68.1159 37.0813 68.1998 37.1383 68.27 37.21L72.77 41.46C72.8426 41.53 72.9003 41.6138 72.9398 41.7066C72.9792 41.7994 72.9995 41.8992 72.9995 42C72.9995 42.1008 72.9792 42.2006 72.9398 42.2934C72.9003 42.3862 72.8426 42.47 72.77 42.54L68.27 46.79C68.1267 46.9278 67.9346 47.0032 67.7359 46.9994C67.5371 46.9957 67.348 46.9131 67.21 46.77Z" fill="#595959"/>
</svg>
