<svg width="16" height="16" viewBox="0 0 16 16" fill="none" xmlns="http://www.w3.org/2000/svg">
<path d="M15 12H13V10H12V12H10V13H12V15H13V13H15V12Z" fill="#8C8C8C"/>
<path d="M8 14H4V2.00005H8V5.00005C8.00079 5.26502 8.1064 5.51892 8.29377 5.70628C8.48113 5.89365 8.73503 5.99926 9 6.00005H12V8.00005H13V5.00005C13.0018 4.93434 12.9893 4.86902 12.9634 4.8086C12.9375 4.74818 12.8988 4.69409 12.85 4.65005L9.35 1.15005C9.30598 1.10122 9.25189 1.06252 9.19147 1.03663C9.13104 1.01073 9.06572 0.99825 9 1.00005H4C3.73503 1.00084 3.48113 1.10645 3.29377 1.29382C3.1064 1.48118 3.00079 1.73507 3 2.00005V14C3.00079 14.265 3.1064 14.5189 3.29377 14.7063C3.48113 14.8936 3.73503 14.9993 4 15H8V14ZM9 2.20005L11.8 5.00005H9V2.20005Z" fill="#8C8C8C"/>
</svg>
