<svg width="64" height="169" viewBox="0 0 64 169" fill="none" xmlns="http://www.w3.org/2000/svg">
<path fill-rule="evenodd" clip-rule="evenodd" d="M8.66406 27.9993C8.66406 15.1122 19.1102 4.66602 31.9974 4.66602C44.8846 4.66602 55.3307 15.1122 55.3307 27.9993C55.3307 40.8865 44.8846 51.3327 31.9974 51.3327C19.1102 51.3327 8.66406 40.8865 8.66406 27.9993ZM40.6367 23.6582C40.7803 23.4668 40.8842 23.2487 40.9423 23.0167C41.0004 22.7846 41.0115 22.5433 40.975 22.3069C40.9385 22.0704 40.8551 21.8437 40.7297 21.64C40.6043 21.4363 40.4395 21.2597 40.2448 21.1206C40.0502 20.9815 39.8298 20.8827 39.5964 20.83C39.3631 20.7773 39.1216 20.7718 38.8861 20.8138C38.6506 20.8558 38.4258 20.9444 38.2251 21.0745C38.0243 21.2046 37.8516 21.3735 37.7171 21.5713L29.9728 32.4123L26.0863 28.5258C25.746 28.2088 25.296 28.0362 24.831 28.0444C24.366 28.0526 23.9224 28.241 23.5935 28.5698C23.2647 28.8987 23.0763 29.3423 23.0681 29.8073C23.0599 30.2723 23.2325 30.7223 23.5495 31.0626L28.9341 36.4472C29.1184 36.6313 29.3405 36.7731 29.5851 36.8628C29.8296 36.9524 30.0907 36.9878 30.3503 36.9664C30.6099 36.945 30.8617 36.8673 31.0883 36.7388C31.3149 36.6103 31.5107 36.4341 31.6624 36.2223L40.6367 23.6582Z" fill="#8852E0"/>
<g filter="url(#filter0_dd_4562_23524)">
<path d="M54.04 67.1562H9.95C9.08015 67.1562 8.375 67.8614 8.375 68.7312V99.269C8.375 100.139 9.08015 100.844 9.95 100.844H54.04C54.9098 100.844 55.615 100.139 55.615 99.269V68.7312C55.615 67.8614 54.9098 67.1562 54.04 67.1562Z" fill="#CCD7EE"/>
<path d="M46.7528 96.7677C47.436 96.7677 47.9899 95.5986 47.9899 94.1563C47.9899 92.7141 47.436 91.5449 46.7528 91.5449C46.0695 91.5449 45.5156 92.7141 45.5156 94.1563C45.5156 95.5986 46.0695 96.7677 46.7528 96.7677Z" fill="white"/>
<path d="M55.5936 77.459H8.39844V82.3443H55.5936V77.459Z" fill="#253368"/>
<path d="M28.0922 87.4062H12.2672C11.9772 87.4062 11.7422 87.6413 11.7422 87.9313V88.5687C11.7422 88.8587 11.9772 89.0938 12.2672 89.0938H28.0922C28.3821 89.0938 28.6172 88.8587 28.6172 88.5687V87.9313C28.6172 87.6413 28.3821 87.4062 28.0922 87.4062Z" fill="#597EF7"/>
<path d="M21.3949 92.4688H12.2672C11.9772 92.4688 11.7422 92.7038 11.7422 92.9938V93.6313C11.7422 93.9212 11.9772 94.1563 12.2672 94.1563H21.3949C21.6849 94.1563 21.9199 93.9212 21.9199 93.6313V92.9938C21.9199 92.7038 21.6849 92.4688 21.3949 92.4688Z" fill="#597EF7"/>
<path d="M16.3061 70.5508H12.2672C11.9772 70.5508 11.7422 70.7858 11.7422 71.0758V73.3807C11.7422 73.6707 11.9772 73.9057 12.2672 73.9057H16.3061C16.596 73.9057 16.8311 73.6707 16.8311 73.3807V71.0758C16.8311 70.7858 16.596 70.5508 16.3061 70.5508Z" fill="white"/>
<path d="M45.5188 94.1554C45.5178 93.1431 45.9723 92.1841 46.7565 91.544C45.3816 90.4172 43.3683 90.55 42.1534 91.8478C40.9385 93.1455 40.9385 95.1632 42.1534 96.4609C43.3683 97.7586 45.3816 97.8915 46.7565 96.7647C45.9729 96.125 45.5184 95.1669 45.5188 94.1554Z" fill="#FF7946"/>
<path d="M48.8951 90.7813C48.1157 90.7802 47.3601 91.0501 46.7578 91.5449C47.54 92.1859 47.9935 93.1439 47.9935 94.1552C47.9935 95.1665 47.54 96.1245 46.7578 96.7656C47.9074 97.7086 49.5387 97.7883 50.7747 96.9616C52.0107 96.135 52.56 94.5969 52.1274 93.1743C51.6948 91.7517 50.3821 90.7798 48.8951 90.7813Z" fill="#FAAD14"/>
</g>
<path fill-rule="evenodd" clip-rule="evenodd" d="M50 61.5625C45.3401 61.5625 41.5625 65.3401 41.5625 70C41.5625 74.6599 45.3401 78.4375 50 78.4375C54.6599 78.4375 58.4375 74.6599 58.4375 70C58.4375 65.3401 54.6599 61.5625 50 61.5625Z" fill="#FF4D4F"/>
<path fill-rule="evenodd" clip-rule="evenodd" d="M52.7662 72.557L52.5531 72.7701C52.3766 72.9466 52.0904 72.9466 51.9139 72.7701L47.2261 68.0824C47.0496 67.9058 47.0496 67.6197 47.2261 67.4431L47.4392 67.23C47.6157 67.0535 47.9019 67.0535 48.0784 67.23L52.7662 71.9178C52.9427 72.0943 52.9427 72.3805 52.7662 72.557Z" fill="white"/>
<path fill-rule="evenodd" clip-rule="evenodd" d="M47.2261 72.557L47.4392 72.7701C47.6157 72.9466 47.9019 72.9466 48.0785 72.7701L52.7662 68.0824C52.9427 67.9058 52.9427 67.6197 52.7662 67.4431L52.5531 67.23C52.3766 67.0535 52.0904 67.0535 51.9139 67.23L47.2261 71.9178C47.0496 72.0943 47.0496 72.3805 47.2261 72.557Z" fill="white"/>
<g filter="url(#filter1_dd_4562_23524)">
<path d="M54.04 123.156H9.95C9.08015 123.156 8.375 123.861 8.375 124.731V155.269C8.375 156.139 9.08015 156.844 9.95 156.844H54.04C54.9098 156.844 55.615 156.139 55.615 155.269V124.731C55.615 123.861 54.9098 123.156 54.04 123.156Z" fill="#CCD7EE"/>
<path d="M46.7528 152.768C47.436 152.768 47.9899 151.599 47.9899 150.156C47.9899 148.714 47.436 147.545 46.7528 147.545C46.0695 147.545 45.5156 148.714 45.5156 150.156C45.5156 151.599 46.0695 152.768 46.7528 152.768Z" fill="white"/>
<path d="M55.5936 133.459H8.39844V138.344H55.5936V133.459Z" fill="#253368"/>
<path d="M28.0922 143.406H12.2672C11.9772 143.406 11.7422 143.641 11.7422 143.931V144.569C11.7422 144.859 11.9772 145.094 12.2672 145.094H28.0922C28.3821 145.094 28.6172 144.859 28.6172 144.569V143.931C28.6172 143.641 28.3821 143.406 28.0922 143.406Z" fill="#597EF7"/>
<path d="M21.3949 148.469H12.2672C11.9772 148.469 11.7422 148.704 11.7422 148.994V149.631C11.7422 149.921 11.9772 150.156 12.2672 150.156H21.3949C21.6849 150.156 21.9199 149.921 21.9199 149.631V148.994C21.9199 148.704 21.6849 148.469 21.3949 148.469Z" fill="#597EF7"/>
<path d="M16.3061 126.551H12.2672C11.9772 126.551 11.7422 126.786 11.7422 127.076V129.381C11.7422 129.671 11.9772 129.906 12.2672 129.906H16.3061C16.596 129.906 16.8311 129.671 16.8311 129.381V127.076C16.8311 126.786 16.596 126.551 16.3061 126.551Z" fill="white"/>
<path d="M45.5188 150.155C45.5178 149.143 45.9723 148.184 46.7565 147.544C45.3816 146.417 43.3683 146.55 42.1534 147.848C40.9385 149.146 40.9385 151.163 42.1534 152.461C43.3683 153.759 45.3816 153.892 46.7565 152.765C45.9729 152.125 45.5184 151.167 45.5188 150.155Z" fill="#FF7946"/>
<path d="M48.8951 146.781C48.1157 146.78 47.3601 147.05 46.7578 147.545C47.54 148.186 47.9935 149.144 47.9935 150.155C47.9935 151.167 47.54 152.125 46.7578 152.766C47.9074 153.709 49.5387 153.788 50.7747 152.962C52.0107 152.135 52.56 150.597 52.1274 149.174C51.6948 147.752 50.3821 146.78 48.8951 146.781Z" fill="#FAAD14"/>
</g>
<path fill-rule="evenodd" clip-rule="evenodd" d="M42.1641 125.999C42.1641 121.397 45.8948 117.666 50.4974 117.666C55.1 117.666 58.8307 121.397 58.8307 125.999C58.8307 130.602 55.1 134.333 50.4974 134.333C45.8948 134.333 42.1641 130.602 42.1641 125.999ZM53.5829 124.449C53.6341 124.381 53.6713 124.303 53.692 124.22C53.7127 124.137 53.7167 124.051 53.7037 123.966C53.6906 123.882 53.6609 123.801 53.6161 123.728C53.5713 123.655 53.5124 123.592 53.4429 123.543C53.3734 123.493 53.2947 123.458 53.2113 123.439C53.128 123.42 53.0417 123.418 52.9576 123.433C52.8735 123.448 52.7933 123.48 52.7216 123.526C52.6499 123.573 52.5882 123.633 52.5401 123.704L49.7743 127.575L48.3863 126.187C48.2648 126.074 48.104 126.013 47.938 126.015C47.7719 126.018 47.6135 126.086 47.496 126.203C47.3786 126.321 47.3113 126.479 47.3084 126.645C47.3054 126.811 47.3671 126.972 47.4803 127.093L49.4034 129.016C49.4692 129.082 49.5485 129.133 49.6358 129.165C49.7232 129.197 49.8165 129.21 49.9092 129.202C50.0019 129.194 50.0918 129.166 50.1727 129.121C50.2536 129.075 50.3236 129.012 50.3777 128.936L53.5829 124.449Z" fill="#29CC6A"/>
<defs>
<filter id="filter0_dd_4562_23524" x="-4" y="52" width="72" height="72" filterUnits="userSpaceOnUse" color-interpolation-filters="sRGB">
<feFlood flood-opacity="0" result="BackgroundImageFix"/>
<feColorMatrix in="SourceAlpha" type="matrix" values="0 0 0 0 0 0 0 0 0 0 0 0 0 0 0 0 0 0 127 0" result="hardAlpha"/>
<feOffset dy="4"/>
<feGaussianBlur stdDeviation="4"/>
<feColorMatrix type="matrix" values="0 0 0 0 0.0562384 0 0 0 0 0.121895 0 0 0 0 0.209437 0 0 0 0.08 0"/>
<feBlend mode="normal" in2="BackgroundImageFix" result="effect1_dropShadow_4562_23524"/>
<feColorMatrix in="SourceAlpha" type="matrix" values="0 0 0 0 0 0 0 0 0 0 0 0 0 0 0 0 0 0 127 0" result="hardAlpha"/>
<feOffset dy="1"/>
<feGaussianBlur stdDeviation="2"/>
<feColorMatrix type="matrix" values="0 0 0 0 0.0562384 0 0 0 0 0.121895 0 0 0 0 0.209437 0 0 0 0.12 0"/>
<feBlend mode="normal" in2="effect1_dropShadow_4562_23524" result="effect2_dropShadow_4562_23524"/>
<feBlend mode="normal" in="SourceGraphic" in2="effect2_dropShadow_4562_23524" result="shape"/>
</filter>
<filter id="filter1_dd_4562_23524" x="-4" y="108" width="72" height="72" filterUnits="userSpaceOnUse" color-interpolation-filters="sRGB">
<feFlood flood-opacity="0" result="BackgroundImageFix"/>
<feColorMatrix in="SourceAlpha" type="matrix" values="0 0 0 0 0 0 0 0 0 0 0 0 0 0 0 0 0 0 127 0" result="hardAlpha"/>
<feOffset dy="4"/>
<feGaussianBlur stdDeviation="4"/>
<feColorMatrix type="matrix" values="0 0 0 0 0.0562384 0 0 0 0 0.121895 0 0 0 0 0.209437 0 0 0 0.08 0"/>
<feBlend mode="normal" in2="BackgroundImageFix" result="effect1_dropShadow_4562_23524"/>
<feColorMatrix in="SourceAlpha" type="matrix" values="0 0 0 0 0 0 0 0 0 0 0 0 0 0 0 0 0 0 127 0" result="hardAlpha"/>
<feOffset dy="1"/>
<feGaussianBlur stdDeviation="2"/>
<feColorMatrix type="matrix" values="0 0 0 0 0.0562384 0 0 0 0 0.121895 0 0 0 0 0.209437 0 0 0 0.12 0"/>
<feBlend mode="normal" in2="effect1_dropShadow_4562_23524" result="effect2_dropShadow_4562_23524"/>
<feBlend mode="normal" in="SourceGraphic" in2="effect2_dropShadow_4562_23524" result="shape"/>
</filter>
</defs>
</svg>
