<svg width="24" height="48" viewBox="0 0 24 48" fill="none" xmlns="http://www.w3.org/2000/svg">
<path d="M12.6344 9.49981H18.4151V8.76732C18.4152 8.59402 18.3906 8.42154 18.3419 8.25484L18.3406 8.24984C18.2503 7.94469 18.0819 7.66685 17.8512 7.44236L12.822 2.54874C12.4608 2.19747 11.971 2.00011 11.4603 2H5.56918C4.88779 2 4.23431 2.26339 3.7525 2.73221C3.27068 3.20104 3 3.83691 3 4.49994V19.4995C3 20.1626 3.27068 20.7984 3.7525 21.2673C4.23431 21.7361 4.88779 21.9995 5.56918 21.9995H8.42226L8.40556 21.967C8.2055 21.5921 8.11444 21.1711 8.14222 20.7495H5.56918C5.22849 20.7495 4.90175 20.6178 4.66084 20.3834C4.41993 20.149 4.28459 19.8311 4.28459 19.4995V4.49994C4.28459 4.16842 4.41993 3.85049 4.66084 3.61607C4.90175 3.38166 5.22849 3.24997 5.56918 3.24997H10.7075V7.62485C10.7075 8.12212 10.9106 8.59902 11.2719 8.95065C11.6333 9.30227 12.1234 9.49981 12.6344 9.49981ZM12.6344 8.24984C12.4641 8.24984 12.3007 8.18399 12.1803 8.06678C12.0598 7.94958 11.9921 7.79061 11.9921 7.62485V3.50871L16.8646 8.24984H12.6344ZM16.8864 11.4348C17.1089 11.215 17.3739 11.0402 17.6661 10.9206C17.9583 10.8009 18.2719 10.7388 18.589 10.7376C18.906 10.7365 19.2201 10.7964 19.5132 10.914C19.8063 11.0315 20.0726 11.2044 20.2967 11.4225C20.5209 11.6407 20.6984 11.8999 20.8191 12.1851C20.9398 12.4704 21.0013 12.7761 21 13.0845C20.9987 13.393 20.9347 13.6982 20.8116 13.9825C20.6885 14.2668 20.5088 14.5245 20.2829 14.7409L14.0783 20.777C13.7169 21.1289 13.264 21.3786 12.768 21.4995L10.8437 21.967C10.6524 22.0134 10.4519 22.0108 10.2619 21.9596C10.0719 21.9083 9.8987 21.8101 9.7592 21.6745C9.6197 21.5389 9.51862 21.3705 9.46578 21.1856C9.41293 21.0008 9.41013 20.8057 9.45764 20.6195L9.93936 18.7471C10.0626 18.2641 10.3194 17.8231 10.6819 17.4721L16.8864 11.4348Z" fill="#595959"/>
<rect x="6" y="11" width="7" height="1" rx="0.5" fill="#595959"/>
<rect x="6" y="13" width="4" height="1" rx="0.5" fill="#595959"/>
<path d="M12.6344 33.4998H18.4151V32.7673C18.4152 32.594 18.3906 32.4215 18.3419 32.2548L18.3406 32.2498C18.2503 31.9447 18.0819 31.6669 17.8512 31.4424L12.822 26.5487C12.4608 26.1975 11.971 26.0001 11.4603 26H5.56918C4.88779 26 4.23431 26.2634 3.7525 26.7322C3.27068 27.201 3 27.8369 3 28.4999V43.4995C3 44.1626 3.27068 44.7984 3.7525 45.2673C4.23431 45.7361 4.88779 45.9995 5.56918 45.9995H8.42226L8.40556 45.967C8.2055 45.5921 8.11444 45.1711 8.14222 44.7495H5.56918C5.22849 44.7495 4.90175 44.6178 4.66084 44.3834C4.41993 44.149 4.28459 43.8311 4.28459 43.4995V28.4999C4.28459 28.1684 4.41993 27.8505 4.66084 27.6161C4.90175 27.3817 5.22849 27.25 5.56918 27.25H10.7075V31.6249C10.7075 32.1221 10.9106 32.599 11.2719 32.9506C11.6333 33.3023 12.1234 33.4998 12.6344 33.4998ZM12.6344 32.2498C12.4641 32.2498 12.3007 32.184 12.1803 32.0668C12.0598 31.9496 11.9921 31.7906 11.9921 31.6249V27.5087L16.8646 32.2498H12.6344ZM16.8864 35.4348C17.1089 35.215 17.3739 35.0402 17.6661 34.9206C17.9583 34.8009 18.2719 34.7388 18.589 34.7376C18.906 34.7365 19.2201 34.7964 19.5132 34.914C19.8063 35.0315 20.0726 35.2044 20.2967 35.4225C20.5209 35.6407 20.6984 35.8999 20.8191 36.1851C20.9398 36.4704 21.0013 36.7761 21 37.0845C20.9987 37.393 20.9347 37.6982 20.8116 37.9825C20.6885 38.2668 20.5088 38.5245 20.2829 38.7409L14.0783 44.777C13.7169 45.1289 13.264 45.3786 12.768 45.4995L10.8437 45.967C10.6524 46.0134 10.4519 46.0108 10.2619 45.9596C10.0719 45.9083 9.8987 45.8101 9.7592 45.6745C9.6197 45.5389 9.51862 45.3705 9.46578 45.1856C9.41293 45.0008 9.41013 44.8057 9.45764 44.6195L9.93936 42.7471C10.0626 42.2641 10.3194 41.8231 10.6819 41.4721L16.8864 35.4348Z" fill="#FAFAFA"/>
<rect x="6" y="35" width="7" height="1" rx="0.5" fill="#FAFAFA"/>
<rect x="6" y="37" width="4" height="1" rx="0.5" fill="#FAFAFA"/>
</svg>
