<svg width="20" height="20" viewBox="0 0 20 20" fill="none" xmlns="http://www.w3.org/2000/svg">
<g id="Icons / Navigation / search">
<path id="Vector" fill-rule="evenodd" clip-rule="evenodd" d="M8.75 3.12507C8.01131 3.12507 7.27986 3.27057 6.59741 3.55325C5.91495 3.83593 5.29485 4.25027 4.77252 4.77259C4.25019 5.29492 3.83586 5.91502 3.55318 6.59748C3.27049 7.27993 3.125 8.01139 3.125 8.75007C3.125 9.48876 3.27049 10.2202 3.55318 10.9027C3.83586 11.5851 4.25019 12.2052 4.77252 12.7275C5.29485 13.2499 5.91495 13.6642 6.59741 13.9469C7.27986 14.2296 8.01131 14.3751 8.75 14.3751C10.2418 14.3751 11.6726 13.7824 12.7275 12.7275C13.7824 11.6727 14.375 10.2419 14.375 8.75007C14.375 7.25823 13.7824 5.82749 12.7275 4.77259C11.6726 3.7177 10.2418 3.12507 8.75 3.12507V3.12507ZM1.875 8.75007C1.87515 7.64598 2.1412 6.55817 2.65066 5.57865C3.16012 4.59913 3.89799 3.75672 4.80186 3.12267C5.70574 2.48862 6.74902 2.08159 7.84347 1.93601C8.93791 1.79042 10.0513 1.91057 11.0895 2.28628C12.1277 2.662 13.0601 3.28223 13.808 4.0945C14.5558 4.90678 15.0969 5.88722 15.3857 6.95287C15.6745 8.01853 15.7023 9.13805 15.4669 10.2168C15.2315 11.2955 14.7398 12.3016 14.0333 13.1501L17.9417 17.0584C18.0031 17.1156 18.0523 17.1846 18.0865 17.2613C18.1206 17.338 18.139 17.4207 18.1405 17.5046C18.142 17.5886 18.1265 17.6719 18.0951 17.7497C18.0637 17.8276 18.0169 17.8983 17.9575 17.9576C17.8982 18.017 17.8275 18.0637 17.7497 18.0952C17.6718 18.1266 17.5885 18.142 17.5046 18.1406C17.4206 18.1391 17.3379 18.1207 17.2612 18.0866C17.1846 18.0524 17.1156 18.0031 17.0583 17.9417L13.15 14.0334C12.146 14.8696 10.9245 15.4025 9.6286 15.5695C8.33268 15.7364 7.01602 15.5307 5.83284 14.9762C4.64967 14.4218 3.64899 13.5417 2.94803 12.439C2.24707 11.3363 1.87486 10.0567 1.875 8.75007V8.75007Z" fill="#595959"/>
</g>
</svg>
