<svg width="24" height="48" viewBox="0 0 24 48" fill="none" xmlns="http://www.w3.org/2000/svg">
<path d="M14.857 17.082C16.7202 16.8614 18.5509 16.4217 20.311 15.772C18.8204 14.1208 17.9967 11.9745 18 9.75V9C18 7.4087 17.3678 5.88258 16.2426 4.75736C15.1174 3.63214 13.5913 3 12 3C10.4087 3 8.88257 3.63214 7.75735 4.75736C6.63213 5.88258 5.99999 7.4087 5.99999 9V9.75C6.00301 11.9746 5.17898 14.121 3.68799 15.772C5.42099 16.412 7.24799 16.857 9.14299 17.082M14.857 17.082C12.959 17.3071 11.041 17.3071 9.14299 17.082M14.857 17.082C15.0011 17.5319 15.0369 18.0094 14.9616 18.4757C14.8862 18.942 14.7018 19.384 14.4234 19.7656C14.1449 20.1472 13.7803 20.4576 13.3592 20.6716C12.9381 20.8856 12.4724 20.9972 12 20.9972C11.5276 20.9972 11.0619 20.8856 10.6408 20.6716C10.2197 20.4576 9.85506 20.1472 9.57661 19.7656C9.29816 19.384 9.11375 18.942 9.0384 18.4757C8.96305 18.0094 8.99889 17.5319 9.14299 17.082" stroke="#8C8C8C" stroke-width="1.5" stroke-linecap="round" stroke-linejoin="round"/>
<path d="M14.857 41.082C16.7202 40.8614 18.5509 40.4217 20.311 39.772C18.8204 38.1208 17.9967 35.9745 18 33.75V33C18 31.4087 17.3678 29.8826 16.2426 28.7574C15.1174 27.6321 13.5913 27 12 27C10.4087 27 8.88257 27.6321 7.75735 28.7574C6.63213 29.8826 5.99999 31.4087 5.99999 33V33.75C6.00301 35.9746 5.17898 38.121 3.68799 39.772C5.42099 40.412 7.24799 40.857 9.14299 41.082M14.857 41.082C12.959 41.3071 11.041 41.3071 9.14299 41.082M14.857 41.082C15.0011 41.5319 15.0369 42.0094 14.9616 42.4757C14.8862 42.942 14.7018 43.384 14.4234 43.7656C14.1449 44.1472 13.7803 44.4576 13.3592 44.6716C12.9381 44.8856 12.4724 44.9972 12 44.9972C11.5276 44.9972 11.0619 44.8856 10.6408 44.6716C10.2197 44.4576 9.85506 44.1472 9.57661 43.7656C9.29816 43.384 9.11375 42.942 9.0384 42.4757C8.96305 42.0094 8.99889 41.5319 9.14299 41.082" stroke="white" stroke-width="1.5" stroke-linecap="round" stroke-linejoin="round"/>
</svg>
