<svg width="20" height="100" viewBox="0 0 20 100" fill="none" xmlns="http://www.w3.org/2000/svg">
<path d="M3.125 97.5H16.875M3.75 82.5H16.25M4.375 82.5V97.5M15.625 82.5V97.5M7.5 85.625H8.75M7.5 88.125H8.75M7.5 90.625H8.75M11.25 85.625H12.5M11.25 88.125H12.5M11.25 90.625H12.5M7.5 97.5V94.6875C7.5 94.17 7.92 93.75 8.4375 93.75H11.5625C12.08 93.75 12.5 94.17 12.5 94.6875V97.5" stroke="#BFBFBF" stroke-width="1.5" stroke-linecap="round" stroke-linejoin="round"/>
<path fill-rule="evenodd" clip-rule="evenodd" d="M9.99163 61.6667C5.39163 61.6667 1.66663 65.4001 1.66663 70.0001C1.66663 74.6001 5.39163 78.3334 9.99163 78.3334C14.6 78.3334 18.3333 74.6001 18.3333 70.0001C18.3333 65.4001 14.6 61.6667 9.99163 61.6667ZM9.99996 76.6667C6.31663 76.6667 3.33329 73.6834 3.33329 70.0001C3.33329 66.3167 6.31663 63.3334 9.99996 63.3334C13.6833 63.3334 16.6666 66.3167 16.6666 70.0001C16.6666 73.6834 13.6833 76.6667 9.99996 76.6667ZM9.16663 70.8917L13.7416 73.6334L14.5916 72.2001L10.8333 69.9417V65.3501H9.16663V70.8917Z" fill="#BFBFBF"/>
<path d="M18.125 45.625V54.375C18.125 54.8723 17.9275 55.3492 17.5758 55.7008C17.2242 56.0525 16.7473 56.25 16.25 56.25H3.75C3.25272 56.25 2.77581 56.0525 2.42417 55.7008C2.07254 55.3492 1.875 54.8723 1.875 54.375V45.625M18.125 45.625C18.125 45.1277 17.9275 44.6508 17.5758 44.2992C17.2242 43.9475 16.7473 43.75 16.25 43.75H3.75C3.25272 43.75 2.77581 43.9475 2.42417 44.2992C2.07254 44.6508 1.875 45.1277 1.875 45.625M18.125 45.625V45.8275C18.125 46.1476 18.0431 46.4624 17.887 46.7419C17.7309 47.0214 17.5059 47.2563 17.2333 47.4242L10.9833 51.27C10.6877 51.4521 10.3472 51.5485 10 51.5485C9.65275 51.5485 9.31233 51.4521 9.01667 51.27L2.76667 47.425C2.4941 47.2571 2.26906 47.0222 2.11297 46.7427C1.95689 46.4633 1.87496 46.1485 1.875 45.8283V45.625" stroke="#BFBFBF" stroke-width="1.5" stroke-linecap="round" stroke-linejoin="round"/>
<path d="M1.875 25.625C1.875 32.5283 7.47167 38.125 14.375 38.125H16.25C16.7473 38.125 17.2242 37.9275 17.5758 37.5758C17.9275 37.2242 18.125 36.7473 18.125 36.25V35.1067C18.125 34.6767 17.8325 34.3017 17.415 34.1975L13.7292 33.2758C13.3625 33.1842 12.9775 33.3217 12.7517 33.6233L11.9433 34.7008C11.7083 35.0142 11.3025 35.1525 10.935 35.0175C9.57073 34.5159 8.33179 33.7238 7.30398 32.696C6.27618 31.6682 5.48406 30.4293 4.9825 29.065C4.8475 28.6975 4.98583 28.2917 5.29917 28.0567L6.37667 27.2483C6.67917 27.0225 6.81583 26.6367 6.72417 26.2708L5.8025 22.585C5.75178 22.3822 5.63477 22.2023 5.47004 22.0736C5.30532 21.945 5.10234 21.8751 4.89333 21.875H3.75C3.25272 21.875 2.77581 22.0725 2.42417 22.4242C2.07254 22.7758 1.875 23.2527 1.875 23.75V25.625Z" stroke="#BFBFBF" stroke-width="1.5" stroke-linecap="round" stroke-linejoin="round"/>
<path d="M12.5 8.75C12.5 9.41304 12.2366 10.0489 11.7678 10.5178C11.2989 10.9866 10.663 11.25 10 11.25C9.33696 11.25 8.70107 10.9866 8.23223 10.5178C7.76339 10.0489 7.5 9.41304 7.5 8.75C7.5 8.08696 7.76339 7.45107 8.23223 6.98223C8.70107 6.51339 9.33696 6.25 10 6.25C10.663 6.25 11.2989 6.51339 11.7678 6.98223C12.2366 7.45107 12.5 8.08696 12.5 8.75Z" stroke="#BFBFBF" stroke-width="1.5" stroke-linecap="round" stroke-linejoin="round"/>
<path d="M16.25 8.75C16.25 14.7017 10 18.125 10 18.125C10 18.125 3.75 14.7017 3.75 8.75C3.75 7.0924 4.40848 5.50268 5.58058 4.33058C6.75268 3.15848 8.3424 2.5 10 2.5C11.6576 2.5 13.2473 3.15848 14.4194 4.33058C15.5915 5.50268 16.25 7.0924 16.25 8.75Z" stroke="#BFBFBF" stroke-width="1.5" stroke-linecap="round" stroke-linejoin="round"/>
</svg>
