<svg width="56" height="56" viewBox="0 0 56 56" fill="none" xmlns="http://www.w3.org/2000/svg">
<g id="Icons / Alert / danger_info_solid">
<path id="Vector" fill-rule="evenodd" clip-rule="evenodd" d="M5.25 28C5.25 15.435 15.435 5.25 28 5.25C40.565 5.25 50.75 15.435 50.75 28C50.75 40.565 40.565 50.75 28 50.75C15.435 50.75 5.25 40.565 5.25 28ZM28 19.25C28.4641 19.25 28.9092 19.4344 29.2374 19.7626C29.5656 20.0908 29.75 20.5359 29.75 21V29.75C29.75 30.2141 29.5656 30.6592 29.2374 30.9874C28.9092 31.3156 28.4641 31.5 28 31.5C27.5359 31.5 27.0908 31.3156 26.7626 30.9874C26.4344 30.6592 26.25 30.2141 26.25 29.75V21C26.25 20.5359 26.4344 20.0908 26.7626 19.7626C27.0908 19.4344 27.5359 19.25 28 19.25ZM28 38.5C28.4641 38.5 28.9092 38.3156 29.2374 37.9874C29.5656 37.6592 29.75 37.2141 29.75 36.75C29.75 36.2859 29.5656 35.8408 29.2374 35.5126C28.9092 35.1844 28.4641 35 28 35C27.5359 35 27.0908 35.1844 26.7626 35.5126C26.4344 35.8408 26.25 36.2859 26.25 36.75C26.25 37.2141 26.4344 37.6592 26.7626 37.9874C27.0908 38.3156 27.5359 38.5 28 38.5Z" fill="#D9D9D9"/>
</g>
</svg>
