<svg width="56" height="168" viewBox="0 0 56 168" fill="none" xmlns="http://www.w3.org/2000/svg">
<path fill-rule="evenodd" clip-rule="evenodd" d="M5.25 140C5.25 127.435 15.435 117.25 28 117.25C40.565 117.25 50.75 127.435 50.75 140C50.75 152.565 40.565 162.75 28 162.75C15.435 162.75 5.25 152.565 5.25 140ZM28 131.25C28.4641 131.25 28.9092 131.434 29.2374 131.763C29.5656 132.091 29.75 132.536 29.75 133V141.75C29.75 142.214 29.5656 142.659 29.2374 142.987C28.9092 143.316 28.4641 143.5 28 143.5C27.5359 143.5 27.0908 143.316 26.7626 142.987C26.4344 142.659 26.25 142.214 26.25 141.75V133C26.25 132.536 26.4344 132.091 26.7626 131.763C27.0908 131.434 27.5359 131.25 28 131.25ZM28 150.5C28.4641 150.5 28.9092 150.316 29.2374 149.987C29.5656 149.659 29.75 149.214 29.75 148.75C29.75 148.286 29.5656 147.841 29.2374 147.513C28.9092 147.184 28.4641 147 28 147C27.5359 147 27.0908 147.184 26.7626 147.513C26.4344 147.841 26.25 148.286 26.25 148.75C26.25 149.214 26.4344 149.659 26.7626 149.987C27.0908 150.316 27.5359 150.5 28 150.5Z" fill="#F90000"/>
<path fill-rule="evenodd" clip-rule="evenodd" d="M4.66699 28C4.66699 15.1128 15.1131 4.66663 28.0003 4.66663C40.8875 4.66663 51.3337 15.1128 51.3337 28C51.3337 40.8871 40.8875 51.3333 28.0003 51.3333C15.1131 51.3333 4.66699 40.8871 4.66699 28ZM36.6396 23.6588C36.7832 23.4674 36.8871 23.2493 36.9452 23.0173C37.0033 22.7852 37.0144 22.5439 36.9779 22.3075C36.9414 22.0711 36.858 21.8443 36.7326 21.6406C36.6072 21.4369 36.4424 21.2603 36.2478 21.1212C36.0532 20.9821 35.8327 20.8833 35.5994 20.8306C35.366 20.7779 35.1245 20.7724 34.889 20.8144C34.6535 20.8564 34.4288 20.945 34.228 21.0751C34.0272 21.2052 33.8545 21.3741 33.72 21.5719L25.9757 32.4129L22.0892 28.5265C21.749 28.2094 21.2989 28.0368 20.8339 28.045C20.369 28.0532 19.9253 28.2416 19.5964 28.5704C19.2676 28.8993 19.0792 29.3429 19.071 29.8079C19.0628 30.2729 19.2354 30.723 19.5525 31.0632L24.9371 36.4478C25.1213 36.6319 25.3434 36.7737 25.588 36.8634C25.8325 36.953 26.0937 36.9884 26.3533 36.967C26.6128 36.9456 26.8647 36.8679 27.0912 36.7394C27.3178 36.6109 27.5137 36.4347 27.6653 36.2229L36.6396 23.6588Z" fill="#29CC6A"/>
<path fill-rule="evenodd" clip-rule="evenodd" d="M21.9359 63.007C24.6309 58.3403 31.3696 58.3403 34.0623 63.007L51.2239 92.7523C53.9166 97.419 50.5473 103.252 45.1596 103.252H10.8386C5.45092 103.252 2.08392 97.419 4.77659 92.7523L21.9336 63.007H21.9359ZM28.0003 75.25C28.4644 75.25 28.9095 75.4343 29.2377 75.7625C29.5659 76.0907 29.7503 76.5358 29.7503 77V85.75C29.7503 86.2141 29.5659 86.6592 29.2377 86.9874C28.9095 87.3156 28.4644 87.5 28.0003 87.5C27.5361 87.5 27.091 87.3156 26.7628 86.9874C26.4346 86.6592 26.2503 86.2141 26.2503 85.75V77C26.2503 76.5358 26.4346 76.0907 26.7628 75.7625C27.091 75.4343 27.5361 75.25 28.0003 75.25ZM28.0003 94.5C28.4644 94.5 28.9095 94.3156 29.2377 93.9874C29.5659 93.6592 29.7503 93.2141 29.7503 92.75C29.7503 92.2858 29.5659 91.8407 29.2377 91.5125C28.9095 91.1843 28.4644 91 28.0003 91C27.5361 91 27.091 91.1843 26.7628 91.5125C26.4346 91.8407 26.2503 92.2858 26.2503 92.75C26.2503 93.2141 26.4346 93.6592 26.7628 93.9874C27.091 94.3156 27.5361 94.5 28.0003 94.5Z" fill="#F0D500"/>
</svg>
