<svg width="24" height="24" viewBox="0 0 24 24" fill="none" xmlns="http://www.w3.org/2000/svg">
<g id="Icons / Navigation / close">
<path id="Vector" fill-rule="evenodd" clip-rule="evenodd" d="M5.47001 5.47015C5.61064 5.3297 5.80126 5.25081 6.00001 5.25081C6.19876 5.25081 6.38939 5.3297 6.53001 5.47015L12 10.9402L17.47 5.47015C17.5387 5.39647 17.6215 5.33736 17.7135 5.29637C17.8055 5.25538 17.9048 5.23334 18.0055 5.23156C18.1062 5.22979 18.2062 5.24831 18.2996 5.28603C18.393 5.32375 18.4778 5.3799 18.549 5.45112C18.6203 5.52233 18.6764 5.60717 18.7141 5.70056C18.7519 5.79394 18.7704 5.89397 18.7686 5.99468C18.7668 6.09538 18.7448 6.19469 18.7038 6.28669C18.6628 6.37869 18.6037 6.46149 18.53 6.53015L13.06 12.0002L18.53 17.4702C18.6037 17.5388 18.6628 17.6216 18.7038 17.7136C18.7448 17.8056 18.7668 17.9049 18.7686 18.0056C18.7704 18.1063 18.7519 18.2064 18.7141 18.2998C18.6764 18.3931 18.6203 18.478 18.549 18.5492C18.4778 18.6204 18.393 18.6766 18.2996 18.7143C18.2062 18.752 18.1062 18.7705 18.0055 18.7687C17.9048 18.767 17.8055 18.7449 17.7135 18.7039C17.6215 18.6629 17.5387 18.6038 17.47 18.5302L12 13.0602L6.53001 18.5302C6.38784 18.6626 6.19979 18.7348 6.00549 18.7313C5.81119 18.7279 5.6258 18.6492 5.48839 18.5118C5.35098 18.3744 5.27226 18.189 5.26884 17.9947C5.26541 17.8004 5.33753 17.6123 5.47001 17.4702L10.94 12.0002L5.47001 6.53015C5.32956 6.38953 5.25067 6.1989 5.25067 6.00015C5.25067 5.8014 5.32956 5.61078 5.47001 5.47015Z" fill="black"/>
</g>
</svg>
