<svg width="24" height="48" viewBox="0 0 24 48" fill="none" xmlns="http://www.w3.org/2000/svg">
<path d="M21.75 6.75V17.25C21.75 17.8467 21.5129 18.419 21.091 18.841C20.669 19.2629 20.0967 19.5 19.5 19.5H4.5C3.90326 19.5 3.33097 19.2629 2.90901 18.841C2.48705 18.419 2.25 17.8467 2.25 17.25V6.75M21.75 6.75C21.75 6.15326 21.5129 5.58097 21.091 5.15901C20.669 4.73705 20.0967 4.5 19.5 4.5H4.5C3.90326 4.5 3.33097 4.73705 2.90901 5.15901C2.48705 5.58097 2.25 6.15326 2.25 6.75M21.75 6.75V6.993C21.75 7.37715 21.6517 7.75491 21.4644 8.0903C21.2771 8.42569 21.0071 8.70754 20.68 8.909L13.18 13.524C12.8252 13.7425 12.4167 13.8582 12 13.8582C11.5833 13.8582 11.1748 13.7425 10.82 13.524L3.32 8.91C2.99292 8.70854 2.72287 8.42669 2.53557 8.0913C2.34827 7.75591 2.24996 7.37815 2.25 6.994V6.75" stroke="#595959" stroke-width="1.5" stroke-linecap="round" stroke-linejoin="round"/>
<path d="M21.75 30.75V41.25C21.75 41.8467 21.5129 42.419 21.091 42.841C20.669 43.2629 20.0967 43.5 19.5 43.5H4.5C3.90326 43.5 3.33097 43.2629 2.90901 42.841C2.48705 42.419 2.25 41.8467 2.25 41.25V30.75M21.75 30.75C21.75 30.1533 21.5129 29.581 21.091 29.159C20.669 28.7371 20.0967 28.5 19.5 28.5H4.5C3.90326 28.5 3.33097 28.7371 2.90901 29.159C2.48705 29.581 2.25 30.1533 2.25 30.75M21.75 30.75V30.993C21.75 31.3771 21.6517 31.7549 21.4644 32.0903C21.2771 32.4257 21.0071 32.7075 20.68 32.909L13.18 37.524C12.8252 37.7425 12.4167 37.8582 12 37.8582C11.5833 37.8582 11.1748 37.7425 10.82 37.524L3.32 32.91C2.99292 32.7085 2.72287 32.4267 2.53557 32.0913C2.34827 31.7559 2.24996 31.3781 2.25 30.994V30.75" stroke="#FAFAFA" stroke-width="1.5" stroke-linecap="round" stroke-linejoin="round"/>
</svg>
