<svg width="20" height="20" viewBox="0 0 20 20" fill="none" xmlns="http://www.w3.org/2000/svg">
<path d="M6.64759 12.21L2.48759 12.21L5.13843 14.8625C5.99186 15.7159 7.05492 16.3297 8.22075 16.642C9.38658 16.9543 10.6141 16.9542 11.7799 16.6417C12.9457 16.3292 14.0086 15.7153 14.8619 14.8618C15.7152 14.0082 16.3288 12.945 16.6409 11.7792M17.5126 3.62999L17.5126 7.78999M17.5126 7.78999L13.3526 7.78999M17.5126 7.78999L14.8626 5.13749C14.0092 4.28405 12.9461 3.67032 11.7803 3.35799C10.6144 3.04567 9.38693 3.04576 8.22115 3.35826C7.05537 3.67075 5.9924 4.28464 5.13909 5.13821C4.28579 5.99178 3.67223 7.05494 3.36009 8.22082M2.48759 16.37L2.48759 12.2117" stroke="#6A27D8" stroke-width="1.5" stroke-linecap="round" stroke-linejoin="round"/>
</svg>
