<svg width="20" height="40" viewBox="0 0 20 40" fill="none" xmlns="http://www.w3.org/2000/svg">
<path d="M5.3575 8.125L1.875 10L5.3575 11.875M5.3575 8.125L10 10.625L14.6425 8.125M5.3575 8.125L1.875 6.25L10 1.875L18.125 6.25L14.6425 8.125M5.3575 11.875L1.875 13.75L10 18.125L18.125 13.75L14.6425 11.875M5.3575 11.875L10 14.375L14.6425 11.875M14.6425 8.125L18.125 10L14.6425 11.875" stroke="#BFBFBF" stroke-width="1.5" stroke-linecap="round" stroke-linejoin="round"/>
<g clip-path="url(#clip0_1571_22719)">
<path d="M15.5501 26.9051L15.8567 26.5984C16.1417 26.3126 16.2851 26.1701 16.3709 26.0217C16.4851 25.8239 16.5453 25.5994 16.5453 25.3709C16.5453 25.1424 16.4851 24.918 16.3709 24.7201C16.2851 24.5717 16.1417 24.4284 15.8567 24.1434C15.5717 23.8584 15.4284 23.7151 15.2801 23.6301C15.0822 23.5158 14.8577 23.4557 14.6292 23.4557C14.4007 23.4557 14.1763 23.5158 13.9784 23.6301C13.8301 23.7151 13.6867 23.8584 13.4017 24.1434L13.0951 24.4501M9.41256 33.0417L4.81006 37.6451C4.52423 37.9309 4.38173 38.0734 4.23339 38.1592C4.03552 38.2735 3.81105 38.3336 3.58256 38.3336C3.35407 38.3336 3.12961 38.2735 2.93173 38.1592C2.78256 38.0734 2.64006 37.9309 2.35506 37.6451C2.06923 37.3601 1.92673 37.2167 1.84089 37.0684C1.72665 36.8705 1.6665 36.6461 1.6665 36.4176C1.6665 36.1891 1.72665 35.9646 1.84089 35.7667C1.92673 35.6184 2.06923 35.4751 2.35506 35.1901L6.95756 30.5876M6.34423 29.9734L10.0267 33.6567C11.4726 35.1026 12.1959 35.8259 13.0951 35.8259C13.9934 35.8259 14.7167 35.1026 16.1634 33.6559C17.6101 32.2092 18.3334 31.4859 18.3334 30.5876C18.3334 29.6884 17.6101 28.9651 16.1634 27.5192L12.4809 23.8359C11.0351 22.3909 10.3117 21.6667 9.41256 21.6667C8.51423 21.6667 7.79089 22.3901 6.34423 23.8367C4.89756 25.2834 4.17423 26.0067 4.17423 26.9051C4.17423 27.8042 4.89756 28.5276 6.34423 29.9734Z" stroke="#BFBFBF" stroke-width="1.5"/>
</g>
<defs>
<clipPath id="clip0_1571_22719">
<rect width="20" height="20" fill="white" transform="translate(0 20)"/>
</clipPath>
</defs>
</svg>
