<svg width="20" height="20" viewBox="0 0 20 20" fill="none" xmlns="http://www.w3.org/2000/svg">
<mask id="mask0_869_6646" style="mask-type:alpha" maskUnits="userSpaceOnUse" x="0" y="0" width="20" height="20">
<path d="M0 0H20V20H0V0Z" fill="#AB6262"/>
</mask>
<g mask="url(#mask0_869_6646)">
</g>
<path d="M6.0625 3.25V4.9375M13.9375 3.25V4.9375M3.25 15.0625V6.625C3.25 6.17745 3.42779 5.74823 3.74426 5.43176C4.06072 5.11529 4.48995 4.9375 4.9375 4.9375H15.0625C15.5101 4.9375 15.9393 5.11529 16.2557 5.43176C16.5722 5.74823 16.75 6.17745 16.75 6.625V15.0625M3.25 15.0625C3.25 15.5101 3.42779 15.9393 3.74426 16.2557C4.06072 16.5722 4.48995 16.75 4.9375 16.75H15.0625C15.5101 16.75 15.9393 16.5722 16.2557 16.2557C16.5722 15.9393 16.75 15.5101 16.75 15.0625M3.25 15.0625V9.4375C3.25 8.98995 3.42779 8.56073 3.74426 8.24426C4.06072 7.92779 4.48995 7.75 4.9375 7.75H15.0625C15.5101 7.75 15.9393 7.92779 16.2557 8.24426C16.5722 8.56073 16.75 8.98995 16.75 9.4375V15.0625M10 10.5625H10.006V10.5685H10V10.5625ZM10 12.25H10.006V12.256H10V12.25ZM10 13.9375H10.006V13.9435H10V13.9375ZM8.3125 12.25H8.3185V12.256H8.3125V12.25ZM8.3125 13.9375H8.3185V13.9435H8.3125V13.9375ZM6.625 12.25H6.631V12.256H6.625V12.25ZM6.625 13.9375H6.631V13.9435H6.625V13.9375ZM11.6875 10.5625H11.6935V10.5685H11.6875V10.5625ZM11.6875 12.25H11.6935V12.256H11.6875V12.25ZM11.6875 13.9375H11.6935V13.9435H11.6875V13.9375ZM13.375 10.5625H13.381V10.5685H13.375V10.5625ZM13.375 12.25H13.381V12.256H13.375V12.25Z" stroke="#BFBFBF" stroke-width="1.2" stroke-linecap="round" stroke-linejoin="round"/>
</svg>
