<svg width="320" height="260" viewBox="0 0 320 260" fill="none" xmlns="http://www.w3.org/2000/svg">
<path d="M235.694 4.65283H213.004C212.295 4.65283 211.719 5.23988 211.719 5.96405V41.7493C211.719 42.4735 212.295 43.0605 213.004 43.0605H241.223C241.932 43.0605 242.508 42.4735 242.508 41.7493V11.6591L235.694 4.65283Z" fill="#4E5C93"/>
<path d="M235.694 4.59814L235.705 10.3506C235.705 11.0747 236.28 11.6618 236.99 11.6618H242.508" fill="#E4EBF7"/>
<path d="M225.415 8.15918H202.777C202.068 8.15918 201.492 8.74623 201.492 9.4704V45.2557C201.492 45.9798 202.068 46.5669 202.777 46.5669H231.049C231.759 46.5669 232.334 45.9798 232.334 45.2557V15.8205H227.396C226.686 15.8205 225.415 15.2337 225.415 14.5093V8.15918Z" fill="#E4EBF7"/>
<path d="M210.838 11.6519H205.746C205.26 11.6519 204.865 12.0557 204.865 12.5539V17.743C204.865 18.2412 205.26 18.645 205.746 18.645H210.838C211.324 18.645 211.719 18.2412 211.719 17.743V12.5539C211.719 12.0557 211.324 11.6519 210.838 11.6519Z" fill="#A3B5D6"/>
<path d="M228.534 22.1416H205.185C205.008 22.1416 204.865 22.2882 204.865 22.4691V23.5623C204.865 23.7432 205.008 23.8899 205.185 23.8899H228.534C228.71 23.8899 228.853 23.7432 228.853 23.5623V22.4691C228.853 22.2882 228.71 22.1416 228.534 22.1416Z" fill="#A3B5D6"/>
<path d="M228.53 27.3896H205.181C205.005 27.3896 204.861 27.5363 204.861 27.7172V28.8104C204.861 28.9913 205.005 29.1379 205.181 29.1379H228.53C228.706 29.1379 228.85 28.9913 228.85 28.8104V27.7172C228.85 27.5363 228.706 27.3896 228.53 27.3896Z" fill="#A3B5D6"/>
<path d="M228.578 32.6348H205.23C205.053 32.6348 204.91 32.7814 204.91 32.9623V34.0555C204.91 34.2364 205.053 34.3831 205.23 34.3831H228.578C228.755 34.3831 228.898 34.2364 228.898 34.0555V32.9623C228.898 32.7814 228.755 32.6348 228.578 32.6348Z" fill="#A3B5D6"/>
<path d="M225.415 8.15918V14.5093C225.415 15.2335 225.99 15.8205 226.7 15.8205H232.334" fill="white"/>
<path d="M129.19 71.6653H117.748C117.356 71.6653 117.038 71.9904 117.038 72.3915V74.1877C117.038 74.5888 117.356 74.914 117.748 74.914H129.19C129.582 74.914 129.899 74.5888 129.899 74.1877V72.3915C129.899 71.9904 129.582 71.6653 129.19 71.6653Z" fill="#597EF7"/>
<path d="M129.201 77.8486H117.737C117.351 77.8486 117.038 78.1689 117.038 78.5639V80.2837C117.038 80.6787 117.351 80.999 117.737 80.999H129.201C129.587 80.999 129.899 80.6787 129.899 80.2837V78.5639C129.899 78.1689 129.587 77.8486 129.201 77.8486Z" fill="#ADC6FF"/>
<path d="M129.201 84.032H117.737C117.351 84.032 117.038 84.3522 117.038 84.7472V86.4671C117.038 86.8621 117.351 87.1823 117.737 87.1823H129.201C129.587 87.1823 129.899 86.8621 129.899 86.4671V84.7472C129.899 84.3522 129.587 84.032 129.201 84.032Z" fill="#FF7946"/>
<path d="M129.201 90.2156H117.737C117.351 90.2156 117.038 90.5358 117.038 90.9308V92.6507C117.038 93.0457 117.351 93.3659 117.737 93.3659H129.201C129.587 93.3659 129.899 93.0457 129.899 92.6507V90.9308C129.899 90.5358 129.587 90.2156 129.201 90.2156Z" fill="#ADC6FF"/>
<path d="M207.308 30.2837H106.692C104.963 30.2837 103.562 31.7178 103.562 33.4868V107.449C103.562 109.218 104.963 110.652 106.692 110.652H207.308C209.037 110.652 210.438 109.218 210.438 107.449V33.4868C210.438 31.7178 209.037 30.2837 207.308 30.2837Z" fill="#E4EBF7"/>
<path d="M200.419 44.5532H139.603C138.946 44.5532 138.413 45.0984 138.413 45.7709V102.316C138.413 102.989 138.946 103.534 139.603 103.534H200.419C201.076 103.534 201.609 102.989 201.609 102.316V45.7709C201.609 45.0984 201.076 44.5532 200.419 44.5532Z" fill="#597EF7"/>
<path d="M190.921 62.6279H146.312V65.4818H190.921V62.6279Z" fill="white"/>
<path d="M168.617 72.6165H146.312V75.4704H168.617V72.6165Z" fill="#FAAD14"/>
<path d="M187.669 52.6392H165.364V55.4931H187.669V52.6392Z" fill="#FAAD14"/>
<path d="M187.204 92.1182H146.312V94.9721H187.204V92.1182Z" fill="white"/>
<path d="M159.788 52.6392H146.312V55.4931H159.788V52.6392Z" fill="white"/>
<path d="M179.769 72.6165H173.264V75.4704H179.769V72.6165Z" fill="#E4EBF7"/>
<path d="M179.304 82.1294H146.312V84.9833H179.304V82.1294Z" fill="#E4EBF7"/>
<path d="M106.425 26.4785H207.521C209.102 26.4785 210.384 27.7632 210.384 29.348V37.8989H103.562V29.348C103.562 27.7632 104.844 26.4785 106.425 26.4785Z" fill="#253368"/>
<path d="M109.788 34.3798C110.916 34.3798 111.831 33.4629 111.831 32.3318C111.831 31.2006 110.916 30.2837 109.788 30.2837C108.659 30.2837 107.745 31.2006 107.745 32.3318C107.745 33.4629 108.659 34.3798 109.788 34.3798Z" fill="#FF7946"/>
<path d="M117.687 34.3798C118.816 34.3798 119.731 33.4629 119.731 32.3318C119.731 31.2006 118.816 30.2837 117.687 30.2837C116.559 30.2837 115.644 31.2006 115.644 32.3318C115.644 33.4629 116.559 34.3798 117.687 34.3798Z" fill="#FAAD14"/>
<path d="M125.122 34.3798C126.25 34.3798 127.165 33.4629 127.165 32.3318C127.165 31.2006 126.25 30.2837 125.122 30.2837C123.993 30.2837 123.079 31.2006 123.079 32.3318C123.079 33.4629 123.993 34.3798 125.122 34.3798Z" fill="#7CB305"/>
<path d="M133.911 43.6021H113.176C112.486 43.6021 111.927 44.1745 111.927 44.8806V102.255C111.927 102.962 112.486 103.534 113.176 103.534H133.911C134.601 103.534 135.16 102.962 135.16 102.255V44.8806C135.16 44.1745 134.601 43.6021 133.911 43.6021Z" fill="white"/>
<path d="M129.19 71.6653H117.748C117.356 71.6653 117.038 71.9904 117.038 72.3915V74.1877C117.038 74.5888 117.356 74.914 117.748 74.914H129.19C129.582 74.914 129.899 74.5888 129.899 74.1877V72.3915C129.899 71.9904 129.582 71.6653 129.19 71.6653Z" fill="#597EF7"/>
<path d="M129.201 77.8486H117.737C117.351 77.8486 117.038 78.1689 117.038 78.5639V80.2837C117.038 80.6787 117.351 80.999 117.737 80.999H129.201C129.587 80.999 129.899 80.6787 129.899 80.2837V78.5639C129.899 78.1689 129.587 77.8486 129.201 77.8486Z" fill="#ADC6FF"/>
<path d="M129.201 84.032H117.737C117.351 84.032 117.038 84.3522 117.038 84.7472V86.4671C117.038 86.8621 117.351 87.1823 117.737 87.1823H129.201C129.587 87.1823 129.899 86.8621 129.899 86.4671V84.7472C129.899 84.3522 129.587 84.032 129.201 84.032Z" fill="#FF7946"/>
<path d="M129.201 90.2156H117.737C117.351 90.2156 117.038 90.5358 117.038 90.9308V92.6507C117.038 93.0457 117.351 93.3659 117.737 93.3659H129.201C129.587 93.3659 129.899 93.0457 129.899 92.6507V90.9308C129.899 90.5358 129.587 90.2156 129.201 90.2156Z" fill="#ADC6FF"/>
<path d="M123.309 63.129C126.482 63.129 129.054 60.4661 129.054 57.1813C129.054 53.8965 126.482 51.2336 123.309 51.2336C120.136 51.2336 117.563 53.8965 117.563 57.1813C117.563 60.4661 120.136 63.129 123.309 63.129Z" fill="#FAAD14"/>
<path d="M123.309 63.1289C124.965 63.1298 126.536 62.3725 127.601 61.0602C126.762 59.4104 125.109 58.3777 123.308 58.3777C121.507 58.3777 119.854 59.4104 119.014 61.0602C120.08 62.3728 121.652 63.1301 123.309 63.1289Z" fill="#253368"/>
<path d="M123.339 58.6144C124.533 58.6144 125.5 57.6129 125.5 56.3775C125.5 55.1421 124.533 54.1406 123.339 54.1406C122.146 54.1406 121.179 55.1421 121.179 56.3775C121.179 57.6129 122.146 58.6144 123.339 58.6144Z" fill="#253368"/>
<path opacity="0.163388" fill-rule="evenodd" clip-rule="evenodd" d="M316.713 61.4174H302.287C300.479 61.4174 299 59.9034 299 58.0529V43.286C299 41.4355 300.479 39.9214 302.287 39.9214H316.713C318.521 39.9214 320 41.4355 320 43.286V58.0529C320 59.9034 318.521 61.4174 316.713 61.4174Z" fill="#597EF7"/>
<path fill-rule="evenodd" clip-rule="evenodd" d="M28.5855 40.9447H22.4144C21.6365 40.9447 21 40.2266 21 39.3492V32.3041C21 31.4266 21.6365 30.7085 22.4144 30.7085H28.5855C29.3634 30.7085 30 31.4266 30 32.3041V39.3492C30 40.2266 29.3634 40.9447 28.5855 40.9447Z" fill="#FFC540"/>
<path fill-rule="evenodd" clip-rule="evenodd" d="M285.414 106.457C284.636 106.457 284 105.739 284 104.861V97.8161C284 96.9385 284.636 96.2205 285.414 96.2205H291.585C292.363 96.2205 293 96.9385 293 97.8161V104.861C293 105.739 292.363 106.457 291.585 106.457H285.414Z" fill="#FF7A46"/>
<path opacity="0.49707" fill-rule="evenodd" clip-rule="evenodd" d="M3.91304 102.362C1.76087 102.362 0 100.56 0 98.3568V80.7772C0 78.5742 1.76087 76.7717 3.91304 76.7717H21.087C23.2391 76.7717 25 78.5742 25 80.7772V98.3568C25 100.56 23.2391 102.362 21.087 102.362H3.91304Z" fill="#ADC6FF"/>
<path d="M184.865 150.909H130.41C128.707 150.909 127.326 152.286 127.326 153.984V237.886C127.326 239.584 128.707 240.961 130.41 240.961H198.134C199.838 240.961 201.219 239.584 201.219 237.886V167.336L184.865 150.909Z" fill="#4E5C93"/>
<path d="M184.865 150.781L184.89 164.268C184.89 165.966 186.271 167.343 187.975 167.343H201.219" fill="#E4EBF7"/>
<path d="M160.195 159.131H105.865C104.162 159.131 102.781 160.507 102.781 162.205V246.108C102.781 247.806 104.162 249.182 105.865 249.182H173.718C175.421 249.182 176.802 247.806 176.802 246.108V177.093H164.95C163.247 177.093 160.195 175.718 160.195 174.019V159.131Z" fill="#E4EBF7"/>
<path d="M125.21 167.32H112.991C111.823 167.32 110.876 168.266 110.876 169.434V181.601C110.876 182.769 111.823 183.716 112.991 183.716H125.21C126.378 183.716 127.325 182.769 127.325 181.601V169.434C127.325 168.266 126.378 167.32 125.21 167.32Z" fill="#A3B5D6"/>
<path d="M167.68 191.914H111.644C111.22 191.914 110.876 192.258 110.876 192.682V195.245C110.876 195.669 111.22 196.013 111.644 196.013H167.68C168.104 196.013 168.448 195.669 168.448 195.245V192.682C168.448 192.258 168.104 191.914 167.68 191.914Z" fill="#A3B5D6"/>
<path d="M167.671 204.219H111.635C111.211 204.219 110.867 204.563 110.867 204.987V207.55C110.867 207.974 111.211 208.318 111.635 208.318H167.671C168.095 208.318 168.439 207.974 168.439 207.55V204.987C168.439 204.563 168.095 204.219 167.671 204.219Z" fill="#A3B5D6"/>
<path d="M167.788 216.516H111.752C111.328 216.516 110.984 216.86 110.984 217.284V219.847C110.984 220.271 111.328 220.615 111.752 220.615H167.788C168.212 220.615 168.556 220.271 168.556 219.847V217.284C168.556 216.86 168.212 216.516 167.788 216.516Z" fill="#A3B5D6"/>
<path d="M160.195 159.131V174.019C160.195 175.717 161.576 177.093 163.279 177.093H176.802" fill="white"/>
<path opacity="0.163388" fill-rule="evenodd" clip-rule="evenodd" d="M316.713 179H302.287C300.479 179 299 177.521 299 175.713V161.287C299 159.479 300.479 158 302.287 158H316.713C318.521 158 320 159.479 320 161.287V175.713C320 177.521 318.521 179 316.713 179Z" fill="#597EF7"/>
<path fill-rule="evenodd" clip-rule="evenodd" d="M28.5855 159H22.4144C21.6365 159 21 158.299 21 157.441V150.559C21 149.701 21.6365 149 22.4144 149H28.5855C29.3634 149 30 149.701 30 150.559V157.441C30 158.299 29.3634 159 28.5855 159Z" fill="#FFC540"/>
<path fill-rule="evenodd" clip-rule="evenodd" d="M285.414 223C284.636 223 284 222.299 284 221.441V214.559C284 213.701 284.636 213 285.414 213H291.585C292.363 213 293 213.701 293 214.559V221.441C293 222.299 292.363 223 291.585 223H285.414Z" fill="#FF7A46"/>
<path opacity="0.49707" fill-rule="evenodd" clip-rule="evenodd" d="M3.91304 219C1.76087 219 0 217.239 0 215.087V197.913C0 195.761 1.76087 194 3.91304 194H21.087C23.2391 194 25 195.761 25 197.913V215.087C25 217.239 23.2391 219 21.087 219H3.91304Z" fill="#ADC6FF"/>
<path fill-rule="evenodd" clip-rule="evenodd" d="M205 133.069C195.68 133.069 188.125 140.489 188.125 149.643C188.125 158.796 195.68 166.216 205 166.216C214.32 166.216 221.875 158.796 221.875 149.643C221.875 140.489 214.32 133.069 205 133.069Z" fill="#FF4D4F"/>
<path fill-rule="evenodd" clip-rule="evenodd" d="M210.54 154.665L210.114 155.084C209.761 155.431 209.189 155.431 208.836 155.084L199.46 145.876C199.107 145.529 199.107 144.967 199.46 144.62L199.886 144.202C200.239 143.855 200.812 143.855 201.165 144.202L210.54 153.41C210.893 153.757 210.893 154.319 210.54 154.665Z" fill="white"/>
<path fill-rule="evenodd" clip-rule="evenodd" d="M199.46 154.665L199.886 155.084C200.239 155.431 200.812 155.431 201.165 155.084L210.54 145.876C210.893 145.529 210.893 144.967 210.54 144.62L210.114 144.202C209.761 143.855 209.189 143.855 208.836 144.202L199.46 153.41C199.107 153.757 199.107 154.319 199.46 154.665Z" fill="white"/>
</svg>
