<svg xmlns="http://www.w3.org/2000/svg" width="813" height="754" fill="none">
  <circle cx="408" cy="381" r="222.5" stroke="#8852E0" opacity=".1"/>
  <circle cx="408" cy="381" r="134.5" stroke="#8852E0" opacity=".05"/>
  <circle id="outlineCircle" cx="408" cy="381" r="327.5" stroke="#8852E0" opacity=".2"/>
  <g id="icon05" filter="url(#a)">
    <rect width="120" height="120" x="95" y="542" fill="#fff" rx="16"/>
    <g fill-rule="evenodd" clip-rule="evenodd">
      <path fill="#E4EBF7" d="M166.699 563.527h-23.452c-.763 0-1.4.552-1.507 1.288-.697 4.8-5.19 7.268-7.153 8.1a1.477 1.477 0 0 0-.915 1.355v19.534c0 12.783 21.301 20.928 21.301 20.928s21.301-8.145 21.301-20.928V574.27c0-.589-.36-1.12-.914-1.355-1.963-.832-6.457-3.3-7.154-8.1-.107-.736-.744-1.226-1.507-1.226v-.062Z"/>
      <path fill="#597EF7" d="M164.727 567.333c.289.87.676 1.709 1.159 2.51a14.311 14.311 0 0 0 2.727 3.262 18.389 18.389 0 0 0 3.672 2.534v18.059c0 4.889-4.806 9.218-8.838 11.99-3.278 2.253-6.617 3.872-8.477 4.7-1.83-.813-5.094-2.395-8.353-4.619-2.758-1.882-4.926-3.824-6.444-5.771-.827-1.06-1.457-2.123-1.875-3.16-.429-1.065-.638-2.092-.638-3.14v-18.059a18.365 18.365 0 0 0 3.673-2.534 14.337 14.337 0 0 0 2.727-3.262c.482-.801.869-1.64 1.158-2.51h19.509Z"/>
      <path fill="#fff" d="M155 582.081c.895 0 1.62.678 1.62 1.514v4.98c.919.53 1.534 1.497 1.534 2.603 0 1.675-1.412 3.032-3.154 3.032-1.741 0-3.153-1.357-3.153-3.032 0-1.106.615-2.073 1.534-2.603v-4.98c0-.826.708-1.498 1.588-1.514H155Z"/>
      <path fill="#8BBC06" d="M172.224 557.438c-5.577 0-10.098 4.404-10.098 9.836 0 5.431 4.521 9.835 10.098 9.835 5.577 0 10.097-4.404 10.097-9.835 0-5.432-4.52-9.836-10.097-9.836Z"/>
      <path fill="#fff" d="m170.596 570.615-.637-.621 6.178-6.039a.55.55 0 0 1 .765 0l.255.248a.518.518 0 0 1 0 .745l-5.795 5.667a.554.554 0 0 1-.766 0Z"/>
      <path fill="#fff" d="m171.998 569.994-.638.621a.553.553 0 0 1-.765 0l-2.538-2.473a.518.518 0 0 1 0-.745l.255-.249a.553.553 0 0 1 .765 0l2.921 2.846Z"/>
    </g>
    <path fill="#000" d="M139.472 636.041h-1.868v-9.705h1.868v9.705Zm1.801-4.336h-2.343v-1.538h2.343v1.538Zm-1.325 7.727h-9.126v-1.509h9.126v1.509Zm-7.259-.835h-1.867v-3.574h1.867v3.574Zm-.051-11.411c.674 0 1.289.144 1.846.432a3.255 3.255 0 0 1 1.318 1.208c.318.518.479 1.099.484 1.744a3.315 3.315 0 0 1-.484 1.743 3.326 3.326 0 0 1-1.318 1.208 3.903 3.903 0 0 1-1.846.44 3.903 3.903 0 0 1-1.846-.44 3.449 3.449 0 0 1-1.325-1.208 3.235 3.235 0 0 1-.484-1.743c0-.645.162-1.226.484-1.744a3.38 3.38 0 0 1 1.318-1.208 3.972 3.972 0 0 1 1.853-.432Zm0 1.626c-.337 0-.644.071-.923.212-.273.137-.49.34-.652.608a1.79 1.79 0 0 0-.241.938c0 .356.08.666.241.93.162.263.379.469.652.615.279.142.586.212.923.212.347 0 .657-.07.93-.212.279-.142.496-.344.652-.608.161-.268.242-.581.242-.937 0-.362-.081-.674-.242-.938a1.508 1.508 0 0 0-.652-.608 1.997 1.997 0 0 0-.93-.212Zm19.653 2.49h-3.164v-1.516h3.164v1.516Zm.879 4.775h-1.861v-9.733h1.861v9.733Zm.322 3.355h-9.17v-1.509h9.17v1.509Zm-7.295-.63h-1.875v-3.582h1.875v3.582Zm.388-9.873c0 .864-.139 1.672-.417 2.424a5.37 5.37 0 0 1-1.26 1.97c-.562.567-1.255.987-2.08 1.26l-.967-1.509c.708-.224 1.301-.549 1.78-.974a4.107 4.107 0 0 0 1.062-1.457 4.409 4.409 0 0 0 .359-1.714v-.864h1.523v.864Zm.381.015c0 .542.112 1.066.337 1.574.23.503.571.96 1.025 1.37.459.41 1.028.725 1.707.945l-.923 1.479c-.806-.263-1.484-.666-2.036-1.208a5.295 5.295 0 0 1-1.23-1.875 6.309 6.309 0 0 1-.396-2.285v-.879h1.516v.879Zm2.659-.205h-7.237v-1.502h7.237v1.502Zm16.576 10.92h-1.853v-13.345h1.853v13.345Zm-.959-6.68h-3.545v-1.523h3.545v1.523Zm-3.472-5.259c-.005 1.431-.188 2.723-.549 3.875-.357 1.147-.974 2.207-1.853 3.179-.874.966-2.063 1.821-3.567 2.563l-.952-1.465c1.245-.61 2.238-1.294 2.981-2.05.747-.762 1.284-1.612 1.611-2.549.327-.938.491-2.012.491-3.223v-.33h1.838Zm-.864 1.473h-5.427v-1.473h5.427v1.473Zm8.41 5.954c.976 0 1.814-.017 2.512-.051.703-.034 1.436-.11 2.197-.227l.132 1.487c-.815.136-1.597.229-2.344.278a35.3 35.3 0 0 1-2.497.066h-.93v-1.553h.93Zm4.131-2.387h-3.26v2.959h-1.801v-4.454h3.259v-2.131h-3.274v-1.509h5.076v5.135Zm6.086 6.899h-1.758v-13.345h1.758v13.345Zm-1.333-6.782h-2.263v-1.502h2.263v1.502Zm-1.714 6.137h-1.714v-12.458h1.714v12.458Z"/>
  </g>
  <g  id="icon04" filter="url(#b)">
    <rect width="120" height="120" x="520" y="616" fill="#fff" rx="16"/>
    <path fill="#CCD7EE" d="M603.614 647.513h-47.239c-.932 0-1.687.736-1.687 1.643v31.869c0 .908.755 1.644 1.687 1.644h47.239c.932 0 1.688-.736 1.688-1.644v-31.869c0-.907-.756-1.643-1.688-1.643Z"/>
    <path fill="#fff" d="M595.81 678.415c.732 0 1.325-1.22 1.325-2.725 0-1.506-.593-2.726-1.325-2.726s-1.326 1.22-1.326 2.726c0 1.505.594 2.725 1.326 2.725Z"/>
    <path fill="#253368" d="M605.278 658.264h-50.566v5.098h50.566v-5.098Z"/>
    <path fill="#597EF7" d="M575.816 668.646H558.86a.555.555 0 0 0-.562.547v.666c0 .302.252.548.562.548h16.956c.31 0 .562-.246.562-.548v-.666a.555.555 0 0 0-.562-.547ZM568.64 673.928h-9.78a.556.556 0 0 0-.562.548v.666c0 .302.252.548.562.548h9.78a.556.556 0 0 0 .563-.548v-.666a.556.556 0 0 0-.563-.548Z"/>
    <path fill="#fff" d="M563.188 651.056h-4.328a.555.555 0 0 0-.562.548v2.405c0 .303.252.548.562.548h4.328c.31 0 .562-.245.562-.548v-2.405a.555.555 0 0 0-.562-.548Z"/>
    <path fill="#FF7946" d="M594.483 675.69a3.478 3.478 0 0 1 1.327-2.726c-1.474-1.176-3.631-1.037-4.932.317a3.456 3.456 0 0 0 0 4.815c1.301 1.354 3.458 1.493 4.932.317a3.481 3.481 0 0 1-1.327-2.723Z"/>
    <path fill="#FAAD14" d="M598.1 672.167a3.66 3.66 0 0 0-2.29.797 3.488 3.488 0 0 1 1.324 2.725 3.488 3.488 0 0 1-1.324 2.724 3.692 3.692 0 0 0 4.303.204c1.325-.862 1.913-2.468 1.45-3.952-.464-1.485-1.87-2.499-3.463-2.498Z"/>
    <path fill="#000" d="M564.252 703.302h-3.164v-1.516h3.164v1.516Zm.879 4.775h-1.86v-9.733h1.86v9.733Zm.322 3.355h-9.17v-1.509h9.17v1.509Zm-7.295-.63h-1.875v-3.582h1.875v3.582Zm.388-9.873c0 .864-.139 1.672-.417 2.424a5.358 5.358 0 0 1-1.26 1.97c-.561.567-1.255.987-2.08 1.26l-.967-1.509c.708-.224 1.302-.549 1.78-.974a4.083 4.083 0 0 0 1.062-1.457 4.409 4.409 0 0 0 .359-1.714v-.864h1.523v.864Zm.381.015c0 .542.113 1.066.337 1.574.23.503.571.96 1.026 1.37.459.41 1.027.725 1.706.945l-.923 1.479c-.805-.263-1.484-.666-2.036-1.208a5.295 5.295 0 0 1-1.23-1.875 6.309 6.309 0 0 1-.396-2.285v-.879h1.516v.879Zm2.659-.205h-7.236v-1.502h7.236v1.502Zm9.875 1.215a10.1 10.1 0 0 1-.44 2.974 8.03 8.03 0 0 1-1.281 2.549c-.562.747-1.236 1.306-2.022 1.677l-1.099-1.472a5.171 5.171 0 0 0 1.831-1.428 6.47 6.47 0 0 0 1.143-2.036 7.096 7.096 0 0 0 .388-2.264v-1.552h1.48v1.552Zm.395 0a6.117 6.117 0 0 0 .366 2.11 6.3 6.3 0 0 0 1.106 1.926 5.131 5.131 0 0 0 1.795 1.355l-1.04 1.465a5.317 5.317 0 0 1-2.014-1.604 7.775 7.775 0 0 1-1.26-2.432 9.319 9.319 0 0 1-.432-2.82v-1.552h1.479v1.552Zm2.688-.813h-7.39v-1.523h7.39v1.523Zm2.908 10.518h-1.875v-13.345h1.875v13.345Zm1.977-6.68h-2.387v-1.56h2.387v1.56Zm11.78.059h-1.861v-6.724h1.861v6.724Zm-4.292-6.196c-.005 1.171-.237 2.189-.696 3.054-.454.859-1.138 1.574-2.051 2.146-.908.571-2.041 1.006-3.398 1.303l-.638-1.516c1.094-.219 1.993-.522 2.696-.908.708-.39 1.225-.842 1.552-1.355a3.12 3.12 0 0 0 .498-1.721v-1.003h2.037Zm-1.267 1.501h-4.769v-1.501h4.769v1.501Zm3.918 1.084h-3.179v-1.421h3.179v1.421Zm-.073 2.585h-3.201v-1.42h3.201v1.42Zm1.714 5.157h-6.973v1.684h-1.868v-3.069h6.958v-.798h-6.98v-1.465h8.863v3.648Zm.293 2.358h-9.134v-1.479h9.134v1.479Zm13.031.132h-1.758v-13.345h1.758v13.345Zm-3.984-7.251H598.3v-1.502h2.249v1.502Zm1.259 6.643h-1.75v-12.502h1.75v12.502Zm-4.965-9.155a13.839 13.839 0 0 1-.323 2.966 8.673 8.673 0 0 1-.981 2.534c-.439.752-.999 1.336-1.677 1.751l-1.128-1.377a4.902 4.902 0 0 0 1.545-1.509 6.641 6.641 0 0 0 .879-2.043 9.777 9.777 0 0 0 .271-2.322v-1.399h1.414v1.399Zm.388 0c0 .786.088 1.531.264 2.234.175.703.459 1.347.849 1.933.396.581.903 1.05 1.524 1.406l-1.092 1.37a4.797 4.797 0 0 1-1.677-1.662 7.817 7.817 0 0 1-.952-2.396 13.513 13.513 0 0 1-.293-2.885v-1.399h1.377v1.399Zm2.021-.718h-6.013v-1.494h6.013v1.494Z"/>
  </g>
  <g id="icon03" filter="url(#c)">
    <rect width="120" height="120" x="681" y="237" fill="#fff" rx="16"/>
    <path fill="#E4EBF7" d="M751.815 261.296H724.29c-.747 0-1.352.589-1.352 1.317v37.468h24.589c0 4.023 3.532 6.833 7.668 6.813 4.066-.02 7.391-3.377 7.391-7.336v-27.823h-7.177c-1.145 0-3.594-2.441-3.594-3.555v-6.884Z"/>
    <path fill="#253368" d="M747.581 299.963h-28.202c0 3.593 2.683 6.191 6.204 6.767l1.24.101 28.258-.055c-4.11 0-7.605-3.075-7.5-6.813Z"/>
    <path fill="#597EF7" d="M735.062 264.81h-6.157a.52.52 0 0 0-.527.513v5.997a.52.52 0 0 0 .527.514h6.157a.52.52 0 0 0 .527-.514v-5.997a.52.52 0 0 0-.527-.513ZM754.881 275.291h-25.988a.52.52 0 0 0-.528.514v.729a.52.52 0 0 0 .528.513h25.988c.291 0 .528-.23.528-.513v-.729a.521.521 0 0 0-.528-.514ZM754.881 280.579h-25.988a.52.52 0 0 0-.528.513v.729a.52.52 0 0 0 .528.514h25.988c.291 0 .528-.23.528-.514v-.729a.521.521 0 0 0-.528-.513ZM754.881 285.866h-25.988a.52.52 0 0 0-.528.514v.728a.52.52 0 0 0 .528.514h25.988c.291 0 .528-.23.528-.514v-.728a.521.521 0 0 0-.528-.514Z"/>
    <path fill="#CCD7EE" d="M751.812 270.055v1.372c0 .295.125.577.347.777.222.201.52.302.822.28l9.642-.698-10.811-1.731Z" opacity=".6"/>
    <path fill="#597EF7" d="m757.401 266.523-5.601-5.261.014 10.083c0 .243.202.439.451.439h10.358l-5.222-5.261Z"/>
    <path fill="#000" d="M726.124 331.165h-1.853v-9.821h1.853v9.821Zm-4.058-8.833c0 1.182-.247 2.263-.74 3.245-.493.976-1.203 1.816-2.131 2.519-.928.704-2.039 1.253-3.333 1.648l-.791-1.457c1.05-.337 1.951-.759 2.703-1.267.752-.508 1.326-1.089 1.721-1.743a3.991 3.991 0 0 0 .593-2.102v-.843h1.978Zm-.828 1.502h-5.456v-1.502h5.456v1.502Zm3.289 1.567h-3.186v-1.487h3.186v1.487Zm-.103 2.988h-3.208v-1.494h3.208v1.494Zm2.051 6.043h-9.141v-1.509h9.141v1.509Zm-7.244-.557h-1.897v-3.691h1.897v3.691Zm13.354-10.334c0 .849-.139 1.65-.417 2.402a5.37 5.37 0 0 1-1.267 1.97c-.562.557-1.253.97-2.073 1.238l-.967-1.472c.703-.234 1.294-.566 1.773-.996a4.15 4.15 0 0 0 1.428-3.142v-.901h1.523v.901Zm.381-.022c0 .547.11 1.074.33 1.582a4.02 4.02 0 0 0 1.025 1.377c.459.405 1.03.722 1.714.952l-.923 1.45c-.806-.259-1.484-.654-2.036-1.186a5.124 5.124 0 0 1-1.223-1.883 6.475 6.475 0 0 1-.403-2.292v-.879h1.516v.879Zm4.878 2.541h-2.6v-1.53h2.6v1.53Zm-2.219-2.497h-7.237v-1.494h7.237v1.494Zm3.545 11.096h-1.861v-3.303h-7.295v-1.502h9.156v4.805Zm0-5.391h-1.861v-7.954h1.861v7.954Zm8.175-5.449h-5.757v-1.523h5.757v1.523Zm-2.212 4.907h-1.86v-3.354h1.86v3.354Zm3.318-5.412a33.421 33.421 0 0 1-.073 1.867c-.034.562-.11 1.18-.227 1.853l-1.846-.161c.132-.703.218-1.323.257-1.86.039-.537.061-1.116.066-1.736v-.981h1.823v1.018Zm3.26 7.983h-1.919v-9.983h1.919v9.983Zm1.618-4.343h-2.373v-1.56h2.373v1.56Zm-1.201 7.478h-9.368v-1.509h9.368v1.509Zm-7.493-1.033h-1.875v-2.988h1.875v2.988Zm-3.838-5.39c1.646-.005 3.138-.035 4.476-.088a37.902 37.902 0 0 0 3.808-.337l.088 1.347a31.462 31.462 0 0 1-3.882.454c-1.362.074-2.805.11-4.328.11l-.162-1.486Zm24.392 6.687h-1.868v-13.382h1.868v13.382Zm-9.265-4.666c1.25.005 2.378-.024 3.384-.088a33.697 33.697 0 0 0 3.061-.351l.168 1.508a28.561 28.561 0 0 1-3.068.374 58.08 58.08 0 0 1-3.545.095h-1.194v-1.538h1.194Zm5.127-2.454h-4.395v3.04h-1.926v-4.504h4.416v-2.161h-4.431v-1.509h6.336v5.134Z"/>
  </g>
  <g id="icon02" filter="url(#d)">
    <rect width="120" height="120" x="386" y="6" fill="#fff" rx="16"/>
    <g filter="url(#e)">
      <path fill="#FFD666" d="M446.838 77.817c14.381 0 26.038-11.657 26.038-26.038 0-14.38-11.657-26.037-26.038-26.037-14.38 0-26.037 11.657-26.037 26.037 0 14.38 11.657 26.038 26.037 26.038Z"/>
      <path fill="url(#f)" d="M446.838 77.817c14.381 0 26.038-11.657 26.038-26.038 0-14.38-11.657-26.037-26.038-26.037-14.38 0-26.037 11.657-26.037 26.037 0 14.38 11.657 26.038 26.037 26.038Z"/>
      <g filter="url(#g)">
        <path fill="#FFC53D" d="M446.686 72.312c11.424 0 20.685-9.26 20.685-20.685 0-11.424-9.261-20.685-20.685-20.685s-20.685 9.261-20.685 20.685 9.261 20.685 20.685 20.685Z"/>
      </g>
      <g fill="#fff">
        <path d="M437.682 59.234c-1.414 0-2.633-.34-3.657-1.02-1.015-.687-1.796-1.683-2.343-2.987-.539-1.305-.809-2.875-.809-4.711 0-1.828.27-3.395.809-4.7.547-1.312 1.328-2.308 2.343-2.988 1.024-.687 2.243-1.031 3.657-1.031 1.406 0 2.621.344 3.644 1.031 1.024.68 1.809 1.676 2.356 2.988.547 1.305.82 2.871.82 4.7 0 1.843-.273 3.418-.82 4.722-.539 1.305-1.321 2.297-2.344 2.977-1.024.68-2.242 1.02-3.656 1.02Zm0-2.906c.664 0 1.238-.215 1.722-.644.492-.43.864-1.078 1.114-1.946.257-.867.382-1.941.375-3.222 0-1.266-.129-2.332-.387-3.2-.258-.875-.629-1.53-1.113-1.968a2.471 2.471 0 0 0-1.711-.657c-.664 0-1.235.22-1.711.657-.477.437-.848 1.093-1.114 1.968-.265.868-.398 1.934-.398 3.2 0 1.28.133 2.355.398 3.222.266.867.633 1.516 1.102 1.946.477.43 1.051.644 1.723.644ZM453.764 55.041h-2.51v-3.926h2.51v3.926Zm7.861.43h-2.5V42.043h2.5v13.428Zm.391 4.023h-13.262v-2.012h13.262v2.012Zm-10.752-1.474h-2.51v-3.838h2.51v3.837Zm-4.766-8.096c2.37-.02 4.453-.062 6.25-.127a60.819 60.819 0 0 0 5.176-.42l.127 1.787a49.526 49.526 0 0 1-5.401.586c-1.875.098-3.828.143-5.859.137l-.293-1.963Zm13.193 4.13h-3.964v-1.699h3.964v1.7Zm-7.412-11.415c.853 0 1.618.133 2.295.4.677.267 1.205.645 1.582 1.133a2.6 2.6 0 0 1 .567 1.65 2.55 2.55 0 0 1-.567 1.65c-.377.47-.905.837-1.582 1.104-.67.26-1.435.39-2.295.39-.872 0-1.647-.13-2.324-.39-.67-.267-1.195-.635-1.572-1.103a2.55 2.55 0 0 1-.567-1.65c0-.62.189-1.173.567-1.66.377-.49.905-.863 1.582-1.124.677-.267 1.448-.4 2.314-.4Zm0 1.826c-.423 0-.791.052-1.103.156-.313.104-.56.26-.742.469a1.036 1.036 0 0 0-.254.732c-.007.287.078.53.254.733.182.202.429.355.742.459.312.104.68.156 1.103.156.41 0 .769-.052 1.075-.156.312-.105.556-.258.732-.46.176-.201.264-.445.264-.732a1.1 1.1 0 0 0-.264-.732 1.59 1.59 0 0 0-.732-.469 3.341 3.341 0 0 0-1.075-.156Z"/>
      </g>
    </g>
    <path fill="#000" d="M420.141 94.058c0 .85-.222 1.64-.666 2.373-.445.727-1.087 1.34-1.927 1.838-.835.493-1.816.82-2.944.981l-.732-1.501c.971-.122 1.809-.373 2.512-.754.703-.381 1.23-.828 1.582-1.34.356-.518.534-1.05.534-1.597v-.652h1.641v.652Zm.322 0c0 .546.181 1.079.542 1.596.367.513.899.96 1.597 1.34.703.382 1.543.633 2.52.755l-.726 1.502c-1.137-.162-2.126-.489-2.966-.982-.835-.498-1.477-1.11-1.926-1.838a4.435 4.435 0 0 1-.674-2.373v-.652h1.633v.652Zm-.095 12.29h-1.853v-4.9h1.853v4.9Zm5.193-4.556h-12.158v-1.531h12.158v1.531Zm7.619-7.734c0 .85-.222 1.64-.667 2.373-.444.727-1.086 1.34-1.926 1.838-.835.493-1.816.82-2.944.981l-.733-1.501c.972-.122 1.81-.373 2.513-.754.703-.381 1.23-.828 1.582-1.34.356-.518.534-1.05.534-1.597v-.652h1.641v.652Zm.322 0c0 .546.181 1.079.542 1.596.366.513.899.96 1.597 1.34.703.382 1.543.633 2.519.755l-.725 1.502c-1.137-.162-2.126-.489-2.966-.982-.835-.498-1.477-1.11-1.926-1.838a4.435 4.435 0 0 1-.674-2.373v-.652h1.633v.652Zm-.095 12.29h-1.853v-4.9h1.853v4.9Zm5.193-4.556h-12.158v-1.531H438.6v1.531Zm5.817 2.153h-1.824v-3.164h1.824v3.164Zm4.27-.007h-1.831v-3.171h1.831v3.171Zm2.981.93h-12.187v-1.531h12.187v1.531Zm-1.406-6.57h-7.515v2.278h-1.86v-3.764h7.529v-1.429h-7.551v-1.501h9.397v4.416Zm.315 2.996h-9.69v-1.516h9.69v1.516Zm10.037 3.852c-.883 0-1.645-.212-2.285-.637-.634-.429-1.123-1.052-1.465-1.867-.336-.816-.505-1.797-.505-2.945 0-1.142.169-2.121.505-2.937.342-.82.831-1.443 1.465-1.867.64-.43 1.402-.645 2.285-.645.879 0 1.639.215 2.278.645.64.424 1.131 1.047 1.472 1.867.342.816.513 1.795.513 2.937 0 1.153-.171 2.136-.513 2.952-.336.815-.825 1.435-1.464 1.86-.64.425-1.402.637-2.286.637Zm0-1.816c.415 0 .774-.134 1.077-.403.308-.268.54-.674.696-1.216.161-.542.239-1.213.234-2.014 0-.79-.08-1.457-.241-2-.162-.546-.393-.956-.696-1.23a1.544 1.544 0 0 0-1.07-.41c-.415 0-.771.137-1.069.41-.298.274-.53.684-.696 1.23-.166.543-.249 1.21-.249 2 0 .801.083 1.472.249 2.014.166.542.396.948.689 1.216a1.55 1.55 0 0 0 1.076.403Zm10.82-.549h-1.882v-2.945h1.882v2.945Zm5.896.322h-1.875v-10.07h1.875v10.07Zm.293 3.018h-9.946v-1.509h9.946v1.509Zm-8.064-1.106h-1.882v-2.879h1.882v2.879Zm-3.574-6.072c1.777-.015 3.34-.046 4.687-.095a45.599 45.599 0 0 0 3.882-.315l.095 1.34a37.053 37.053 0 0 1-4.05.439 78.782 78.782 0 0 1-4.394.103l-.22-1.472Zm9.895 3.098h-2.974v-1.274h2.974v1.274Zm-5.559-8.562c.639 0 1.213.1 1.721.3.508.2.903.484 1.187.85.283.361.424.774.424 1.238 0 .473-.141.886-.424 1.237-.284.352-.679.628-1.187.828-.503.195-1.077.293-1.721.293-.654 0-1.236-.098-1.743-.293-.503-.2-.896-.476-1.18-.828a1.914 1.914 0 0 1-.424-1.237c0-.464.141-.88.424-1.245.284-.367.679-.647 1.187-.843.508-.2 1.086-.3 1.736-.3Zm0 1.37c-.318 0-.593.039-.828.117-.234.078-.42.195-.556.351a.778.778 0 0 0-.191.55.778.778 0 0 0 .191.549c.136.151.322.266.556.344.235.078.51.117.828.117a2.5 2.5 0 0 0 .805-.117 1.22 1.22 0 0 0 .55-.344.807.807 0 0 0 .198-.55.825.825 0 0 0-.198-.549 1.19 1.19 0 0 0-.55-.351 2.5 2.5 0 0 0-.805-.117Z"/>
  </g>
  <g id="icon01" filter="url(#h)">
    <rect width="120" height="120" x="24" y="177" fill="#fff" rx="16"/>
    <path fill="#253368" fill-rule="evenodd" d="M87.86 224.627c-5.219 0-9.45 4.121-9.45 9.205v.023c0 5.084 4.231 9.205 9.45 9.205h13.936c.521 0 1.031-.041 1.529-.12l2.7 2.54a.4.4 0 0 0 .274.108.389.389 0 0 0 .393-.384l.001-3.475c2.729-1.614 4.553-4.536 4.553-7.874v-.023c0-5.084-4.231-9.205-9.45-9.205H87.86Z" clip-rule="evenodd"/>
    <path fill="#597EF7" d="M90.152 202.575H70.254c-7.456 0-13.5 5.887-13.5 13.149s6.044 13.149 13.5 13.149h19.898c7.456 0 13.5-5.887 13.5-13.149s-6.044-13.149-13.5-13.149Z"/>
    <path fill="#597EF7" fill-rule="evenodd" d="M63.258 225.048v6.884c0 .303.252.548.562.548a.569.569 0 0 0 .39-.154l5.194-4.88-6.146-2.398Z" clip-rule="evenodd"/>
    <path fill="#fff" d="M71.168 217.368c1.204 0 2.18-.951 2.18-2.123 0-1.173-.976-2.123-2.18-2.123-1.204 0-2.18.95-2.18 2.123 0 1.172.976 2.123 2.18 2.123ZM80.098 217.368c1.204 0 2.18-.951 2.18-2.123 0-1.173-.977-2.123-2.18-2.123-1.204 0-2.18.95-2.18 2.123 0 1.172.976 2.123 2.18 2.123ZM89.238 217.368c1.204 0 2.18-.951 2.18-2.123 0-1.173-.976-2.123-2.18-2.123-1.204 0-2.18.95-2.18 2.123 0 1.172.976 2.123 2.18 2.123Z"/>
    <path fill="#000" d="M61.704 265.357c0 .967-.105 1.887-.315 2.761a7.706 7.706 0 0 1-.981 2.351 4.783 4.783 0 0 1-1.692 1.619l-1.062-1.391a4.48 4.48 0 0 0 1.509-1.37 5.99 5.99 0 0 0 .857-1.86 7.91 7.91 0 0 0 .278-2.11v-.381h1.406v.381Zm.344 0c0 .713.09 1.389.271 2.029.181.635.467 1.218.857 1.75.396.528.901.953 1.516 1.275l-1.04 1.37a4.685 4.685 0 0 1-1.714-1.517 6.755 6.755 0 0 1-.981-2.226 11.16 11.16 0 0 1-.308-2.681v-.381h1.4v.381Zm2.183-.249h-6.138v-1.516h6.138v1.516Zm-2.19-.315h-1.743v-3.01h1.743v3.01Zm7.493 9.866h-1.795v-13.345h1.795v13.345Zm-1.187-6.672H66.1v-1.517h2.248v1.517Zm-1.743 6.057h-1.765v-12.525h1.765v12.525Zm6.88-6.739a83.662 83.662 0 0 0 3.23-.058 21.69 21.69 0 0 0 2.35-.249l.183 1.465a24.35 24.35 0 0 1-2.68.278c-.908.044-2.158.066-3.75.066h-1.15v-1.502H73.483Zm4.643-3.559h-4.578v4.197h-1.882v-5.684h6.46v1.487Zm-.388 2.49H72.97v-1.45h4.769v1.45Zm4.35 3.179h-1.867v-8.071h1.867v8.071Zm-4.526.176c.937 0 1.75.1 2.439.3.688.2 1.218.491 1.59.871.375.381.563.838.563 1.37 0 .527-.188.979-.564 1.355-.371.381-.9.671-1.59.872-.683.2-1.496.3-2.438.3-.948 0-1.765-.098-2.454-.293-.688-.195-1.218-.486-1.59-.872a1.896 1.896 0 0 1-.549-1.362c0-.532.184-.989.55-1.37.37-.38.898-.671 1.582-.871.688-.2 1.509-.3 2.46-.3Zm0 1.442c-.596 0-1.096.042-1.502.125-.405.078-.71.2-.915.366a.743.743 0 0 0-.308.608c0 .239.103.442.308.608.205.161.51.286.915.374.406.083.906.124 1.502.124.59 0 1.089-.041 1.494-.124.405-.088.713-.213.923-.374.21-.166.315-.369.315-.608s-.105-.442-.315-.608c-.21-.166-.518-.288-.923-.366a7.59 7.59 0 0 0-1.494-.125Zm18.59-1.626H83.966v-1.494h12.187v1.494Zm-5.01 2.3h-1.845v-2.856h1.846v2.856Zm3.458-4.885h-9.119v-4.907h9.119v4.907Zm-7.288-1.457h5.45v-2.007h-5.45v2.007Zm7.5 9.067h-9.426v-1.509h9.426v1.509Zm-7.551-1.011h-1.875v-2.878h1.875v2.878Zm14.071-11.206c.699 0 1.329.142 1.89.425a3.212 3.212 0 0 1 1.318 1.164c.323.494.484 1.055.484 1.685a3.04 3.04 0 0 1-.484 1.692 3.284 3.284 0 0 1-1.318 1.164c-.557.279-1.186.418-1.89.418a4.217 4.217 0 0 1-1.89-.418 3.334 3.334 0 0 1-1.332-1.164 3.047 3.047 0 0 1-.484-1.692c0-.63.162-1.191.484-1.685a3.26 3.26 0 0 1 1.333-1.164 4.168 4.168 0 0 1 1.889-.425Zm0 1.611a2.2 2.2 0 0 0-.952.198 1.55 1.55 0 0 0-.659.579 1.593 1.593 0 0 0-.242.886c0 .347.08.645.242.894.161.244.381.434.659.571a2.2 2.2 0 0 0 .952.198c.357 0 .677-.066.96-.198.288-.137.51-.327.666-.571.162-.249.242-.547.242-.894 0-.342-.08-.637-.242-.886a1.486 1.486 0 0 0-.666-.579 2.245 2.245 0 0 0-.96-.198Zm6.878 10.87h-1.853v-13.382h1.853v13.382Zm-10.935-4.248c1.597-.005 3.076-.037 4.438-.096a44.596 44.596 0 0 0 3.889-.329l.132 1.34c-.903.176-1.845.308-2.827.396-.981.087-1.904.144-2.768.168-.86.024-1.81.037-2.85.037l-.22-1.516h.206Z"/>
  </g>
  <defs>
    <filter id="a" width="144" height="144" x="83" y="536" color-interpolation-filters="sRGB" filterUnits="userSpaceOnUse">
      <feFlood flood-opacity="0" result="BackgroundImageFix"/>
      <feColorMatrix in="SourceAlpha" result="hardAlpha" values="0 0 0 0 0 0 0 0 0 0 0 0 0 0 0 0 0 0 127 0"/>
      <feOffset dy="6"/>
      <feGaussianBlur stdDeviation="6"/>
      <feColorMatrix values="0 0 0 0 0.0562384 0 0 0 0 0.121895 0 0 0 0 0.209437 0 0 0 0.08 0"/>
      <feBlend in2="BackgroundImageFix" result="effect1_dropShadow_1788_9948"/>
      <feColorMatrix in="SourceAlpha" result="hardAlpha" values="0 0 0 0 0 0 0 0 0 0 0 0 0 0 0 0 0 0 127 0"/>
      <feOffset dy="4"/>
      <feGaussianBlur stdDeviation="4"/>
      <feColorMatrix values="0 0 0 0 0.0562384 0 0 0 0 0.121895 0 0 0 0 0.209437 0 0 0 0.1 0"/>
      <feBlend in2="effect1_dropShadow_1788_9948" result="effect2_dropShadow_1788_9948"/>
      <feColorMatrix in="SourceAlpha" result="hardAlpha" values="0 0 0 0 0 0 0 0 0 0 0 0 0 0 0 0 0 0 127 0"/>
      <feOffset dy="1"/>
      <feGaussianBlur stdDeviation="2"/>
      <feColorMatrix values="0 0 0 0 0.0562384 0 0 0 0 0.121895 0 0 0 0 0.209437 0 0 0 0.12 0"/>
      <feBlend in2="effect2_dropShadow_1788_9948" result="effect3_dropShadow_1788_9948"/>
      <feBlend in="SourceGraphic" in2="effect3_dropShadow_1788_9948" result="shape"/>
    </filter>
    <filter id="b" width="144" height="144" x="508" y="610" color-interpolation-filters="sRGB" filterUnits="userSpaceOnUse">
      <feFlood flood-opacity="0" result="BackgroundImageFix"/>
      <feColorMatrix in="SourceAlpha" result="hardAlpha" values="0 0 0 0 0 0 0 0 0 0 0 0 0 0 0 0 0 0 127 0"/>
      <feOffset dy="6"/>
      <feGaussianBlur stdDeviation="6"/>
      <feColorMatrix values="0 0 0 0 0.0562384 0 0 0 0 0.121895 0 0 0 0 0.209437 0 0 0 0.08 0"/>
      <feBlend in2="BackgroundImageFix" result="effect1_dropShadow_1788_9948"/>
      <feColorMatrix in="SourceAlpha" result="hardAlpha" values="0 0 0 0 0 0 0 0 0 0 0 0 0 0 0 0 0 0 127 0"/>
      <feOffset dy="4"/>
      <feGaussianBlur stdDeviation="4"/>
      <feColorMatrix values="0 0 0 0 0.0562384 0 0 0 0 0.121895 0 0 0 0 0.209437 0 0 0 0.1 0"/>
      <feBlend in2="effect1_dropShadow_1788_9948" result="effect2_dropShadow_1788_9948"/>
      <feColorMatrix in="SourceAlpha" result="hardAlpha" values="0 0 0 0 0 0 0 0 0 0 0 0 0 0 0 0 0 0 127 0"/>
      <feOffset dy="1"/>
      <feGaussianBlur stdDeviation="2"/>
      <feColorMatrix values="0 0 0 0 0.0562384 0 0 0 0 0.121895 0 0 0 0 0.209437 0 0 0 0.12 0"/>
      <feBlend in2="effect2_dropShadow_1788_9948" result="effect3_dropShadow_1788_9948"/>
      <feBlend in="SourceGraphic" in2="effect3_dropShadow_1788_9948" result="shape"/>
    </filter>
    <filter id="c" width="144" height="144" x="669" y="231" color-interpolation-filters="sRGB" filterUnits="userSpaceOnUse">
      <feFlood flood-opacity="0" result="BackgroundImageFix"/>
      <feColorMatrix in="SourceAlpha" result="hardAlpha" values="0 0 0 0 0 0 0 0 0 0 0 0 0 0 0 0 0 0 127 0"/>
      <feOffset dy="6"/>
      <feGaussianBlur stdDeviation="6"/>
      <feColorMatrix values="0 0 0 0 0.0562384 0 0 0 0 0.121895 0 0 0 0 0.209437 0 0 0 0.08 0"/>
      <feBlend in2="BackgroundImageFix" result="effect1_dropShadow_1788_9948"/>
      <feColorMatrix in="SourceAlpha" result="hardAlpha" values="0 0 0 0 0 0 0 0 0 0 0 0 0 0 0 0 0 0 127 0"/>
      <feOffset dy="4"/>
      <feGaussianBlur stdDeviation="4"/>
      <feColorMatrix values="0 0 0 0 0.0562384 0 0 0 0 0.121895 0 0 0 0 0.209437 0 0 0 0.1 0"/>
      <feBlend in2="effect1_dropShadow_1788_9948" result="effect2_dropShadow_1788_9948"/>
      <feColorMatrix in="SourceAlpha" result="hardAlpha" values="0 0 0 0 0 0 0 0 0 0 0 0 0 0 0 0 0 0 127 0"/>
      <feOffset dy="1"/>
      <feGaussianBlur stdDeviation="2"/>
      <feColorMatrix values="0 0 0 0 0.0562384 0 0 0 0 0.121895 0 0 0 0 0.209437 0 0 0 0.12 0"/>
      <feBlend in2="effect2_dropShadow_1788_9948" result="effect3_dropShadow_1788_9948"/>
      <feBlend in="SourceGraphic" in2="effect3_dropShadow_1788_9948" result="shape"/>
    </filter>
    <filter id="d" width="144" height="144" x="374" y="0" color-interpolation-filters="sRGB" filterUnits="userSpaceOnUse">
      <feFlood flood-opacity="0" result="BackgroundImageFix"/>
      <feColorMatrix in="SourceAlpha" result="hardAlpha" values="0 0 0 0 0 0 0 0 0 0 0 0 0 0 0 0 0 0 127 0"/>
      <feOffset dy="6"/>
      <feGaussianBlur stdDeviation="6"/>
      <feColorMatrix values="0 0 0 0 0.0562384 0 0 0 0 0.121895 0 0 0 0 0.209437 0 0 0 0.08 0"/>
      <feBlend in2="BackgroundImageFix" result="effect1_dropShadow_1788_9948"/>
      <feColorMatrix in="SourceAlpha" result="hardAlpha" values="0 0 0 0 0 0 0 0 0 0 0 0 0 0 0 0 0 0 127 0"/>
      <feOffset dy="4"/>
      <feGaussianBlur stdDeviation="4"/>
      <feColorMatrix values="0 0 0 0 0.0562384 0 0 0 0 0.121895 0 0 0 0 0.209437 0 0 0 0.1 0"/>
      <feBlend in2="effect1_dropShadow_1788_9948" result="effect2_dropShadow_1788_9948"/>
      <feColorMatrix in="SourceAlpha" result="hardAlpha" values="0 0 0 0 0 0 0 0 0 0 0 0 0 0 0 0 0 0 127 0"/>
      <feOffset dy="1"/>
      <feGaussianBlur stdDeviation="2"/>
      <feColorMatrix values="0 0 0 0 0.0562384 0 0 0 0 0.121895 0 0 0 0 0.209437 0 0 0 0.12 0"/>
      <feBlend in2="effect2_dropShadow_1788_9948" result="effect3_dropShadow_1788_9948"/>
      <feBlend in="SourceGraphic" in2="effect3_dropShadow_1788_9948" result="shape"/>
    </filter>
    <filter id="e" width="76" height="76" x="408" y="17" color-interpolation-filters="sRGB" filterUnits="userSpaceOnUse">
      <feFlood flood-opacity="0" result="BackgroundImageFix"/>
      <feColorMatrix in="SourceAlpha" result="hardAlpha" values="0 0 0 0 0 0 0 0 0 0 0 0 0 0 0 0 0 0 127 0"/>
      <feOffset dy="4"/>
      <feGaussianBlur stdDeviation="4"/>
      <feColorMatrix values="0 0 0 0 0.0562384 0 0 0 0 0.121895 0 0 0 0 0.209437 0 0 0 0.08 0"/>
      <feBlend in2="BackgroundImageFix" result="effect1_dropShadow_1788_9948"/>
      <feColorMatrix in="SourceAlpha" result="hardAlpha" values="0 0 0 0 0 0 0 0 0 0 0 0 0 0 0 0 0 0 127 0"/>
      <feOffset dy="1"/>
      <feGaussianBlur stdDeviation="2"/>
      <feColorMatrix values="0 0 0 0 0.0562384 0 0 0 0 0.121895 0 0 0 0 0.209437 0 0 0 0.12 0"/>
      <feBlend in2="effect1_dropShadow_1788_9948" result="effect2_dropShadow_1788_9948"/>
      <feBlend in="SourceGraphic" in2="effect2_dropShadow_1788_9948" result="shape"/>
    </filter>
    <filter id="g" width="42.37" height="42.37" x="425.001" y="30.942" color-interpolation-filters="sRGB" filterUnits="userSpaceOnUse">
      <feFlood flood-opacity="0" result="BackgroundImageFix"/>
      <feBlend in="SourceGraphic" in2="BackgroundImageFix" result="shape"/>
      <feColorMatrix in="SourceAlpha" result="hardAlpha" values="0 0 0 0 0 0 0 0 0 0 0 0 0 0 0 0 0 0 127 0"/>
      <feOffset dx="-1" dy="1"/>
      <feGaussianBlur stdDeviation="2"/>
      <feComposite in2="hardAlpha" k2="-1" k3="1" operator="arithmetic"/>
      <feColorMatrix values="0 0 0 0 0 0 0 0 0 0 0 0 0 0 0 0 0 0 0.1 0"/>
      <feBlend in2="shape" result="effect1_innerShadow_1788_9948"/>
    </filter>
    <filter id="h" width="144" height="144" x="12" y="171" color-interpolation-filters="sRGB" filterUnits="userSpaceOnUse">
      <feFlood flood-opacity="0" result="BackgroundImageFix"/>
      <feColorMatrix in="SourceAlpha" result="hardAlpha" values="0 0 0 0 0 0 0 0 0 0 0 0 0 0 0 0 0 0 127 0"/>
      <feOffset dy="6"/>
      <feGaussianBlur stdDeviation="6"/>
      <feColorMatrix values="0 0 0 0 0.0562384 0 0 0 0 0.121895 0 0 0 0 0.209437 0 0 0 0.08 0"/>
      <feBlend in2="BackgroundImageFix" result="effect1_dropShadow_1788_9948"/>
      <feColorMatrix in="SourceAlpha" result="hardAlpha" values="0 0 0 0 0 0 0 0 0 0 0 0 0 0 0 0 0 0 127 0"/>
      <feOffset dy="4"/>
      <feGaussianBlur stdDeviation="4"/>
      <feColorMatrix values="0 0 0 0 0.0562384 0 0 0 0 0.121895 0 0 0 0 0.209437 0 0 0 0.1 0"/>
      <feBlend in2="effect1_dropShadow_1788_9948" result="effect2_dropShadow_1788_9948"/>
      <feColorMatrix in="SourceAlpha" result="hardAlpha" values="0 0 0 0 0 0 0 0 0 0 0 0 0 0 0 0 0 0 127 0"/>
      <feOffset dy="1"/>
      <feGaussianBlur stdDeviation="2"/>
      <feColorMatrix values="0 0 0 0 0.0562384 0 0 0 0 0.121895 0 0 0 0 0.209437 0 0 0 0.12 0"/>
      <feBlend in2="effect2_dropShadow_1788_9948" result="effect3_dropShadow_1788_9948"/>
      <feBlend in="SourceGraphic" in2="effect3_dropShadow_1788_9948" result="shape"/>
    </filter>
    <linearGradient id="f" x1="424.625" x2="467" y1="37.125" y2="68.25" gradientUnits="userSpaceOnUse">
      <stop stop-color="#FEFEFE"/>
      <stop offset="1" stop-color="#FFD666" stop-opacity="0"/>
    </linearGradient>
  </defs>
</svg>
