<svg width="813" height="754" viewBox="0 0 813 754" fill="none" xmlns="http://www.w3.org/2000/svg">
<g id="svgWrap">
<circle id="Ellipse 781" opacity="0.1" cx="408" cy="381" r="222.5" stroke="#8852E0"/>
<circle id="Ellipse 783" opacity="0.05" cx="408" cy="381" r="134.5" stroke="#8852E0"/>
<circle id="outlineCircle" opacity="0.2" cx="408" cy="381" r="327.5" stroke="#8852E0"/>
<g id="icon05" filter="url(#filter0_ddd_1788_9948)">
<rect x="95" y="542" width="120" height="120" rx="16" fill="white"/>
<g id="Frame 35467440">
<g id="Group 13">
<g id="Frame 35221">
<g id="Color/Shield">
<path id="Fill 1" fill-rule="evenodd" clip-rule="evenodd" d="M166.699 563.527H143.247C142.484 563.527 141.847 564.079 141.74 564.815C141.043 569.615 136.55 572.083 134.587 572.915C134.032 573.15 133.672 573.681 133.672 574.27V593.804C133.672 606.587 154.973 614.732 154.973 614.732C154.973 614.732 176.274 606.587 176.274 593.804V574.27C176.274 573.681 175.914 573.15 175.36 572.915C173.397 572.083 168.903 569.615 168.206 564.815C168.099 564.079 167.462 563.589 166.699 563.589V563.527Z" fill="#E4EBF7"/>
<path id="Fill 3" fill-rule="evenodd" clip-rule="evenodd" d="M164.727 567.333C165.016 568.203 165.403 569.042 165.886 569.843C166.595 571.021 167.512 572.118 168.613 573.105C169.847 574.212 171.152 575.04 172.285 575.639V593.698C172.285 598.587 167.479 602.916 163.447 605.688C160.169 607.941 156.83 609.56 154.97 610.388C153.14 609.575 149.876 607.993 146.617 605.769C143.859 603.887 141.691 601.945 140.173 599.998C139.346 598.938 138.716 597.875 138.298 596.838C137.869 595.773 137.66 594.746 137.66 593.698V575.639C138.794 575.04 140.099 574.212 141.333 573.105C142.433 572.118 143.351 571.021 144.06 569.843C144.542 569.042 144.929 568.203 145.218 567.333H164.727Z" fill="#597EF7"/>
</g>
<path id="Vector" fill-rule="evenodd" clip-rule="evenodd" d="M155 582.081C155.895 582.081 156.62 582.759 156.62 583.595L156.62 588.575C157.539 589.105 158.154 590.072 158.154 591.178C158.154 592.853 156.742 594.21 155 594.21C153.259 594.21 151.847 592.853 151.847 591.178C151.847 590.072 152.462 589.105 153.381 588.575L153.381 583.595C153.381 582.769 154.089 582.097 154.969 582.081L155 582.081Z" fill="white"/>
<g id="Color/Tick">
<path id="Fill 1_2" fill-rule="evenodd" clip-rule="evenodd" d="M172.224 557.438C166.647 557.438 162.126 561.842 162.126 567.274C162.126 572.705 166.647 577.109 172.224 577.109C177.801 577.109 182.321 572.705 182.321 567.274C182.321 561.842 177.801 557.438 172.224 557.438Z" fill="#8BBC06"/>
<path id="Fill 3_2" fill-rule="evenodd" clip-rule="evenodd" d="M170.596 570.615L169.959 569.994L176.137 563.955C176.348 563.749 176.69 563.749 176.902 563.955L177.157 564.203C177.368 564.409 177.368 564.742 177.157 564.948L171.362 570.615C171.15 570.82 170.808 570.82 170.596 570.615Z" fill="white"/>
<path id="Fill 5" fill-rule="evenodd" clip-rule="evenodd" d="M171.998 569.994L171.36 570.615C171.149 570.82 170.807 570.82 170.595 570.615L168.057 568.142C167.846 567.936 167.846 567.603 168.057 567.397L168.312 567.148C168.523 566.943 168.866 566.943 169.077 567.148L171.998 569.994Z" fill="white"/>
</g>
</g>
</g>
<path id="&#236;&#149;&#136;&#236;&#160;&#132;&#234;&#177;&#176;&#235;&#158;&#152;" d="M139.472 636.041H137.604V626.336H139.472V636.041ZM141.273 631.705H138.93V630.167H141.273V631.705ZM139.948 639.432H130.822V637.923H139.948V639.432ZM132.689 638.597H130.822V635.023H132.689V638.597ZM132.638 627.186C133.312 627.186 133.927 627.33 134.484 627.618C135.045 627.906 135.485 628.309 135.802 628.826C136.12 629.344 136.281 629.925 136.286 630.57C136.281 631.214 136.12 631.795 135.802 632.313C135.485 632.825 135.045 633.228 134.484 633.521C133.927 633.814 133.312 633.961 132.638 633.961C131.964 633.961 131.349 633.814 130.792 633.521C130.236 633.228 129.794 632.825 129.467 632.313C129.145 631.795 128.983 631.214 128.983 630.57C128.983 629.925 129.145 629.344 129.467 628.826C129.794 628.309 130.233 627.906 130.785 627.618C131.342 627.33 131.959 627.186 132.638 627.186ZM132.638 628.812C132.301 628.812 131.994 628.883 131.715 629.024C131.442 629.161 131.225 629.364 131.063 629.632C130.902 629.901 130.822 630.213 130.822 630.57C130.822 630.926 130.902 631.236 131.063 631.5C131.225 631.763 131.442 631.969 131.715 632.115C131.994 632.257 132.301 632.327 132.638 632.327C132.985 632.327 133.295 632.257 133.568 632.115C133.847 631.973 134.064 631.771 134.22 631.507C134.381 631.239 134.462 630.926 134.462 630.57C134.462 630.208 134.381 629.896 134.22 629.632C134.064 629.364 133.847 629.161 133.568 629.024C133.295 628.883 132.985 628.812 132.638 628.812ZM152.291 631.302H149.127V629.786H152.291V631.302ZM153.17 636.077H151.309V626.344H153.17V636.077ZM153.492 639.432H144.322V637.923H153.492V639.432ZM146.197 638.802H144.322V635.22H146.197V638.802ZM146.585 628.929C146.585 629.793 146.446 630.601 146.168 631.353C145.894 632.1 145.474 632.757 144.908 633.323C144.346 633.89 143.653 634.31 142.828 634.583L141.861 633.074C142.569 632.85 143.162 632.525 143.641 632.1C144.119 631.671 144.473 631.185 144.703 630.643C144.937 630.096 145.057 629.525 145.062 628.929V628.065H146.585V628.929ZM146.966 628.944C146.966 629.486 147.078 630.01 147.303 630.518C147.533 631.021 147.874 631.478 148.328 631.888C148.787 632.298 149.356 632.613 150.035 632.833L149.112 634.312C148.306 634.049 147.628 633.646 147.076 633.104C146.529 632.562 146.119 631.937 145.846 631.229C145.577 630.516 145.445 629.754 145.45 628.944V628.065H146.966V628.944ZM149.625 628.739H142.388V627.237H149.625V628.739ZM166.201 639.659H164.348V626.314H166.201V639.659ZM165.242 632.979H161.697V631.456H165.242V632.979ZM161.77 627.72C161.765 629.151 161.582 630.443 161.221 631.595C160.864 632.742 160.247 633.802 159.368 634.774C158.494 635.74 157.305 636.595 155.801 637.337L154.849 635.872C156.094 635.262 157.087 634.578 157.83 633.822C158.577 633.06 159.114 632.21 159.441 631.273C159.768 630.335 159.932 629.261 159.932 628.05V627.72H161.77ZM160.906 629.193H155.479V627.72H160.906V629.193ZM169.316 635.147C170.292 635.147 171.13 635.13 171.828 635.096C172.531 635.062 173.264 634.986 174.025 634.869L174.157 636.356C173.342 636.492 172.56 636.585 171.813 636.634C171.071 636.683 170.239 636.705 169.316 636.7H168.386V635.147H169.316ZM173.447 632.76H170.187V635.719H168.386V631.265H171.645V629.134H168.371V627.625H173.447V632.76ZM179.533 639.659H177.775V626.314H179.533V639.659ZM178.2 632.877H175.937V631.375H178.2V632.877ZM176.486 639.014H174.772V626.556H176.486V639.014Z" fill="black"/>
</g>
</g>
<g id="icon04" filter="url(#filter1_ddd_1788_9948)">
<rect x="520" y="616" width="120" height="120" rx="16" fill="white"/>
<g id="Frame 35467439">
<g id="Color/Credit card">
<path id="Rectangle" d="M603.614 647.513H556.375C555.443 647.513 554.688 648.249 554.688 649.156V681.025C554.688 681.933 555.443 682.669 556.375 682.669H603.614C604.546 682.669 605.302 681.933 605.302 681.025V649.156C605.302 648.249 604.546 647.513 603.614 647.513Z" fill="#CCD7EE"/>
<path id="Ellipse" d="M595.81 678.415C596.542 678.415 597.135 677.195 597.135 675.69C597.135 674.184 596.542 672.964 595.81 672.964C595.078 672.964 594.484 674.184 594.484 675.69C594.484 677.195 595.078 678.415 595.81 678.415Z" fill="white"/>
<path id="Rectangle_2" d="M605.278 658.264H554.712V663.362H605.278V658.264Z" fill="#253368"/>
<path id="Rectangle_3" d="M575.816 668.646H558.86C558.55 668.646 558.298 668.891 558.298 669.193V669.859C558.298 670.161 558.55 670.407 558.86 670.407H575.816C576.126 670.407 576.378 670.161 576.378 669.859V669.193C576.378 668.891 576.126 668.646 575.816 668.646Z" fill="#597EF7"/>
<path id="Rectangle_4" d="M568.64 673.928H558.86C558.55 673.928 558.298 674.174 558.298 674.476V675.142C558.298 675.444 558.55 675.69 558.86 675.69H568.64C568.951 675.69 569.203 675.444 569.203 675.142V674.476C569.203 674.174 568.951 673.928 568.64 673.928Z" fill="#597EF7"/>
<path id="Rectangle_5" d="M563.188 651.056H558.86C558.55 651.056 558.298 651.301 558.298 651.604V654.009C558.298 654.312 558.55 654.557 558.86 654.557H563.188C563.498 654.557 563.75 654.312 563.75 654.009V651.604C563.75 651.301 563.498 651.056 563.188 651.056Z" fill="white"/>
<path id="Path" d="M594.483 675.69C594.482 674.633 594.969 673.632 595.81 672.964C594.336 671.788 592.179 671.927 590.878 673.281C589.576 674.636 589.576 676.741 590.878 678.096C592.179 679.45 594.336 679.589 595.81 678.413C594.97 677.745 594.483 676.745 594.483 675.69Z" fill="#FF7946"/>
<path id="Path_2" d="M598.1 672.167C597.264 672.166 596.455 672.448 595.81 672.964C596.648 673.633 597.134 674.633 597.134 675.689C597.134 676.744 596.648 677.744 595.81 678.413C597.041 679.397 598.789 679.48 600.113 678.617C601.438 677.755 602.026 676.149 601.563 674.665C601.099 673.18 599.693 672.166 598.1 672.167Z" fill="#FAAD14"/>
</g>
<path id="&#236;&#160;&#132;&#236;&#158;&#144;&#234;&#178;&#176;&#236;&#160;&#156;" d="M564.252 703.302H561.088V701.786H564.252V703.302ZM565.131 708.077H563.271V698.344H565.131V708.077ZM565.453 711.432H556.283V709.923H565.453V711.432ZM558.158 710.802H556.283V707.22H558.158V710.802ZM558.546 700.929C558.546 701.793 558.407 702.601 558.129 703.353C557.855 704.1 557.436 704.757 556.869 705.323C556.308 705.89 555.614 706.31 554.789 706.583L553.822 705.074C554.53 704.85 555.124 704.525 555.602 704.1C556.081 703.671 556.435 703.185 556.664 702.643C556.898 702.096 557.018 701.525 557.023 700.929V700.065H558.546V700.929ZM558.927 700.944C558.927 701.486 559.04 702.01 559.264 702.518C559.494 703.021 559.835 703.478 560.29 703.888C560.749 704.298 561.317 704.613 561.996 704.833L561.073 706.312C560.268 706.049 559.589 705.646 559.037 705.104C558.49 704.562 558.08 703.937 557.807 703.229C557.538 702.516 557.406 701.754 557.411 700.944V700.065H558.927V700.944ZM561.586 700.739H554.35V699.237H561.586V700.739ZM571.461 701.954C571.461 702.98 571.314 703.971 571.021 704.928C570.733 705.88 570.306 706.73 569.74 707.477C569.178 708.224 568.504 708.783 567.718 709.154L566.619 707.682C567.337 707.345 567.948 706.869 568.45 706.254C568.958 705.638 569.339 704.96 569.593 704.218C569.847 703.475 569.976 702.721 569.981 701.954V700.402H571.461V701.954ZM571.856 701.954C571.851 702.662 571.973 703.365 572.222 704.064C572.471 704.762 572.84 705.404 573.328 705.99C573.822 706.571 574.42 707.023 575.123 707.345L574.083 708.81C573.297 708.453 572.625 707.919 572.069 707.206C571.517 706.493 571.097 705.682 570.809 704.774C570.521 703.861 570.377 702.921 570.377 701.954V700.402H571.856V701.954ZM574.544 701.141H567.154V699.618H574.544V701.141ZM577.452 711.659H575.577V698.314H577.452V711.659ZM579.429 704.979H577.042V703.419H579.429V704.979ZM591.209 705.038H589.348V698.314H591.209V705.038ZM586.917 698.842C586.912 700.013 586.68 701.031 586.221 701.896C585.767 702.755 585.083 703.47 584.17 704.042C583.262 704.613 582.129 705.048 580.772 705.345L580.134 703.829C581.228 703.61 582.127 703.307 582.83 702.921C583.538 702.531 584.055 702.079 584.382 701.566C584.714 701.049 584.88 700.475 584.88 699.845V698.842H586.917ZM585.65 700.343H580.881V698.842H585.65V700.343ZM589.568 701.427H586.389V700.006H589.568V701.427ZM589.495 704.012H586.294V702.592H589.495V704.012ZM591.209 709.169H584.236V710.853H582.368V707.784H589.326V706.986H582.346V705.521H591.209V709.169ZM591.502 711.527H582.368V710.048H591.502V711.527ZM604.533 711.659H602.775V698.314H604.533V711.659ZM600.549 704.408H598.3V702.906H600.549V704.408ZM601.808 711.051H600.058V698.549H601.808V711.051ZM596.843 701.896C596.838 702.936 596.73 703.925 596.52 704.862C596.31 705.8 595.983 706.644 595.539 707.396C595.1 708.148 594.54 708.732 593.862 709.147L592.734 707.77C593.359 707.384 593.874 706.881 594.279 706.261C594.684 705.636 594.977 704.955 595.158 704.218C595.339 703.475 595.429 702.701 595.429 701.896V700.497H596.843V701.896ZM597.231 701.896C597.231 702.682 597.319 703.427 597.495 704.13C597.67 704.833 597.954 705.477 598.344 706.063C598.74 706.644 599.247 707.113 599.868 707.469L598.776 708.839C598.093 708.439 597.534 707.885 597.099 707.177C596.664 706.469 596.347 705.67 596.147 704.781C595.952 703.888 595.854 702.926 595.854 701.896V700.497H597.231V701.896ZM599.252 701.178H593.239V699.684H599.252V701.178Z" fill="black"/>
</g>
</g>
<g id="icon03" filter="url(#filter2_ddd_1788_9948)">
<rect x="681" y="237" width="120" height="120" rx="16" fill="white"/>
<g id="Frame 35467437">
<g id="Color/File">
<path id="Path_3" d="M751.815 261.296H724.29C723.543 261.296 722.938 261.885 722.938 262.613V300.081H747.527C747.527 304.104 751.059 306.914 755.195 306.894C759.261 306.874 762.586 303.517 762.586 299.558V271.735H755.409C754.264 271.735 751.815 269.294 751.815 268.18V261.296Z" fill="#E4EBF7"/>
<path id="Path_4" d="M747.581 299.963H719.379C719.379 303.556 722.062 306.154 725.583 306.73L726.823 306.831L755.081 306.776C750.971 306.776 747.476 303.701 747.581 299.963Z" fill="#253368"/>
<path id="Rectangle_6" d="M735.062 264.81H728.905C728.614 264.81 728.378 265.04 728.378 265.323V271.32C728.378 271.604 728.614 271.834 728.905 271.834H735.062C735.353 271.834 735.589 271.604 735.589 271.32V265.323C735.589 265.04 735.353 264.81 735.062 264.81Z" fill="#597EF7"/>
<path id="Rectangle_7" d="M754.881 275.291H728.893C728.601 275.291 728.365 275.521 728.365 275.805V276.534C728.365 276.817 728.601 277.047 728.893 277.047H754.881C755.172 277.047 755.409 276.817 755.409 276.534V275.805C755.409 275.521 755.172 275.291 754.881 275.291Z" fill="#597EF7"/>
<path id="Rectangle_8" d="M754.881 280.579H728.893C728.601 280.579 728.365 280.809 728.365 281.092V281.821C728.365 282.105 728.601 282.335 728.893 282.335H754.881C755.172 282.335 755.409 282.105 755.409 281.821V281.092C755.409 280.809 755.172 280.579 754.881 280.579Z" fill="#597EF7"/>
<path id="Rectangle_9" d="M754.881 285.866H728.893C728.601 285.866 728.365 286.096 728.365 286.38V287.108C728.365 287.392 728.601 287.622 728.893 287.622H754.881C755.172 287.622 755.409 287.392 755.409 287.108V286.38C755.409 286.096 755.172 285.866 754.881 285.866Z" fill="#597EF7"/>
<path id="Path_5" opacity="0.6" d="M751.812 270.055V271.427C751.812 271.722 751.937 272.004 752.159 272.204C752.381 272.405 752.679 272.506 752.981 272.484L762.623 271.786L751.812 270.055Z" fill="#CCD7EE"/>
<path id="Path_6" d="M757.401 266.523L751.8 261.262L751.814 271.345C751.814 271.588 752.016 271.784 752.265 271.784H762.623L757.401 266.523Z" fill="#597EF7"/>
</g>
<path id="&#234;&#178;&#172;&#236;&#160;&#129;&#234;&#180;&#128;&#235;&#166;&#172;" d="M726.124 331.165H724.271V321.344H726.124V331.165ZM722.066 322.332C722.066 323.514 721.819 324.595 721.326 325.577C720.833 326.553 720.123 327.393 719.195 328.096C718.267 328.8 717.156 329.349 715.862 329.744L715.071 328.287C716.121 327.95 717.022 327.528 717.774 327.02C718.526 326.512 719.1 325.931 719.495 325.277C719.891 324.622 720.088 323.922 720.088 323.175V322.332H722.066ZM721.238 323.834H715.782V322.332H721.238V323.834ZM724.527 325.401H721.341V323.914H724.527V325.401ZM724.424 328.389H721.216V326.895H724.424V328.389ZM726.475 334.432H717.334V332.923H726.475V334.432ZM719.231 333.875H717.334V330.184H719.231V333.875ZM732.585 323.541C732.585 324.39 732.446 325.191 732.168 325.943C731.889 326.695 731.467 327.352 730.901 327.913C730.339 328.47 729.648 328.883 728.828 329.151L727.861 327.679C728.564 327.445 729.155 327.113 729.634 326.683C730.117 326.253 730.476 325.767 730.71 325.225C730.945 324.678 731.062 324.117 731.062 323.541V322.64H732.585V323.541ZM732.966 323.519C732.966 324.066 733.076 324.593 733.296 325.101C733.52 325.609 733.862 326.068 734.321 326.478C734.78 326.883 735.351 327.2 736.035 327.43L735.112 328.88C734.306 328.621 733.628 328.226 733.076 327.694C732.529 327.156 732.121 326.529 731.853 325.811C731.584 325.094 731.45 324.329 731.45 323.519V322.64H732.966V323.519ZM737.844 326.06H735.244V324.53H737.844V326.06ZM735.625 323.563H728.388V322.069H735.625V323.563ZM739.17 334.659H737.309V331.356H730.014V329.854H739.17V334.659ZM739.17 329.268H737.309V321.314H739.17V329.268ZM747.345 323.819H741.588V322.296H747.345V323.819ZM745.133 328.726H743.273V325.372H745.133V328.726ZM748.451 323.314C748.442 323.997 748.417 324.62 748.378 325.181C748.344 325.743 748.268 326.361 748.151 327.034L746.305 326.873C746.437 326.17 746.523 325.55 746.562 325.013C746.601 324.476 746.623 323.897 746.628 323.277V323.123V322.296H748.451V323.123V323.314ZM751.711 331.297H749.792V321.314H751.711V331.297ZM753.329 326.954H750.956V325.394H753.329V326.954ZM752.128 334.432H742.76V332.923H752.128V334.432ZM744.635 333.399H742.76V330.411H744.635V333.399ZM740.797 328.009C742.443 328.004 743.935 327.974 745.273 327.921C746.61 327.867 747.88 327.755 749.081 327.584L749.169 328.931C747.943 329.156 746.65 329.307 745.287 329.385C743.925 329.459 742.482 329.495 740.959 329.495L740.797 328.009ZM765.189 334.696H763.321V321.314H765.189V334.696ZM755.924 330.03C757.174 330.035 758.302 330.006 759.308 329.942C760.313 329.874 761.334 329.757 762.369 329.591L762.537 331.099C761.512 331.28 760.489 331.405 759.469 331.473C758.453 331.536 757.271 331.568 755.924 331.568H754.73V330.03H755.924ZM761.051 327.576H756.656V330.616H754.73V326.112H759.146V323.951H754.715V322.442H761.051V327.576Z" fill="black"/>
</g>
</g>
<g id="icon02" filter="url(#filter3_ddd_1788_9948)">
<rect x="386" y="6" width="120" height="120" rx="16" fill="white"/>
<g id="Frame 35467438">
<g id="img" filter="url(#filter4_dd_1788_9948)">
<path id="bg" d="M446.838 77.817C461.219 77.817 472.876 66.1595 472.876 51.7793C472.876 37.3991 461.219 25.7417 446.838 25.7417C432.458 25.7417 420.801 37.3991 420.801 51.7793C420.801 66.1595 432.458 77.817 446.838 77.817Z" fill="#FFD666"/>
<path id="bg_2" d="M446.838 77.817C461.219 77.817 472.876 66.1595 472.876 51.7793C472.876 37.3991 461.219 25.7417 446.838 25.7417C432.458 25.7417 420.801 37.3991 420.801 51.7793C420.801 66.1595 432.458 77.817 446.838 77.817Z" fill="url(#paint0_linear_1788_9948)"/>
<g id="Ellipse_2" filter="url(#filter5_i_1788_9948)">
<path d="M446.686 72.3123C458.11 72.3123 467.371 63.0513 467.371 51.6274C467.371 40.2034 458.11 30.9424 446.686 30.9424C435.262 30.9424 426.001 40.2034 426.001 51.6274C426.001 63.0513 435.262 72.3123 446.686 72.3123Z" fill="#FFC53D"/>
</g>
<g id="Frame 245">
<path id="0" d="M437.682 59.2344C436.268 59.2344 435.049 58.8945 434.025 58.2148C433.01 57.5273 432.229 56.5312 431.682 55.2266C431.143 53.9219 430.873 52.3516 430.873 50.5156C430.873 48.6875 431.143 47.1211 431.682 45.8164C432.229 44.5039 433.01 43.5078 434.025 42.8281C435.049 42.1406 436.268 41.7969 437.682 41.7969C439.088 41.7969 440.303 42.1406 441.326 42.8281C442.35 43.5078 443.135 44.5039 443.682 45.8164C444.229 47.1211 444.502 48.6875 444.502 50.5156C444.502 52.3594 444.229 53.9336 443.682 55.2383C443.143 56.543 442.361 57.5352 441.338 58.2148C440.314 58.8945 439.096 59.2344 437.682 59.2344ZM437.682 56.3281C438.346 56.3281 438.92 56.1133 439.404 55.6836C439.896 55.2539 440.268 54.6055 440.518 53.7383C440.775 52.8711 440.9 51.7969 440.893 50.5156C440.893 49.25 440.764 48.1836 440.506 47.3164C440.248 46.4414 439.877 45.7852 439.393 45.3477C438.908 44.9102 438.338 44.6914 437.682 44.6914C437.018 44.6914 436.447 44.9102 435.971 45.3477C435.494 45.7852 435.123 46.4414 434.857 47.3164C434.592 48.1836 434.459 49.25 434.459 50.5156C434.459 51.7969 434.592 52.8711 434.857 53.7383C435.123 54.6055 435.49 55.2539 435.959 55.6836C436.436 56.1133 437.01 56.3281 437.682 56.3281Z" fill="white"/>
<path id="&#236;&#155;&#144;" d="M453.764 55.041H451.254V51.1152H453.764V55.041ZM461.625 55.4707H459.125V42.043H461.625V55.4707ZM462.016 59.4941H448.754V57.4824H462.016V59.4941ZM451.264 58.0195H448.754V54.1816H451.264V58.0195ZM446.498 49.9238C448.868 49.9043 450.951 49.862 452.748 49.7969C454.545 49.7253 456.27 49.5853 457.924 49.377L458.051 51.1641C456.332 51.4505 454.532 51.6458 452.65 51.75C450.775 51.8477 448.822 51.8932 446.791 51.8867L446.498 49.9238ZM459.691 54.0547H455.727V52.3555H459.691V54.0547ZM452.279 42.6387C453.132 42.6387 453.897 42.7721 454.574 43.0391C455.251 43.306 455.779 43.6836 456.156 44.1719C456.534 44.6536 456.723 45.2038 456.723 45.8223C456.723 46.4538 456.534 47.0039 456.156 47.4727C455.779 47.9414 455.251 48.3092 454.574 48.5762C453.904 48.8366 453.139 48.9668 452.279 48.9668C451.407 48.9668 450.632 48.8366 449.955 48.5762C449.285 48.3092 448.76 47.9414 448.383 47.4727C448.005 47.0039 447.816 46.4538 447.816 45.8223C447.816 45.2038 448.005 44.6504 448.383 44.1621C448.76 43.6738 449.288 43.2995 449.965 43.0391C450.642 42.7721 451.413 42.6387 452.279 42.6387ZM452.279 44.4648C451.856 44.4648 451.488 44.5169 451.176 44.6211C450.863 44.7253 450.616 44.8815 450.434 45.0898C450.258 45.2917 450.173 45.5358 450.18 45.8223C450.173 46.1087 450.258 46.3529 450.434 46.5547C450.616 46.7565 450.863 46.9095 451.176 47.0137C451.488 47.1178 451.856 47.1699 452.279 47.1699C452.689 47.1699 453.048 47.1178 453.354 47.0137C453.666 46.9095 453.91 46.7565 454.086 46.5547C454.262 46.3529 454.35 46.1087 454.35 45.8223C454.35 45.5423 454.262 45.2982 454.086 45.0898C453.91 44.8815 453.666 44.7253 453.354 44.6211C453.048 44.5169 452.689 44.4648 452.279 44.4648Z" fill="white"/>
</g>
</g>
<path id="&#236;&#136;&#152;&#236;&#136;&#152;&#235;&#163;&#140; 0&#236;&#155;&#144;" d="M420.141 94.0576C420.141 94.9072 419.919 95.6982 419.475 96.4307C419.03 97.1582 418.388 97.771 417.548 98.269C416.713 98.7622 415.732 99.0894 414.604 99.2505L413.872 97.749C414.843 97.627 415.681 97.3755 416.384 96.9946C417.087 96.6138 417.614 96.167 417.966 95.6543C418.322 95.1367 418.5 94.6045 418.5 94.0576V93.4058H420.141V94.0576ZM420.463 94.0576C420.463 94.6045 420.644 95.1367 421.005 95.6543C421.372 96.167 421.904 96.6138 422.602 96.9946C423.305 97.3755 424.145 97.627 425.122 97.749L424.396 99.2505C423.259 99.0894 422.27 98.7622 421.43 98.269C420.595 97.771 419.953 97.1582 419.504 96.4307C419.055 95.7031 418.83 94.9121 418.83 94.0576V93.4058H420.463V94.0576ZM420.368 106.348H418.515V101.448H420.368V106.348ZM425.561 101.792H413.403V100.261H425.561V101.792ZM433.18 94.0576C433.18 94.9072 432.958 95.6982 432.513 96.4307C432.069 97.1582 431.427 97.771 430.587 98.269C429.752 98.7622 428.771 99.0894 427.643 99.2505L426.91 97.749C427.882 97.627 428.72 97.3755 429.423 96.9946C430.126 96.6138 430.653 96.167 431.005 95.6543C431.361 95.1367 431.539 94.6045 431.539 94.0576V93.4058H433.18V94.0576ZM433.502 94.0576C433.502 94.6045 433.683 95.1367 434.044 95.6543C434.41 96.167 434.943 96.6138 435.641 96.9946C436.344 97.3755 437.184 97.627 438.16 97.749L437.435 99.2505C436.298 99.0894 435.309 98.7622 434.469 98.269C433.634 97.771 432.992 97.1582 432.543 96.4307C432.094 95.7031 431.869 94.9121 431.869 94.0576V93.4058H433.502V94.0576ZM433.407 106.348H431.554V101.448H433.407V106.348ZM438.6 101.792H426.442V100.261H438.6V101.792ZM444.417 103.945H442.593V100.781H444.417V103.945ZM448.687 103.938H446.856V100.767H448.687V103.938ZM451.668 104.868H439.481V103.337H451.668V104.868ZM450.262 98.2983H442.747V100.576H440.887V96.8115H448.416V95.3833H440.865V93.8818H450.262V98.2983ZM450.577 101.294H440.887V99.7778H450.577V101.294ZM460.614 105.146C459.731 105.146 458.969 104.934 458.329 104.509C457.695 104.08 457.206 103.457 456.864 102.642C456.528 101.826 456.359 100.845 456.359 99.6973C456.359 98.5547 456.528 97.5757 456.864 96.7603C457.206 95.9399 457.695 95.3174 458.329 94.8926C458.969 94.4629 459.731 94.248 460.614 94.248C461.493 94.248 462.253 94.4629 462.892 94.8926C463.532 95.3174 464.023 95.9399 464.364 96.7603C464.706 97.5757 464.877 98.5547 464.877 99.6973C464.877 100.85 464.706 101.833 464.364 102.649C464.028 103.464 463.539 104.084 462.9 104.509C462.26 104.934 461.498 105.146 460.614 105.146ZM460.614 103.33C461.029 103.33 461.388 103.196 461.691 102.927C461.999 102.659 462.231 102.253 462.387 101.711C462.548 101.169 462.626 100.498 462.621 99.6973C462.621 98.9062 462.541 98.2397 462.38 97.6978C462.218 97.1509 461.987 96.7407 461.684 96.4673C461.381 96.1938 461.025 96.0571 460.614 96.0571C460.199 96.0571 459.843 96.1938 459.545 96.4673C459.247 96.7407 459.015 97.1509 458.849 97.6978C458.683 98.2397 458.6 98.9062 458.6 99.6973C458.6 100.498 458.683 101.169 458.849 101.711C459.015 102.253 459.245 102.659 459.538 102.927C459.836 103.196 460.195 103.33 460.614 103.33ZM471.434 102.781H469.552V99.8364H471.434V102.781ZM477.33 103.103H475.455V93.0322H477.33V103.103ZM477.623 106.121H467.677V104.612H477.623V106.121ZM469.559 105.015H467.677V102.136H469.559V105.015ZM465.985 98.9429C467.762 98.9282 469.325 98.8965 470.672 98.8477C472.02 98.7939 473.314 98.689 474.554 98.5327L474.649 99.873C473.36 100.088 472.01 100.234 470.599 100.312C469.193 100.386 467.728 100.42 466.205 100.415L465.985 98.9429ZM475.88 102.041H472.906V100.767H475.88V102.041ZM470.321 93.479C470.96 93.479 471.534 93.5791 472.042 93.7793C472.55 93.9795 472.945 94.2627 473.229 94.6289C473.512 94.9902 473.653 95.4028 473.653 95.8667C473.653 96.3403 473.512 96.7529 473.229 97.1045C472.945 97.4561 472.55 97.7319 472.042 97.9321C471.539 98.1274 470.965 98.2251 470.321 98.2251C469.667 98.2251 469.085 98.1274 468.578 97.9321C468.075 97.7319 467.682 97.4561 467.398 97.1045C467.115 96.7529 466.974 96.3403 466.974 95.8667C466.974 95.4028 467.115 94.9878 467.398 94.6216C467.682 94.2554 468.077 93.9746 468.585 93.7793C469.093 93.5791 469.671 93.479 470.321 93.479ZM470.321 94.8486C470.003 94.8486 469.728 94.8877 469.493 94.9658C469.259 95.0439 469.073 95.1611 468.937 95.3174C468.805 95.4688 468.741 95.6519 468.746 95.8667C468.741 96.0815 468.805 96.2646 468.937 96.416C469.073 96.5674 469.259 96.6821 469.493 96.7603C469.728 96.8384 470.003 96.8774 470.321 96.8774C470.628 96.8774 470.897 96.8384 471.126 96.7603C471.361 96.6821 471.544 96.5674 471.676 96.416C471.808 96.2646 471.874 96.0815 471.874 95.8667C471.874 95.6567 471.808 95.4736 471.676 95.3174C471.544 95.1611 471.361 95.0439 471.126 94.9658C470.897 94.8877 470.628 94.8486 470.321 94.8486Z" fill="black"/>
</g>
</g>
<g id="icon01" filter="url(#filter6_ddd_1788_9948)">
<rect x="24" y="177" width="120" height="120" rx="16" fill="white"/>
<g id="Frame 35467436">
<g id="Color/Dialog window pops">
<path id="Vector_2" fill-rule="evenodd" clip-rule="evenodd" d="M87.8602 224.627C82.6411 224.627 78.4102 228.748 78.4102 233.832V233.855C78.4102 238.939 82.6411 243.06 87.8602 243.06H101.796C102.317 243.06 102.827 243.019 103.325 242.94L106.025 245.48C106.098 245.549 106.197 245.588 106.299 245.588C106.516 245.588 106.692 245.416 106.692 245.204L106.693 241.729C109.422 240.115 111.246 237.193 111.246 233.855V233.832C111.246 228.748 107.015 224.627 101.796 224.627H87.8602Z" fill="#253368"/>
<path id="Rectangle_10" d="M90.1523 202.575H70.2539C62.7981 202.575 56.7539 208.462 56.7539 215.724C56.7539 222.986 62.7981 228.873 70.2539 228.873H90.1523C97.6082 228.873 103.652 222.986 103.652 215.724C103.652 208.462 97.6082 202.575 90.1523 202.575Z" fill="#597EF7"/>
<path id="Path_7" fill-rule="evenodd" clip-rule="evenodd" d="M63.2578 225.048V231.932C63.2578 232.235 63.5097 232.48 63.8203 232.48C63.966 232.48 64.106 232.425 64.2109 232.326L69.4043 227.446L63.2578 225.048Z" fill="#597EF7"/>
<path id="Ellipse_3" d="M71.168 217.368C72.3718 217.368 73.3477 216.417 73.3477 215.245C73.3477 214.072 72.3718 213.122 71.168 213.122C69.9642 213.122 68.9883 214.072 68.9883 215.245C68.9883 216.417 69.9642 217.368 71.168 217.368Z" fill="white"/>
<path id="Ellipse_4" d="M80.0977 217.368C81.3015 217.368 82.2773 216.417 82.2773 215.245C82.2773 214.072 81.3015 213.122 80.0977 213.122C78.8938 213.122 77.918 214.072 77.918 215.245C77.918 216.417 78.8938 217.368 80.0977 217.368Z" fill="white"/>
<path id="Ellipse_5" d="M89.2383 217.368C90.4421 217.368 91.418 216.417 91.418 215.245C91.418 214.072 90.4421 213.122 89.2383 213.122C88.0345 213.122 87.0586 214.072 87.0586 215.245C87.0586 216.417 88.0345 217.368 89.2383 217.368Z" fill="white"/>
</g>
<path id="&#236;&#177;&#132;&#237;&#140;&#133;&#235;&#172;&#184;&#236;&#157;&#152;" d="M61.7041 265.357C61.7041 266.324 61.5991 267.244 61.3892 268.118C61.1792 268.988 60.8521 269.771 60.4077 270.469C59.9634 271.163 59.3994 271.702 58.7158 272.088L57.6538 270.697C58.269 270.35 58.772 269.893 59.1626 269.327C59.5532 268.76 59.8389 268.14 60.0195 267.467C60.2051 266.793 60.2979 266.09 60.2979 265.357V264.976H61.7041V265.357ZM62.0483 265.357C62.0483 266.07 62.1387 266.746 62.3193 267.386C62.5 268.021 62.7856 268.604 63.1763 269.136C63.5718 269.664 64.0771 270.089 64.6924 270.411L63.6523 271.781C62.9639 271.424 62.3926 270.919 61.9385 270.264C61.4893 269.61 61.1621 268.868 60.957 268.038C60.752 267.208 60.6494 266.314 60.6494 265.357V264.976H62.0483V265.357ZM64.231 265.108H58.0933V263.592H64.231V265.108ZM62.041 264.793H60.2979V261.783H62.041V264.793ZM69.5337 274.659H67.7393V261.314H69.5337V274.659ZM68.3472 267.987H66.0986V266.47H68.3472V267.987ZM66.604 274.044H64.8389V261.519H66.604V274.044ZM73.4832 267.305C74.8602 267.301 75.9368 267.281 76.7132 267.247C77.4896 267.208 78.2732 267.125 79.0643 266.998L79.2474 268.463C78.3685 268.604 77.4749 268.697 76.5667 268.741C75.6585 268.785 74.4085 268.807 72.8167 268.807H71.6668V267.305H72.8167H73.4832ZM78.1268 263.746H73.5491V267.943H71.6668V262.259H78.1268V263.746ZM77.7386 266.236H72.9705V264.786H77.7386V266.236ZM82.0892 269.415H80.2215V261.344H82.0892V269.415ZM77.5628 269.591C78.5003 269.591 79.3133 269.691 80.0018 269.891C80.6902 270.091 81.22 270.382 81.5911 270.762C81.9671 271.143 82.1551 271.6 82.1551 272.132C82.1551 272.659 81.9671 273.111 81.5911 273.487C81.22 273.868 80.6902 274.158 80.0018 274.359C79.3182 274.559 78.5052 274.659 77.5628 274.659C76.6155 274.659 75.7977 274.561 75.1092 274.366C74.4207 274.171 73.8909 273.88 73.5198 273.494C73.1536 273.114 72.9705 272.659 72.9705 272.132C72.9705 271.6 73.1536 271.143 73.5198 270.762C73.8909 270.382 74.4183 270.091 75.1019 269.891C75.7903 269.691 76.6106 269.591 77.5628 269.591ZM77.5628 271.033C76.9671 271.033 76.4666 271.075 76.0613 271.158C75.6561 271.236 75.3509 271.358 75.1458 271.524C74.9407 271.685 74.8382 271.888 74.8382 272.132C74.8382 272.371 74.9407 272.574 75.1458 272.74C75.3509 272.901 75.6561 273.026 76.0613 273.114C76.4666 273.197 76.9671 273.238 77.5628 273.238C78.1536 273.238 78.6517 273.197 79.0569 273.114C79.4622 273.026 79.7698 272.901 79.9798 272.74C80.1897 272.574 80.2947 272.371 80.2947 272.132C80.2947 271.893 80.1897 271.69 79.9798 271.524C79.7698 271.358 79.4622 271.236 79.0569 271.158C78.6517 271.075 78.1536 271.033 77.5628 271.033ZM96.1534 269.407H83.9659V267.913H96.1534V269.407ZM91.1437 271.707H89.2979V268.851H91.1437V271.707ZM94.6007 266.822H85.482V261.915H94.6007V266.822ZM87.3131 265.365H92.7623V263.358H87.3131V265.365ZM94.8131 274.432H85.3868V272.923H94.8131V274.432ZM87.2618 273.421H85.3868V270.543H87.2618V273.421ZM101.333 262.215C102.032 262.215 102.662 262.357 103.223 262.64C103.785 262.918 104.224 263.306 104.541 263.804C104.864 264.298 105.025 264.859 105.025 265.489C105.025 266.119 104.864 266.683 104.541 267.181C104.224 267.674 103.785 268.062 103.223 268.345C102.666 268.624 102.037 268.763 101.333 268.763C100.64 268.763 100.01 268.624 99.4437 268.345C98.8773 268.062 98.433 267.674 98.1107 267.181C97.7885 266.683 97.6273 266.119 97.6273 265.489C97.6273 264.859 97.7885 264.298 98.1107 263.804C98.433 263.306 98.8773 262.918 99.4437 262.64C100.01 262.357 100.64 262.215 101.333 262.215ZM101.333 263.826C100.977 263.826 100.66 263.892 100.381 264.024C100.103 264.156 99.8832 264.349 99.7221 264.603C99.5609 264.852 99.4804 265.147 99.4804 265.489C99.4804 265.836 99.5609 266.134 99.7221 266.383C99.8832 266.627 100.103 266.817 100.381 266.954C100.66 267.086 100.977 267.152 101.333 267.152C101.69 267.152 102.01 267.086 102.293 266.954C102.581 266.817 102.803 266.627 102.959 266.383C103.121 266.134 103.201 265.836 103.201 265.489C103.201 265.147 103.121 264.852 102.959 264.603C102.803 264.349 102.581 264.156 102.293 264.024C102.01 263.892 101.69 263.826 101.333 263.826ZM108.211 274.696H106.358V261.314H108.211V274.696ZM97.2758 270.448C98.8725 270.443 100.352 270.411 101.714 270.352C103.077 270.294 104.373 270.184 105.603 270.023L105.735 271.363C104.832 271.539 103.89 271.671 102.908 271.759C101.927 271.846 101.004 271.903 100.14 271.927C99.2802 271.951 98.3305 271.964 97.2904 271.964L97.0707 270.448H97.2758Z" fill="black"/>
</g>
</g>
</g>
<defs>
<filter id="filter0_ddd_1788_9948" x="83" y="536" width="144" height="144" filterUnits="userSpaceOnUse" color-interpolation-filters="sRGB">
<feFlood flood-opacity="0" result="BackgroundImageFix"/>
<feColorMatrix in="SourceAlpha" type="matrix" values="0 0 0 0 0 0 0 0 0 0 0 0 0 0 0 0 0 0 127 0" result="hardAlpha"/>
<feOffset dy="6"/>
<feGaussianBlur stdDeviation="6"/>
<feColorMatrix type="matrix" values="0 0 0 0 0.0562384 0 0 0 0 0.121895 0 0 0 0 0.209437 0 0 0 0.08 0"/>
<feBlend mode="normal" in2="BackgroundImageFix" result="effect1_dropShadow_1788_9948"/>
<feColorMatrix in="SourceAlpha" type="matrix" values="0 0 0 0 0 0 0 0 0 0 0 0 0 0 0 0 0 0 127 0" result="hardAlpha"/>
<feOffset dy="4"/>
<feGaussianBlur stdDeviation="4"/>
<feColorMatrix type="matrix" values="0 0 0 0 0.0562384 0 0 0 0 0.121895 0 0 0 0 0.209437 0 0 0 0.1 0"/>
<feBlend mode="normal" in2="effect1_dropShadow_1788_9948" result="effect2_dropShadow_1788_9948"/>
<feColorMatrix in="SourceAlpha" type="matrix" values="0 0 0 0 0 0 0 0 0 0 0 0 0 0 0 0 0 0 127 0" result="hardAlpha"/>
<feOffset dy="1"/>
<feGaussianBlur stdDeviation="2"/>
<feColorMatrix type="matrix" values="0 0 0 0 0.0562384 0 0 0 0 0.121895 0 0 0 0 0.209437 0 0 0 0.12 0"/>
<feBlend mode="normal" in2="effect2_dropShadow_1788_9948" result="effect3_dropShadow_1788_9948"/>
<feBlend mode="normal" in="SourceGraphic" in2="effect3_dropShadow_1788_9948" result="shape"/>
</filter>
<filter id="filter1_ddd_1788_9948" x="508" y="610" width="144" height="144" filterUnits="userSpaceOnUse" color-interpolation-filters="sRGB">
<feFlood flood-opacity="0" result="BackgroundImageFix"/>
<feColorMatrix in="SourceAlpha" type="matrix" values="0 0 0 0 0 0 0 0 0 0 0 0 0 0 0 0 0 0 127 0" result="hardAlpha"/>
<feOffset dy="6"/>
<feGaussianBlur stdDeviation="6"/>
<feColorMatrix type="matrix" values="0 0 0 0 0.0562384 0 0 0 0 0.121895 0 0 0 0 0.209437 0 0 0 0.08 0"/>
<feBlend mode="normal" in2="BackgroundImageFix" result="effect1_dropShadow_1788_9948"/>
<feColorMatrix in="SourceAlpha" type="matrix" values="0 0 0 0 0 0 0 0 0 0 0 0 0 0 0 0 0 0 127 0" result="hardAlpha"/>
<feOffset dy="4"/>
<feGaussianBlur stdDeviation="4"/>
<feColorMatrix type="matrix" values="0 0 0 0 0.0562384 0 0 0 0 0.121895 0 0 0 0 0.209437 0 0 0 0.1 0"/>
<feBlend mode="normal" in2="effect1_dropShadow_1788_9948" result="effect2_dropShadow_1788_9948"/>
<feColorMatrix in="SourceAlpha" type="matrix" values="0 0 0 0 0 0 0 0 0 0 0 0 0 0 0 0 0 0 127 0" result="hardAlpha"/>
<feOffset dy="1"/>
<feGaussianBlur stdDeviation="2"/>
<feColorMatrix type="matrix" values="0 0 0 0 0.0562384 0 0 0 0 0.121895 0 0 0 0 0.209437 0 0 0 0.12 0"/>
<feBlend mode="normal" in2="effect2_dropShadow_1788_9948" result="effect3_dropShadow_1788_9948"/>
<feBlend mode="normal" in="SourceGraphic" in2="effect3_dropShadow_1788_9948" result="shape"/>
</filter>
<filter id="filter2_ddd_1788_9948" x="669" y="231" width="144" height="144" filterUnits="userSpaceOnUse" color-interpolation-filters="sRGB">
<feFlood flood-opacity="0" result="BackgroundImageFix"/>
<feColorMatrix in="SourceAlpha" type="matrix" values="0 0 0 0 0 0 0 0 0 0 0 0 0 0 0 0 0 0 127 0" result="hardAlpha"/>
<feOffset dy="6"/>
<feGaussianBlur stdDeviation="6"/>
<feColorMatrix type="matrix" values="0 0 0 0 0.0562384 0 0 0 0 0.121895 0 0 0 0 0.209437 0 0 0 0.08 0"/>
<feBlend mode="normal" in2="BackgroundImageFix" result="effect1_dropShadow_1788_9948"/>
<feColorMatrix in="SourceAlpha" type="matrix" values="0 0 0 0 0 0 0 0 0 0 0 0 0 0 0 0 0 0 127 0" result="hardAlpha"/>
<feOffset dy="4"/>
<feGaussianBlur stdDeviation="4"/>
<feColorMatrix type="matrix" values="0 0 0 0 0.0562384 0 0 0 0 0.121895 0 0 0 0 0.209437 0 0 0 0.1 0"/>
<feBlend mode="normal" in2="effect1_dropShadow_1788_9948" result="effect2_dropShadow_1788_9948"/>
<feColorMatrix in="SourceAlpha" type="matrix" values="0 0 0 0 0 0 0 0 0 0 0 0 0 0 0 0 0 0 127 0" result="hardAlpha"/>
<feOffset dy="1"/>
<feGaussianBlur stdDeviation="2"/>
<feColorMatrix type="matrix" values="0 0 0 0 0.0562384 0 0 0 0 0.121895 0 0 0 0 0.209437 0 0 0 0.12 0"/>
<feBlend mode="normal" in2="effect2_dropShadow_1788_9948" result="effect3_dropShadow_1788_9948"/>
<feBlend mode="normal" in="SourceGraphic" in2="effect3_dropShadow_1788_9948" result="shape"/>
</filter>
<filter id="filter3_ddd_1788_9948" x="374" y="0" width="144" height="144" filterUnits="userSpaceOnUse" color-interpolation-filters="sRGB">
<feFlood flood-opacity="0" result="BackgroundImageFix"/>
<feColorMatrix in="SourceAlpha" type="matrix" values="0 0 0 0 0 0 0 0 0 0 0 0 0 0 0 0 0 0 127 0" result="hardAlpha"/>
<feOffset dy="6"/>
<feGaussianBlur stdDeviation="6"/>
<feColorMatrix type="matrix" values="0 0 0 0 0.0562384 0 0 0 0 0.121895 0 0 0 0 0.209437 0 0 0 0.08 0"/>
<feBlend mode="normal" in2="BackgroundImageFix" result="effect1_dropShadow_1788_9948"/>
<feColorMatrix in="SourceAlpha" type="matrix" values="0 0 0 0 0 0 0 0 0 0 0 0 0 0 0 0 0 0 127 0" result="hardAlpha"/>
<feOffset dy="4"/>
<feGaussianBlur stdDeviation="4"/>
<feColorMatrix type="matrix" values="0 0 0 0 0.0562384 0 0 0 0 0.121895 0 0 0 0 0.209437 0 0 0 0.1 0"/>
<feBlend mode="normal" in2="effect1_dropShadow_1788_9948" result="effect2_dropShadow_1788_9948"/>
<feColorMatrix in="SourceAlpha" type="matrix" values="0 0 0 0 0 0 0 0 0 0 0 0 0 0 0 0 0 0 127 0" result="hardAlpha"/>
<feOffset dy="1"/>
<feGaussianBlur stdDeviation="2"/>
<feColorMatrix type="matrix" values="0 0 0 0 0.0562384 0 0 0 0 0.121895 0 0 0 0 0.209437 0 0 0 0.12 0"/>
<feBlend mode="normal" in2="effect2_dropShadow_1788_9948" result="effect3_dropShadow_1788_9948"/>
<feBlend mode="normal" in="SourceGraphic" in2="effect3_dropShadow_1788_9948" result="shape"/>
</filter>
<filter id="filter4_dd_1788_9948" x="408" y="17" width="76" height="76" filterUnits="userSpaceOnUse" color-interpolation-filters="sRGB">
<feFlood flood-opacity="0" result="BackgroundImageFix"/>
<feColorMatrix in="SourceAlpha" type="matrix" values="0 0 0 0 0 0 0 0 0 0 0 0 0 0 0 0 0 0 127 0" result="hardAlpha"/>
<feOffset dy="4"/>
<feGaussianBlur stdDeviation="4"/>
<feColorMatrix type="matrix" values="0 0 0 0 0.0562384 0 0 0 0 0.121895 0 0 0 0 0.209437 0 0 0 0.08 0"/>
<feBlend mode="normal" in2="BackgroundImageFix" result="effect1_dropShadow_1788_9948"/>
<feColorMatrix in="SourceAlpha" type="matrix" values="0 0 0 0 0 0 0 0 0 0 0 0 0 0 0 0 0 0 127 0" result="hardAlpha"/>
<feOffset dy="1"/>
<feGaussianBlur stdDeviation="2"/>
<feColorMatrix type="matrix" values="0 0 0 0 0.0562384 0 0 0 0 0.121895 0 0 0 0 0.209437 0 0 0 0.12 0"/>
<feBlend mode="normal" in2="effect1_dropShadow_1788_9948" result="effect2_dropShadow_1788_9948"/>
<feBlend mode="normal" in="SourceGraphic" in2="effect2_dropShadow_1788_9948" result="shape"/>
</filter>
<filter id="filter5_i_1788_9948" x="425.001" y="30.9424" width="42.3701" height="42.3699" filterUnits="userSpaceOnUse" color-interpolation-filters="sRGB">
<feFlood flood-opacity="0" result="BackgroundImageFix"/>
<feBlend mode="normal" in="SourceGraphic" in2="BackgroundImageFix" result="shape"/>
<feColorMatrix in="SourceAlpha" type="matrix" values="0 0 0 0 0 0 0 0 0 0 0 0 0 0 0 0 0 0 127 0" result="hardAlpha"/>
<feOffset dx="-1" dy="1"/>
<feGaussianBlur stdDeviation="2"/>
<feComposite in2="hardAlpha" operator="arithmetic" k2="-1" k3="1"/>
<feColorMatrix type="matrix" values="0 0 0 0 0 0 0 0 0 0 0 0 0 0 0 0 0 0 0.1 0"/>
<feBlend mode="normal" in2="shape" result="effect1_innerShadow_1788_9948"/>
</filter>
<filter id="filter6_ddd_1788_9948" x="12" y="171" width="144" height="144" filterUnits="userSpaceOnUse" color-interpolation-filters="sRGB">
<feFlood flood-opacity="0" result="BackgroundImageFix"/>
<feColorMatrix in="SourceAlpha" type="matrix" values="0 0 0 0 0 0 0 0 0 0 0 0 0 0 0 0 0 0 127 0" result="hardAlpha"/>
<feOffset dy="6"/>
<feGaussianBlur stdDeviation="6"/>
<feColorMatrix type="matrix" values="0 0 0 0 0.0562384 0 0 0 0 0.121895 0 0 0 0 0.209437 0 0 0 0.08 0"/>
<feBlend mode="normal" in2="BackgroundImageFix" result="effect1_dropShadow_1788_9948"/>
<feColorMatrix in="SourceAlpha" type="matrix" values="0 0 0 0 0 0 0 0 0 0 0 0 0 0 0 0 0 0 127 0" result="hardAlpha"/>
<feOffset dy="4"/>
<feGaussianBlur stdDeviation="4"/>
<feColorMatrix type="matrix" values="0 0 0 0 0.0562384 0 0 0 0 0.121895 0 0 0 0 0.209437 0 0 0 0.1 0"/>
<feBlend mode="normal" in2="effect1_dropShadow_1788_9948" result="effect2_dropShadow_1788_9948"/>
<feColorMatrix in="SourceAlpha" type="matrix" values="0 0 0 0 0 0 0 0 0 0 0 0 0 0 0 0 0 0 127 0" result="hardAlpha"/>
<feOffset dy="1"/>
<feGaussianBlur stdDeviation="2"/>
<feColorMatrix type="matrix" values="0 0 0 0 0.0562384 0 0 0 0 0.121895 0 0 0 0 0.209437 0 0 0 0.12 0"/>
<feBlend mode="normal" in2="effect2_dropShadow_1788_9948" result="effect3_dropShadow_1788_9948"/>
<feBlend mode="normal" in="SourceGraphic" in2="effect3_dropShadow_1788_9948" result="shape"/>
</filter>
<linearGradient id="paint0_linear_1788_9948" x1="424.625" y1="37.125" x2="467" y2="68.25" gradientUnits="userSpaceOnUse">
<stop stop-color="#FEFEFE"/>
<stop offset="1" stop-color="#FFD666" stop-opacity="0"/>
</linearGradient>
</defs>
</svg>
